<svg width="276" height="276" viewBox="0 0 276 276" fill="none" xmlns="http://www.w3.org/2000/svg">
<g clip-path="url(#clip0)">
<path opacity="0.34" d="M138 245C202.617 245 255 242.265 255 238.892C255 235.519 202.617 232.785 138 232.785C73.3827 232.785 21 235.519 21 238.892C21 242.265 73.3827 245 138 245Z" fill="#0033A0"/>
<path d="M165.807 101.066L238.092 101.066L238.092 90.5517L165.807 90.5517L165.807 101.066Z" fill="#E3E829"/>
<path d="M165.844 101.066L199.979 101.066L199.979 90.5517L165.844 90.5517L165.844 101.066Z" fill="#DFC125"/>
<path d="M233.371 101.066L234.684 101.066L234.684 90.5517L233.371 90.5517L233.371 101.066Z" fill="#DFC125"/>
<path d="M207.844 101.066L209.157 101.066L209.157 90.5517L207.844 90.5517L207.844 101.066Z" fill="#DFC125"/>
<path d="M216.327 101.066L217.64 101.066L217.64 90.5517L216.327 90.5517L216.327 101.066Z" fill="#DFC125"/>
<path d="M224.888 101.066H226.201V90.5517H224.888V101.066Z" fill="#DFC125"/>
<path d="M229.168 101.066L230.481 101.066L230.481 90.5517L229.168 90.5517L229.168 101.066Z" fill="#DFC125"/>
<path d="M220.607 101.066H221.92V90.5517H220.607V101.066Z" fill="#DFC125"/>
<path d="M212.124 101.066H213.437V90.5517H212.124V101.066Z" fill="#DFC125"/>
<path d="M203.564 101.066L204.877 101.066L204.877 90.5517L203.564 90.5517L203.564 101.066Z" fill="#DFC125"/>
<path d="M165.807 101.116L238.092 101.116L238.092 99.8016L165.807 99.8016L165.807 101.116Z" fill="#DFC125"/>
<path d="M168.039 111.562L240.324 111.562L240.324 101.047L168.039 101.047L168.039 111.562Z" fill="#E3E829"/>
<path d="M168.076 111.562L202.21 111.562L202.21 101.047L168.076 101.047L168.076 111.562Z" fill="#DFC125"/>
<path d="M235.68 111.562L236.993 111.562L236.993 101.047L235.68 101.047L235.68 111.562Z" fill="#DFC125"/>
<path d="M210.076 111.562L211.388 111.562L211.388 101.047L210.076 101.047L210.076 111.562Z" fill="#DFC125"/>
<path d="M218.636 111.562L219.949 111.562L219.949 101.047L218.636 101.047L218.636 111.562Z" fill="#DFC125"/>
<path d="M227.119 111.562H228.432V101.047H227.119V111.562Z" fill="#DFC125"/>
<path d="M231.4 111.562H232.713V101.047H231.4V111.562Z" fill="#DFC125"/>
<path d="M222.916 111.562L224.229 111.562L224.229 101.047L222.916 101.047L222.916 111.562Z" fill="#DFC125"/>
<path d="M214.356 111.562L215.669 111.562L215.669 101.047L214.356 101.047L214.356 111.562Z" fill="#DFC125"/>
<path d="M205.795 111.562L207.108 111.562L207.108 101.047L205.795 101.047L205.795 111.562Z" fill="#DFC125"/>
<path d="M168.039 111.612L240.324 111.612L240.324 110.297L168.039 110.297L168.039 111.612Z" fill="#DFC125"/>
<path d="M168.039 122.135L240.324 122.135L240.324 111.62L168.039 111.62L168.039 122.135Z" fill="#E3E829"/>
<path d="M168.076 122.135L202.21 122.135L202.21 111.62L168.076 111.62L168.076 122.135Z" fill="#DFC125"/>
<path d="M235.68 122.135L236.993 122.135L236.993 111.62L235.68 111.62L235.68 122.135Z" fill="#DFC125"/>
<path d="M210.076 122.135L211.388 122.135L211.388 111.62L210.076 111.62L210.076 122.135Z" fill="#DFC125"/>
<path d="M218.636 122.135L219.949 122.135L219.949 111.62L218.636 111.62L218.636 122.135Z" fill="#DFC125"/>
<path d="M227.119 122.135H228.432V111.62H227.119V122.135Z" fill="#DFC125"/>
<path d="M231.4 122.135H232.713V111.62H231.4V122.135Z" fill="#DFC125"/>
<path d="M222.916 122.135L224.229 122.135L224.229 111.62L222.916 111.62L222.916 122.135Z" fill="#DFC125"/>
<path d="M214.356 122.135L215.669 122.135L215.669 111.62L214.356 111.62L214.356 122.135Z" fill="#DFC125"/>
<path d="M205.795 122.135L207.108 122.135L207.108 111.62L205.795 111.62L205.795 122.135Z" fill="#DFC125"/>
<path d="M168.039 122.107L240.324 122.107L240.324 120.793L168.039 120.793L168.039 122.107Z" fill="#DFC125"/>
<path d="M168.039 132.63L240.324 132.63L240.324 122.116L168.039 122.116L168.039 132.63Z" fill="#E3E829"/>
<path d="M168.076 132.63L202.21 132.63L202.21 122.116L168.076 122.116L168.076 132.63Z" fill="#DFC125"/>
<path d="M235.68 132.63L236.993 132.63L236.993 122.116L235.68 122.116L235.68 132.63Z" fill="#DFC125"/>
<path d="M210.076 132.63L211.388 132.63L211.388 122.116L210.076 122.116L210.076 132.63Z" fill="#DFC125"/>
<path d="M218.636 132.63L219.949 132.63L219.949 122.116L218.636 122.116L218.636 132.63Z" fill="#DFC125"/>
<path d="M227.119 132.63H228.432V122.116H227.119V132.63Z" fill="#DFC125"/>
<path d="M231.4 132.63H232.713V122.116H231.4V132.63Z" fill="#DFC125"/>
<path d="M222.916 132.63L224.229 132.63L224.229 122.116L222.916 122.116L222.916 132.63Z" fill="#DFC125"/>
<path d="M214.356 132.63L215.669 132.63L215.669 122.116L214.356 122.116L214.356 132.63Z" fill="#DFC125"/>
<path d="M205.795 132.63L207.108 132.63L207.108 122.116L205.795 122.116L205.795 132.63Z" fill="#DFC125"/>
<path d="M168.039 132.603L240.324 132.603L240.324 131.288L168.039 131.288L168.039 132.603Z" fill="#DFC125"/>
<path d="M168.039 143.126L240.324 143.126L240.324 132.611L168.039 132.611L168.039 143.126Z" fill="#E3E829"/>
<path d="M168.076 143.126L202.21 143.126L202.21 132.611L168.076 132.611L168.076 143.126Z" fill="#DFC125"/>
<path d="M235.68 143.126L236.993 143.126L236.993 132.611L235.68 132.611L235.68 143.126Z" fill="#DFC125"/>
<path d="M210.076 143.126L211.388 143.126L211.388 132.611L210.076 132.611L210.076 143.126Z" fill="#DFC125"/>
<path d="M218.636 143.126L219.949 143.126L219.949 132.611L218.636 132.611L218.636 143.126Z" fill="#DFC125"/>
<path d="M227.119 143.126H228.432V132.611H227.119V143.126Z" fill="#DFC125"/>
<path d="M231.4 143.126H232.713V132.611H231.4V143.126Z" fill="#DFC125"/>
<path d="M222.916 143.126L224.229 143.126L224.229 132.611L222.916 132.611L222.916 143.126Z" fill="#DFC125"/>
<path d="M214.356 143.126L215.669 143.126L215.669 132.611L214.356 132.611L214.356 143.126Z" fill="#DFC125"/>
<path d="M205.795 143.126L207.108 143.126L207.108 132.611L205.795 132.611L205.795 143.126Z" fill="#DFC125"/>
<path d="M168.039 143.098L240.324 143.098L240.324 141.784L168.039 141.784L168.039 143.098Z" fill="#DFC125"/>
<path d="M165.806 153.621L238.091 153.621L238.091 143.107L165.806 143.107L165.806 153.621Z" fill="#E3E829"/>
<path d="M165.843 153.621L199.977 153.621L199.977 143.107L165.843 143.107L165.843 153.621Z" fill="#DFC125"/>
<path d="M233.369 153.621L234.682 153.621L234.682 143.107L233.369 143.107L233.369 153.621Z" fill="#DFC125"/>
<path d="M207.842 153.621L209.155 153.621L209.155 143.107L207.842 143.107L207.842 153.621Z" fill="#DFC125"/>
<path d="M216.326 153.621L217.638 153.621L217.638 143.107L216.326 143.107L216.326 153.621Z" fill="#DFC125"/>
<path d="M224.886 153.621H226.199V143.107H224.886V153.621Z" fill="#DFC125"/>
<path d="M229.166 153.621L230.479 153.621L230.479 143.107L229.166 143.107L229.166 153.621Z" fill="#DFC125"/>
<path d="M220.606 153.621H221.919V143.107H220.606V153.621Z" fill="#DFC125"/>
<path d="M212.123 153.621H213.435V143.107H212.123V153.621Z" fill="#DFC125"/>
<path d="M203.562 153.621L204.875 153.621L204.875 143.107L203.562 143.107L203.562 153.621Z" fill="#DFC125"/>
<path d="M165.806 153.671L238.091 153.671L238.091 152.357L165.806 152.357L165.806 153.671Z" fill="#DFC125"/>
<path d="M168.723 164.117L241.008 164.117L241.008 153.602L168.723 153.602L168.723 164.117Z" fill="#E3E829"/>
<path d="M168.76 164.117H202.895V153.602H168.76V164.117Z" fill="#DFC125"/>
<path d="M236.364 164.117L237.677 164.117L237.677 153.602L236.364 153.602L236.364 164.117Z" fill="#DFC125"/>
<path d="M210.76 164.117L212.073 164.117L212.073 153.602L210.76 153.602L210.76 164.117Z" fill="#DFC125"/>
<path d="M219.243 164.117L220.556 164.117L220.556 153.602L219.243 153.602L219.243 164.117Z" fill="#DFC125"/>
<path d="M227.804 164.117L229.116 164.117L229.116 153.602L227.804 153.602L227.804 164.117Z" fill="#DFC125"/>
<path d="M232.084 164.117H233.397V153.602H232.084V164.117Z" fill="#DFC125"/>
<path d="M223.523 164.117L224.836 164.117L224.836 153.602L223.523 153.602L223.523 164.117Z" fill="#DFC125"/>
<path d="M215.04 164.117H216.353V153.602H215.04V164.117Z" fill="#DFC125"/>
<path d="M206.479 164.117L207.792 164.117L207.792 153.602L206.479 153.602L206.479 164.117Z" fill="#DFC125"/>
<path d="M168.723 164.167L241.008 164.167L241.008 162.852L168.723 162.852L168.723 164.167Z" fill="#DFC125"/>
<path d="M168.723 174.612L241.008 174.612L241.008 164.098L168.723 164.098L168.723 174.612Z" fill="#E3E829"/>
<path d="M168.76 174.612H202.895V164.098H168.76V174.612Z" fill="#DFC125"/>
<path d="M236.364 174.612L237.677 174.612L237.677 164.098L236.364 164.098L236.364 174.612Z" fill="#DFC125"/>
<path d="M210.76 174.612L212.073 174.612L212.073 164.098L210.76 164.098L210.76 174.612Z" fill="#DFC125"/>
<path d="M219.243 174.612L220.556 174.612L220.556 164.098L219.243 164.098L219.243 174.612Z" fill="#DFC125"/>
<path d="M227.804 174.612L229.116 174.612L229.116 164.098L227.804 164.098L227.804 174.612Z" fill="#DFC125"/>
<path d="M232.084 174.612H233.397V164.098H232.084V174.612Z" fill="#DFC125"/>
<path d="M223.523 174.612L224.836 174.612L224.836 164.098L223.523 164.098L223.523 174.612Z" fill="#DFC125"/>
<path d="M215.04 174.612H216.353V164.098H215.04V174.612Z" fill="#DFC125"/>
<path d="M206.479 174.612L207.792 174.612L207.792 164.098L206.479 164.098L206.479 174.612Z" fill="#DFC125"/>
<path d="M168.723 174.662L241.008 174.662L241.008 173.348L168.723 173.348L168.723 174.662Z" fill="#DFC125"/>
<path d="M168.723 185.108L241.008 185.108L241.008 174.593L168.723 174.593L168.723 185.108Z" fill="#E3E829"/>
<path d="M168.76 185.108H202.895V174.593H168.76V185.108Z" fill="#DFC125"/>
<path d="M236.364 185.108L237.677 185.108L237.677 174.593L236.364 174.593L236.364 185.108Z" fill="#DFC125"/>
<path d="M210.76 185.108L212.073 185.108L212.073 174.593L210.76 174.593L210.76 185.108Z" fill="#DFC125"/>
<path d="M219.243 185.108L220.556 185.108L220.556 174.593L219.243 174.593L219.243 185.108Z" fill="#DFC125"/>
<path d="M227.804 185.108L229.116 185.108L229.116 174.593L227.804 174.593L227.804 185.108Z" fill="#DFC125"/>
<path d="M232.084 185.108H233.397V174.593H232.084V185.108Z" fill="#DFC125"/>
<path d="M223.523 185.108L224.836 185.108L224.836 174.593L223.523 174.593L223.523 185.108Z" fill="#DFC125"/>
<path d="M215.04 185.108H216.353V174.593H215.04V185.108Z" fill="#DFC125"/>
<path d="M206.479 185.108L207.792 185.108L207.792 174.593L206.479 174.593L206.479 185.108Z" fill="#DFC125"/>
<path d="M168.723 185.158L241.008 185.158L241.008 183.843L168.723 183.843L168.723 185.158Z" fill="#DFC125"/>
<path d="M168.723 195.603L241.008 195.603L241.008 185.089L168.723 185.089L168.723 195.603Z" fill="#E3E829"/>
<path d="M168.76 195.603H202.895V185.089H168.76V195.603Z" fill="#DFC125"/>
<path d="M236.364 195.603L237.677 195.603L237.677 185.089L236.364 185.089L236.364 195.603Z" fill="#DFC125"/>
<path d="M210.76 195.603L212.073 195.603L212.073 185.089L210.76 185.089L210.76 195.603Z" fill="#DFC125"/>
<path d="M219.243 195.603L220.556 195.603L220.556 185.089L219.243 185.089L219.243 195.603Z" fill="#DFC125"/>
<path d="M227.804 195.603L229.116 195.603L229.116 185.089L227.804 185.089L227.804 195.603Z" fill="#DFC125"/>
<path d="M232.084 195.603H233.397V185.089H232.084V195.603Z" fill="#DFC125"/>
<path d="M223.523 195.603L224.836 195.603L224.836 185.089L223.523 185.089L223.523 195.603Z" fill="#DFC125"/>
<path d="M215.04 195.603H216.353V185.089H215.04V195.603Z" fill="#DFC125"/>
<path d="M206.479 195.603L207.792 195.603L207.792 185.089L206.479 185.089L206.479 195.603Z" fill="#DFC125"/>
<path d="M168.723 195.653L241.008 195.653L241.008 194.339L168.723 194.339L168.723 195.653Z" fill="#DFC125"/>
<path d="M166.067 206.176L238.353 206.176L238.353 195.662L166.067 195.662L166.067 206.176Z" fill="#E3E829"/>
<path d="M166.104 206.176L200.239 206.176L200.239 195.662L166.104 195.662L166.104 206.176Z" fill="#DFC125"/>
<path d="M233.709 206.176L235.021 206.176L235.021 195.662L233.709 195.662L233.709 206.176Z" fill="#DFC125"/>
<path d="M208.104 206.176L209.417 206.176L209.417 195.662L208.104 195.662L208.104 206.176Z" fill="#DFC125"/>
<path d="M216.665 206.176L217.978 206.176L217.978 195.662L216.665 195.662L216.665 206.176Z" fill="#DFC125"/>
<path d="M225.148 206.176L226.461 206.176L226.461 195.662L225.148 195.662L225.148 206.176Z" fill="#DFC125"/>
<path d="M229.428 206.176L230.741 206.176L230.741 195.662L229.428 195.662L229.428 206.176Z" fill="#DFC125"/>
<path d="M220.868 206.176H222.181V195.662H220.868V206.176Z" fill="#DFC125"/>
<path d="M212.385 206.176H213.697V195.662H212.385V206.176Z" fill="#DFC125"/>
<path d="M203.824 206.176L205.137 206.176L205.137 195.662L203.824 195.662L203.824 206.176Z" fill="#DFC125"/>
<path d="M166.067 206.149L238.353 206.149L238.353 204.834L166.067 204.834L166.067 206.149Z" fill="#DFC125"/>
<path d="M166.067 216.672L238.353 216.672L238.353 206.157L166.067 206.157L166.067 216.672Z" fill="#E3E829"/>
<path d="M166.104 216.672L200.239 216.672L200.239 206.157L166.104 206.157L166.104 216.672Z" fill="#DFC125"/>
<path d="M233.709 216.672L235.021 216.672L235.021 206.157L233.709 206.157L233.709 216.672Z" fill="#DFC125"/>
<path d="M208.104 216.672L209.417 216.672L209.417 206.157L208.104 206.157L208.104 216.672Z" fill="#DFC125"/>
<path d="M216.665 216.672L217.978 216.672L217.978 206.157L216.665 206.157L216.665 216.672Z" fill="#DFC125"/>
<path d="M225.148 216.672L226.461 216.672L226.461 206.157L225.148 206.157L225.148 216.672Z" fill="#DFC125"/>
<path d="M229.428 216.672L230.741 216.672L230.741 206.157L229.428 206.157L229.428 216.672Z" fill="#DFC125"/>
<path d="M220.868 216.672H222.181V206.157H220.868V216.672Z" fill="#DFC125"/>
<path d="M212.385 216.672H213.697V206.157H212.385V216.672Z" fill="#DFC125"/>
<path d="M203.824 216.672L205.137 216.672L205.137 206.157L203.824 206.157L203.824 216.672Z" fill="#DFC125"/>
<path d="M166.067 216.644L238.353 216.644L238.353 215.33L166.067 215.33L166.067 216.644Z" fill="#DFC125"/>
<path d="M166.067 227.167L238.353 227.167L238.353 216.653L166.067 216.653L166.067 227.167Z" fill="#E3E829"/>
<path d="M166.104 227.167L200.239 227.167L200.239 216.653L166.104 216.653L166.104 227.167Z" fill="#DFC125"/>
<path d="M233.709 227.167L235.021 227.167L235.021 216.653L233.709 216.653L233.709 227.167Z" fill="#DFC125"/>
<path d="M208.104 227.167L209.417 227.167L209.417 216.653L208.104 216.653L208.104 227.167Z" fill="#DFC125"/>
<path d="M216.665 227.167L217.978 227.167L217.978 216.653L216.665 216.653L216.665 227.167Z" fill="#DFC125"/>
<path d="M225.148 227.167L226.461 227.167L226.461 216.653L225.148 216.653L225.148 227.167Z" fill="#DFC125"/>
<path d="M229.428 227.167L230.741 227.167L230.741 216.653L229.428 216.653L229.428 227.167Z" fill="#DFC125"/>
<path d="M220.868 227.167H222.181V216.653H220.868V227.167Z" fill="#DFC125"/>
<path d="M212.385 227.167H213.697V216.653H212.385V227.167Z" fill="#DFC125"/>
<path d="M203.824 227.167L205.137 227.167L205.137 216.653L203.824 216.653L203.824 227.167Z" fill="#DFC125"/>
<path d="M166.067 227.14L238.353 227.14L238.353 225.826L166.067 225.826L166.067 227.14Z" fill="#DFC125"/>
<path d="M166.067 237.663L238.353 237.663L238.353 227.149L166.067 227.149L166.067 237.663Z" fill="#E3E829"/>
<path d="M166.104 237.663L200.239 237.663L200.239 227.148L166.104 227.148L166.104 237.663Z" fill="#DFC125"/>
<path d="M233.709 237.663L235.021 237.663L235.021 227.149L233.709 227.149L233.709 237.663Z" fill="#DFC125"/>
<path d="M208.104 237.663L209.417 237.663L209.417 227.149L208.104 227.149L208.104 237.663Z" fill="#DFC125"/>
<path d="M216.665 237.663L217.978 237.663L217.978 227.149L216.665 227.149L216.665 237.663Z" fill="#DFC125"/>
<path d="M225.148 237.663L226.461 237.663L226.461 227.149L225.148 227.149L225.148 237.663Z" fill="#DFC125"/>
<path d="M229.428 237.663L230.741 237.663L230.741 227.149L229.428 227.149L229.428 237.663Z" fill="#DFC125"/>
<path d="M220.868 237.663H222.181V227.149H220.868V237.663Z" fill="#DFC125"/>
<path d="M212.385 237.663H213.697V227.149H212.385V237.663Z" fill="#DFC125"/>
<path d="M203.824 237.663L205.137 237.663L205.137 227.149L203.824 227.149L203.824 237.663Z" fill="#DFC125"/>
<path d="M166.067 237.713L238.353 237.713L238.353 236.398L166.067 236.398L166.067 237.713Z" fill="#DFC125"/>
<g opacity="0.66">
<g opacity="0.66">
<path opacity="0.66" d="M196.858 41.357L197.167 40.5839L187.745 34.7854L187.436 35.5585C186.972 36.6409 187.59 38.1872 188.903 38.9603L193.537 41.8209C194.927 42.594 196.317 42.4394 196.858 41.357Z" fill="#DFC125"/>
</g>
</g>
<g opacity="0.66">
<g opacity="0.66">
<path opacity="0.66" d="M188.381 33.3451L197.803 39.1435L205.371 22.444" fill="#DFC125"/>
</g>
</g>
<g opacity="0.66">
<g opacity="0.66">
<path opacity="0.66" d="M207.484 51.2963L207.793 50.5232L198.371 44.7247L198.062 45.4979C197.599 46.5802 198.217 48.1265 199.53 48.8996L204.163 51.7602C205.553 52.5333 207.021 52.3014 207.484 51.2963Z" fill="#DFC125"/>
</g>
</g>
<g opacity="0.66">
<g opacity="0.66">
<path opacity="0.66" d="M215.998 32.4606L208.507 49.0828L199.086 43.2844L206.654 26.5849L215.998 32.4606Z" fill="#DFC125"/>
</g>
</g>
<g opacity="0.66">
<g opacity="0.66">
<path opacity="0.66" d="M222.109 52.4444L222.418 51.6713L212.996 45.8728L212.687 46.6459C212.224 47.7283 212.841 49.2746 214.154 50.0477L218.788 52.9083C220.178 53.6814 221.645 53.4495 222.109 52.4444Z" fill="#DFC125"/>
</g>
</g>
<g opacity="0.66">
<g opacity="0.66">
<path opacity="0.66" d="M231.411 65.419L231.72 64.6459L222.298 58.8474L221.989 59.6206C221.526 60.7029 222.143 62.2492 223.456 63.0223L228.09 65.8829C229.48 66.7333 230.947 66.5014 231.411 65.419Z" fill="#DFC125"/>
</g>
</g>
<path d="M230.389 74.2219C240.095 63.0929 235.748 43.3939 220.679 30.2231C205.61 17.0522 185.526 15.397 175.82 26.526C166.114 37.655 170.462 57.354 185.531 70.5249C200.599 83.6957 220.683 85.3509 230.389 74.2219Z" fill="#DFC125"/>
<g opacity="0.58">
<g opacity="0.58">
<path opacity="0.58" d="M224.948 68.6606C232.634 59.8475 229.176 44.2342 217.224 33.7873C205.272 23.3405 189.352 22.0162 181.665 30.8293C173.979 39.6425 177.437 55.2558 189.39 65.7027C201.342 76.1495 217.262 77.4738 224.948 68.6606Z" fill="#DFC125"/>
</g>
</g>
<g opacity="0.08">
<g opacity="0.08">
<path opacity="0.08" d="M227.506 64.7549C227.661 64.3683 227.815 63.9818 227.97 63.5952C222.332 73.9551 207.195 75.1921 194.144 66.3011C182.173 58.106 175.995 44.1124 179.779 33.6752C179.625 34.0618 179.393 34.371 179.239 34.7576C174.296 45.6587 181.17 61.1212 194.453 69.3936C207.736 77.6661 222.564 75.5787 227.506 64.7549Z" fill="#DFC125"/>
</g>
</g>
<path d="M217.552 62.1491C222.601 56.3594 220.339 46.1111 212.5 39.2589C204.66 32.4067 194.212 31.5453 189.162 37.335C184.113 43.1247 186.375 53.3729 194.215 60.2252C202.054 67.0774 212.503 67.9387 217.552 62.1491Z" fill="#DFC125"/>
<path d="M204.725 52.4916C205.729 52.1823 206.269 52.1823 206.501 52.1823C206.81 52.2596 207.196 52.4142 207.582 52.7235C207.968 53.1101 208.277 53.4193 208.354 53.8059C208.432 54.1151 208.354 54.4244 208.046 54.8109C207.737 55.1202 207.428 55.2748 206.964 55.1975C206.501 55.1202 206.038 54.8109 205.42 54.2697C205.265 54.1151 205.034 54.1151 204.879 54.1924L202.64 56.7438C202.562 56.8211 202.562 56.9757 202.64 57.1303L202.717 57.2076C202.717 57.2849 202.794 57.2849 202.794 57.2849C204.107 58.4446 205.497 59.1404 206.887 59.3724C208.2 59.527 209.281 59.2178 210.362 58.5219L212.293 60.2228C212.448 60.3774 212.679 60.3774 212.834 60.3001L213.915 59.0631C213.992 58.9085 213.992 58.6766 213.838 58.5219L211.907 56.8211C212.602 55.7387 212.834 54.5017 212.602 53.2647C212.37 51.8731 211.598 50.6361 210.285 49.5537C208.895 48.3167 207.505 47.6982 206.192 47.6209C204.956 47.6209 203.489 47.9301 201.79 48.6259C201.018 48.8579 200.477 49.0125 200.014 48.9352C199.628 48.8579 199.242 48.6259 198.778 48.2394C198.392 47.8528 198.16 47.5435 198.006 47.157C197.929 46.8477 198.006 46.4612 198.315 46.1519C198.701 45.688 199.087 45.5334 199.628 45.5334C200.091 45.5334 200.709 45.8427 201.404 46.4612C201.558 46.6158 201.79 46.6158 201.945 46.5385L204.184 43.9872C204.261 43.9098 204.261 43.7552 204.184 43.6006L204.107 43.5233L204.03 43.446C202.485 41.977 200.941 41.2812 199.473 41.2812C198.16 41.2812 196.925 41.6678 195.921 42.5182L194.145 40.972C193.99 40.8173 193.758 40.8173 193.604 40.8947L192.523 42.1317C192.446 42.2863 192.446 42.5182 192.6 42.6728L194.376 44.2964C193.681 45.3788 193.527 46.5385 193.758 47.7755C193.99 49.0898 194.84 50.3268 196.075 51.4865C197.465 52.7235 198.855 53.342 200.246 53.4193C201.636 53.5739 203.103 53.1874 204.725 52.4916Z" fill="#DFC125"/>
<g opacity="0.66">
<g opacity="0.66">
<path opacity="0.66" d="M200.256 38.1872L200.565 37.414L191.143 31.6156L190.834 32.3887C190.37 33.4711 190.988 35.0174 192.301 35.7905L196.935 38.651C198.325 39.5015 199.792 39.2696 200.256 38.1872Z" fill="#DFC125"/>
</g>
</g>
<g opacity="0.66">
<g opacity="0.66">
<path opacity="0.66" d="M191.856 30.2526L201.278 36.051L208.846 19.3515" fill="#DFC125"/>
</g>
</g>
<g opacity="0.66">
<g opacity="0.66">
<path opacity="0.66" d="M210.959 48.1265L211.268 47.3534L201.846 41.5549L201.538 42.328C201.074 43.4104 201.692 44.9567 203.005 45.7298L207.639 48.5904C209.029 49.4408 210.419 49.2089 210.959 48.1265Z" fill="#DFC125"/>
</g>
</g>
<g opacity="0.66">
<g opacity="0.66">
<path opacity="0.66" d="M219.474 29.2908L211.905 45.9903L202.484 40.1919L210.052 23.4924L219.474 29.2908Z" fill="#DFC125"/>
</g>
</g>
<g opacity="0.66">
<g opacity="0.66">
<path opacity="0.66" d="M225.584 49.2746L225.893 48.5014L216.548 42.703L216.239 43.4761C215.776 44.5585 216.394 46.1048 217.707 46.8779L222.34 49.7384C223.653 50.5889 225.043 50.3569 225.584 49.2746Z" fill="#DFC125"/>
</g>
</g>
<g opacity="0.66">
<g opacity="0.66">
<path opacity="0.66" d="M234.809 62.3265L235.118 61.5534L225.773 55.6776L225.464 56.4507C225.001 57.5331 225.619 59.0794 226.932 59.8525L231.565 62.7131C232.878 63.5635 234.345 63.4089 234.809 62.3265Z" fill="#DFC125"/>
</g>
</g>
<path d="M233.769 71.0918C243.475 59.9627 239.128 40.2638 224.059 27.0929C208.99 13.9221 188.906 12.2668 179.2 23.3959C169.494 34.5249 173.842 54.2238 188.911 67.3947C203.979 80.5656 224.063 82.2208 233.769 71.0918Z" fill="#E3E829"/>
<path d="M228.437 65.5231C236.123 56.7099 232.665 41.0966 220.713 30.6498C208.761 20.203 192.841 18.8786 185.154 27.6918C177.468 36.505 180.926 52.1183 192.879 62.5651C204.831 73.0119 220.751 74.3362 228.437 65.5231Z" fill="#DFC125"/>
<g opacity="0.08">
<g opacity="0.08">
<path opacity="0.08" d="M230.904 61.5851C231.059 61.1985 231.213 60.812 231.368 60.4254C225.73 70.7853 210.593 72.0223 197.542 63.1313C185.572 54.9362 179.393 40.9426 183.177 30.5054C183.023 30.892 182.791 31.2012 182.637 31.5878C177.694 42.4889 184.568 57.9514 197.851 66.2238C211.134 74.4963 225.962 72.4862 230.904 61.5851Z" fill="#946829"/>
</g>
</g>
<path d="M220.932 59.0189C225.981 53.2293 223.72 42.981 215.88 36.1288C208.04 29.2766 197.592 28.4152 192.542 34.2049C187.493 39.9945 189.755 50.2428 197.595 57.095C205.434 63.9472 215.883 64.8086 220.932 59.0189Z" fill="#E3E829"/>
<path d="M208.123 49.3217C209.127 49.0125 209.667 49.0125 209.899 49.0125C210.208 49.0898 210.594 49.2444 210.98 49.5537C211.366 49.9403 211.675 50.2495 211.753 50.6361C211.83 50.9453 211.753 51.2546 211.444 51.6411C211.135 51.9504 210.826 52.105 210.362 52.0277C209.899 51.9504 209.436 51.6411 208.818 51.0999C208.663 50.9453 208.432 50.9453 208.277 51.0226L206.038 53.5739C205.96 53.6513 205.96 53.8059 206.038 53.9605L206.115 54.0378C206.115 54.1151 206.192 54.1151 206.192 54.1151C207.505 55.2748 208.895 55.9706 210.285 56.2026C211.598 56.3572 212.679 56.048 213.76 55.3521L215.691 57.053C215.846 57.2076 216.077 57.2076 216.232 57.1303L217.313 55.8933C217.39 55.7387 217.39 55.5068 217.236 55.3521L215.305 53.6513C216 52.5689 216.232 51.3319 216 50.0949C215.768 48.7032 214.996 47.4662 213.683 46.3839C212.293 45.1469 210.903 44.5284 209.59 44.4511C208.354 44.4511 206.887 44.7603 205.188 45.4561C204.416 45.6881 203.875 45.8427 203.412 45.7654C203.026 45.6881 202.64 45.4561 202.176 45.0696C201.79 44.683 201.558 44.3737 201.404 43.9872C201.327 43.6779 201.404 43.2914 201.713 42.9821C202.099 42.5182 202.485 42.3636 203.026 42.3636C203.489 42.3636 204.107 42.6729 204.802 43.2914C204.956 43.446 205.188 43.446 205.343 43.3687L207.582 40.8174C207.659 40.74 207.659 40.5854 207.582 40.4308L207.505 40.3535L207.428 40.2762C205.883 38.8072 204.339 38.1114 202.871 38.1114C201.558 38.1114 200.323 38.498 199.319 39.3484L197.543 37.8022C197.388 37.6475 197.156 37.6475 197.002 37.7249L195.921 38.9619C195.844 39.1165 195.844 39.3484 195.998 39.503L197.774 41.1266C197.079 42.209 196.925 43.3687 197.156 44.6057C197.388 45.92 198.238 47.157 199.473 48.3167C200.863 49.5537 202.253 50.1722 203.644 50.2495C205.111 50.4041 206.578 50.0949 208.123 49.3217Z" fill="#DFC125"/>
<path d="M40.9247 218.173C40.9247 218.173 47.2574 218.946 50.8099 224.744L50.0376 225.285C50.0376 225.285 45.1723 219.951 41.3109 219.023C37.3723 218.018 40.9247 218.173 40.9247 218.173Z" fill="#0033A0"/>
<path d="M43.705 202.478C43.705 202.478 50.1149 212.142 46.4852 223.971L44.8634 223.507C44.8634 223.507 46.4852 210.519 43.0871 203.947C39.6891 197.453 43.705 202.478 43.705 202.478Z" fill="#0033A0"/>
<path d="M54.7485 118.748L32.6614 233.171C32.198 235.491 33.9743 237.655 36.3683 237.655H48.0297L58.3782 118.439L54.7485 118.748Z" fill="#0033A0"/>
<path d="M198.392 161.348C198.392 161.348 193.604 167.842 195.612 176.192L196.77 175.96C196.77 175.96 196.152 166.837 198.778 162.43C201.327 158.023 198.392 161.348 198.392 161.348Z" fill="#93B3F4"/>
<path d="M175.301 137.767C175.301 137.767 172.289 148.05 178.622 157.482L179.935 156.632C179.935 156.632 175.069 145.576 176.228 138.927C177.463 132.201 175.301 137.767 175.301 137.767Z" fill="white"/>
<path d="M54.9802 118.285L40.3069 230.62C39.8436 234.331 42.701 237.655 46.4852 237.655H67.9545L55.9069 117.898L54.9802 118.285Z" fill="#0033A0"/>
<path d="M54.9802 118.285L48.4158 229.847C48.1842 234.022 51.505 237.578 55.6753 237.578H87.7248L54.9802 118.285Z" fill="#8099CF"/>
<path d="M54.7485 119.212L57.9148 229.924C57.6832 234.099 61.0039 237.655 65.1742 237.655H97.2237L54.7485 119.212Z" fill="#0033A0"/>
<path d="M208.586 238.583H82.2416C79.0752 238.583 76.3723 236.341 75.8317 233.248L56.5248 127.949C55.6752 123.155 59.305 118.748 64.1703 118.748H189.048C192.214 118.748 194.917 120.991 195.457 124.083L214.919 230.852C215.768 234.872 212.679 238.583 208.586 238.583Z" fill="white"/>
<path d="M58.6871 140.705H198.469L194.917 120.836C194.608 119.135 193.141 117.821 191.364 117.821H55.9069C55.1347 117.821 54.5941 118.517 54.7485 119.212L58.6871 140.705Z" fill="#8099CF"/>
<path d="M139.545 178.047H132.517C131.667 178.047 130.895 177.351 130.741 176.578L129.35 169.543C129.196 168.692 129.737 168.074 130.586 168.074H137.614C138.463 168.074 139.236 168.77 139.39 169.543L140.78 176.578C140.857 177.351 140.317 178.047 139.545 178.047Z" fill="#E0E0E0"/>
<path d="M157.307 178.047H150.279C149.43 178.047 148.657 177.351 148.503 176.578L147.113 169.543C146.958 168.692 147.499 168.074 148.349 168.074H155.376C156.226 168.074 156.998 168.77 157.152 169.543L158.543 176.578C158.697 177.351 158.156 178.047 157.307 178.047Z" fill="#E0E0E0"/>
<path d="M175.147 178.047H168.119C167.269 178.047 166.497 177.351 166.343 176.578L164.952 169.543C164.798 168.692 165.339 168.074 166.188 168.074H173.216C174.065 168.074 174.838 168.77 174.992 169.543L176.382 176.578C176.537 177.351 175.996 178.047 175.147 178.047Z" fill="#E0E0E0"/>
<path d="M86.0257 178.047H78.998C78.1485 178.047 77.3762 177.351 77.2218 176.578L75.8317 169.543C75.6772 168.692 76.2178 168.074 77.0673 168.074H84.0951C84.9446 168.074 85.7168 168.77 85.8713 169.543L87.2614 176.578C87.4158 177.351 86.8752 178.047 86.0257 178.047Z" fill="#E0E0E0"/>
<path d="M103.865 178.047H96.8376C95.9881 178.047 95.2158 177.351 95.0614 176.578L93.6713 169.543C93.5168 168.692 94.0574 168.074 94.9069 168.074H101.935C102.784 168.074 103.556 168.77 103.711 169.543L105.101 176.578C105.178 177.351 104.638 178.047 103.865 178.047Z" fill="#E0E0E0"/>
<path d="M121.705 178.047H114.677C113.828 178.047 113.055 177.351 112.901 176.578L111.511 169.543C111.356 168.692 111.897 168.074 112.747 168.074H119.774C120.624 168.074 121.396 168.77 121.55 169.543L122.941 176.578C123.018 177.351 122.477 178.047 121.705 178.047Z" fill="#E0E0E0"/>
<path d="M192.986 178.047H185.958C185.109 178.047 184.337 177.351 184.182 176.578L182.792 169.543C182.638 168.692 183.178 168.074 184.028 168.074H191.055C191.905 168.074 192.677 168.77 192.832 169.543L194.222 176.578C194.376 177.351 193.836 178.047 192.986 178.047Z" fill="#E0E0E0"/>
<path d="M136.533 162.662H129.505C128.655 162.662 127.883 161.966 127.729 161.193L126.339 154.158C126.184 153.307 126.725 152.689 127.574 152.689H134.602C135.452 152.689 136.224 153.385 136.378 154.158L137.768 161.193C137.923 161.966 137.382 162.662 136.533 162.662Z" fill="#E0E0E0"/>
<path d="M154.372 162.662H147.345C146.495 162.662 145.723 161.966 145.568 161.193L144.178 154.158C144.024 153.307 144.564 152.689 145.414 152.689H152.442C153.291 152.689 154.063 153.385 154.218 154.158L155.608 161.193C155.762 161.966 155.222 162.662 154.372 162.662Z" fill="#E0E0E0"/>
<path d="M172.212 162.662H165.184C164.335 162.662 163.562 161.966 163.408 161.193L162.018 154.158C161.863 153.307 162.404 152.689 163.253 152.689H170.281C171.131 152.689 171.903 153.385 172.057 154.158L173.448 161.193C173.525 161.966 172.984 162.662 172.212 162.662Z" fill="#E0E0E0"/>
<path d="M190.051 162.662H183.024C182.174 162.662 181.402 161.966 181.248 161.193L179.857 154.158C179.703 153.307 180.244 152.689 181.093 152.689H188.121C188.97 152.689 189.743 153.385 189.897 154.158L191.287 161.193C191.364 161.966 190.824 162.662 190.051 162.662Z" fill="#E0E0E0"/>
<path d="M142.634 194.283H135.606C134.756 194.283 133.984 193.587 133.83 192.814L132.44 185.779C132.285 184.928 132.826 184.31 133.675 184.31H140.703C141.552 184.31 142.325 185.005 142.479 185.779L143.869 192.814C144.024 193.664 143.483 194.283 142.634 194.283Z" fill="#E0E0E0"/>
<path d="M160.473 194.283H153.446C152.596 194.283 151.824 193.587 151.669 192.814L150.279 185.779C150.125 184.928 150.665 184.31 151.515 184.31H158.543C159.392 184.31 160.164 185.005 160.319 185.779L161.709 192.814C161.863 193.664 161.323 194.283 160.473 194.283Z" fill="#E0E0E0"/>
<path d="M178.313 194.283H171.285C170.436 194.283 169.663 193.587 169.509 192.814L168.119 185.779C167.964 184.928 168.505 184.31 169.354 184.31H176.382C177.232 184.31 178.004 185.005 178.158 185.779L179.549 192.814C179.626 193.664 179.085 194.283 178.313 194.283Z" fill="#E0E0E0"/>
<path d="M89.1921 194.283H82.1643C81.3148 194.283 80.5426 193.587 80.3881 192.814L78.998 185.779C78.8436 184.928 79.3841 184.31 80.2337 184.31H87.2614C88.1109 184.31 88.8832 185.005 89.0376 185.779L90.4277 192.814C90.5049 193.664 89.9644 194.283 89.1921 194.283Z" fill="#E0E0E0"/>
<path d="M106.954 194.283H99.9267C99.0772 194.283 98.305 193.587 98.1505 192.814L96.7604 185.779C96.6059 184.928 97.1465 184.31 97.996 184.31H105.024C105.873 184.31 106.646 185.005 106.8 185.779L108.19 192.814C108.345 193.664 107.804 194.283 106.954 194.283Z" fill="#E0E0E0"/>
<path d="M124.794 194.283H117.766C116.917 194.283 116.145 193.587 115.99 192.814L114.6 185.779C114.446 184.928 114.986 184.31 115.836 184.31H122.863C123.713 184.31 124.485 185.005 124.64 185.779L126.03 192.814C126.184 193.664 125.644 194.283 124.794 194.283Z" fill="#E0E0E0"/>
<path d="M196.152 194.283H189.125C188.275 194.283 187.503 193.587 187.349 192.814L185.958 185.779C185.804 184.928 186.345 184.31 187.194 184.31H194.222C195.071 184.31 195.844 185.005 195.998 185.779L197.388 192.814C197.465 193.664 196.925 194.283 196.152 194.283Z" fill="#E0E0E0"/>
<path d="M145.8 210.596H138.772C137.923 210.596 137.151 209.9 136.996 209.127L135.606 202.091C135.451 201.241 135.992 200.623 136.842 200.623H143.869C144.719 200.623 145.491 201.318 145.646 202.091L147.036 209.127C147.113 209.9 146.572 210.596 145.8 210.596Z" fill="#E0E0E0"/>
<path d="M163.64 210.596H156.612C155.762 210.596 154.99 209.9 154.836 209.127L153.446 202.091C153.291 201.241 153.832 200.623 154.681 200.623H161.709C162.558 200.623 163.331 201.318 163.485 202.091L164.875 209.127C164.952 209.9 164.412 210.596 163.64 210.596Z" fill="#E0E0E0"/>
<path d="M181.402 210.596H174.374C173.525 210.596 172.752 209.9 172.598 209.127L171.208 202.091C171.053 201.241 171.594 200.623 172.444 200.623H179.471C180.321 200.623 181.093 201.318 181.248 202.091L182.638 209.127C182.792 209.9 182.251 210.596 181.402 210.596Z" fill="#E0E0E0"/>
<path d="M92.2812 210.596H85.2535C84.404 210.596 83.6317 209.9 83.4773 209.127L82.0872 202.091C81.9327 201.241 82.4733 200.623 83.3228 200.623H90.3505C91.2 200.623 91.9723 201.318 92.1268 202.091L93.5169 209.127C93.6713 209.9 93.1307 210.596 92.2812 210.596Z" fill="#E0E0E0"/>
<path d="M110.121 210.596H103.093C102.244 210.596 101.471 209.9 101.317 209.127L99.9267 202.091C99.7723 201.241 100.313 200.623 101.162 200.623H108.19C109.04 200.623 109.812 201.318 109.966 202.091L111.356 209.127C111.511 209.9 110.97 210.596 110.121 210.596Z" fill="#FA7269"/>
<path d="M127.96 210.596H120.933C120.083 210.596 119.311 209.9 119.156 209.127L117.766 202.091C117.612 201.241 118.152 200.623 119.002 200.623H126.03C126.879 200.623 127.651 201.318 127.806 202.091L129.196 209.127C129.273 209.9 128.81 210.596 127.96 210.596Z" fill="#E0E0E0"/>
<path d="M199.242 210.596H192.214C191.364 210.596 190.592 209.9 190.438 209.127L189.048 202.091C188.893 201.241 189.434 200.623 190.283 200.623H197.311C198.16 200.623 198.933 201.318 199.087 202.091L200.477 209.127C200.632 209.9 200.091 210.596 199.242 210.596Z" fill="#E0E0E0"/>
<path d="M148.735 225.904H141.707C140.857 225.904 140.085 225.208 139.931 224.435L138.541 217.399C138.386 216.549 138.927 215.93 139.776 215.93H146.804C147.653 215.93 148.426 216.626 148.58 217.399L149.97 224.435C150.125 225.285 149.584 225.904 148.735 225.904Z" fill="#E0E0E0"/>
<path d="M166.574 225.904H159.547C158.697 225.904 157.925 225.208 157.77 224.435L156.38 217.399C156.226 216.549 156.766 215.93 157.616 215.93H164.644C165.493 215.93 166.265 216.626 166.42 217.399L167.81 224.435C167.887 225.285 167.347 225.904 166.574 225.904Z" fill="#E0E0E0"/>
<path d="M184.414 225.904H177.386C176.537 225.904 175.764 225.208 175.61 224.435L174.22 217.399C174.065 216.549 174.606 215.93 175.455 215.93H182.483C183.333 215.93 184.105 216.626 184.259 217.399L185.649 224.435C185.727 225.285 185.186 225.904 184.414 225.904Z" fill="#E0E0E0"/>
<path d="M95.2931 225.904H88.1881C87.3386 225.904 86.5663 225.208 86.4119 224.435L85.0218 217.399C84.8673 216.549 85.4079 215.93 86.2574 215.93H93.2852C94.1347 215.93 94.9069 216.626 95.0614 217.399L96.4515 224.435C96.6059 225.285 96.0653 225.904 95.2931 225.904Z" fill="#E0E0E0"/>
<path d="M113.055 225.904H106.028C105.178 225.904 104.406 225.208 104.251 224.435L102.861 217.399C102.707 216.549 103.248 215.93 104.097 215.93H111.125C111.974 215.93 112.747 216.626 112.901 217.399L114.291 224.435C114.446 225.285 113.905 225.904 113.055 225.904Z" fill="#E0E0E0"/>
<path d="M130.895 225.904H123.867C123.018 225.904 122.246 225.208 122.091 224.435L120.701 217.399C120.547 216.549 121.087 215.93 121.937 215.93H128.964C129.814 215.93 130.586 216.626 130.741 217.399L132.131 224.435C132.285 225.285 131.745 225.904 130.895 225.904Z" fill="#E0E0E0"/>
<path d="M79.6158 137.072H73.2059C72.6653 137.072 72.2792 136.608 72.2792 136.144C72.2792 135.603 72.7426 135.216 73.2059 135.216H79.6158C80.1564 135.216 80.5426 135.68 80.5426 136.144C80.6198 136.685 80.1564 137.072 79.6158 137.072Z" fill="white"/>
<path d="M97.2238 137.072H90.8139C90.2733 137.072 89.8871 136.608 89.8871 136.144C89.8871 135.603 90.3505 135.216 90.8139 135.216H97.2238C97.7644 135.216 98.1505 135.68 98.1505 136.144C98.2277 136.685 97.7644 137.072 97.2238 137.072Z" fill="white"/>
<path d="M114.909 137.072H108.499C107.958 137.072 107.572 136.608 107.572 136.144C107.572 135.603 108.036 135.216 108.499 135.216H114.909C115.449 135.216 115.836 135.68 115.836 136.144C115.836 136.685 115.372 137.072 114.909 137.072Z" fill="white"/>
<path d="M132.517 137.072H126.107C125.566 137.072 125.18 136.608 125.18 136.144C125.18 135.603 125.644 135.216 126.107 135.216H132.517C133.057 135.216 133.444 135.68 133.444 136.144C133.444 136.685 133.057 137.072 132.517 137.072Z" fill="white"/>
<path d="M150.125 137.072H143.715C143.174 137.072 142.788 136.608 142.788 136.144C142.788 135.603 143.251 135.216 143.715 135.216H150.125C150.665 135.216 151.051 135.68 151.051 136.144C151.051 136.685 150.665 137.072 150.125 137.072Z" fill="white"/>
<path d="M167.733 137.072H161.323C160.782 137.072 160.396 136.608 160.396 136.144C160.396 135.603 160.859 135.216 161.323 135.216H167.733C168.273 135.216 168.659 135.68 168.659 136.144C168.659 136.685 168.273 137.072 167.733 137.072Z" fill="white"/>
<path d="M185.341 137.072H178.931C178.39 137.072 178.004 136.608 178.004 136.144C178.004 135.603 178.467 135.216 178.931 135.216H185.341C185.881 135.216 186.267 135.68 186.267 136.144C186.345 136.685 185.881 137.072 185.341 137.072Z" fill="white"/>
<path d="M67.5683 123.928V121.145L68.3406 121.068C68.7267 121.068 69.1129 120.991 69.4218 120.836C70.5802 120.449 71.5841 119.444 71.9703 118.285C72.1247 117.898 72.202 117.434 72.202 116.97C72.202 114.728 70.3485 112.873 68.1089 112.873C65.8693 112.873 64.0158 114.728 64.0158 116.97V117.821H61.2356V116.97C61.2356 113.182 64.3247 110.089 68.1089 110.089C71.8931 110.089 74.9822 113.182 74.9822 116.97C74.9822 117.589 74.9049 118.13 74.7505 118.748C74.1327 120.991 72.4337 122.846 70.194 123.542C69.6535 123.696 69.0356 123.851 68.4178 123.851L67.5683 123.928Z" fill="#0033A0"/>
<path d="M68.7267 124.547C67.5683 124.547 66.5643 123.619 66.5643 122.382C66.5643 121.222 67.4911 120.217 68.7267 120.217C69.4218 120.217 70.0396 120.527 70.4257 121.068C70.7346 121.454 70.8891 121.918 70.8891 122.382C70.8891 122.537 70.8891 122.769 70.8119 122.923C70.5029 123.928 69.6534 124.547 68.7267 124.547Z" fill="#0033A0"/>
<path d="M90.7366 123.928V121.145L91.5089 121.068C91.895 121.068 92.2812 120.991 92.5901 120.836C93.7485 120.449 94.7524 119.444 95.1386 118.285C95.293 117.898 95.3703 117.434 95.3703 116.97C95.3703 114.728 93.5168 112.873 91.2772 112.873C89.0376 112.873 87.1841 114.728 87.1841 116.97V117.821H84.4039V116.97C84.4039 113.182 87.493 110.089 91.2772 110.089C95.0614 110.089 98.1505 113.182 98.1505 116.97C98.1505 117.589 98.0732 118.13 97.9188 118.748C97.301 120.991 95.6019 122.846 93.3623 123.542C92.8218 123.696 92.2039 123.851 91.5861 123.851L90.7366 123.928Z" fill="#0033A0"/>
<path d="M91.895 124.547C90.7366 124.547 89.7327 123.619 89.7327 122.382C89.7327 121.222 90.6594 120.217 91.895 120.217C92.5901 120.217 93.2079 120.527 93.594 121.068C93.903 121.454 94.0574 121.918 94.0574 122.382C94.0574 122.537 94.0574 122.769 93.9802 122.923C93.6713 123.928 92.8218 124.547 91.895 124.547Z" fill="#0033A0"/>
<path d="M137.073 123.928V121.145L137.846 121.068C138.232 121.068 138.618 120.991 138.927 120.836C140.085 120.449 141.089 119.444 141.475 118.285C141.63 117.898 141.707 117.434 141.707 116.97C141.707 114.728 139.853 112.873 137.614 112.873C135.374 112.873 133.521 114.728 133.521 116.97V117.821H130.741V116.97C130.741 113.182 133.83 110.089 137.614 110.089C141.398 110.089 144.487 113.182 144.487 116.97C144.487 117.589 144.41 118.13 144.255 118.748C143.638 120.991 141.939 122.846 139.699 123.542C139.158 123.696 138.541 123.851 137.923 123.851L137.073 123.928Z" fill="#0033A0"/>
<path d="M138.232 124.547C137.073 124.547 136.069 123.619 136.069 122.382C136.069 121.222 136.996 120.217 138.232 120.217C138.927 120.217 139.545 120.527 139.931 121.068C140.24 121.454 140.394 121.918 140.394 122.382C140.394 122.537 140.394 122.769 140.317 122.923C140.008 123.928 139.158 124.547 138.232 124.547Z" fill="#0033A0"/>
<path d="M113.905 123.928V121.145L114.677 121.068C115.063 121.068 115.449 120.991 115.758 120.836C116.917 120.449 117.921 119.444 118.307 118.285C118.461 117.898 118.539 117.434 118.539 116.97C118.539 114.728 116.685 112.873 114.446 112.873C112.206 112.873 110.352 114.728 110.352 116.97V117.821H107.572V116.97C107.572 113.182 110.661 110.089 114.446 110.089C118.23 110.089 121.319 113.182 121.319 116.97C121.319 117.589 121.242 118.13 121.087 118.748C120.469 120.991 118.77 122.846 116.531 123.542C115.99 123.696 115.372 123.851 114.754 123.851L113.905 123.928Z" fill="#0033A0"/>
<path d="M115.063 124.547C113.905 124.547 112.901 123.619 112.901 122.382C112.901 121.222 113.828 120.217 115.063 120.217C115.758 120.217 116.376 120.527 116.762 121.068C117.071 121.454 117.226 121.918 117.226 122.382C117.226 122.537 117.226 122.769 117.148 122.923C116.84 123.928 115.99 124.547 115.063 124.547Z" fill="#0033A0"/>
<path d="M160.242 123.928V121.145L161.014 121.068C161.4 121.068 161.786 120.991 162.095 120.836C163.253 120.449 164.257 119.444 164.644 118.285C164.798 117.898 164.875 117.434 164.875 116.97C164.875 114.728 163.022 112.873 160.782 112.873C158.543 112.873 156.689 114.728 156.689 116.97V117.821H153.909V116.97C153.909 113.182 156.998 110.089 160.782 110.089C164.566 110.089 167.655 113.182 167.655 116.97C167.655 117.589 167.578 118.13 167.424 118.748C166.806 120.991 165.107 122.846 162.867 123.542C162.327 123.696 161.709 123.851 161.091 123.851L160.242 123.928Z" fill="#0033A0"/>
<path d="M161.4 124.547C160.242 124.547 159.238 123.619 159.238 122.382C159.238 121.222 160.164 120.217 161.4 120.217C162.095 120.217 162.713 120.527 163.099 121.068C163.408 121.454 163.562 121.918 163.562 122.382C163.562 122.537 163.562 122.769 163.485 122.923C163.176 123.928 162.327 124.547 161.4 124.547Z" fill="#0033A0"/>
<path d="M183.41 123.928V121.145L184.182 121.068C184.568 121.068 184.954 120.991 185.263 120.836C186.422 120.449 187.426 119.444 187.812 118.285C187.966 117.898 188.044 117.434 188.044 116.97C188.044 114.728 186.19 112.873 183.95 112.873C181.711 112.873 179.857 114.728 179.857 116.97V117.821H177.077V116.97C177.077 113.182 180.166 110.089 183.95 110.089C187.735 110.089 190.824 113.182 190.824 116.97C190.824 117.589 190.747 118.13 190.592 118.748C189.974 120.991 188.275 122.846 186.036 123.542C185.495 123.696 184.877 123.851 184.259 123.851L183.41 123.928Z" fill="#0033A0"/>
<path d="M184.568 124.547C183.41 124.547 182.406 123.619 182.406 122.382C182.406 121.222 183.333 120.217 184.568 120.217C185.263 120.217 185.881 120.527 186.267 121.068C186.576 121.454 186.731 121.918 186.731 122.382C186.731 122.537 186.731 122.769 186.653 122.923C186.345 123.928 185.495 124.547 184.568 124.547Z" fill="#0033A0"/>
</g>
<defs>
<clipPath id="clip0">
<rect width="234" height="229" fill="white" transform="translate(21 16)"/>
</clipPath>
</defs>
</svg>
