<svg width="276" height="276" viewBox="0 0 276 276" fill="none" xmlns="http://www.w3.org/2000/svg">
<path opacity="0.34" d="M136.997 245C201.055 245 252.984 242.793 252.984 240.07C252.984 237.348 201.055 235.141 136.997 235.141C72.9397 235.141 21.0106 237.348 21.0106 240.07C21.0106 242.793 72.9397 245 136.997 245Z" fill="#0033A0"/>
<path d="M57.6347 173.426L49.9605 189.151C49.9605 189.151 54.8271 191.273 58.9449 190.337C63.1252 189.401 61.8774 190.462 61.8774 190.462L69.5516 178.543L57.6347 173.426Z" fill="#FF896C"/>
<path d="M40.976 197.076C41.0384 197.076 41.2256 196.951 41.5999 196.764L46.4041 197.388C43.9085 198.262 42.2863 199.198 42.2863 199.198C42.0367 199.323 41.7247 199.385 41.4752 199.385C41.1008 199.323 40.7888 199.135 40.6017 198.761C40.1649 198.137 40.3521 197.388 40.976 197.076Z" fill="white"/>
<path d="M64.4978 196.889L64.1235 194.33L63.4372 189.276C63.4372 189.276 53.5168 192.209 50.0853 184.908L24.8165 194.455L41.5376 196.702L46.3417 197.326L64.8722 199.822L64.4978 196.889Z" fill="#0033A0"/>
<path d="M24.0678 200.196L24.8165 194.58L64.9346 199.884L64.1235 205.937L24.0678 200.196Z" fill="white"/>
<path d="M23.4438 200.134L24.2549 194.455C24.3173 194.143 24.6293 193.894 24.9413 193.894L65.0594 199.198C65.2466 199.198 65.3713 199.323 65.4961 199.447C65.6209 199.572 65.6209 199.759 65.6209 199.884L64.8098 205.937C64.8098 206.124 64.685 206.249 64.5602 206.374C64.4355 206.499 64.2483 206.499 64.1235 206.499L24.0678 200.82C23.631 200.82 23.3815 200.508 23.4438 200.134ZM64.2483 200.383L25.378 195.267L24.7541 199.697L63.562 205.188L64.2483 200.383Z" fill="#A8BEDD"/>
<path d="M47.4648 192.396C47.7768 192.458 48.0887 192.396 48.3383 192.146C48.8998 191.772 49.0246 190.961 48.6503 190.399C48.6503 190.399 47.5272 188.777 46.6537 185.345C46.4665 184.658 45.8426 184.284 45.1563 184.409C44.47 184.596 44.0956 185.22 44.2204 185.906C45.2187 189.9 46.5289 191.772 46.5913 191.834C46.8409 192.146 47.1528 192.334 47.4648 192.396Z" fill="white"/>
<path d="M43.5965 193.207C43.9085 193.27 44.2204 193.207 44.47 193.02C45.0315 192.646 45.2187 191.897 44.8443 191.273C44.8443 191.273 43.9085 189.713 43.2221 186.53C43.0974 185.844 42.411 185.407 41.7247 185.532C41.0384 185.657 40.6017 186.343 40.7265 187.03C41.4752 190.774 42.6606 192.583 42.723 192.646C42.9102 192.958 43.2221 193.145 43.5965 193.207Z" fill="white"/>
<path d="M39.4162 194.018C39.6658 194.081 39.9778 194.019 40.2273 193.831C40.7889 193.457 40.976 192.708 40.6641 192.146C40.6641 192.146 39.9154 190.898 39.4786 188.278C39.3538 187.591 38.7299 187.154 38.0436 187.279C37.3573 187.404 36.9205 188.028 37.0453 188.714C37.5445 191.772 38.418 193.27 38.5427 193.457C38.7299 193.707 39.1043 193.956 39.4162 194.018Z" fill="white"/>
<path d="M47.0281 185.033C47.0281 185.033 47.1528 181.039 50.0229 180.852C52.8929 180.727 50.9588 186.406 50.9588 186.406L47.5272 187.591L47.0281 185.033Z" fill="#0033A0"/>
<path d="M102.183 107.219C102.183 107.219 96.1931 103.662 85.836 120.261C75.4789 136.859 55.3886 174.986 55.3886 174.986C55.3886 174.986 63.0004 181.414 69.3644 181.289L112.415 126.875L102.183 107.219Z" fill="#4971B7"/>
<path d="M42.0367 155.892L28.1856 166.562C28.1856 166.562 31.6172 170.618 35.7351 171.617C39.853 172.615 38.2932 173.052 38.2932 173.052L50.522 165.813L42.0367 155.892Z" fill="#FF896C"/>
<path d="M17.8285 174.3C17.8909 174.3 18.0781 174.237 18.5149 174.113L23.0695 175.797C20.449 176.109 18.702 176.671 18.6396 176.733C18.3277 176.858 18.0781 176.796 17.8285 176.733C17.5166 176.609 17.2046 176.359 17.0798 175.985C16.8303 175.236 17.1422 174.487 17.8285 174.3Z" fill="white"/>
<path d="M29.3087 164.378L2.60487 168.309L18.4525 174.05L23.0071 175.735L40.6017 182.162L40.8512 179.167L41.0384 176.609L41.4128 171.554C41.4752 171.492 31.1181 172.241 29.3087 164.378Z" fill="#0033A0"/>
<path d="M0.608322 173.801L2.60487 168.434L40.6017 182.162L38.5427 187.903L0.608322 173.801Z" fill="white"/>
<path d="M0.0467941 173.551L2.04334 168.184C2.16813 167.872 2.54248 167.685 2.85444 167.81L40.9136 181.538C41.1008 181.601 41.2256 181.725 41.288 181.85C41.3504 181.975 41.3504 182.162 41.288 182.349L39.1666 188.09C39.1042 188.215 38.9795 188.402 38.8547 188.465C38.7299 188.527 38.5427 188.527 38.3555 188.465L0.421147 174.362C0.0467941 174.237 -0.0779901 173.925 0.0467941 173.551ZM39.853 182.537L2.91683 169.245L1.35703 173.426L38.106 187.092L39.853 182.537Z" fill="#A8BEDD"/>
<path d="M25.1908 171.117C25.5028 171.242 25.8147 171.242 26.1267 171.117C26.7506 170.868 27.0626 170.119 26.813 169.495C26.813 169.495 26.0643 167.685 26.0019 164.128C26.0019 163.442 25.378 162.88 24.6917 162.943C24.0054 162.943 23.4438 163.567 23.5062 164.253C23.631 168.372 24.5045 170.493 24.5669 170.556C24.6293 170.743 24.8789 170.993 25.1908 171.117Z" fill="white"/>
<path d="M21.1977 171.117C21.4473 171.242 21.7592 171.242 22.0712 171.117C22.6951 170.868 23.0695 170.181 22.8199 169.495C22.8199 169.495 22.196 167.81 22.2584 164.503C22.2584 163.816 21.6969 163.255 21.0105 163.255C20.3242 163.255 19.7627 163.816 19.7627 164.503C19.7003 168.309 20.449 170.306 20.5114 170.431C20.5738 170.743 20.8234 170.993 21.1977 171.117Z" fill="white"/>
<path d="M16.9551 170.993C17.2046 171.117 17.5166 171.117 17.7662 170.993C18.3901 170.743 18.7644 170.057 18.5149 169.433C18.5149 169.433 18.0781 168.06 18.2029 165.439C18.2653 164.753 17.7038 164.191 17.0174 164.129C16.3311 164.066 15.7696 164.628 15.7072 165.314C15.5824 168.434 16.0816 170.057 16.144 170.244C16.3311 170.556 16.6431 170.868 16.9551 170.993Z" fill="white"/>
<path d="M26.3139 163.816C26.3139 163.816 27.3121 159.948 30.1198 160.384C32.9274 160.821 29.8702 166 29.8702 166L26.2515 166.437L26.3139 163.816Z" fill="#0033A0"/>
<path d="M115.098 112.835C115.098 112.835 103.992 103.912 96.6298 106.969C90.4529 109.715 39.7906 156.703 39.7906 156.703C39.7906 156.703 40.5393 162.88 48.5255 168.809C50.8964 169.62 96.193 137.983 101.309 130.619C106.301 123.131 115.098 112.835 115.098 112.835Z" fill="#8099CF"/>
<path d="M238.197 68.7176C238.197 68.7176 238.135 65.9096 239.944 63.2263L170.939 63.1639C159.958 63.1639 150.537 71.0264 148.602 81.8842L143.798 108.155C141.115 123.318 130.945 133.24 112.477 134.301C94.0717 135.362 90.7649 134.051 81.4685 137.733C67.9294 144.784 75.978 162.693 75.978 162.693C75.978 162.693 84.0266 141.789 83.8394 141.789H83.3403C77.413 141.789 82.7163 153.271 82.7163 153.271L76.4771 170.681L98.3144 164.94C98.3144 164.94 133.316 153.084 168.942 161.695C204.568 170.306 182.357 139.667 182.357 139.667C182.357 139.667 196.02 138.544 209.31 139.917C222.599 141.29 224.284 142.663 224.284 142.663L238.197 68.7176ZM203.258 134.488H191.466H203.258Z" fill="#E3E829"/>
<path d="M229.65 72.5865L221.164 120.885L194.523 103.225L204.942 68.6552L229.65 72.5865Z" fill="#DFC125"/>
<path d="M90.141 241.381H85.2744L82.7163 222.473L93.5102 222.286L90.141 241.381Z" fill="#0033A0"/>
<path d="M173.559 241.381H178.426L180.984 222.473L170.19 222.286L173.559 241.381Z" fill="#0033A0"/>
<path d="M139.743 241.381H134.876L132.318 222.473L143.112 222.286L139.743 241.381Z" fill="#0033A0"/>
<path d="M216.298 241.381H220.852L224.097 222.473L212.991 222.286L216.298 241.381Z" fill="#0033A0"/>
<path d="M162.828 230.648L97.7529 230.585H79.7215L75.1045 163.13L98.4392 165.002C98.4392 165.002 133.441 153.146 169.067 161.757C174.121 163.005 177.989 163.442 180.984 163.255V230.71L162.828 230.648Z" fill="#E3E829"/>
<path d="M98.4392 230.71L96.3802 151.149C96.3802 144.909 91.2641 139.73 84.9625 139.73C78.6609 139.73 73.5447 144.847 73.5447 151.149L79.6591 230.71H98.4392Z" fill="#DFC125"/>
<path d="M171.376 177.732L119.465 177.482C119.465 177.482 118.03 156.516 105.177 134.613C95.6939 118.389 145.982 139.043 165.698 125.19C185.414 111.337 170.814 161.32 170.814 161.32L171.376 177.732Z" fill="#DFC125"/>
<path d="M183.667 107.531C183.667 107.531 155.965 121.01 147.854 122.195C139.743 123.381 124.644 118.826 124.644 118.826L132.38 130.37C132.38 130.37 147.167 134.613 150.599 134.239C154.031 133.864 182.793 123.256 182.793 123.256L183.667 107.531Z" fill="#FF896C"/>
<path d="M204.942 90.4955C204.942 90.4955 203.819 102.726 202.634 104.785C201.449 106.844 191.341 106.47 192.277 101.852C193.213 97.0476 195.022 88.873 195.022 88.873L204.942 90.4955Z" fill="#FF896C"/>
<path d="M218.232 112.461C216.485 110.464 211.119 104.91 207.376 102.851C206.253 102.227 205.005 101.665 203.632 101.104C203.57 101.166 203.445 101.166 203.383 101.228C192.277 105.222 188.409 105.596 185.663 104.723C185.414 104.66 185.289 104.536 185.227 104.411C178.925 107.843 171.937 112.149 170.939 114.832C168.568 120.573 171.251 125.253 170.252 127.187C170.377 128.498 163.389 145.471 164.076 146.968C164.138 147.842 178.8 156.391 183.854 157.639C186.849 157.077 205.442 132.491 205.442 132.491C205.442 132.491 221.788 116.017 218.232 112.461Z" fill="white"/>
<path d="M185.663 104.66C188.409 105.472 192.277 105.16 203.383 101.166C203.445 101.104 203.57 101.104 203.632 101.041C201.386 100.168 198.828 99.4812 195.708 98.982C195.708 98.982 193.837 99.8556 191.091 101.228C189.407 102.102 187.348 103.163 185.227 104.286C185.289 104.473 185.414 104.598 185.663 104.66Z" fill="#FF896C"/>
<path d="M137.434 168.746C137.434 168.746 115.535 147.842 95.6939 123.818C95.6939 123.818 97.4409 108.904 102.245 106.845C107.049 104.785 154.904 136.173 164.138 142.6C173.31 149.028 180.422 160.135 179.487 164.004C178.239 169.245 160.332 189.276 137.434 168.746Z" fill="#8099CF"/>
<path d="M176.305 139.73C176.305 139.73 186.911 136.735 200.201 138.107C213.49 139.48 218.232 141.602 218.232 141.602C218.232 141.602 229.213 73.148 230.461 68.7176C230.773 66.908 231.896 62.6647 240.756 63.3511C249.615 64.0375 252.361 73.7721 250.551 83.9434L226.343 230.773L174.745 230.71V163.255C192.589 162.256 176.305 139.73 176.305 139.73Z" fill="#E3E829"/>
<path d="M164.7 230.71L166.758 151.149C166.758 144.909 171.875 139.73 178.176 139.73C184.478 139.73 189.594 144.847 189.594 151.149L183.417 230.71H164.7Z" fill="#DFC125"/>
<path d="M165.885 149.527C166.259 149.527 166.571 149.277 166.634 148.903C166.696 148.653 167.819 143.287 175.181 140.167C189.095 134.363 217.92 141.727 218.232 141.851C218.419 141.914 218.669 141.851 218.856 141.727C219.043 141.602 219.168 141.415 219.168 141.227L231.522 69.5912C231.584 69.1544 231.334 68.78 230.898 68.7176C230.461 68.6552 230.087 68.9048 230.024 69.3416L217.795 140.167C212.617 139.043 187.909 133.24 174.62 138.794C166.447 142.288 165.199 148.403 165.136 148.653C165.074 149.09 165.324 149.464 165.76 149.527C165.823 149.527 165.823 149.527 165.885 149.527Z" fill="#E3E829"/>
<path d="M216.547 112.149C216.547 112.149 228.963 123.755 230.71 130.806C232.457 137.858 225.844 141.352 222.35 140.728C218.482 140.354 181.358 136.298 171.812 140.666L175.805 132.554C175.805 132.554 187.909 129.434 204.381 128.498C209.372 127.936 209.871 127.936 209.871 127.936C209.871 127.936 204.319 123.318 202.135 120.76C197.455 115.331 207.376 103.787 216.547 112.149Z" fill="#FF896C"/>
<path d="M165.635 140.541C165.635 140.541 160.769 143.536 160.395 145.096C160.083 146.594 160.582 152.584 162.204 152.397C163.826 152.21 164.2 149.839 164.388 146.843C164.388 146.843 164.824 152.896 166.072 153.77C167.32 154.644 168.131 153.832 168.381 151.711C168.381 151.711 168.63 153.832 169.691 153.832C170.752 153.832 171.376 153.146 171.563 151.461C171.75 149.776 171.999 145.97 172.187 145.471C172.374 144.971 173.06 143.848 173.06 143.848C173.06 143.848 172.623 148.092 173.31 148.965C173.996 149.839 174.62 149.527 174.869 149.464C175.119 149.402 175.681 148.404 175.743 146.469C175.868 144.472 176.928 142.475 176.928 142.475C176.928 142.475 179.674 141.04 180.61 138.731C181.608 136.423 182.98 134.675 180.61 132.678C178.239 130.682 171.438 133.302 169.691 135.112C168.505 136.111 167.632 136.859 165.635 140.541Z" fill="#FF896C"/>
<path d="M235.951 52.2438C242.44 52.6806 247.307 58.2967 246.87 64.9111C246.433 71.5256 240.818 76.5177 234.329 76.0809C227.84 75.6441 222.974 70.028 223.411 63.4135C223.91 56.799 229.525 51.807 235.951 52.2438Z" fill="#0033A0"/>
<path d="M224.097 66.0344C224.097 66.0344 226.78 67.9064 226.405 71.4008Z" fill="#E0AEAF"/>
<path d="M225.594 73.4601C225.781 73.5225 225.969 73.5849 226.218 73.6473C227.404 73.7721 228.464 72.8985 228.651 71.7128C229.088 67.9064 226.78 65.2232 225.407 64.2871C224.409 63.6007 223.036 63.8503 222.35 64.8488C221.664 65.8472 221.913 67.1576 222.911 67.844C223.036 67.9064 224.534 69.092 224.346 71.2136C224.159 72.1496 224.721 73.0857 225.594 73.4601Z" fill="#EDB4B4"/>
<path d="M227.154 81.5098C223.847 90.6827 213.241 95.3004 203.445 91.8059C193.65 88.3115 187.785 77.6409 191.091 68.468C194.398 59.2951 205.566 54.9894 215.362 58.5463C225.158 61.9783 230.461 72.2745 227.154 81.5098Z" fill="#0033A0"/>
<path d="M184.665 75.7065C185.539 74.9577 189.032 75.7689 189.844 75.2697C190.592 74.7705 190.779 71.9624 193.712 67.3448C193.774 67.2824 193.837 67.1576 193.899 67.0952C197.955 60.2935 206.877 57.5478 214.676 60.8551C223.161 64.4119 227.279 73.8969 223.91 82.009C220.977 88.9355 213.49 92.6171 206.003 91.3067C205.878 91.4315 205.816 91.5563 205.691 91.6811C199.514 96.9852 189.532 93.1163 188.721 92.9291C186.849 92.4299 184.727 90.9323 184.166 88.7483C183.168 85.753 184.54 80.5738 184.54 80.5738C183.542 79.0761 183.792 76.4553 184.665 75.7065Z" fill="#FF896C"/>
<path d="M200.277 74.6502C200.73 74.0423 199.843 72.6145 198.296 71.4612C196.748 70.3078 195.127 69.8657 194.674 70.4736C194.221 71.0815 195.108 72.5093 196.655 73.6626C198.202 74.8159 199.824 75.2581 200.277 74.6502Z" fill="#0033A0"/>
<path d="M189.22 84.6922C190.405 85.0042 192.152 85.2538 193.774 84.6922C194.086 84.5674 194.273 84.2554 194.149 83.881C194.024 83.569 193.712 83.3818 193.338 83.5066C190.967 84.2554 188.159 83.0698 188.159 83.0698C187.847 82.945 187.473 83.0698 187.348 83.3818C187.223 83.6938 187.348 84.0682 187.66 84.193C187.722 84.2554 188.346 84.505 189.22 84.6922Z" fill="#BF584B"/>
<path d="M198.267 60.4807C198.267 60.4807 194.461 71.0888 201.885 78.8889C209.31 86.689 205.566 89.2475 205.566 89.2475L210.308 92.4299C210.308 92.4299 230.835 89.9339 225.282 68.78C221.539 57.9222 204.88 54.8646 198.267 60.4807Z" fill="#0033A0"/>
<path d="M205.941 84.9418C209.435 82.8202 212.18 84.9418 212.991 87.001C213.802 89.0603 212.991 91.1195 211.306 92.4923C209.809 93.7403 207.813 94.3019 205.878 94.1147C204.755 93.9899 203.008 93.6155 201.76 92.0555" fill="#FF896C"/>
<path d="M209.31 86.8138C209.497 86.8138 209.622 86.8762 209.747 87.0011C209.871 87.1259 209.934 87.2507 209.871 87.4379C209.871 87.7499 209.559 87.9995 209.248 87.9995C205.878 87.8123 205.629 90.8075 205.629 90.9323C205.629 91.2443 205.317 91.4939 205.005 91.4939H204.942C204.88 91.4939 204.88 91.4939 204.818 91.4939C204.568 91.4315 204.381 91.1819 204.443 90.8699C204.381 90.8075 204.755 86.5642 209.31 86.8138Z" fill="#BF584B"/>
<path d="M194.111 76.5811C194.461 75.8316 194.39 75.0586 193.953 74.8544C193.516 74.6503 192.878 75.0924 192.528 75.8418C192.178 76.5912 192.249 77.3643 192.686 77.5684C193.123 77.7726 193.761 77.3305 194.111 76.5811Z" fill="#0033A0"/>
<path d="M185.539 59.6071C187.124 59.6071 188.409 58.3219 188.409 56.7366C188.409 55.1513 187.124 53.8662 185.539 53.8662C183.953 53.8662 182.668 55.1513 182.668 56.7366C182.668 58.3219 183.953 59.6071 185.539 59.6071Z" fill="white"/>
<path d="M177.303 54.5526C179.543 54.5526 181.358 52.7366 181.358 50.4965C181.358 48.2564 179.543 46.4405 177.303 46.4405C175.063 46.4405 173.247 48.2564 173.247 50.4965C173.247 52.7366 175.063 54.5526 177.303 54.5526Z" fill="white"/>
<path d="M152.346 56.2998C165.406 56.2998 175.993 45.7114 175.993 32.6499C175.993 19.5884 165.406 9 152.346 9C139.286 9 128.699 19.5884 128.699 32.6499C128.699 45.7114 139.286 56.2998 152.346 56.2998Z" fill="white"/>
<path d="M162.142 45.8165H154.218V36.9556H150.724V45.8165H142.8C141.864 45.8165 141.178 45.0677 141.178 44.1941V29.3427H139.93C139.368 29.3427 138.869 28.9683 138.682 28.4067C138.495 27.8451 138.682 27.2834 139.181 26.909L151.784 17.7985C152.221 17.4865 152.907 17.4865 153.344 17.7985L165.947 26.909C166.447 27.221 166.634 27.8451 166.447 28.4067C166.259 28.9683 165.76 29.3427 165.199 29.3427H163.951V44.1941C163.826 45.0677 163.077 45.8165 162.142 45.8165ZM155.84 44.1941H162.142V27.7203H164.076L152.408 19.2961L140.741 27.7203H142.675V44.1941H148.977V35.3332H155.715V44.1941H155.84Z" fill="#0033A0"/>
</svg>
