<svg width="276" height="276" viewBox="0 0 276 276" fill="none" xmlns="http://www.w3.org/2000/svg">
<g clip-path="url(#clip0)">
<g clip-path="url(#clip1)">
<path d="M51.4598 191.671L48.5273 201.873L57.7073 206.209L63.4447 194.158L51.4598 191.671Z" fill="#FF896C"/>
<path d="M81.6771 231.457L83.3984 241.978H93.5345V228.588L81.6771 231.457Z" fill="#FF896C"/>
<path d="M134.589 98.136C134.589 98.136 130.382 128.422 128.597 129.697C126.812 130.972 127.131 132.247 105.966 131.674L101.822 121.089C101.822 121.089 115.273 120.006 118.843 120.006L121.776 91.6325L134.589 98.136Z" fill="#BF584B"/>
<path d="M127.386 132.757L65.2935 132.885C63.891 132.885 62.8073 131.992 62.8073 130.845C62.8073 130.845 64.0185 127.147 65.3572 127.147L127.386 128.677C128.661 128.741 129.872 129.569 129.872 130.717C129.936 131.865 128.788 132.821 127.386 132.757Z" fill="#8099CF"/>
<path d="M105.328 131.1L66.6322 131.737C65.1022 131.737 63.7635 130.653 63.7635 129.314L55.221 90.2298C55.221 88.8908 56.4323 87.7431 58.026 87.7431L96.722 87.1055C98.252 87.1055 99.5907 88.1894 99.5907 89.5284L108.133 128.613C108.197 129.952 106.922 131.1 105.328 131.1Z" fill="#8099CF"/>
<path d="M103.416 131.227H64.656C63.126 131.227 61.7873 130.143 61.7873 128.804L53.3086 90.2931C53.3086 88.9541 54.5198 87.8064 56.1135 87.8064L94.8095 87.1689C96.3395 87.1689 97.6782 88.2528 97.6782 89.5917L106.221 128.676C106.221 130.079 104.946 131.227 103.416 131.227Z" fill="#A8BEDD"/>
<path d="M77.9218 113.649C79.4256 113.277 80.2401 111.34 79.7412 109.323C79.2422 107.307 77.6187 105.973 76.1149 106.346C74.6112 106.718 73.7966 108.654 74.2956 110.671C74.7946 112.688 76.4181 114.021 77.9218 113.649Z" fill="white"/>
<path d="M147.403 175.094L94.7458 175.476C94.7458 175.476 95.6383 223.806 94.682 234.135C94.682 234.135 84.8646 237.259 80.2109 234.135C80.2109 234.135 69.1185 176.56 73.8997 158.453C79.1272 138.432 151.674 158.899 151.674 158.899L147.403 175.094Z" fill="#8099CF"/>
<path d="M123.624 175.158L84.6733 150.801H151.547V175.158H123.624Z" fill="#4971B7"/>
<path d="M49.1649 192.245C49.1649 192.245 63.7635 136.456 73.3897 130.845C83.0158 125.234 98.0607 134.16 98.0607 134.16L83.9721 147.805C83.9721 147.805 64.2735 195.369 63.6997 196.963C63.636 196.963 55.9223 197.474 49.1649 192.245Z" fill="#8099CF"/>
<path d="M162.448 134.351C162.448 134.351 176.855 157.56 168.695 169.993C160.535 182.49 133.059 173.691 81.0396 151.885V129.059C81.0396 129.059 80.6571 128.804 83.3984 129.059C96.1483 130.271 135.992 135.18 153.523 141.939L162.448 134.351Z" fill="#8099CF"/>
<path d="M73.0709 177.835C72.6247 177.835 72.1785 177.517 72.1147 177.007C70.011 161.959 73.2622 155.52 76.3859 152.778C79.2547 150.228 82.5059 150.291 83.8446 150.674C84.4184 150.801 85.7571 151.503 88.7533 152.905C99.2083 157.942 127.003 171.332 148.678 173.946C149.188 174.01 149.57 174.456 149.507 175.03C149.443 175.54 148.933 175.923 148.423 175.859C126.429 173.181 99.3995 160.174 87.8608 154.627C85.6296 153.543 83.7171 152.65 83.2709 152.523C82.5059 152.332 79.8922 152.204 77.5972 154.244C74.7922 156.667 71.9235 162.597 73.8997 176.752C73.9634 177.262 73.5809 177.772 73.0709 177.835C73.1347 177.835 73.0709 177.835 73.0709 177.835Z" fill="#4971B7"/>
<path d="M129.999 140.154L133.952 130.972C133.952 130.972 150.527 132.12 160.472 130.972L163.723 136.583L154.352 144.872L129.999 140.154Z" fill="#8099CF"/>
<path d="M133.314 57.0748C131.529 58.2224 128.915 57.3298 127.385 55.0344C125.855 52.7391 126.11 49.9337 127.895 48.786C129.68 47.6383 132.294 48.531 133.824 50.8263C135.29 53.1217 135.099 55.9271 133.314 57.0748Z" fill="#BF584B"/>
<path d="M151.355 10.0202C157.603 7.27849 164.87 10.2114 167.611 16.4599C170.353 22.7721 167.548 30.0407 161.3 32.7823C155.053 35.524 147.785 32.5911 145.044 26.3426C142.303 20.0942 145.108 12.7618 151.355 10.0202Z" fill="#0033A0"/>
<path d="M155.043 40.3222C159.592 38.3327 161.689 33.0845 159.728 28.6C157.767 24.1155 152.49 22.0929 147.942 24.0824C143.394 26.0719 141.296 31.3201 143.257 35.8046C145.218 40.2891 150.495 42.3117 155.043 40.3222Z" fill="#EDB4B4"/>
<path d="M146.346 60.0488C157.071 59.498 165.353 51.0404 164.846 41.1582C164.338 31.2761 155.233 23.7116 144.509 24.2625C133.784 24.8133 125.502 33.2709 126.009 43.1531C126.516 53.0352 135.622 60.5997 146.346 60.0488Z" fill="#0033A0"/>
<path d="M128.788 56.1821C128.916 52.2928 128.852 47.6383 128.852 44.8967C128.788 44.1316 128.788 43.4302 128.788 42.6651V42.6013V42.5376C129.171 35.0777 134.462 28.638 141.857 27.299C150.527 25.7688 158.878 31.7622 160.535 40.8161C161.555 46.6182 159.579 52.1653 155.754 55.8633C154.224 62.4306 146.829 66.5749 140.327 67.2125C133.442 66.83 128.661 59.7527 128.788 56.1821Z" fill="#FF896C"/>
<path d="M134.334 53.6317C134.653 53.1217 135.227 53.1217 135.545 53.1217C135.609 53.1217 135.864 53.1217 135.864 53.0579C135.928 52.9941 135.928 52.7391 135.928 52.6116C135.864 52.2928 136.119 51.974 136.438 51.9102C136.82 51.8465 137.075 52.1015 137.139 52.4203C137.139 52.5478 137.203 53.3129 136.757 53.8868C136.374 54.3331 135.864 54.3331 135.482 54.3331C135.418 54.3331 135.354 54.3331 135.29 54.3331C135.29 54.5244 135.418 55.162 135.8 55.5445C136.055 55.7996 136.055 56.1821 135.8 56.4372C135.673 56.5647 135.545 56.6284 135.354 56.6284C135.163 56.6284 135.035 56.5647 134.908 56.4372C134.334 55.7358 133.888 54.3969 134.334 53.6317Z" fill="#BF584B"/>
<path d="M131.633 45.5346C133.357 45.4849 134.738 44.8455 134.717 44.1063C134.695 43.3671 133.28 42.8081 131.556 42.8577C129.831 42.9074 128.451 43.5468 128.472 44.286C128.493 45.0252 129.908 45.5842 131.633 45.5346Z" fill="#0033A0"/>
<path d="M134.972 49.8061C134.972 50.5075 134.334 51.1451 133.633 51.0813C132.932 51.0813 132.358 50.4437 132.358 49.7424C132.358 49.041 132.995 48.4672 133.697 48.4672C134.398 48.531 135.035 49.1048 134.972 49.8061Z" fill="#0033A0"/>
<path d="M143.514 49.6786C143.514 50.4438 142.877 51.0176 142.112 51.0176C141.347 51.0176 140.773 50.38 140.773 49.6149C140.773 48.8498 141.41 48.2759 142.175 48.2759C142.94 48.2759 143.578 48.9135 143.514 49.6786Z" fill="#0033A0"/>
<path d="M148.135 43.8324C148.166 43.0231 146.48 42.3015 144.369 42.2207C142.258 42.1399 140.522 42.7305 140.491 43.5398C140.46 44.3492 142.146 45.0708 144.257 45.1516C146.368 45.2323 148.104 44.6417 148.135 43.8324Z" fill="#0033A0"/>
<path d="M136.629 59.0513C136.757 58.9875 136.948 58.9238 137.075 58.9875C140.9 60.0077 143.833 57.266 143.897 57.266C144.152 57.011 144.534 57.011 144.789 57.266C145.044 57.5211 145.044 57.9036 144.789 58.1587C144.725 58.2224 142.494 60.2627 139.307 60.454C138.478 60.5178 137.649 60.3903 136.82 60.199C136.629 60.1352 136.502 60.0715 136.438 59.8802C136.374 59.7527 136.31 59.5614 136.374 59.4339C136.374 59.2426 136.502 59.1151 136.629 59.0513Z" fill="#BF584B"/>
<path d="M134.015 30.6145C134.015 30.6145 136.31 41.8362 146.893 44.7692C157.475 47.7021 155.563 51.8465 155.563 51.8465L162.448 49.6149C162.448 49.6149 165.89 35.524 156.583 28.4467C147.275 21.3694 134.079 27.1077 134.015 30.6145Z" fill="#0033A0"/>
<path d="M154.925 50.0612C156.838 47.3195 160.153 47.6383 161.555 49.1048C163.021 50.5713 163.085 52.7391 162.065 54.5244C161.173 56.1821 159.643 57.3936 157.858 57.9674C156.774 58.2862 155.627 58.3499 154.543 58.1587" fill="#FF896C"/>
<path d="M158.24 50.2525C158.559 50.1249 158.942 50.3162 159.005 50.635C159.133 50.9538 158.942 51.3364 158.623 51.4001C155.627 52.4203 156.455 55.162 156.519 55.2895C156.647 55.6083 156.455 55.9908 156.137 56.0546C156.073 56.0546 156.009 56.0546 155.945 56.0546C155.69 56.0546 155.435 55.8633 155.308 55.6083C155.308 55.672 154.097 51.7189 158.24 50.2525Z" fill="#BF584B"/>
<path d="M133.123 73.7164C133.123 73.7164 123.879 94.3107 124.581 99.6665C125.154 106.042 129.744 108.912 129.808 111.143C130.509 112.291 132.23 130.909 133.569 131.993C134.079 132.694 155.117 133.204 160.216 131.865C162.639 129.952 167.356 99.284 167.356 99.284C167.356 99.284 170.161 75.8204 165.189 73.8439C160.663 72.1224 148.869 68.4881 133.123 73.7164Z" fill="white"/>
<path d="M148.933 74.1623C149.531 74.1623 150.017 73.6771 150.017 73.0784C150.017 72.4798 149.531 71.9945 148.933 71.9945C148.334 71.9945 147.849 72.4798 147.849 73.0784C147.849 73.6771 148.334 74.1623 148.933 74.1623Z" fill="#DFC125"/>
<path d="M147.148 81.8135C139.179 81.941 135.354 75.4375 135.864 72.8871C147.594 69.6354 156.838 71.2294 162.193 72.8234C161.491 75.1825 155.563 81.6222 147.148 81.8135Z" fill="#FF896C"/>
<path d="M148.933 74.1623C149.531 74.1623 150.017 73.6771 150.017 73.0784C150.017 72.4798 149.531 71.9945 148.933 71.9945C148.334 71.9945 147.849 72.4798 147.849 73.0784C147.849 73.6771 148.334 74.1623 148.933 74.1623Z" fill="#DFC125"/>
<path d="M146.702 132.311C147.195 132.311 147.594 131.911 147.594 131.418C147.594 130.925 147.195 130.526 146.702 130.526C146.209 130.526 145.809 130.925 145.809 131.418C145.809 131.911 146.209 132.311 146.702 132.311Z" fill="#DFC125"/>
<path d="M132.74 79.5819C133.233 79.5819 133.633 79.1823 133.633 78.6893C133.633 78.1963 133.233 77.7966 132.74 77.7966C132.248 77.7966 131.848 78.1963 131.848 78.6893C131.848 79.1823 132.248 79.5819 132.74 79.5819Z" fill="#DFC125"/>
<path d="M165.635 80.5383C166.128 80.5383 166.528 80.1387 166.528 79.6457C166.528 79.1527 166.128 78.753 165.635 78.753C165.142 78.753 164.743 79.1527 164.743 79.6457C164.743 80.1387 165.142 80.5383 165.635 80.5383Z" fill="#DFC125"/>
<path d="M160.153 92.7164L166.591 121.281C166.591 121.281 149.443 126.509 142.303 129.251V137.284C142.303 137.284 174.879 133.905 177.748 129.314C180.553 124.724 175.835 83.6625 174.114 82.5148C174.114 82.5148 172.074 77.2866 164.679 77.7966C157.284 78.3067 160.153 92.7164 160.153 92.7164Z" fill="#FF896C"/>
<path d="M135.8 121.026C135.8 121.026 132.804 115.989 131.21 115.67C129.68 115.287 123.561 115.734 123.752 117.391C123.943 119.049 126.366 119.495 129.425 119.687C129.425 119.687 123.242 120.069 122.349 121.344C121.457 122.62 122.286 123.449 124.389 123.704C124.389 123.704 122.222 123.959 122.222 125.043C122.222 126.126 122.859 126.764 124.644 127.019C126.366 127.274 130.254 127.529 130.764 127.72C131.274 127.912 132.422 128.613 132.422 128.613C132.422 128.613 128.087 128.103 127.194 128.804C126.302 129.506 126.621 130.143 126.684 130.398C126.748 130.653 127.768 131.227 129.744 131.355C131.72 131.482 133.824 132.63 133.824 132.63C133.824 132.63 135.29 135.435 137.649 136.455C140.008 137.476 142.43 138.305 144.47 135.882C146.574 133.459 142.749 126.509 141.474 125.298C140.199 124.086 139.498 123.13 135.8 121.026Z" fill="#FF896C"/>
<path d="M163.276 73.2059C163.276 73.2059 169.97 74.3536 173.795 80.4745C176.09 83.9813 178.576 95.0755 178.576 95.0755L158.495 99.3474L154.352 90.9949L163.276 73.2059Z" fill="white"/>
<path d="M111.703 351.389C111.639 351.389 111.576 351.389 111.512 351.389C109.408 351.262 107.751 349.476 107.878 347.372L115.783 189.504C115.911 187.399 117.696 185.742 119.799 185.869C121.903 185.997 123.561 187.782 123.433 189.886L115.528 347.755C115.464 349.859 113.743 351.389 111.703 351.389Z" fill="#8099CF"/>
<path d="M168.95 351.389C166.91 351.389 165.253 349.795 165.125 347.755L157.22 189.886C157.093 187.782 158.75 185.997 160.854 185.869C162.958 185.742 164.743 187.399 164.87 189.504L172.775 347.372C172.903 349.476 171.245 351.262 169.141 351.389C169.078 351.389 169.014 351.389 168.95 351.389Z" fill="#8099CF"/>
<path d="M162.703 243.635H116.931C114.827 243.635 113.106 241.914 113.106 239.81C113.106 237.706 114.827 235.984 116.931 235.984H162.703C164.806 235.984 166.528 237.706 166.528 239.81C166.528 241.914 164.806 243.635 162.703 243.635Z" fill="#8099CF"/>
<path d="M140.008 355.789C137.904 355.789 136.183 354.067 136.183 351.963V187.144C136.183 185.04 137.904 183.319 140.008 183.319C142.112 183.319 143.833 185.04 143.833 187.144V351.963C143.833 354.067 142.112 355.789 140.008 355.789Z" fill="#8099CF"/>
<path d="M154.16 58.605C154.16 58.605 154.989 71.1019 154.16 73.3972C153.332 75.6926 143.068 76.904 143.259 72.122C143.45 67.1488 143.96 58.605 143.96 58.605H154.16Z" fill="#FF896C"/>
<path d="M134.844 73.3335C134.844 73.3335 127.386 74.4174 124.899 77.2866C122.413 80.1557 117.951 91.0586 117.951 91.0586L134.78 100.113L140.327 92.0788L134.844 73.3335Z" fill="white"/>
<path d="M125.346 101.069C125.409 101.069 125.473 101.069 125.537 101.069C126.047 100.941 126.366 100.431 126.238 99.9212C125.091 94.8205 130.637 84.3001 130.701 84.1726C130.956 83.7263 130.764 83.1524 130.318 82.8974C129.872 82.6424 129.298 82.8336 129.043 83.28C128.788 83.7263 123.114 94.5654 124.453 100.368C124.453 100.75 124.899 101.069 125.346 101.069Z" fill="#DDDDDD"/>
<path d="M154.67 143.66C154.607 143.66 154.479 143.66 154.415 143.597C123.624 135.053 88.1795 130.526 81.6771 130.335C76.0671 130.207 74.2821 131.992 74.2821 132.056C73.8996 132.439 73.3259 132.502 72.9434 132.12C72.5609 131.801 72.4972 131.163 72.8159 130.781C73.0072 130.526 75.1746 128.23 81.7408 128.422C88.307 128.613 124.007 133.14 154.925 141.748C155.435 141.875 155.754 142.385 155.563 142.895C155.499 143.342 155.117 143.66 154.67 143.66Z" fill="#4971B7"/>
<path d="M81.4221 256.132C81.4221 256.069 81.5496 255.877 81.7409 255.495L86.1396 253.199C84.6096 255.367 83.8446 257.152 83.7809 257.152C83.6534 257.408 83.4621 257.663 83.2071 257.79C82.8884 257.981 82.5059 257.981 82.1234 257.854C81.4221 257.535 81.1671 256.77 81.4221 256.132Z" fill="white"/>
<path d="M81.8046 240.639C89.0083 244.656 95.5108 236.303 95.5108 236.303L99.0807 240.065L100.866 241.978L102.969 244.209L86.0758 253.136L81.6771 255.431L66.441 263.465L81.8046 240.639Z" fill="#0033A0"/>
<path d="M69.2459 268.82L66.5047 263.656L103.033 244.273L105.902 249.756L69.2459 268.82Z" fill="white"/>
<path d="M68.6722 269.139L65.931 263.975C65.7397 263.656 65.8672 263.273 66.186 263.146L102.651 243.699C102.842 243.635 102.969 243.572 103.161 243.635C103.352 243.699 103.479 243.827 103.543 243.954L106.412 249.501C106.476 249.629 106.476 249.82 106.476 250.011C106.412 250.203 106.284 250.33 106.157 250.394L69.501 269.458C69.246 269.586 68.8635 269.458 68.6722 269.139ZM102.778 245.102L67.3972 263.911L69.501 267.928L105.009 249.438L102.778 245.102Z" fill="#A8BEDD"/>
<path d="M84.0358 248.417C84.2908 248.29 84.5458 248.035 84.6733 247.716C84.9283 247.078 84.5458 246.313 83.9083 246.122C83.9083 246.122 81.9958 245.421 79.2546 243.062C78.7446 242.615 77.9159 242.679 77.4696 243.189C77.0234 243.699 77.0871 244.528 77.5971 244.974C80.7846 247.716 83.0158 248.481 83.0796 248.481C83.3983 248.609 83.7808 248.545 84.0358 248.417Z" fill="white"/>
<path d="M81.2946 251.414C81.5496 251.287 81.8046 251.032 81.8684 250.776C82.1234 250.139 81.8046 249.374 81.1671 249.119C81.1671 249.119 79.4459 248.417 77.0234 246.122C76.5134 245.612 75.6847 245.676 75.2384 246.186C74.7284 246.696 74.7922 247.525 75.3022 247.971C78.1709 250.649 80.2109 251.414 80.2746 251.478C80.5934 251.605 80.9759 251.605 81.2946 251.414Z" fill="white"/>
<path d="M78.3622 254.538C78.6172 254.411 78.8084 254.219 78.9359 253.901C79.1909 253.263 78.9359 252.498 78.2984 252.243C78.2984 252.243 76.9597 251.605 75.0472 249.693C74.5372 249.182 73.7084 249.182 73.2622 249.693C72.7522 250.203 72.7522 250.968 73.2622 251.478C75.4934 253.709 77.1509 254.475 77.2784 254.538C77.5972 254.73 77.9797 254.666 78.3622 254.538Z" fill="white"/>
<path d="M79.3184 242.551C79.3184 242.551 77.0234 239.172 79.3184 237.323C81.6134 235.474 83.3984 241.34 83.3984 241.34L81.2309 244.4L79.3184 242.551Z" fill="#0033A0"/>
<path d="M44.5749 216.665C44.5749 216.601 44.7661 216.41 44.9574 216.091L49.6748 214.561C47.7623 216.474 46.7423 218.068 46.6786 218.068C46.4873 218.323 46.2961 218.514 45.9773 218.578C45.5948 218.705 45.2124 218.642 44.8936 218.45C44.3836 218.068 44.1924 217.303 44.5749 216.665Z" fill="white"/>
<path d="M47.5711 201.49C54.0098 206.655 61.851 199.577 61.851 199.577L64.7197 203.913L66.186 206.081L67.9072 208.631L49.6748 214.561L44.9574 216.091L28.5737 221.447L47.5711 201.49Z" fill="#0033A0"/>
<path d="M30.4225 227.122L28.6375 221.638L67.8434 208.631L69.8197 214.497L30.4225 227.122Z" fill="white"/>
<path d="M29.8487 227.377L28 221.83C27.8725 221.511 28.0637 221.128 28.3825 221.001L67.5884 207.994C67.7797 207.93 67.9072 207.93 68.0984 208.058C68.2259 208.121 68.3534 208.249 68.4172 208.44L70.3297 214.37C70.3934 214.561 70.3934 214.689 70.2659 214.88C70.2022 215.007 70.0747 215.135 69.8834 215.199L30.6137 227.759C30.295 227.887 29.9125 227.696 29.8487 227.377ZM67.4609 209.396L29.4662 222.021L30.8687 226.357L68.9909 214.115L67.4609 209.396Z" fill="#A8BEDD"/>
<path d="M48.4636 209.46C48.7823 209.333 49.0373 209.141 49.1648 208.886C49.4836 208.249 49.2923 207.484 48.6548 207.165C48.6548 207.165 46.9336 206.145 44.5749 203.339C44.1286 202.829 43.2999 202.702 42.7899 203.148C42.2799 203.594 42.1524 204.423 42.5986 204.933C45.2761 208.121 47.3161 209.269 47.3798 209.333C47.8261 209.588 48.1448 209.588 48.4636 209.46Z" fill="white"/>
<path d="M45.2761 212.011C45.5311 211.947 45.7861 211.756 45.9773 211.437C46.3598 210.863 46.1686 210.034 45.5311 209.715C45.5311 209.715 43.9374 208.759 41.8974 206.081C41.4511 205.507 40.6861 205.443 40.1124 205.826C39.5386 206.272 39.4749 207.037 39.8574 207.611C42.2161 210.672 44.1286 211.819 44.1924 211.883C44.5749 212.074 44.9574 212.138 45.2761 212.011Z" fill="white"/>
<path d="M41.8336 214.561C42.0886 214.497 42.3436 214.306 42.5349 214.051C42.9174 213.477 42.7261 212.648 42.1524 212.266C42.1524 212.266 40.9411 211.437 39.3474 209.205C38.9649 208.631 38.1362 208.504 37.5624 208.886C36.9887 209.269 36.8612 210.098 37.2437 210.672C39.0924 213.286 40.5586 214.242 40.6861 214.37C41.0686 214.625 41.4511 214.689 41.8336 214.561Z" fill="white"/>
<path d="M44.8299 202.957C44.8299 202.957 43.1724 199.195 45.7224 197.792C48.2723 196.39 49.0373 202.447 49.0373 202.447L46.3599 205.061L44.8299 202.957Z" fill="#0033A0"/>
<path d="M165.125 191.161H114.827C110.173 191.161 106.348 187.336 106.348 182.681C106.348 178.027 110.173 174.201 114.827 174.201H165.125C169.779 174.201 173.604 178.027 173.604 182.681C173.604 187.399 169.843 191.161 165.125 191.161Z" fill="#DFC125"/>
</g>
</g>
<defs>
<clipPath id="clip0">
<rect width="276" height="276" fill="white"/>
</clipPath>
<clipPath id="clip1">
<rect width="169" height="348" fill="white" transform="translate(28 9)"/>
</clipPath>
</defs>
</svg>
