<svg width="276" height="276" viewBox="0 0 276 276" fill="none" xmlns="http://www.w3.org/2000/svg">
<g clip-path="url(#clip0)">
<path d="M122.395 128.782L101.938 92.3892C99.9998 87.7235 89.6635 85.4983 89.6635 85.4983L95.1906 110.909L108.111 129.213L98.5642 147.732C99.0667 147.588 101.507 158.714 101.507 158.714C101.507 158.714 121.175 135.027 122.18 132.945C123.4 130.361 122.395 128.782 122.395 128.782Z" fill="#FF896C"/>
<path d="M87.869 84.9959C87.869 84.9959 96.6262 87.0057 99.7127 89.518C102.799 92.0303 110.121 103.515 110.121 103.515L94.7599 112.775L97.1286 105.525L87.869 84.9959Z" fill="white"/>
<path d="M88.4432 150.029C84.926 150.459 79.8296 150.675 74.2307 150.675C68.6319 150.675 63.6072 150.388 60.09 150.029C39.7762 165.103 36.7614 190.585 36.7614 190.585L12.1408 356.325L23.1232 356.182C23.1232 356.182 71.4313 206.807 71.0724 192.666L72.3644 192.738L82.9879 356.756L94.4727 356.325C94.4727 356.325 104.809 226.762 105.312 199.342C105.814 173.429 90.1659 152.254 88.4432 150.029Z" fill="#FF896C"/>
<path d="M29.8705 341.251C41.5707 303.064 71.4313 204.079 71.0724 192.738L72.3644 192.81L80.0449 341.251H97.6311C99.7845 306.223 105.024 221.019 105.383 199.414C105.814 173.429 90.1659 152.254 88.4432 150.029C84.926 150.459 79.8296 150.675 74.2307 150.675C68.6319 150.675 63.6072 150.388 60.09 150.029C39.7762 165.103 36.7614 190.585 36.7614 190.585L12.4279 341.251H29.8705Z" fill="#8099CF"/>
<path d="M74.446 156.346C65.5453 156.346 59.0133 155.269 58.8697 155.269C58.2955 155.197 57.8648 154.623 58.0084 154.049C58.0802 153.475 58.6544 153.044 59.2286 153.188C59.3722 153.188 73.3693 155.556 88.0843 153.259C88.6585 153.188 89.2328 153.547 89.3046 154.193C89.3763 154.767 89.0174 155.341 88.3714 155.413C83.5621 156.131 78.7529 156.346 74.446 156.346Z" fill="#0033A0"/>
<path d="M65.33 153.402H63.1766V158.786H65.33V153.402Z" fill="#8099CF"/>
<path d="M86.0027 152.972H83.8493V158.355H86.0027V152.972Z" fill="#8099CF"/>
<path d="M74.6614 186.062C74.4461 186.062 74.3025 185.991 74.0872 185.919C73.5847 185.632 73.3694 184.986 73.7283 184.412C75.8817 180.823 76.0252 165.103 75.9534 159.288C75.9534 158.714 76.3841 158.212 77.0302 158.212C77.6044 158.212 78.1069 158.714 78.1069 159.288C78.1786 161.442 78.394 180.751 75.5945 185.488C75.3792 185.847 75.0203 186.062 74.6614 186.062Z" fill="#4971B7"/>
<path d="M71.2877 194.317C70.7135 194.317 70.2828 193.887 70.211 193.384C70.1392 192.81 70.5699 192.236 71.1442 192.164C71.2159 192.164 78.6811 191.302 82.8443 189.149C83.3468 188.862 83.9928 189.077 84.28 189.58C84.5671 190.082 84.3517 190.728 83.8493 191.015C79.3271 193.384 71.7184 194.174 71.4313 194.245C71.4313 194.317 71.3595 194.317 71.2877 194.317Z" fill="#4971B7"/>
<path d="M89.7353 86.4325C89.7353 86.4325 100.143 109.617 99.3538 115.647C98.7078 122.825 93.5396 126.055 93.4678 128.567C92.6782 129.86 90.7402 150.819 89.2328 152.04C88.6586 152.829 64.9711 153.403 59.2287 151.896C56.501 149.743 51.1893 115.216 51.1893 115.216C51.1893 115.216 48.0309 88.8012 53.6298 86.576C58.7262 84.638 72.0055 80.5465 89.7353 86.4325Z" fill="white"/>
<path d="M73.9436 95.5476C82.9161 95.6911 87.2229 88.3696 86.6487 85.4984C73.4411 81.8376 63.033 83.6321 57.0035 85.4266C57.793 88.0824 64.4686 95.404 73.9436 95.5476Z" fill="#FF896C"/>
<path d="M50.6868 88.8721C50.6868 88.8721 45.0879 90.523 43.5088 92.0304C35.0387 99.8544 6.61374 128.064 9.55673 133.232C9.55673 133.232 17.309 141.056 45.9493 160.15C45.9493 160.15 50.3279 159.576 52.4095 150.818L27.1429 130.935L53.7016 108.612L50.6868 88.8721Z" fill="#FF896C"/>
<path d="M56.2139 144.43C56.2139 144.43 59.5876 138.759 61.3821 138.4C63.1048 137.97 69.9957 138.472 69.7804 140.339C69.565 142.205 66.8374 142.707 63.3919 142.923C63.3919 142.923 70.3546 143.353 71.3595 144.789C72.3644 146.224 71.4313 147.158 69.0625 147.445C69.0625 147.445 71.5031 147.732 71.5031 148.952C71.5031 150.172 70.7853 150.89 68.7754 151.177C66.8374 151.464 62.4588 151.752 61.8845 151.967C61.3103 152.182 60.0182 152.972 60.0182 152.972C60.0182 152.972 64.8993 152.398 65.9042 153.187C66.9091 153.977 66.5502 154.695 66.4785 154.982C66.4067 155.269 65.2582 155.915 63.033 156.058C60.8078 156.202 58.4391 157.494 58.4391 157.494C58.4391 157.494 56.7881 160.652 54.1323 161.801C51.4764 162.949 48.7487 163.882 46.4518 161.155C44.083 158.427 48.3898 150.603 49.8254 149.239C51.2611 147.875 52.0506 146.799 56.2139 144.43Z" fill="#FF896C"/>
<path d="M55.3525 85.1395C55.3525 85.1395 49.6101 86.7904 45.3751 88.8721C41.14 90.9537 31.3779 100.213 31.3779 100.213L48.2463 116.005L58.5109 109.545L55.3525 85.1395Z" fill="white"/>
<path d="M52.1224 114.857C51.7635 114.857 51.4046 114.713 51.2611 114.354C50.9022 113.852 51.0457 113.206 51.5482 112.847L55.5679 110.191C56.0703 109.832 56.7164 109.975 57.0753 110.478C57.4342 110.98 57.2906 111.626 56.7881 111.985L52.7684 114.641C52.5531 114.857 52.3378 114.857 52.1224 114.857Z" fill="#DDDDDD"/>
<path d="M41.2118 15.1537C33.8902 13.9335 26.9275 18.9581 25.6355 26.495C24.4152 33.9601 29.3681 41.0664 36.7614 42.2867C44.083 43.5069 51.0457 38.4823 52.3377 30.9454C53.558 23.4802 48.6052 16.374 41.2118 15.1537Z" fill="#0033A0"/>
<path d="M50.9021 33.7448C50.9021 33.7448 47.3849 35.1086 46.8824 39.2001Z" fill="#E0AEAF"/>
<path d="M47.3131 41.6406C47.0978 41.7124 46.8107 41.7124 46.5953 41.6406C45.2315 41.4971 44.2266 40.205 44.3701 38.8412C44.8726 34.4626 48.1027 32.0939 49.969 31.3761C51.261 30.8736 52.6966 31.5196 53.1991 32.8117C53.7016 34.1037 53.0556 35.5393 51.8353 36.0418C51.6917 36.1135 49.6819 37.0467 49.3948 39.4872C49.2512 40.5639 48.3898 41.4253 47.3131 41.6406Z" fill="#EDB4B4"/>
<path d="M43.437 50.2543C44.729 61.3802 55.3525 69.3478 67.268 67.984C79.1835 66.6202 88.515 56.212 87.2229 45.0861C85.9309 33.9602 74.5178 26.2079 62.6023 27.5717C50.6868 28.9356 42.1449 39.0566 43.437 50.2543Z" fill="#0033A0"/>
<path d="M92.5347 54.8482C91.7451 53.7715 87.5818 53.7715 86.864 52.9819C86.1462 52.2641 86.6487 49.034 84.5671 43.0762C84.4953 42.9327 84.4953 42.8609 84.4235 42.7173C81.6959 34.1037 72.4362 28.6484 62.7459 30.2994C52.3377 32.0939 45.2315 41.6406 46.9542 51.6181C48.3898 60.1599 55.855 66.2613 64.5404 66.6919C64.6122 66.8355 64.6839 67.0508 64.8275 67.1944C70.3546 74.7313 82.5572 73.0086 83.5621 73.0086C85.7873 73.0086 88.5868 71.7883 89.7352 69.4914C91.6015 66.4048 91.458 60.2317 91.458 60.2317C92.9654 58.9397 93.3243 55.9249 92.5347 54.8482Z" fill="#FF896C"/>
<path d="M82.2701 52.9101C82.5572 53.9151 83.1315 54.5611 83.6339 54.4175C84.0646 54.274 84.2082 53.4126 83.9211 52.4077C83.6339 51.4028 83.0597 50.7567 82.5572 50.9003C82.1265 51.0439 81.983 51.977 82.2701 52.9101Z" fill="#0033A0"/>
<path d="M79.7486 49.4652C81.7837 48.5781 83.1509 47.2108 82.8024 46.4113C82.4539 45.6118 80.5216 45.6829 78.4865 46.57C76.4514 47.4571 75.0842 48.8244 75.4327 49.6239C75.7812 50.4234 77.7135 50.3523 79.7486 49.4652Z" fill="#0033A0"/>
<path d="M85.1413 63.749C83.7057 63.749 81.6959 63.6054 79.9731 62.5287C79.6142 62.3134 79.5425 61.8827 79.7578 61.5238C79.9731 61.1649 80.4038 61.0931 80.7627 61.3084C83.2033 62.8158 86.6487 62.1698 86.7205 62.1698C87.0794 62.098 87.5101 62.3851 87.5818 62.7441C87.6536 63.103 87.3665 63.5336 87.0076 63.6054C86.864 63.6054 86.1462 63.749 85.1413 63.749Z" fill="#BF584B"/>
<path d="M81.2652 34.2473C81.2652 34.2473 82.7726 47.0959 72.4362 53.9151C62.0999 60.7342 65.6171 64.5385 65.6171 64.5385L59.444 66.8355C59.444 66.8355 37.1203 58.6526 48.8923 36.4007C55.855 25.3465 75.3792 26.2079 81.2652 34.2473Z" fill="#0033A0"/>
<path d="M66.2631 59.6575C62.9612 56.3556 59.3004 58.0065 57.8648 60.0881C56.4292 62.1698 56.7881 64.7539 58.2955 66.6201C59.6593 68.4147 61.741 69.5631 63.9661 69.8503C65.2582 69.9938 67.3398 70.0656 69.1343 68.63" fill="#FF896C"/>
<path d="M62.0281 60.8777C61.8845 60.8777 61.6692 60.8777 61.5256 61.0213C61.3821 61.0931 61.3103 61.3084 61.2385 61.452C61.1667 61.8109 61.4538 62.1698 61.8127 62.2416C65.6171 62.8876 65.1146 66.333 65.1146 66.4766C65.0428 66.8355 65.33 67.1944 65.6889 67.2662H65.7606C65.8324 67.2662 65.8324 67.2662 65.9042 67.2662C66.1913 67.2662 66.4785 66.9791 66.4785 66.6919C66.4785 66.6919 67.1963 61.7391 62.0281 60.8777Z" fill="#BF584B"/>
<path d="M92.5347 139.334C92.5347 139.334 88.0843 138.4 86.7205 140.051C85.3567 141.702 87.7254 142.851 89.5917 143.353C91.458 143.856 93.2525 144.43 93.2525 144.43C93.2525 144.43 88.515 145.076 86.5769 147.014C84.6389 148.952 87.7254 149.885 87.7254 149.885C87.7254 149.885 83.7057 150.316 84.3517 151.967C84.9978 153.618 87.6536 153.905 89.5917 154.623C91.5298 155.341 91.5298 155.341 91.5298 155.341C91.5298 155.341 87.4383 154.838 87.6536 157.063C87.7972 158.714 92.9654 159.073 92.9654 159.073C92.9654 159.073 93.396 159.863 94.1856 161.227C96.1237 164.959 99.7845 163.308 101.651 158.212C101.938 155.053 100.861 150.89 100.861 150.89C100.861 150.89 97.6311 145.363 96.1237 145.076C95.4059 145.004 96.8415 140.051 92.5347 139.334Z" fill="#FF896C"/>
<path d="M91.3862 141.343L90.3095 147.445L94.6881 146.009L94.7599 141.415L91.3862 141.343Z" fill="#FF896C"/>
<path d="M98.1335 116.651C98.0618 116.651 97.99 116.651 97.9182 116.651C97.344 116.507 96.9851 115.933 97.1286 115.359C98.4207 109.617 92.1758 97.7728 92.104 97.6292C91.8169 97.1267 92.0322 96.4807 92.5347 96.1936C93.0371 95.9065 93.6832 96.1218 93.9703 96.6243C94.2574 97.1267 100.646 109.329 99.1385 115.861C99.0667 116.364 98.636 116.651 98.1335 116.651Z" fill="#DDDDDD"/>
<path d="M66.0478 69.4196C66.0478 69.4196 65.1146 83.4885 66.0478 86.0726C66.9809 88.6567 78.5375 90.0205 78.3222 84.637C78.1069 79.0381 77.5326 69.4196 77.5326 69.4196H66.0478Z" fill="#FF896C"/>
<path d="M219.155 80.6173H151.969V90.3794H219.155V80.6173Z" fill="#E3E829"/>
<path d="M219.083 80.6173H187.356V90.3794H219.083V80.6173Z" fill="#DFC125"/>
<path d="M156.276 80.6173H155.055V90.3794H156.276V80.6173Z" fill="#DFC125"/>
<path d="M180.107 80.6173H178.886V90.3794H180.107V80.6173Z" fill="#DFC125"/>
<path d="M172.139 80.6173H170.919V90.3794H172.139V80.6173Z" fill="#DFC125"/>
<path d="M164.243 80.6173H163.023V90.3794H164.243V80.6173Z" fill="#DFC125"/>
<path d="M160.295 80.6173H159.075V90.3794H160.295V80.6173Z" fill="#DFC125"/>
<path d="M168.191 80.6173H166.971V90.3794H168.191V80.6173Z" fill="#DFC125"/>
<path d="M176.087 80.6173H174.867V90.3794H176.087V80.6173Z" fill="#DFC125"/>
<path d="M184.054 80.6173H182.834V90.3794H184.054V80.6173Z" fill="#DFC125"/>
<path d="M219.155 89.1591H151.969V90.3794H219.155V89.1591Z" fill="#DFC125"/>
<path d="M219.155 90.3794H151.969V100.142H219.155V90.3794Z" fill="#E3E829"/>
<path d="M219.083 90.3794H187.356V100.142H219.083V90.3794Z" fill="#DFC125"/>
<path d="M156.276 90.3794H155.055V100.142H156.276V90.3794Z" fill="#DFC125"/>
<path d="M180.107 90.3794H178.886V100.142H180.107V90.3794Z" fill="#DFC125"/>
<path d="M172.139 90.3794H170.919V100.142H172.139V90.3794Z" fill="#DFC125"/>
<path d="M164.243 90.3794H163.023V100.142H164.243V90.3794Z" fill="#DFC125"/>
<path d="M160.295 90.3794H159.075V100.142H160.295V90.3794Z" fill="#DFC125"/>
<path d="M168.191 90.3794H166.971V100.142H168.191V90.3794Z" fill="#DFC125"/>
<path d="M176.087 90.3794H174.867V100.142H176.087V90.3794Z" fill="#DFC125"/>
<path d="M184.054 90.3794H182.834V100.142H184.054V90.3794Z" fill="#DFC125"/>
<path d="M219.155 98.9212H151.969V100.141H219.155V98.9212Z" fill="#DFC125"/>
<path d="M217.002 100.07H149.815V109.832H217.002V100.07Z" fill="#E3E829"/>
<path d="M217.002 100.07H185.275V109.832H217.002V100.07Z" fill="#DFC125"/>
<path d="M154.194 100.07H152.974V109.832H154.194V100.07Z" fill="#DFC125"/>
<path d="M177.953 100.07H176.733V109.832H177.953V100.07Z" fill="#DFC125"/>
<path d="M170.057 100.07H168.837V109.832H170.057V100.07Z" fill="#DFC125"/>
<path d="M162.09 100.07H160.869V109.832H162.09V100.07Z" fill="#DFC125"/>
<path d="M158.142 100.07H156.922V109.832H158.142V100.07Z" fill="#DFC125"/>
<path d="M166.038 100.07H164.817V109.832H166.038V100.07Z" fill="#DFC125"/>
<path d="M174.005 100.07H172.785V109.832H174.005V100.07Z" fill="#DFC125"/>
<path d="M181.901 100.07H180.681V109.832H181.901V100.07Z" fill="#DFC125"/>
<path d="M217.002 108.683H149.815V109.904H217.002V108.683Z" fill="#DFC125"/>
<path d="M217.002 109.832H149.815V119.594H217.002V109.832Z" fill="#E3E829"/>
<path d="M217.002 109.832H185.275V119.594H217.002V109.832Z" fill="#DFC125"/>
<path d="M154.194 109.832H152.974V119.594H154.194V109.832Z" fill="#DFC125"/>
<path d="M177.953 109.832H176.733V119.594H177.953V109.832Z" fill="#DFC125"/>
<path d="M170.057 109.832H168.837V119.594H170.057V109.832Z" fill="#DFC125"/>
<path d="M162.09 109.832H160.869V119.594H162.09V109.832Z" fill="#DFC125"/>
<path d="M158.142 109.832H156.922V119.594H158.142V109.832Z" fill="#DFC125"/>
<path d="M166.038 109.832H164.817V119.594H166.038V109.832Z" fill="#DFC125"/>
<path d="M174.005 109.832H172.785V119.594H174.005V109.832Z" fill="#DFC125"/>
<path d="M181.901 109.832H180.681V119.594H181.901V109.832Z" fill="#DFC125"/>
<path d="M217.002 118.445H149.815V119.666H217.002V118.445Z" fill="#DFC125"/>
<path d="M217.002 119.594H149.815V129.356H217.002V119.594Z" fill="#E3E829"/>
<path d="M217.002 119.594H185.275V129.356H217.002V119.594Z" fill="#DFC125"/>
<path d="M154.194 119.594H152.974V129.356H154.194V119.594Z" fill="#DFC125"/>
<path d="M177.953 119.594H176.733V129.356H177.953V119.594Z" fill="#DFC125"/>
<path d="M170.057 119.594H168.837V129.356H170.057V119.594Z" fill="#DFC125"/>
<path d="M162.09 119.594H160.869V129.356H162.09V119.594Z" fill="#DFC125"/>
<path d="M158.142 119.594H156.922V129.356H158.142V119.594Z" fill="#DFC125"/>
<path d="M166.038 119.594H164.817V129.356H166.038V119.594Z" fill="#DFC125"/>
<path d="M174.005 119.594H172.785V129.356H174.005V119.594Z" fill="#DFC125"/>
<path d="M181.901 119.594H180.681V129.356H181.901V119.594Z" fill="#DFC125"/>
<path d="M217.002 128.208H149.815V129.428H217.002V128.208Z" fill="#DFC125"/>
<path d="M217.002 129.356H149.815V139.118H217.002V129.356Z" fill="#E3E829"/>
<path d="M217.002 129.356H185.275V139.118H217.002V129.356Z" fill="#DFC125"/>
<path d="M154.194 129.356H152.974V139.118H154.194V129.356Z" fill="#DFC125"/>
<path d="M177.953 129.356H176.733V139.118H177.953V129.356Z" fill="#DFC125"/>
<path d="M170.057 129.356H168.837V139.118H170.057V129.356Z" fill="#DFC125"/>
<path d="M162.09 129.356H160.869V139.118H162.09V129.356Z" fill="#DFC125"/>
<path d="M158.142 129.356H156.922V139.118H158.142V129.356Z" fill="#DFC125"/>
<path d="M166.038 129.356H164.817V139.118H166.038V129.356Z" fill="#DFC125"/>
<path d="M174.005 129.356H172.785V139.118H174.005V129.356Z" fill="#DFC125"/>
<path d="M181.901 129.356H180.681V139.118H181.901V129.356Z" fill="#DFC125"/>
<path d="M217.002 137.898H149.815V139.118H217.002V137.898Z" fill="#DFC125"/>
<path d="M219.155 139.118H151.969V148.88H219.155V139.118Z" fill="#E3E829"/>
<path d="M219.083 139.118H187.356V148.88H219.083V139.118Z" fill="#DFC125"/>
<path d="M156.276 139.118H155.055V148.88H156.276V139.118Z" fill="#DFC125"/>
<path d="M180.107 139.118H178.886V148.88H180.107V139.118Z" fill="#DFC125"/>
<path d="M172.139 139.118H170.919V148.88H172.139V139.118Z" fill="#DFC125"/>
<path d="M164.243 139.118H163.023V148.88H164.243V139.118Z" fill="#DFC125"/>
<path d="M160.295 139.118H159.075V148.88H160.295V139.118Z" fill="#DFC125"/>
<path d="M168.191 139.118H166.971V148.88H168.191V139.118Z" fill="#DFC125"/>
<path d="M176.087 139.118H174.867V148.88H176.087V139.118Z" fill="#DFC125"/>
<path d="M184.054 139.118H182.834V148.88H184.054V139.118Z" fill="#DFC125"/>
<path d="M219.155 147.66H151.969V148.88H219.155V147.66Z" fill="#DFC125"/>
<path d="M216.427 148.88H149.241V158.642H216.427V148.88Z" fill="#E3E829"/>
<path d="M216.427 148.88H184.701V158.642H216.427V148.88Z" fill="#DFC125"/>
<path d="M153.548 148.88H152.328V158.642H153.548V148.88Z" fill="#DFC125"/>
<path d="M177.379 148.88H176.159V158.642H177.379V148.88Z" fill="#DFC125"/>
<path d="M169.411 148.88H168.191V158.642H169.411V148.88Z" fill="#DFC125"/>
<path d="M161.516 148.88H160.295V158.642H161.516V148.88Z" fill="#DFC125"/>
<path d="M157.568 148.88H156.347V158.642H157.568V148.88Z" fill="#DFC125"/>
<path d="M165.463 148.88H164.243V158.642H165.463V148.88Z" fill="#DFC125"/>
<path d="M173.359 148.88H172.139V158.642H173.359V148.88Z" fill="#DFC125"/>
<path d="M181.327 148.88H180.107V158.642H181.327V148.88Z" fill="#DFC125"/>
<path d="M216.427 157.422H149.241V158.642H216.427V157.422Z" fill="#DFC125"/>
<path d="M216.427 158.642H149.241V168.405H216.427V158.642Z" fill="#E3E829"/>
<path d="M216.427 158.642H184.701V168.405H216.427V158.642Z" fill="#DFC125"/>
<path d="M153.548 158.642H152.328V168.405H153.548V158.642Z" fill="#DFC125"/>
<path d="M177.379 158.642H176.159V168.405H177.379V158.642Z" fill="#DFC125"/>
<path d="M169.411 158.642H168.191V168.405H169.411V158.642Z" fill="#DFC125"/>
<path d="M161.516 158.642H160.295V168.405H161.516V158.642Z" fill="#DFC125"/>
<path d="M157.568 158.642H156.347V168.405H157.568V158.642Z" fill="#DFC125"/>
<path d="M165.463 158.642H164.243V168.405H165.463V158.642Z" fill="#DFC125"/>
<path d="M173.359 158.642H172.139V168.405H173.359V158.642Z" fill="#DFC125"/>
<path d="M181.327 158.642H180.107V168.405H181.327V158.642Z" fill="#DFC125"/>
<path d="M216.427 167.184H149.241V168.405H216.427V167.184Z" fill="#DFC125"/>
<path d="M216.427 168.405H149.241V178.167H216.427V168.405Z" fill="#E3E829"/>
<path d="M216.427 168.405H184.701V178.167H216.427V168.405Z" fill="#DFC125"/>
<path d="M153.548 168.405H152.328V178.167H153.548V168.405Z" fill="#DFC125"/>
<path d="M177.379 168.405H176.159V178.167H177.379V168.405Z" fill="#DFC125"/>
<path d="M169.411 168.405H168.191V178.167H169.411V168.405Z" fill="#DFC125"/>
<path d="M161.516 168.405H160.295V178.167H161.516V168.405Z" fill="#DFC125"/>
<path d="M157.568 168.405H156.347V178.167H157.568V168.405Z" fill="#DFC125"/>
<path d="M165.463 168.405H164.243V178.167H165.463V168.405Z" fill="#DFC125"/>
<path d="M173.359 168.405H172.139V178.167H173.359V168.405Z" fill="#DFC125"/>
<path d="M181.327 168.405H180.107V178.167H181.327V168.405Z" fill="#DFC125"/>
<path d="M216.427 176.946H149.241V178.167H216.427V176.946Z" fill="#DFC125"/>
<path d="M216.427 178.095H149.241V187.857H216.427V178.095Z" fill="#E3E829"/>
<path d="M216.427 178.095H184.701V187.857H216.427V178.095Z" fill="#DFC125"/>
<path d="M153.548 178.095H152.328V187.857H153.548V178.095Z" fill="#DFC125"/>
<path d="M177.379 178.095H176.159V187.857H177.379V178.095Z" fill="#DFC125"/>
<path d="M169.411 178.095H168.191V187.857H169.411V178.095Z" fill="#DFC125"/>
<path d="M161.516 178.095H160.295V187.857H161.516V178.095Z" fill="#DFC125"/>
<path d="M157.568 178.095H156.347V187.857H157.568V178.095Z" fill="#DFC125"/>
<path d="M165.463 178.095H164.243V187.857H165.463V178.095Z" fill="#DFC125"/>
<path d="M173.359 178.095H172.139V187.857H173.359V178.095Z" fill="#DFC125"/>
<path d="M181.327 178.095H180.107V187.857H181.327V178.095Z" fill="#DFC125"/>
<path d="M216.427 186.708H149.241V187.929H216.427V186.708Z" fill="#DFC125"/>
<path d="M218.868 187.857H151.682V197.619H218.868V187.857Z" fill="#E3E829"/>
<path d="M218.868 187.857H187.141V197.619H218.868V187.857Z" fill="#DFC125"/>
<path d="M156.06 187.857H154.84V197.619H156.06V187.857Z" fill="#DFC125"/>
<path d="M179.819 187.857H178.599V197.619H179.819V187.857Z" fill="#DFC125"/>
<path d="M171.852 187.857H170.632V197.619H171.852V187.857Z" fill="#DFC125"/>
<path d="M163.956 187.857H162.736V197.619H163.956V187.857Z" fill="#DFC125"/>
<path d="M160.008 187.857H158.788V197.619H160.008V187.857Z" fill="#DFC125"/>
<path d="M167.904 187.857H166.684V197.619H167.904V187.857Z" fill="#DFC125"/>
<path d="M175.872 187.857H174.651V197.619H175.872V187.857Z" fill="#DFC125"/>
<path d="M183.767 187.857H182.547V197.619H183.767V187.857Z" fill="#DFC125"/>
<path d="M218.868 196.471H151.682V197.691H218.868V196.471Z" fill="#DFC125"/>
<path d="M218.868 197.619H151.682V207.381H218.868V197.619Z" fill="#E3E829"/>
<path d="M218.868 197.619H187.141V207.381H218.868V197.619Z" fill="#DFC125"/>
<path d="M156.06 197.619H154.84V207.381H156.06V197.619Z" fill="#DFC125"/>
<path d="M179.819 197.619H178.599V207.381H179.819V197.619Z" fill="#DFC125"/>
<path d="M171.852 197.619H170.632V207.381H171.852V197.619Z" fill="#DFC125"/>
<path d="M163.956 197.619H162.736V207.381H163.956V197.619Z" fill="#DFC125"/>
<path d="M160.008 197.619H158.788V207.381H160.008V197.619Z" fill="#DFC125"/>
<path d="M167.904 197.619H166.684V207.381H167.904V197.619Z" fill="#DFC125"/>
<path d="M175.872 197.619H174.651V207.381H175.872V197.619Z" fill="#DFC125"/>
<path d="M183.767 197.619H182.547V207.381H183.767V197.619Z" fill="#DFC125"/>
<path d="M218.868 206.233H151.682V207.453H218.868V206.233Z" fill="#DFC125"/>
<path d="M218.868 207.381H151.682V217.143H218.868V207.381Z" fill="#E3E829"/>
<path d="M218.868 207.381H187.141V217.143H218.868V207.381Z" fill="#DFC125"/>
<path d="M156.06 207.381H154.84V217.143H156.06V207.381Z" fill="#DFC125"/>
<path d="M179.819 207.381H178.599V217.143H179.819V207.381Z" fill="#DFC125"/>
<path d="M171.852 207.381H170.632V217.143H171.852V207.381Z" fill="#DFC125"/>
<path d="M163.956 207.381H162.736V217.143H163.956V207.381Z" fill="#DFC125"/>
<path d="M160.008 207.381H158.788V217.143H160.008V207.381Z" fill="#DFC125"/>
<path d="M167.904 207.381H166.684V217.143H167.904V207.381Z" fill="#DFC125"/>
<path d="M175.872 207.381H174.651V217.143H175.872V207.381Z" fill="#DFC125"/>
<path d="M183.767 207.381H182.547V217.143H183.767V207.381Z" fill="#DFC125"/>
<path d="M218.868 215.923H151.682V217.143H218.868V215.923Z" fill="#DFC125"/>
<path d="M218.868 217.143H151.682V226.905H218.868V217.143Z" fill="#E3E829"/>
<path d="M218.868 217.143H187.141V226.905H218.868V217.143Z" fill="#DFC125"/>
<path d="M156.06 217.143H154.84V226.905H156.06V217.143Z" fill="#DFC125"/>
<path d="M179.819 217.143H178.599V226.905H179.819V217.143Z" fill="#DFC125"/>
<path d="M171.852 217.143H170.632V226.905H171.852V217.143Z" fill="#DFC125"/>
<path d="M163.956 217.143H162.736V226.905H163.956V217.143Z" fill="#DFC125"/>
<path d="M160.008 217.143H158.788V226.905H160.008V217.143Z" fill="#DFC125"/>
<path d="M167.904 217.143H166.684V226.905H167.904V217.143Z" fill="#DFC125"/>
<path d="M175.872 217.143H174.651V226.905H175.872V217.143Z" fill="#DFC125"/>
<path d="M183.767 217.143H182.547V226.905H183.767V217.143Z" fill="#DFC125"/>
<path d="M218.868 225.685H151.682V226.905H218.868V225.685Z" fill="#DFC125"/>
<path d="M218.365 226.905H151.179V236.668H218.365V226.905Z" fill="#E3E829"/>
<path d="M218.365 226.905H186.639V236.668H218.365V226.905Z" fill="#DFC125"/>
<path d="M155.558 226.905H154.337V236.668H155.558V226.905Z" fill="#DFC125"/>
<path d="M179.317 226.905H178.097V236.668H179.317V226.905Z" fill="#DFC125"/>
<path d="M171.421 226.905H170.201V236.668H171.421V226.905Z" fill="#DFC125"/>
<path d="M163.454 226.905H162.233V236.668H163.454V226.905Z" fill="#DFC125"/>
<path d="M159.506 226.905H158.285V236.668H159.506V226.905Z" fill="#DFC125"/>
<path d="M167.401 226.905H166.181V236.668H167.401V226.905Z" fill="#DFC125"/>
<path d="M175.369 226.905H174.149V236.668H175.369V226.905Z" fill="#DFC125"/>
<path d="M183.265 226.905H182.045V236.668H183.265V226.905Z" fill="#DFC125"/>
<path d="M218.365 235.447H151.179V236.668H218.365V235.447Z" fill="#DFC125"/>
<path d="M218.365 236.668H151.179V246.43H218.365V236.668Z" fill="#E3E829"/>
<path d="M218.365 236.668H186.639V246.43H218.365V236.668Z" fill="#DFC125"/>
<path d="M155.558 236.668H154.337V246.43H155.558V236.668Z" fill="#DFC125"/>
<path d="M179.317 236.668H178.097V246.43H179.317V236.668Z" fill="#DFC125"/>
<path d="M171.421 236.668H170.201V246.43H171.421V236.668Z" fill="#DFC125"/>
<path d="M163.454 236.668H162.233V246.43H163.454V236.668Z" fill="#DFC125"/>
<path d="M159.506 236.668H158.285V246.43H159.506V236.668Z" fill="#DFC125"/>
<path d="M167.401 236.668H166.181V246.43H167.401V236.668Z" fill="#DFC125"/>
<path d="M175.369 236.668H174.149V246.43H175.369V236.668Z" fill="#DFC125"/>
<path d="M183.265 236.668H182.045V246.43H183.265V236.668Z" fill="#DFC125"/>
<path d="M218.365 245.209H151.179V246.43H218.365V245.209Z" fill="#DFC125"/>
<path d="M216.284 246.43H149.098V256.192H216.284V246.43Z" fill="#E3E829"/>
<path d="M216.212 246.43H184.485V256.192H216.212V246.43Z" fill="#DFC125"/>
<path d="M153.404 246.43H152.184V256.192H153.404V246.43Z" fill="#DFC125"/>
<path d="M177.235 246.43H176.015V256.192H177.235V246.43Z" fill="#DFC125"/>
<path d="M169.268 246.43H168.048V256.192H169.268V246.43Z" fill="#DFC125"/>
<path d="M161.372 246.43H160.152V256.192H161.372V246.43Z" fill="#DFC125"/>
<path d="M157.424 246.43H156.204V256.192H157.424V246.43Z" fill="#DFC125"/>
<path d="M165.32 246.43H164.1V256.192H165.32V246.43Z" fill="#DFC125"/>
<path d="M173.216 246.43H171.995V256.192H173.216V246.43Z" fill="#DFC125"/>
<path d="M181.183 246.43H179.963V256.192H181.183V246.43Z" fill="#DFC125"/>
<path d="M216.284 254.972H149.098V256.192H216.284V254.972Z" fill="#DFC125"/>
<path d="M216.284 256.192H149.098V265.954H216.284V256.192Z" fill="#E3E829"/>
<path d="M216.212 256.192H184.485V265.954H216.212V256.192Z" fill="#DFC125"/>
<path d="M153.404 256.192H152.184V265.954H153.404V256.192Z" fill="#DFC125"/>
<path d="M177.235 256.192H176.015V265.954H177.235V256.192Z" fill="#DFC125"/>
<path d="M169.268 256.192H168.048V265.954H169.268V256.192Z" fill="#DFC125"/>
<path d="M161.372 256.192H160.152V265.954H161.372V256.192Z" fill="#DFC125"/>
<path d="M157.424 256.192H156.204V265.954H157.424V256.192Z" fill="#DFC125"/>
<path d="M165.32 256.192H164.1V265.954H165.32V256.192Z" fill="#DFC125"/>
<path d="M173.216 256.192H171.995V265.954H173.216V256.192Z" fill="#DFC125"/>
<path d="M181.183 256.192H179.963V265.954H181.183V256.192Z" fill="#DFC125"/>
<path d="M216.284 264.734H149.098V265.954H216.284V264.734Z" fill="#DFC125"/>
<path d="M216.284 265.882H149.098V275.644H216.284V265.882Z" fill="#E3E829"/>
<path d="M216.212 265.882H184.485V275.644H216.212V265.882Z" fill="#DFC125"/>
<path d="M153.404 265.882H152.184V275.644H153.404V265.882Z" fill="#DFC125"/>
<path d="M177.235 265.882H176.015V275.644H177.235V265.882Z" fill="#DFC125"/>
<path d="M169.268 265.882H168.048V275.644H169.268V265.882Z" fill="#DFC125"/>
<path d="M161.372 265.882H160.152V275.644H161.372V265.882Z" fill="#DFC125"/>
<path d="M157.424 265.882H156.204V275.644H157.424V265.882Z" fill="#DFC125"/>
<path d="M165.32 265.882H164.1V275.644H165.32V265.882Z" fill="#DFC125"/>
<path d="M173.216 265.882H171.995V275.644H173.216V265.882Z" fill="#DFC125"/>
<path d="M181.183 265.882H179.963V275.644H181.183V265.882Z" fill="#DFC125"/>
<path d="M216.284 274.496H149.098V275.716H216.284V274.496Z" fill="#DFC125"/>
<path d="M216.284 275.644H149.098V285.406H216.284V275.644Z" fill="#E3E829"/>
<path d="M216.212 275.644H184.485V285.406H216.212V275.644Z" fill="#DFC125"/>
<path d="M153.404 275.644H152.184V285.406H153.404V275.644Z" fill="#DFC125"/>
<path d="M177.235 275.644H176.015V285.406H177.235V275.644Z" fill="#DFC125"/>
<path d="M169.268 275.644H168.048V285.406H169.268V275.644Z" fill="#DFC125"/>
<path d="M161.372 275.644H160.152V285.406H161.372V275.644Z" fill="#DFC125"/>
<path d="M157.424 275.644H156.204V285.406H157.424V275.644Z" fill="#DFC125"/>
<path d="M165.32 275.644H164.1V285.406H165.32V275.644Z" fill="#DFC125"/>
<path d="M173.216 275.644H171.995V285.406H173.216V275.644Z" fill="#DFC125"/>
<path d="M181.183 275.644H179.963V285.406H181.183V275.644Z" fill="#DFC125"/>
<path d="M263.946 154.91H196.76V164.672H263.946V154.91Z" fill="#E3E829"/>
<path d="M263.946 154.91H232.219V164.672H263.946V154.91Z" fill="#DFC125"/>
<path d="M201.066 154.91H199.846V164.672H201.066V154.91Z" fill="#DFC125"/>
<path d="M224.897 154.91H223.677V164.672H224.897V154.91Z" fill="#DFC125"/>
<path d="M216.93 154.91H215.71V164.672H216.93V154.91Z" fill="#DFC125"/>
<path d="M209.034 154.91H207.814V164.672H209.034V154.91Z" fill="#DFC125"/>
<path d="M205.086 154.91H203.866V164.672H205.086V154.91Z" fill="#DFC125"/>
<path d="M212.982 154.91H211.762V164.672H212.982V154.91Z" fill="#DFC125"/>
<path d="M220.95 154.91H219.729V164.672H220.95V154.91Z" fill="#DFC125"/>
<path d="M228.845 154.91H227.625V164.672H228.845V154.91Z" fill="#DFC125"/>
<path d="M263.946 163.452H196.76V164.672H263.946V163.452Z" fill="#DFC125"/>
<path d="M261.864 164.672H194.678V174.434H261.864V164.672Z" fill="#E3E829"/>
<path d="M261.793 164.672H230.066V174.434H261.793V164.672Z" fill="#DFC125"/>
<path d="M198.985 164.672H197.765V174.434H198.985V164.672Z" fill="#DFC125"/>
<path d="M222.744 164.672H221.524V174.434H222.744V164.672Z" fill="#DFC125"/>
<path d="M214.848 164.672H213.628V174.434H214.848V164.672Z" fill="#DFC125"/>
<path d="M206.881 164.672H205.66V174.434H206.881V164.672Z" fill="#DFC125"/>
<path d="M202.933 164.672H201.712V174.434H202.933V164.672Z" fill="#DFC125"/>
<path d="M210.9 164.672H209.68V174.434H210.9V164.672Z" fill="#DFC125"/>
<path d="M218.796 164.672H217.576V174.434H218.796V164.672Z" fill="#DFC125"/>
<path d="M226.764 164.672H225.543V174.434H226.764V164.672Z" fill="#DFC125"/>
<path d="M261.864 173.214H194.678V174.434H261.864V173.214Z" fill="#DFC125"/>
<path d="M261.864 174.434H194.678V184.196H261.864V174.434Z" fill="#E3E829"/>
<path d="M261.793 174.434H230.066V184.196H261.793V174.434Z" fill="#DFC125"/>
<path d="M198.985 174.434H197.765V184.196H198.985V174.434Z" fill="#DFC125"/>
<path d="M222.744 174.434H221.524V184.196H222.744V174.434Z" fill="#DFC125"/>
<path d="M214.848 174.434H213.628V184.196H214.848V174.434Z" fill="#DFC125"/>
<path d="M206.881 174.434H205.66V184.196H206.881V174.434Z" fill="#DFC125"/>
<path d="M202.933 174.434H201.712V184.196H202.933V174.434Z" fill="#DFC125"/>
<path d="M210.9 174.434H209.68V184.196H210.9V174.434Z" fill="#DFC125"/>
<path d="M218.796 174.434H217.576V184.196H218.796V174.434Z" fill="#DFC125"/>
<path d="M226.764 174.434H225.543V184.196H226.764V174.434Z" fill="#DFC125"/>
<path d="M261.864 182.976H194.678V184.196H261.864V182.976Z" fill="#DFC125"/>
<path d="M261.864 184.124H194.678V193.886H261.864V184.124Z" fill="#E3E829"/>
<path d="M261.793 184.124H230.066V193.886H261.793V184.124Z" fill="#DFC125"/>
<path d="M198.985 184.124H197.765V193.886H198.985V184.124Z" fill="#DFC125"/>
<path d="M222.744 184.124H221.524V193.886H222.744V184.124Z" fill="#DFC125"/>
<path d="M214.848 184.124H213.628V193.886H214.848V184.124Z" fill="#DFC125"/>
<path d="M206.881 184.124H205.66V193.886H206.881V184.124Z" fill="#DFC125"/>
<path d="M202.933 184.124H201.712V193.886H202.933V184.124Z" fill="#DFC125"/>
<path d="M210.9 184.124H209.68V193.886H210.9V184.124Z" fill="#DFC125"/>
<path d="M218.796 184.124H217.576V193.886H218.796V184.124Z" fill="#DFC125"/>
<path d="M226.764 184.124H225.543V193.886H226.764V184.124Z" fill="#DFC125"/>
<path d="M261.864 192.738H194.678V193.958H261.864V192.738Z" fill="#DFC125"/>
<path d="M261.864 193.887H194.678V203.649H261.864V193.887Z" fill="#E3E829"/>
<path d="M261.793 193.887H230.066V203.649H261.793V193.887Z" fill="#DFC125"/>
<path d="M198.985 193.887H197.765V203.649H198.985V193.887Z" fill="#DFC125"/>
<path d="M222.744 193.887H221.524V203.649H222.744V193.887Z" fill="#DFC125"/>
<path d="M214.848 193.887H213.628V203.649H214.848V193.887Z" fill="#DFC125"/>
<path d="M206.881 193.887H205.66V203.649H206.881V193.887Z" fill="#DFC125"/>
<path d="M202.933 193.887H201.712V203.649H202.933V193.887Z" fill="#DFC125"/>
<path d="M210.9 193.887H209.68V203.649H210.9V193.887Z" fill="#DFC125"/>
<path d="M218.796 193.887H217.576V203.649H218.796V193.887Z" fill="#DFC125"/>
<path d="M226.764 193.887H225.543V203.649H226.764V193.887Z" fill="#DFC125"/>
<path d="M261.864 202.5H194.678V203.72H261.864V202.5Z" fill="#DFC125"/>
<path d="M263.946 203.649H196.76V213.411H263.946V203.649Z" fill="#E3E829"/>
<path d="M263.946 203.649H232.219V213.411H263.946V203.649Z" fill="#DFC125"/>
<path d="M201.138 203.649H199.918V213.411H201.138V203.649Z" fill="#DFC125"/>
<path d="M224.897 203.649H223.677V213.411H224.897V203.649Z" fill="#DFC125"/>
<path d="M216.93 203.649H215.71V213.411H216.93V203.649Z" fill="#DFC125"/>
<path d="M209.034 203.649H207.814V213.411H209.034V203.649Z" fill="#DFC125"/>
<path d="M205.086 203.649H203.866V213.411H205.086V203.649Z" fill="#DFC125"/>
<path d="M212.982 203.649H211.762V213.411H212.982V203.649Z" fill="#DFC125"/>
<path d="M220.95 203.649H219.729V213.411H220.95V203.649Z" fill="#DFC125"/>
<path d="M228.845 203.649H227.625V213.411H228.845V203.649Z" fill="#DFC125"/>
<path d="M263.946 212.262H196.76V213.483H263.946V212.262Z" fill="#DFC125"/>
<path d="M261.218 213.411H194.032V223.173H261.218V213.411Z" fill="#E3E829"/>
<path d="M261.218 213.411H229.491V223.173H261.218V213.411Z" fill="#DFC125"/>
<path d="M198.411 213.411H197.19V223.173H198.411V213.411Z" fill="#DFC125"/>
<path d="M222.17 213.411H220.95V223.173H222.17V213.411Z" fill="#DFC125"/>
<path d="M214.202 213.411H212.982V223.173H214.202V213.411Z" fill="#DFC125"/>
<path d="M206.306 213.411H205.086V223.173H206.306V213.411Z" fill="#DFC125"/>
<path d="M202.358 213.411H201.138V223.173H202.358V213.411Z" fill="#DFC125"/>
<path d="M210.254 213.411H209.034V223.173H210.254V213.411Z" fill="#DFC125"/>
<path d="M218.222 213.411H217.002V223.173H218.222V213.411Z" fill="#DFC125"/>
<path d="M226.118 213.411H224.897V223.173H226.118V213.411Z" fill="#DFC125"/>
<path d="M261.218 221.953H194.032V223.173H261.218V221.953Z" fill="#DFC125"/>
<path d="M261.218 223.173H194.032V232.935H261.218V223.173Z" fill="#E3E829"/>
<path d="M261.218 223.173H229.491V232.935H261.218V223.173Z" fill="#DFC125"/>
<path d="M198.411 223.173H197.19V232.935H198.411V223.173Z" fill="#DFC125"/>
<path d="M222.17 223.173H220.95V232.935H222.17V223.173Z" fill="#DFC125"/>
<path d="M214.202 223.173H212.982V232.935H214.202V223.173Z" fill="#DFC125"/>
<path d="M206.306 223.173H205.086V232.935H206.306V223.173Z" fill="#DFC125"/>
<path d="M202.358 223.173H201.138V232.935H202.358V223.173Z" fill="#DFC125"/>
<path d="M210.254 223.173H209.034V232.935H210.254V223.173Z" fill="#DFC125"/>
<path d="M218.222 223.173H217.002V232.935H218.222V223.173Z" fill="#DFC125"/>
<path d="M226.118 223.173H224.897V232.935H226.118V223.173Z" fill="#DFC125"/>
<path d="M261.218 231.715H194.032V232.935H261.218V231.715Z" fill="#DFC125"/>
<path d="M261.218 232.935H194.032V242.697H261.218V232.935Z" fill="#E3E829"/>
<path d="M261.218 232.935H229.491V242.697H261.218V232.935Z" fill="#DFC125"/>
<path d="M198.411 232.935H197.19V242.697H198.411V232.935Z" fill="#DFC125"/>
<path d="M222.17 232.935H220.95V242.697H222.17V232.935Z" fill="#DFC125"/>
<path d="M214.202 232.935H212.982V242.697H214.202V232.935Z" fill="#DFC125"/>
<path d="M206.306 232.935H205.086V242.697H206.306V232.935Z" fill="#DFC125"/>
<path d="M202.358 232.935H201.138V242.697H202.358V232.935Z" fill="#DFC125"/>
<path d="M210.254 232.935H209.034V242.697H210.254V232.935Z" fill="#DFC125"/>
<path d="M218.222 232.935H217.002V242.697H218.222V232.935Z" fill="#DFC125"/>
<path d="M226.118 232.935H224.897V242.697H226.118V232.935Z" fill="#DFC125"/>
<path d="M261.218 241.477H194.032V242.697H261.218V241.477Z" fill="#DFC125"/>
<path d="M261.218 242.697H194.032V252.459H261.218V242.697Z" fill="#E3E829"/>
<path d="M261.218 242.697H229.491V252.459H261.218V242.697Z" fill="#DFC125"/>
<path d="M198.411 242.697H197.19V252.459H198.411V242.697Z" fill="#DFC125"/>
<path d="M222.17 242.697H220.95V252.459H222.17V242.697Z" fill="#DFC125"/>
<path d="M214.202 242.697H212.982V252.459H214.202V242.697Z" fill="#DFC125"/>
<path d="M206.306 242.697H205.086V252.459H206.306V242.697Z" fill="#DFC125"/>
<path d="M202.358 242.697H201.138V252.459H202.358V242.697Z" fill="#DFC125"/>
<path d="M210.254 242.697H209.034V252.459H210.254V242.697Z" fill="#DFC125"/>
<path d="M218.222 242.697H217.002V252.459H218.222V242.697Z" fill="#DFC125"/>
<path d="M226.118 242.697H224.897V252.459H226.118V242.697Z" fill="#DFC125"/>
<path d="M261.218 251.239H194.032V252.459H261.218V251.239Z" fill="#DFC125"/>
<path d="M263.659 252.459H196.472V262.221H263.659V252.459Z" fill="#E3E829"/>
<path d="M263.659 252.459H231.932V262.221H263.659V252.459Z" fill="#DFC125"/>
<path d="M200.851 252.459H199.631V262.221H200.851V252.459Z" fill="#DFC125"/>
<path d="M224.61 252.459H223.39V262.221H224.61V252.459Z" fill="#DFC125"/>
<path d="M216.715 252.459H215.494V262.221H216.715V252.459Z" fill="#DFC125"/>
<path d="M208.747 252.459H207.527V262.221H208.747V252.459Z" fill="#DFC125"/>
<path d="M204.799 252.459H203.579V262.221H204.799V252.459Z" fill="#DFC125"/>
<path d="M212.695 252.459H211.475V262.221H212.695V252.459Z" fill="#DFC125"/>
<path d="M220.662 252.459H219.442V262.221H220.662V252.459Z" fill="#DFC125"/>
<path d="M228.558 252.459H227.338V262.221H228.558V252.459Z" fill="#DFC125"/>
<path d="M263.659 261.001H196.472V262.221H263.659V261.001Z" fill="#DFC125"/>
<path d="M263.659 262.221H196.472V271.983H263.659V262.221Z" fill="#E3E829"/>
<path d="M263.659 262.221H231.932V271.983H263.659V262.221Z" fill="#DFC125"/>
<path d="M200.851 262.221H199.631V271.983H200.851V262.221Z" fill="#DFC125"/>
<path d="M224.61 262.221H223.39V271.983H224.61V262.221Z" fill="#DFC125"/>
<path d="M216.715 262.221H215.494V271.983H216.715V262.221Z" fill="#DFC125"/>
<path d="M208.747 262.221H207.527V271.983H208.747V262.221Z" fill="#DFC125"/>
<path d="M204.799 262.221H203.579V271.983H204.799V262.221Z" fill="#DFC125"/>
<path d="M212.695 262.221H211.475V271.983H212.695V262.221Z" fill="#DFC125"/>
<path d="M220.662 262.221H219.442V271.983H220.662V262.221Z" fill="#DFC125"/>
<path d="M228.558 262.221H227.338V271.983H228.558V262.221Z" fill="#DFC125"/>
<path d="M263.659 270.763H196.472V271.983H263.659V270.763Z" fill="#DFC125"/>
<path d="M263.659 271.912H196.472V281.674H263.659V271.912Z" fill="#E3E829"/>
<path d="M263.659 271.912H231.932V281.674H263.659V271.912Z" fill="#DFC125"/>
<path d="M200.851 271.912H199.631V281.674H200.851V271.912Z" fill="#DFC125"/>
<path d="M224.61 271.912H223.39V281.674H224.61V271.912Z" fill="#DFC125"/>
<path d="M216.715 271.912H215.494V281.674H216.715V271.912Z" fill="#DFC125"/>
<path d="M208.747 271.912H207.527V281.674H208.747V271.912Z" fill="#DFC125"/>
<path d="M204.799 271.912H203.579V281.674H204.799V271.912Z" fill="#DFC125"/>
<path d="M212.695 271.912H211.475V281.674H212.695V271.912Z" fill="#DFC125"/>
<path d="M220.662 271.912H219.442V281.674H220.662V271.912Z" fill="#DFC125"/>
<path d="M228.558 271.912H227.338V281.674H228.558V271.912Z" fill="#DFC125"/>
<g opacity="0.66">
<g opacity="0.66">
<path opacity="0.66" d="M187.079 35.4661L186.361 35.2507L188.084 25.1297L188.801 25.3451C189.878 25.6322 190.524 27.0678 190.237 28.5034L189.376 33.528C189.16 34.8918 188.155 35.7532 187.079 35.4661Z" fill="#DFC125"/>
</g>
</g>
<g opacity="0.66">
<g opacity="0.66">
<path opacity="0.66" d="M186.737 24.6538L185.014 34.7748L168.792 29.7502" fill="#DFC125"/>
</g>
</g>
<g opacity="0.66">
<g opacity="0.66">
<path opacity="0.66" d="M187.481 49.001L186.763 48.7856L188.486 38.6646L189.203 38.8799C190.28 39.2388 190.926 40.6027 190.639 42.0383L189.778 47.0629C189.562 48.4267 188.486 49.2881 187.481 49.001Z" fill="#DFC125"/>
</g>
</g>
<g opacity="0.66">
<g opacity="0.66">
<path opacity="0.66" d="M169.123 43.3569L185.345 48.3097L187.068 38.1887L170.846 33.2359L169.123 43.3569Z" fill="#DFC125"/>
</g>
</g>
<g opacity="0.66">
<g opacity="0.66">
<path opacity="0.66" d="M179.252 59.9008L178.535 59.6855L180.257 49.5645L180.975 49.7798C181.98 50.1387 182.626 51.5025 182.411 52.9381L181.549 57.9627C181.334 59.3266 180.329 60.1879 179.252 59.9008Z" fill="#DFC125"/>
</g>
</g>
<g opacity="0.66">
<g opacity="0.66">
<path opacity="0.66" d="M182.587 74.3157L181.869 74.1004L183.592 63.9794L184.309 64.1947C185.386 64.5536 186.032 65.9174 185.745 67.353L184.884 72.3776C184.668 73.8132 183.663 74.6746 182.587 74.3157Z" fill="#DFC125"/>
</g>
</g>
<path d="M214.325 46.0001C214.433 27.4075 203.401 12.2709 189.684 12.1916C175.968 12.1123 164.761 27.1204 164.653 45.713C164.546 64.3056 175.578 79.4422 189.295 79.5215C203.011 79.6008 214.218 64.5927 214.325 46.0001Z" fill="#DFC125"/>
<g opacity="0.58">
<g opacity="0.58">
<path opacity="0.58" d="M208.63 45.3055C208.715 30.5583 199.979 18.5524 189.117 18.4896C178.255 18.4268 169.38 30.3309 169.295 45.0782C169.209 59.8254 177.946 71.8313 188.808 71.8941C199.67 71.9569 208.545 60.0528 208.63 45.3055Z" fill="#DFC125"/>
</g>
</g>
<g opacity="0.08">
<g opacity="0.08">
<path opacity="0.08" d="M184.556 71.1868C184.197 71.0432 183.838 70.9714 183.48 70.8279C194.175 73.2684 204.368 63.4345 206.162 48.9349C207.885 35.5838 201.855 22.6633 192.309 18.859C192.667 18.9308 193.026 19.0026 193.385 19.1461C203.937 22.3762 210.541 36.7323 208.1 51.0883C205.66 65.4444 195.108 74.4169 184.556 71.1868Z" fill="#DFC125"/>
</g>
</g>
<path d="M201.845 45.234C201.901 35.5611 196.161 27.6862 189.025 27.6449C181.89 27.6037 176.06 35.4117 176.004 45.0846C175.948 54.7576 181.687 62.6325 188.823 62.6737C195.959 62.7149 201.789 54.9069 201.845 45.234Z" fill="#DFC125"/>
<path d="M190.012 47.8137C189.223 48.3162 188.864 48.6751 188.72 48.8904C188.505 49.1775 188.433 49.5364 188.433 49.9671C188.433 50.4696 188.505 50.9003 188.72 51.1874C188.864 51.4745 189.151 51.6181 189.582 51.6181C190.012 51.6181 190.299 51.4745 190.515 51.1156C190.73 50.7567 190.874 50.2542 190.874 49.4647C190.874 49.2493 191.017 49.1058 191.161 49.1058H194.319C194.463 49.1058 194.534 49.1775 194.606 49.3211V49.3929C194.606 49.4647 194.606 49.4647 194.606 49.5364C194.606 51.1874 194.247 52.5512 193.53 53.6279C192.883 54.6328 191.95 55.2071 190.802 55.4942V57.9347C190.802 58.1501 190.658 58.2936 190.515 58.2936H189.007C188.864 58.2936 188.72 58.1501 188.72 57.9347V55.566C187.5 55.3506 186.567 54.7764 185.849 53.8432C185.059 52.8383 184.701 51.5463 184.701 49.9671C184.701 48.2444 185.131 46.8806 185.849 45.9474C186.567 45.0861 187.715 44.2247 189.294 43.5069C189.94 43.148 190.371 42.7891 190.587 42.502C190.802 42.2149 190.874 41.7842 190.874 41.2099C190.874 40.7075 190.802 40.3486 190.587 40.0614C190.443 39.7743 190.084 39.6308 189.653 39.6308C189.151 39.6308 188.72 39.7743 188.433 40.1332C188.146 40.4921 188.002 41.0664 188.002 41.9277C188.002 42.1431 187.859 42.2866 187.715 42.2866H184.629C184.485 42.2866 184.413 42.1431 184.342 41.9995V41.9277C184.342 41.856 184.342 41.8559 184.342 41.7842C184.342 39.7743 184.772 38.2669 185.634 37.262C186.423 36.3289 187.5 35.7546 188.72 35.5393V33.3141C188.72 33.0988 188.864 32.9552 189.007 32.9552H190.515C190.658 32.9552 190.802 33.0988 190.802 33.3141V35.5393C191.95 35.7546 192.883 36.3289 193.601 37.1902C194.319 38.1952 194.75 39.4872 194.75 41.0664C194.75 42.7891 194.319 44.1529 193.53 45.1578C192.668 46.3063 191.52 47.1677 190.012 47.8137Z" fill="#DFC125"/>
<g opacity="0.66">
<g opacity="0.66">
<path opacity="0.66" d="M182.844 35.8968L182.126 35.6814L183.849 25.5604L184.566 25.7758C185.643 26.0629 186.289 27.4985 186.002 28.9341L185.141 33.9587C184.925 35.3225 183.848 36.2557 182.844 35.8968Z" fill="#DFC125"/>
</g>
</g>
<g opacity="0.66">
<g opacity="0.66">
<path opacity="0.66" d="M182.43 25.1563L180.707 35.2773L164.485 30.2527" fill="#DFC125"/>
</g>
</g>
<g opacity="0.66">
<g opacity="0.66">
<path opacity="0.66" d="M183.174 49.4316L182.456 49.2163L184.179 39.0953L184.896 39.3106C185.973 39.6695 186.619 41.0333 186.332 42.469L185.471 47.4936C185.255 48.8574 184.179 49.7905 183.174 49.4316Z" fill="#DFC125"/>
</g>
</g>
<g opacity="0.66">
<g opacity="0.66">
<path opacity="0.66" d="M164.816 43.7876L181.11 48.8122L182.761 38.6912L166.539 33.6665L164.816 43.7876Z" fill="#DFC125"/>
</g>
</g>
<g opacity="0.66">
<g opacity="0.66">
<path opacity="0.66" d="M174.946 60.3315L174.228 60.1161L175.951 49.9951L176.668 50.2105C177.673 50.5694 178.319 51.9332 178.104 53.3688L177.243 58.3934C177.027 59.7572 176.022 60.6904 174.946 60.3315Z" fill="#DFC125"/>
</g>
</g>
<g opacity="0.66">
<g opacity="0.66">
<path opacity="0.66" d="M178.352 74.8182L177.634 74.6028L179.356 64.4818L180.074 64.6972C181.151 65.0561 181.797 66.4199 181.51 67.8555L180.649 72.8801C180.433 74.2439 179.356 75.1053 178.352 74.8182Z" fill="#DFC125"/>
</g>
</g>
<path d="M210.068 45.952C210.175 27.3594 199.143 12.2228 185.427 12.1436C171.71 12.0643 160.504 27.0723 160.396 45.6649C160.289 64.2576 171.321 79.3942 185.037 79.4734C198.754 79.5527 209.961 64.5447 210.068 45.952Z" fill="#E3E829"/>
<path d="M204.304 45.7174C204.389 30.9701 195.652 18.9642 184.79 18.9015C173.928 18.8387 165.053 30.7428 164.968 45.49C164.883 60.2373 173.619 72.2432 184.481 72.306C195.344 72.3687 204.218 60.4646 204.304 45.7174Z" fill="#DFC125"/>
<g opacity="0.08">
<g opacity="0.08">
<path opacity="0.08" d="M180.249 71.6175C179.891 71.4739 179.532 71.4022 179.173 71.2586C189.868 73.6991 200.061 63.8652 201.855 49.3656C203.578 36.0145 197.548 23.0941 188.002 19.2897C188.361 19.3615 188.72 19.4333 189.078 19.5768C199.63 22.8069 206.234 37.163 203.793 51.519C201.353 65.8751 190.801 74.9194 180.249 71.6175Z" fill="#946829"/>
</g>
</g>
<path d="M197.589 45.718C197.645 36.0451 191.906 28.1702 184.77 28.1289C177.634 28.0877 171.804 35.8957 171.749 45.5686C171.693 55.2416 177.432 63.1165 184.568 63.1577C191.703 63.1989 197.533 55.3909 197.589 45.718Z" fill="#E3E829"/>
<path d="M184.557 48.2444C185.347 48.7469 185.705 49.1058 185.849 49.3211C186.064 49.6082 186.136 49.9671 186.136 50.3978C186.136 50.9003 186.064 51.331 185.849 51.6181C185.705 51.9052 185.418 52.0488 184.988 52.0488C184.557 52.0488 184.27 51.9052 184.055 51.5463C183.839 51.1874 183.696 50.6849 183.696 49.8953C183.696 49.68 183.552 49.5364 183.408 49.5364H180.25C180.107 49.5364 180.035 49.6082 179.963 49.7518V49.8236C179.963 49.8953 179.963 49.8954 179.963 49.9671C179.963 51.6181 180.322 52.9819 181.04 54.0586C181.686 55.0635 182.619 55.6378 183.767 55.9249V58.3654C183.767 58.5808 183.911 58.7243 184.055 58.7243H185.562C185.705 58.7243 185.849 58.5808 185.849 58.3654V55.9967C187.069 55.7813 188.002 55.2071 188.72 54.2739C189.51 53.269 189.869 51.977 189.869 50.3978C189.869 48.6751 189.438 47.3113 188.72 46.3781C188.002 45.5168 186.854 44.6554 185.275 43.9376C184.629 43.5787 184.198 43.2198 183.983 42.9327C183.767 42.6455 183.696 42.2149 183.696 41.6406C183.696 41.1382 183.767 40.7793 183.983 40.4921C184.126 40.205 184.485 40.0615 184.916 40.0615C185.418 40.0615 185.849 40.205 186.136 40.5639C186.423 40.9228 186.567 41.4971 186.567 42.3584C186.567 42.5738 186.71 42.7173 186.854 42.7173H189.94C190.084 42.7173 190.156 42.5738 190.228 42.4302V42.3584C190.228 42.2866 190.228 42.2866 190.228 42.2149C190.228 40.205 189.797 38.6976 188.936 37.6927C188.146 36.7596 187.069 36.1853 185.849 35.97V33.7448C185.849 33.5295 185.705 33.3859 185.562 33.3859H184.055C183.911 33.3859 183.767 33.5295 183.767 33.7448V35.97C182.619 36.1853 181.686 36.7596 180.968 37.6209C180.25 38.6259 179.819 39.9179 179.819 41.4971C179.819 43.2198 180.25 44.5836 181.04 45.5885C181.973 46.8088 183.05 47.5984 184.557 48.2444Z" fill="#DFC125"/>
</g>
<defs>
<clipPath id="clip0">
<rect width="276" height="276" fill="white"/>
</clipPath>
</defs>
</svg>
