<?xml version="1.0" encoding="utf-8"?>
<!-- Generator: Adobe Illustrator 22.1.0, SVG Export Plug-In . SVG Version: 6.00 Build 0)  -->
<svg version="1.1" id="Capa_1" xmlns="http://www.w3.org/2000/svg" xmlns:xlink="http://www.w3.org/1999/xlink" x="0px" y="0px"
	 viewBox="0 0 83 83" style="enable-background:new 0 0 83 83;" xml:space="preserve">
<style type="text/css">
	.st0{fill:#FFFFFF;}
	.st1{fill:none;stroke:#000000;stroke-width:12;stroke-linecap:round;stroke-linejoin:round;stroke-miterlimit:10;}
</style>
<g>
	<path class="st0" d="M72.5,80h-62C6.4,80,3,76.6,3,72.5v-62C3,6.4,6.4,3,10.5,3h62c4.1,0,7.5,3.4,7.5,7.5v62
		C80,76.6,76.6,80,72.5,80z"/>
	<path d="M72.5,83h-62C4.7,83,0,78.3,0,72.5v-62C0,4.7,4.7,0,10.5,0h62C78.3,0,83,4.7,83,10.5v62C83,78.3,78.3,83,72.5,83z M10.5,6
		C8,6,6,8,6,10.5v62C6,75,8,77,10.5,77h62c2.5,0,4.5-2,4.5-4.5v-62C77,8,75,6,72.5,6H10.5z"/>
</g>
<polyline class="st1" points="21.3,40.7 36.1,55.4 64.7,26.9 "/>
<g>
</g>
<g>
</g>
<g>
</g>
<g>
</g>
<g>
</g>
<g>
</g>
</svg>
