<svg width="197" height="197" viewBox="0 0 197 197" fill="none" xmlns="http://www.w3.org/2000/svg">
<rect width="197" height="197" fill="white"/>
<circle cx="98" cy="98" r="83" fill="#0033A0"/>
<path d="M129.281 103.56C129.281 108.972 128.748 113.892 127.682 118.32C126.616 122.666 124.853 126.397 122.393 129.513C119.933 132.547 116.694 134.925 112.676 136.647C108.658 138.287 103.656 139.107 97.67 139.107C91.766 139.107 86.764 138.287 82.664 136.647C78.646 134.925 75.407 132.547 72.947 129.513C70.487 126.397 68.724 122.666 67.658 118.32C66.592 113.892 66.059 108.972 66.059 103.56V92.859C66.059 87.447 66.592 82.568 67.658 78.222C68.724 73.794 70.487 70.063 72.947 67.029C75.407 63.913 78.646 61.535 82.664 59.895C86.764 58.173 91.766 57.312 97.67 57.312C103.656 57.312 108.658 58.173 112.676 59.895C116.694 61.535 119.933 63.913 122.393 67.029C124.853 70.063 126.616 73.794 127.682 78.222C128.748 82.568 129.281 87.447 129.281 92.859V103.56ZM108.248 94.95C108.248 91.178 108.125 87.98 107.879 85.356C107.715 82.65 107.264 80.477 106.526 78.837C105.788 77.115 104.722 75.885 103.328 75.147C102.016 74.327 100.212 73.917 97.916 73.917H97.424C95.128 73.917 93.283 74.327 91.889 75.147C90.577 75.967 89.552 77.238 88.814 78.96C88.076 80.6 87.584 82.732 87.338 85.356C87.174 87.98 87.092 91.178 87.092 94.95V101.469C87.092 105.241 87.174 108.439 87.338 111.063C87.584 113.687 88.076 115.86 88.814 117.582C89.552 119.222 90.577 120.452 91.889 121.272C93.283 122.092 95.128 122.502 97.424 122.502H97.916C100.212 122.502 102.016 122.133 103.328 121.395C104.722 120.575 105.788 119.345 106.526 117.705C107.264 115.983 107.715 113.81 107.879 111.186C108.125 108.48 108.248 105.241 108.248 101.469V94.95Z" fill="white"/>
</svg>
