<svg width="197" height="197" viewBox="0 0 197 197" fill="none" xmlns="http://www.w3.org/2000/svg">
<rect width="197" height="197" fill="white"/>
<circle cx="98" cy="98" r="83" fill="#0033A0"/>
<path d="M77.744 138C76.104 138 74.956 137.713 74.3 137.139C73.726 136.565 73.439 135.458 73.439 133.818V126.561C73.439 124.921 73.726 123.773 74.3 123.117C74.956 122.461 76.104 122.133 77.744 122.133H90.782V78.837H90.167L79.589 83.511C78.441 84.003 77.416 84.249 76.514 84.249C75.694 84.249 74.997 83.716 74.423 82.65L70.364 74.655C69.134 72.277 69.708 70.514 72.086 69.366L91.028 60.018C92.258 59.362 93.365 58.952 94.349 58.788C95.415 58.542 96.768 58.419 98.408 58.419H107.141C108.781 58.419 109.929 58.706 110.585 59.28C111.241 59.772 111.569 60.961 111.569 62.847V122.133H122.639C124.279 122.133 125.386 122.461 125.96 123.117C126.616 123.773 126.944 124.921 126.944 126.561V133.818C126.944 135.458 126.616 136.565 125.96 137.139C125.386 137.713 124.279 138 122.639 138H77.744Z" fill="white"/>
</svg>
