<svg width="197" height="197" viewBox="0 0 197 197" fill="none" xmlns="http://www.w3.org/2000/svg">
<rect width="197" height="197" fill="white"/>
<circle cx="98" cy="98" r="83" fill="#0033A0"/>
<path d="M95.579 74.163C93.201 74.163 90.495 74.45 87.461 75.024C84.427 75.598 81.475 76.377 78.605 77.361C76.555 78.017 75.284 77.402 74.792 75.516L72.578 66.66C72.25 65.512 72.209 64.569 72.455 63.831C72.701 63.093 73.398 62.519 74.546 62.109C77.99 60.715 81.926 59.567 86.354 58.665C90.782 57.763 95.251 57.312 99.761 57.312H100.13C108.084 57.312 114.316 59.034 118.826 62.478C123.336 65.922 125.591 71.375 125.591 78.837V80.313C125.591 83.593 125.222 86.463 124.484 88.923C123.828 91.383 122.803 93.597 121.409 95.565C120.097 97.533 118.375 99.296 116.243 100.854C114.193 102.33 111.815 103.724 109.109 105.036L102.713 108.111C99.761 109.505 97.383 110.735 95.579 111.801C93.775 112.785 92.381 113.769 91.397 114.753C90.413 115.655 89.716 116.598 89.306 117.582C88.978 118.484 88.814 119.55 88.814 120.78V122.133H121.04C122.926 122.133 124.074 122.42 124.484 122.994C124.976 123.486 125.222 124.552 125.222 126.192V134.31C125.222 135.622 124.935 136.565 124.361 137.139C123.869 137.713 122.762 138 121.04 138H73.562C71.922 138 70.815 137.754 70.241 137.262C69.667 136.688 69.38 135.704 69.38 134.31V126.438C69.38 122.42 69.708 118.894 70.364 115.86C71.102 112.826 72.209 110.161 73.685 107.865C75.243 105.487 77.211 103.396 79.589 101.592C82.049 99.788 85.001 98.107 88.445 96.549L93.734 94.212C95.866 93.228 97.629 92.326 99.023 91.506C100.499 90.686 101.647 89.825 102.467 88.923C103.369 88.021 103.984 87.037 104.312 85.971C104.64 84.905 104.804 83.675 104.804 82.281V81.297C104.804 76.541 101.893 74.163 96.071 74.163H95.579Z" fill="white"/>
</svg>
