<svg width="150" height="150" viewBox="0 0 150 150" fill="none" xmlns="http://www.w3.org/2000/svg">
<path d="M111.286 99.2756L111.541 42.8621C111.542 42.7137 111.518 42.5406 111.518 42.3921C111.494 42.318 111.494 42.2685 111.495 42.1695C111.47 42.0954 111.471 41.9965 111.446 41.9223C111.422 41.8482 111.422 41.7493 111.398 41.6751C111.373 41.601 111.349 41.5269 111.325 41.4528C111.3 41.3787 111.276 41.3046 111.251 41.2304C111.227 41.1563 111.203 41.0822 111.178 41.0081C111.154 40.934 111.129 40.8599 111.08 40.8106C111.056 40.7365 111.031 40.6624 110.957 40.5885C110.933 40.5144 110.884 40.4651 110.835 40.3663C110.81 40.2922 110.761 40.243 110.712 40.1442C110.663 40.0455 110.614 39.9962 110.54 39.9223C110.491 39.873 110.466 39.7989 110.417 39.7497C110.245 39.5278 109.998 39.2815 109.752 39.0846C109.703 39.0354 109.628 39.011 109.579 38.9617C109.505 38.8878 109.431 38.8634 109.357 38.7895C109.308 38.7402 109.209 38.6912 109.135 38.6668C109.061 38.6424 109.012 38.5931 108.913 38.5441C108.839 38.5197 108.765 38.4953 108.691 38.4214C108.617 38.397 108.568 38.3477 108.493 38.3233C108.419 38.2989 108.345 38.2745 108.271 38.2501C108.197 38.2257 108.123 38.2013 108.049 38.1769C107.975 38.1524 107.9 38.128 107.826 38.1036C107.752 38.0792 107.678 38.0548 107.579 38.0553C107.505 38.0309 107.406 38.0313 107.332 38.0069C107.258 37.9825 107.208 37.9827 107.109 37.9832C106.936 37.9592 106.788 37.9599 106.639 37.9605L50.498 38.2386C47.7763 38.2508 45.5891 40.438 45.5768 43.1597C45.5645 45.8814 47.7321 48.049 50.4538 48.0367L94.7928 47.8366L39.4421 103.187C37.5283 105.101 37.5142 108.219 39.4108 110.115C41.3074 112.012 44.425 111.998 46.3388 110.084L101.689 54.7334L101.488 99.3198C101.482 100.656 102.021 101.891 102.908 102.777C103.794 103.664 105.029 104.203 106.365 104.197C109.087 104.184 111.274 101.997 111.286 99.2756Z" fill="black"/>
</svg>
