<svg width="150" height="150" viewBox="0 0 150 150" fill="none" xmlns="http://www.w3.org/2000/svg">
<path d="M38.418 50.7244L38.1635 107.138C38.1628 107.286 38.1868 107.459 38.1861 107.608C38.2105 107.682 38.2103 107.731 38.2099 107.83C38.2343 107.905 38.2338 108.004 38.2582 108.078C38.2826 108.152 38.2822 108.251 38.3066 108.325C38.331 108.399 38.3554 108.473 38.3798 108.547C38.4042 108.621 38.4286 108.695 38.4531 108.77C38.4775 108.844 38.5019 108.918 38.5263 108.992C38.5507 109.066 38.5751 109.14 38.6244 109.189C38.6488 109.264 38.6732 109.338 38.7471 109.412C38.7715 109.486 38.8207 109.535 38.8698 109.634C38.8942 109.708 38.9434 109.757 38.9925 109.856C39.0415 109.955 39.0908 110.004 39.1647 110.078C39.2139 110.127 39.2383 110.201 39.2876 110.25C39.4598 110.472 39.7061 110.719 39.9526 110.915C40.0019 110.965 40.076 110.989 40.1253 111.038C40.1992 111.112 40.2733 111.137 40.3472 111.21C40.3965 111.26 40.4952 111.309 40.5693 111.333C40.6434 111.358 40.6927 111.407 40.7914 111.456C40.8656 111.48 40.9397 111.505 41.0136 111.579C41.0877 111.603 41.1369 111.652 41.2111 111.677C41.2852 111.701 41.3593 111.726 41.4334 111.75C41.5075 111.774 41.5816 111.799 41.6558 111.823C41.7299 111.848 41.804 111.872 41.8781 111.896C41.9522 111.921 42.0263 111.945 42.1253 111.945C42.1994 111.969 42.2984 111.969 42.3725 111.993C42.4466 112.018 42.4961 112.017 42.5951 112.017C42.7682 112.041 42.9166 112.04 43.0651 112.039L99.2065 111.761C101.928 111.749 104.115 109.562 104.128 106.84C104.14 104.119 101.972 101.951 99.2507 101.963L54.9117 102.163L110.262 46.8127C112.176 44.8989 112.19 41.7813 110.294 39.8847C108.397 37.9881 105.279 38.0022 103.366 39.916L48.015 95.2666L48.2161 50.6802C48.2222 49.3441 47.6834 48.1094 46.7967 47.2227C45.91 46.336 44.6753 45.7972 43.3392 45.8033C40.6175 45.8156 38.4303 48.0027 38.418 50.7244Z" fill="black"/>
</svg>
