<svg width="350" height="345" viewBox="0 0 350 345" fill="none" xmlns="http://www.w3.org/2000/svg">
<rect width="350" height="345" fill="white"/>
<path d="M236.164 319.434C196.757 319.434 154.747 307.211 154.747 284.576C154.747 281.407 157.351 278.804 160.522 278.804C163.692 278.804 166.297 281.407 166.297 284.576C166.297 294.309 192.794 307.777 236.051 307.777C279.307 307.777 305.804 294.196 305.804 284.576C305.804 281.407 308.409 278.804 311.579 278.804C314.75 278.804 317.354 281.407 317.354 284.576C317.581 307.211 275.683 319.434 236.164 319.434Z" fill="#BBEEF2"/>
<path d="M236.164 320C196.418 320 154.181 307.551 154.181 284.576C154.181 281.067 157.011 278.238 160.522 278.238C164.032 278.238 166.863 281.067 166.863 284.576C166.863 294.082 193.134 307.211 236.05 307.211C278.967 307.211 305.238 293.969 305.238 284.576C305.238 281.067 308.069 278.238 311.579 278.238C315.09 278.238 317.92 281.067 317.92 284.576C318.147 307.551 275.91 320 236.164 320ZM160.635 279.256C157.691 279.256 155.426 281.633 155.426 284.462C155.426 306.758 197.097 318.755 236.277 318.755C275.457 318.755 317.128 306.758 317.128 284.462C317.128 281.52 314.75 279.256 311.919 279.256C308.975 279.256 306.71 281.633 306.71 284.462C306.71 294.422 279.986 308.23 236.39 308.23C192.794 308.23 166.07 294.422 166.07 284.462C165.844 281.633 163.466 279.256 160.635 279.256Z" fill="#BBEEF2"/>
<path d="M236.164 284.576C196.757 284.576 154.747 272.353 154.747 249.717C154.747 246.548 157.351 243.945 160.522 243.945C163.692 243.945 166.297 246.548 166.297 249.717C166.297 259.45 192.794 272.918 236.051 272.918C279.307 272.918 305.804 259.337 305.804 249.717C305.804 246.548 308.409 243.945 311.579 243.945C314.75 243.945 317.354 246.548 317.354 249.717C317.581 272.353 275.683 284.576 236.164 284.576Z" fill="#BBEEF2"/>
<path d="M236.164 285.142C196.418 285.142 154.181 272.692 154.181 249.717C154.181 246.209 157.011 243.379 160.522 243.379C164.032 243.379 166.863 246.209 166.863 249.717C166.863 259.224 193.134 272.352 236.05 272.352C278.967 272.352 305.238 259.111 305.238 249.717C305.238 246.209 308.069 243.379 311.579 243.379C315.09 243.379 317.92 246.209 317.92 249.717C318.147 272.692 275.91 285.142 236.164 285.142ZM160.635 244.511C157.691 244.511 155.426 246.888 155.426 249.717C155.426 272.013 197.097 284.01 236.277 284.01C275.457 284.01 317.128 272.013 317.128 249.717C317.128 246.774 314.75 244.511 311.919 244.511C308.975 244.511 306.71 246.888 306.71 249.717C306.71 259.677 279.986 273.484 236.39 273.484C192.794 273.484 166.07 259.677 166.07 249.717C165.844 246.774 163.466 244.511 160.635 244.511Z" fill="#BBEEF2"/>
<path d="M236.164 249.717C196.757 249.717 154.747 237.494 154.747 214.859C154.747 192.223 196.644 180 236.164 180C275.683 180 317.581 192.223 317.581 214.859C317.581 237.494 275.683 249.717 236.164 249.717ZM236.164 191.657C192.907 191.657 166.41 205.238 166.41 214.859C166.41 224.479 193.021 238.06 236.164 238.06C279.307 238.06 305.917 224.479 305.917 214.859C305.917 205.238 279.42 191.657 236.164 191.657Z" fill="#BBEEF2"/>
<path d="M236.164 250.283C196.418 250.283 154.181 237.833 154.181 214.859C154.181 191.884 196.418 179.434 236.164 179.434C275.91 179.434 318.147 191.884 318.147 214.859C318.147 237.833 275.91 250.283 236.164 250.283ZM236.164 180.566C196.984 180.566 155.313 192.563 155.313 214.859C155.313 237.154 196.984 249.151 236.164 249.151C275.344 249.151 317.015 237.154 317.015 214.859C317.015 192.563 275.344 180.566 236.164 180.566ZM236.164 238.626C192.568 238.626 165.844 224.818 165.844 214.859C165.844 204.899 192.568 191.091 236.164 191.091C279.76 191.091 306.484 204.899 306.484 214.859C306.484 224.818 279.76 238.626 236.164 238.626ZM236.164 192.223C193.247 192.223 166.976 205.465 166.976 214.859C166.976 224.365 193.247 237.494 236.164 237.494C279.08 237.494 305.351 224.252 305.351 214.859C305.351 205.352 279.08 192.223 236.164 192.223Z" fill="#BBEEF2"/>
<path d="M311.692 290.348C308.522 290.348 305.917 287.745 305.917 284.576V214.859C305.917 211.69 308.522 209.087 311.692 209.087C314.863 209.087 317.468 211.69 317.468 214.859V284.576C317.581 287.745 314.976 290.348 311.692 290.348Z" fill="#BBEEF2"/>
<path d="M311.692 290.914C308.182 290.914 305.351 288.084 305.351 284.576V214.859C305.351 211.35 308.182 208.521 311.692 208.521C315.203 208.521 318.034 211.35 318.034 214.859V284.576C318.147 288.084 315.316 290.914 311.692 290.914ZM311.692 209.652C308.748 209.652 306.484 212.029 306.484 214.859V284.576C306.484 287.518 308.862 289.782 311.692 289.782C314.637 289.782 316.901 287.405 316.901 284.576V214.859C317.015 211.916 314.637 209.652 311.692 209.652Z" fill="#BBEEF2"/>
<path d="M160.635 290.348C157.464 290.348 154.86 287.745 154.86 284.576V214.859C154.86 211.69 157.464 209.087 160.635 209.087C163.806 209.087 166.41 211.69 166.41 214.859V284.576C166.41 287.745 163.806 290.348 160.635 290.348Z" fill="#BBEEF2"/>
<path d="M160.635 290.914C157.125 290.914 154.294 288.084 154.294 284.576V214.859C154.294 211.35 157.125 208.521 160.635 208.521C164.145 208.521 166.976 211.35 166.976 214.859V284.576C166.976 288.084 164.145 290.914 160.635 290.914ZM160.635 209.652C157.691 209.652 155.426 212.029 155.426 214.859V284.576C155.426 287.518 157.804 289.782 160.635 289.782C163.579 289.782 165.844 287.405 165.844 284.576V214.859C165.844 211.916 163.466 209.652 160.635 209.652Z" fill="#BBEEF2"/>
<path d="M119.983 180C80.5769 180 38.5662 167.777 38.5662 145.141C38.5662 141.973 41.1706 139.369 44.3412 139.369C47.5119 139.369 50.1163 141.973 50.1163 145.141C50.1163 154.875 76.6136 168.343 119.87 168.343C163.126 168.343 189.624 154.762 189.624 145.141C189.624 141.973 192.228 139.369 195.399 139.369C198.569 139.369 201.174 141.973 201.174 145.141C201.287 167.777 159.389 180 119.983 180Z" fill="#BBEEF2"/>
<path d="M119.983 180.566C80.2372 180.566 38 168.116 38 145.141C38 141.633 40.8309 138.804 44.3412 138.804C47.8516 138.804 50.6825 141.633 50.6825 145.141C50.6825 154.648 76.9533 167.777 119.87 167.777C162.787 167.777 189.057 154.535 189.057 145.141C189.057 141.633 191.888 138.804 195.399 138.804C198.909 138.804 201.74 141.633 201.74 145.141C201.853 168.116 159.616 180.566 119.983 180.566ZM44.3412 139.935C41.3971 139.935 39.1324 142.312 39.1324 145.141C39.1324 167.437 80.8034 179.434 119.983 179.434C159.163 179.434 200.834 167.437 200.834 145.141C200.834 142.199 198.456 139.935 195.625 139.935C192.681 139.935 190.416 142.312 190.416 145.141C190.416 155.101 163.692 168.909 120.096 168.909C76.5004 168.909 49.7766 155.101 49.7766 145.141C49.6634 142.199 47.2854 139.935 44.3412 139.935Z" fill="#BBEEF2"/>
<path d="M119.983 145.141C80.5769 145.141 38.5662 132.918 38.5662 110.283C38.5662 107.114 41.1706 104.511 44.3412 104.511C47.5119 104.511 50.1163 107.114 50.1163 110.283C50.1163 120.016 76.6136 133.484 119.87 133.484C163.126 133.484 189.624 119.903 189.624 110.283C189.624 107.114 192.228 104.511 195.399 104.511C198.569 104.511 201.174 107.114 201.174 110.283C201.287 132.918 159.389 145.141 119.983 145.141Z" fill="#BBEEF2"/>
<path d="M119.983 145.707C80.2372 145.707 38 133.258 38 110.283C38 106.774 40.8309 103.945 44.3412 103.945C47.8516 103.945 50.6825 106.774 50.6825 110.283C50.6825 119.79 76.9533 132.918 119.87 132.918C162.787 132.918 189.057 119.677 189.057 110.283C189.057 106.774 191.888 103.945 195.399 103.945C198.909 103.945 201.74 106.774 201.74 110.283C201.853 133.258 159.616 145.707 119.983 145.707ZM44.3412 105.077C41.3971 105.077 39.1324 107.454 39.1324 110.283C39.1324 132.579 80.8034 144.576 119.983 144.576C159.163 144.576 200.834 132.579 200.834 110.283C200.834 107.34 198.456 105.077 195.625 105.077C192.681 105.077 190.416 107.454 190.416 110.283C190.416 120.243 163.692 134.05 120.096 134.05C76.5004 134.05 49.7766 120.243 49.7766 110.283C49.6634 107.34 47.2854 105.077 44.3412 105.077Z" fill="#BBEEF2"/>
<path d="M119.983 249.717C80.5769 249.717 38.5662 237.494 38.5662 214.859C38.5662 211.69 41.1706 209.087 44.3412 209.087C47.5119 209.087 50.1163 211.69 50.1163 214.859C50.1163 224.592 76.6136 238.06 119.87 238.06C126.211 238.06 131.76 237.833 136.742 237.268C139.913 236.928 142.744 239.192 143.083 242.474C143.423 245.756 141.158 248.472 137.875 248.812C132.552 249.378 126.664 249.717 119.983 249.717Z" fill="#BBEEF2"/>
<path d="M119.983 250.283C80.2372 250.283 38 237.833 38 214.859C38 211.35 40.8309 208.521 44.3412 208.521C47.8516 208.521 50.6825 211.35 50.6825 214.859C50.6825 224.365 76.9533 237.494 119.87 237.494C126.211 237.494 131.647 237.268 136.629 236.702C138.327 236.475 139.913 237.041 141.272 238.06C142.63 239.192 143.423 240.663 143.65 242.361C143.989 245.869 141.498 249.038 137.988 249.378C132.666 249.943 126.777 250.283 119.983 250.283ZM44.3412 209.652C41.3971 209.652 39.1324 212.029 39.1324 214.859C39.1324 237.154 80.8034 249.151 119.983 249.151C126.777 249.151 132.666 248.925 137.988 248.359C140.819 248.019 142.97 245.416 142.63 242.587C142.517 241.229 141.838 239.984 140.705 239.078C139.573 238.173 138.214 237.833 136.855 237.947C131.873 238.513 126.324 238.739 119.983 238.739C76.3871 238.739 49.6634 224.931 49.6634 214.972C49.6634 211.916 47.2854 209.652 44.3412 209.652Z" fill="#BBEEF2"/>
<path d="M119.983 284.576C80.5769 284.576 38.5662 272.353 38.5662 249.717C38.5662 246.548 41.1706 243.945 44.3412 243.945C47.5119 243.945 50.1163 246.548 50.1163 249.717C50.1163 259.45 76.6136 272.918 119.87 272.918C126.211 272.918 131.76 272.692 136.742 272.126C139.913 271.673 142.744 274.05 143.083 277.332C143.423 280.614 141.158 283.331 137.875 283.67C132.552 284.236 126.664 284.576 119.983 284.576Z" fill="#BBEEF2"/>
<path d="M119.983 285.142C80.2372 285.142 38 272.692 38 249.717C38 246.209 40.8309 243.379 44.3412 243.379C47.8516 243.379 50.6825 246.209 50.6825 249.717C50.6825 259.224 76.9533 272.352 119.87 272.352C126.211 272.352 131.647 272.126 136.629 271.56C138.214 271.334 139.913 271.787 141.272 272.918C142.63 273.937 143.536 275.521 143.65 277.332C143.876 279.03 143.31 280.728 142.291 281.973C141.272 283.331 139.686 284.123 137.988 284.349C132.666 284.802 126.777 285.142 119.983 285.142ZM44.3412 244.511C41.3971 244.511 39.1324 246.888 39.1324 249.717C39.1324 272.013 80.8034 284.01 119.983 284.01C126.777 284.01 132.666 283.783 137.988 283.217C139.347 283.104 140.592 282.425 141.498 281.293C142.404 280.162 142.744 278.804 142.63 277.445C142.517 276.087 141.725 274.729 140.592 273.824C139.46 272.918 138.214 272.579 136.855 272.805C131.873 273.371 126.324 273.597 119.983 273.597C76.3872 273.597 49.6634 259.79 49.6634 249.83C49.6634 246.774 47.2854 244.511 44.3412 244.511Z" fill="#BBEEF2"/>
<path d="M119.983 214.859C80.5769 214.859 38.5662 202.635 38.5662 180C38.5662 176.831 41.1706 174.228 44.3412 174.228C47.5119 174.228 50.1163 176.831 50.1163 180C50.1163 189.733 76.6136 203.201 119.87 203.201C126.211 203.201 131.76 202.975 136.742 202.409C139.913 202.07 142.744 204.333 143.083 207.615C143.423 210.784 141.158 213.614 137.875 213.953C132.552 214.632 126.664 214.859 119.983 214.859Z" fill="#BBEEF2"/>
<path d="M119.983 215.424C80.2372 215.424 38 202.975 38 180C38 176.492 40.8309 173.662 44.3412 173.662C47.8516 173.662 50.6825 176.492 50.6825 180C50.6825 189.507 76.9533 202.635 119.87 202.635C126.211 202.635 131.647 202.409 136.629 201.843C138.327 201.617 139.913 202.07 141.272 203.201C142.63 204.333 143.423 205.804 143.65 207.502C143.989 211.011 141.498 214.179 137.988 214.519C132.666 215.085 126.777 215.424 119.983 215.424ZM44.3412 174.794C41.3971 174.794 39.1324 177.171 39.1324 180C39.1324 202.296 80.8034 214.293 119.983 214.293C126.777 214.293 132.666 214.066 137.988 213.5C140.819 213.161 142.97 210.558 142.63 207.728C142.517 206.37 141.838 205.012 140.705 204.22C139.573 203.314 138.214 202.975 136.855 203.088C131.873 203.654 126.324 203.88 119.983 203.88C76.3871 203.88 49.6634 190.073 49.6634 180.113C49.6634 177.057 47.2854 174.794 44.3412 174.794Z" fill="#BBEEF2"/>
<path d="M119.983 110.283C80.5769 110.283 38.5662 98.0598 38.5662 75.4244C38.5662 52.789 80.4637 40.5659 119.983 40.5659C159.503 40.5659 201.4 52.789 201.4 75.4244C201.4 98.0598 159.389 110.283 119.983 110.283ZM119.983 52.2231C76.7269 52.2231 50.2295 65.8044 50.2295 75.4244C50.2295 85.0445 76.7269 98.6257 119.983 98.6257C163.24 98.6257 189.737 85.0445 189.737 75.4244C189.737 65.8044 163.126 52.2231 119.983 52.2231Z" fill="#BBEEF2"/>
<path d="M119.983 110.849C80.2372 110.849 38 98.3993 38 75.4244C38 52.4495 80.2372 40 119.983 40C159.729 40 201.966 52.4495 201.966 75.4244C201.966 98.3993 159.616 110.849 119.983 110.849ZM119.983 41.1318C80.8034 41.1318 39.1324 53.1285 39.1324 75.4244C39.1324 97.7203 80.8034 109.717 119.983 109.717C159.163 109.717 200.834 97.7203 200.834 75.4244C200.834 53.1285 159.163 41.1318 119.983 41.1318ZM119.983 99.1916C76.3871 99.1916 49.6634 85.384 49.6634 75.4244C49.6634 65.4648 76.3871 51.6572 119.983 51.6572C163.579 51.6572 190.303 65.4648 190.303 75.4244C190.303 85.384 163.466 99.1916 119.983 99.1916ZM119.983 52.789C77.0666 52.789 50.7957 66.0307 50.7957 75.4244C50.7957 84.8181 77.0666 98.0598 119.983 98.0598C162.9 98.0598 189.171 84.8181 189.171 75.4244C189.171 66.0307 162.787 52.789 119.983 52.789Z" fill="#BBEEF2"/>
<path d="M44.3412 255.489C41.1706 255.489 38.5662 252.886 38.5662 249.717V75.4244C38.5662 72.2555 41.1706 69.6524 44.3412 69.6524C47.5119 69.6524 50.1163 72.2555 50.1163 75.4244V249.717C50.2295 252.886 47.6251 255.489 44.3412 255.489Z" fill="#BBEEF2"/>
<path d="M44.3412 256.055C40.8309 256.055 38 253.226 38 249.717V75.4244C38 71.9159 40.8309 69.0865 44.3412 69.0865C47.8516 69.0865 50.6825 71.9159 50.6825 75.4244V249.717C50.7957 253.226 47.8516 256.055 44.3412 256.055ZM44.3412 70.2183C41.3971 70.2183 39.1324 72.595 39.1324 75.4244V249.717C39.1324 252.66 41.5103 254.923 44.3412 254.923C47.2854 254.923 49.5501 252.547 49.5501 249.717V75.4244C49.6634 72.4818 47.2854 70.2183 44.3412 70.2183Z" fill="#BBEEF2"/>
<path d="M195.512 150.914C192.341 150.914 189.737 148.31 189.737 145.141V75.4244C189.737 72.2555 192.341 69.6524 195.512 69.6524C198.682 69.6524 201.287 72.2555 201.287 75.4244V145.141C201.287 148.31 198.682 150.914 195.512 150.914Z" fill="#BBEEF2"/>
<path d="M195.512 151.479C192.002 151.479 189.171 148.65 189.171 145.141V75.4244C189.171 71.9159 192.002 69.0865 195.512 69.0865C199.022 69.0865 201.853 71.9159 201.853 75.4244V145.141C201.853 148.65 199.022 151.479 195.512 151.479ZM195.512 70.2183C192.568 70.2183 190.303 72.595 190.303 75.4244V145.141C190.303 148.084 192.681 150.348 195.512 150.348C198.456 150.348 200.721 147.971 200.721 145.141V75.4244C200.721 72.4818 198.343 70.2183 195.512 70.2183Z" fill="#BBEEF2"/>
<path d="M325.168 87.9871H295.839V58.561C295.839 54.034 292.103 50.2991 287.573 50.2991H264.02C259.49 50.2991 255.754 54.034 255.754 58.561V87.8739H226.425C221.896 87.8739 218.159 91.6087 218.159 96.1358V119.677C218.159 124.204 221.896 127.939 226.425 127.939H255.754V157.251C255.754 161.778 259.49 165.513 264.02 165.513H287.573C292.103 165.513 295.839 161.778 295.839 157.251V128.052H325.168C329.697 128.052 333.434 124.317 333.434 119.79V96.249C333.434 91.7219 329.697 87.9871 325.168 87.9871ZM322.11 116.734H284.516V154.309H266.964V116.734H229.37V99.3048H266.964V61.6168H284.516V99.1916H322.11V116.734V116.734Z" fill="#BBEEF2"/>
<path d="M287.46 166.306H263.907C259.037 166.306 255.074 162.344 255.074 157.478V128.618H226.312C221.443 128.618 217.48 124.656 217.48 119.79V96.249C217.48 91.3824 221.443 87.4212 226.312 87.4212H255.074V58.561C255.074 53.6944 259.037 49.7332 263.907 49.7332H287.46C292.329 49.7332 296.292 53.6944 296.292 58.561V87.308H325.054C329.923 87.308 333.887 91.2692 333.887 96.1358V119.677C333.887 124.543 329.923 128.504 325.054 128.504H296.292V157.251C296.292 162.344 292.329 166.306 287.46 166.306ZM226.312 88.553C222.009 88.553 218.612 92.0614 218.612 96.249V119.79C218.612 124.091 222.122 127.486 226.312 127.486H256.207V157.365C256.207 161.665 259.717 165.061 263.907 165.061H287.46C291.763 165.061 295.16 161.552 295.16 157.365V127.486H325.054C329.357 127.486 332.754 123.977 332.754 119.79V96.249C332.754 91.9483 329.244 88.553 325.054 88.553H295.16V58.561C295.16 54.2603 291.65 50.865 287.46 50.865H263.907C259.604 50.865 256.207 54.3735 256.207 58.561V88.4398H226.312V88.553ZM284.969 154.988H266.285V117.3H228.69V98.7389H266.285V61.0509H284.969V98.6257H322.563V117.3H284.969V154.988V154.988ZM267.53 153.856H283.95V116.168H321.544V99.8707H283.95V62.1827H267.53V99.7575H229.936V116.168H267.53V153.856Z" fill="#BBEEF2"/>
</svg>
