<svg width="350" height="345" viewBox="0 0 350 345" fill="none" xmlns="http://www.w3.org/2000/svg">
<rect width="350" height="345" fill="white"/>
<g clip-path="url(#clip0)">
<path d="M136.648 182.647C136.648 188.861 131.563 193.946 125.349 193.946C119.134 193.946 114.05 188.861 114.05 182.647C114.05 176.432 119.134 171.347 125.349 171.347C131.563 171.347 136.648 176.432 136.648 182.647Z" fill="#BBEEF2"/>
<path d="M310.204 130.896C305.91 130.896 302.407 134.399 302.407 138.693C302.407 145.585 299.469 151.913 294.498 156.32C283.424 131.235 262.295 112.705 237.776 104.456C238.793 100.388 239.245 96.0948 239.245 91.8011C239.245 61.6322 214.725 37 184.444 37C154.162 37 129.755 61.5193 129.755 91.8011C129.755 96.2078 130.32 100.388 131.224 104.456C129.416 105.021 127.722 105.699 125.914 106.377C101.846 93.9479 72.2425 98.5806 53.2598 117.563C51.565 119.258 50.774 121.518 51 123.891C51.226 126.264 52.4689 128.297 54.3898 129.653L79.361 146.263C73.7114 155.981 69.7567 167.054 67.8358 178.353H58.7964C54.5028 178.353 51 181.856 51 186.149V233.041C51 237.335 54.5028 240.837 58.7964 240.837H79.135C87.4964 255.187 99.5865 267.391 114.05 275.752V296.091C114.05 300.384 117.552 303.887 121.846 303.887H153.145C155.179 303.887 157.212 303.096 158.681 301.627L172.014 288.294H196.873L210.206 301.627C211.675 303.096 213.708 303.887 215.742 303.887H247.041C251.335 303.887 254.838 300.384 254.838 296.091V275.752C283.311 259.255 302.294 228.295 302.294 193.946C302.294 186.488 301.39 179.031 299.582 171.799C310.882 164.794 317.887 152.365 317.887 138.693C318 134.399 314.497 130.896 310.204 130.896ZM184.556 52.5929C206.138 52.5929 223.652 70.1066 223.652 91.6881C223.652 113.27 206.138 130.783 184.556 130.783C162.975 130.783 145.348 113.27 145.348 91.8011C145.348 70.3326 162.975 52.5929 184.556 52.5929ZM243.538 264.227C240.939 265.583 239.245 268.295 239.245 271.232V288.407H219.019L205.686 275.074C204.217 273.605 202.183 272.814 200.149 272.814H168.851C166.817 272.814 164.783 273.605 163.314 275.074L149.981 288.407H129.755V271.232C129.755 268.295 128.061 265.583 125.462 264.227C110.886 256.769 98.2306 244.114 90.7732 229.538C89.4173 226.939 86.7055 225.245 83.7677 225.245H66.5929V193.946H74.7283C78.796 193.946 82.1858 190.895 82.5248 186.827C83.7677 173.042 88.7393 159.37 96.4228 148.41C97.6657 146.715 98.1176 144.568 97.6657 142.421C97.3267 140.388 96.0838 138.467 94.2759 137.337L72.0165 122.422C86.7055 113.044 106.14 112.479 121.507 121.744C123.767 123.1 126.479 123.213 128.851 122.196C131.563 120.953 134.275 119.936 137.1 119.032C139.586 123.439 142.749 127.394 146.365 130.896H137.665C133.371 130.896 129.868 134.399 129.868 138.693C129.868 142.986 133.371 146.489 137.665 146.489H231.561C235.855 146.489 239.358 142.986 239.358 138.693C239.358 134.399 235.855 130.896 231.561 130.896H222.748C226.364 127.394 229.414 123.439 232.013 119.032C264.103 129.427 286.701 159.935 286.701 194.059C286.701 223.211 269.752 250.781 243.538 264.227Z" fill="#BBEEF2"/>
</g>
<defs>
<clipPath id="clip0">
<rect width="267" height="267" fill="white" transform="translate(51 37)"/>
</clipPath>
</defs>
</svg>
