<?xml version="1.0" encoding="utf-8"?>
<!-- Generator: Adobe Illustrator 22.1.0, SVG Export Plug-In . SVG Version: 6.00 Build 0)  -->
<svg version="1.1" id="Capa_1" xmlns="http://www.w3.org/2000/svg" xmlns:xlink="http://www.w3.org/1999/xlink" x="0px" y="0px"
	 viewBox="0 0 612 792" style="enable-background:new 0 0 612 792;" xml:space="preserve">
<style type="text/css">
	.st0{fill:none;}
	.st1{stroke:#000000;stroke-width:2;stroke-miterlimit:10;}
	.st2{fill:#7C94C6;}
	.st3{fill:#A6BBD7;enable-background:new    ;}
	.st4{fill:#FFFFFF;}
</style>
<g>
	<rect x="64.6" y="101.6" class="st0" width="215.7" height="60.3"/>
	<path d="M65.5,110.1v-8.6h1.2l4.5,6.7v-6.7h1.1v8.6h-1.2l-4.5-6.8v6.8H65.5z"/>
	<path d="M73.7,107c0-1.2,0.3-2,1-2.6c0.5-0.5,1.2-0.7,2-0.7c0.9,0,1.6,0.3,2.1,0.8s0.8,1.3,0.8,2.3c0,0.8-0.1,1.4-0.4,1.9
		s-0.6,0.8-1,1.1s-1,0.4-1.5,0.4c-0.9,0-1.6-0.3-2.1-0.8S73.7,108.1,73.7,107z M74.8,107c0,0.8,0.2,1.4,0.5,1.8s0.8,0.6,1.3,0.6
		c0.5,0,1-0.2,1.3-0.6s0.5-1,0.5-1.8c0-0.8-0.2-1.4-0.5-1.7s-0.8-0.6-1.3-0.6c-0.5,0-1,0.2-1.3,0.6S74.8,106.2,74.8,107z"/>
	<path d="M80.8,110.1v-6.2h0.9v0.9c0.2-0.3,0.5-0.5,0.8-0.7s0.7-0.3,1.1-0.3c0.5,0,0.8,0.1,1.1,0.3s0.5,0.5,0.6,0.8
		c0.5-0.7,1.1-1.1,1.9-1.1c0.6,0,1.1,0.2,1.4,0.5s0.5,0.9,0.5,1.6v4.3h-1v-3.9c0-0.4,0-0.7-0.1-0.9s-0.2-0.3-0.4-0.4
		s-0.4-0.2-0.6-0.2c-0.4,0-0.8,0.1-1.1,0.4s-0.4,0.8-0.4,1.4v3.6h-1.1v-4c0-0.5-0.1-0.8-0.3-1.1s-0.5-0.4-0.8-0.4
		c-0.3,0-0.6,0.1-0.8,0.2s-0.4,0.4-0.5,0.7s-0.2,0.7-0.2,1.3v3.2H80.8z"/>
	<path d="M91.7,110.1h-1v-8.6h1.1v3.1c0.4-0.6,1-0.8,1.7-0.8c0.4,0,0.7,0.1,1.1,0.2s0.6,0.4,0.8,0.7s0.4,0.6,0.5,1s0.2,0.8,0.2,1.3
		c0,1.1-0.3,1.9-0.8,2.5s-1.2,0.9-1.9,0.9c-0.7,0-1.3-0.3-1.7-0.9V110.1z M91.7,107c0,0.7,0.1,1.3,0.3,1.6c0.3,0.5,0.8,0.8,1.3,0.8
		c0.5,0,0.9-0.2,1.2-0.6s0.5-1,0.5-1.8c0-0.8-0.2-1.4-0.5-1.8s-0.7-0.6-1.2-0.6c-0.5,0-0.9,0.2-1.2,0.6S91.7,106.2,91.7,107z"/>
	<path d="M97.4,110.1v-6.2h0.9v0.9c0.2-0.4,0.5-0.7,0.7-0.9s0.4-0.2,0.7-0.2c0.4,0,0.7,0.1,1.1,0.3l-0.4,1c-0.3-0.2-0.5-0.2-0.8-0.2
		c-0.2,0-0.4,0.1-0.6,0.2s-0.3,0.3-0.4,0.6c-0.1,0.4-0.2,0.8-0.2,1.2v3.3H97.4z"/>
	<path d="M105.7,108.1l1.1,0.1c-0.2,0.6-0.5,1.1-1,1.5s-1.1,0.5-1.8,0.5c-0.9,0-1.6-0.3-2.2-0.8s-0.8-1.3-0.8-2.4
		c0-1,0.3-1.9,0.8-2.4s1.2-0.9,2.1-0.9c0.8,0,1.5,0.3,2,0.8s0.8,1.4,0.8,2.4c0,0.1,0,0.2,0,0.3h-4.6c0,0.7,0.2,1.2,0.6,1.6
		s0.8,0.5,1.3,0.5c0.4,0,0.7-0.1,1-0.3S105.5,108.6,105.7,108.1z M102.2,106.4h3.5c0-0.5-0.2-0.9-0.4-1.2c-0.3-0.4-0.8-0.6-1.3-0.6
		c-0.5,0-0.9,0.2-1.2,0.5S102.2,105.9,102.2,106.4z"/>
	<path d="M108.4,105.1v-1.2h1.2v1.2H108.4z M108.4,110.1v-1.2h1.2v1.2H108.4z"/>
</g>
<line class="st1" x1="64.6" y1="131.7" x2="296.9" y2="131.7"/>
<g>
	<path d="M65.5,125.5v-8.6h3.7c0.9,0,1.6,0.1,2,0.2s0.7,0.4,1,0.8s0.4,0.8,0.4,1.4c0,0.6-0.2,1.2-0.6,1.6s-0.9,0.7-1.7,0.8
		c0.4,0.2,0.7,0.5,0.9,0.7s0.6,0.7,1,1.4l1,1.7h-2.1l-1.3-1.9c-0.4-0.7-0.8-1.1-0.9-1.3s-0.3-0.3-0.5-0.4s-0.5-0.1-0.9-0.1h-0.4v3.6
		H65.5z M67.2,120.6h1.3c0.8,0,1.4,0,1.6-0.1s0.4-0.2,0.5-0.4s0.2-0.4,0.2-0.6c0-0.3-0.1-0.5-0.2-0.7s-0.4-0.3-0.7-0.3
		c-0.1,0-0.6,0-1.3,0h-1.4V120.6z"/>
	<path d="M73.8,122.3c0-0.5,0.1-1.1,0.4-1.6s0.7-0.9,1.1-1.2s1-0.4,1.7-0.4c0.9,0,1.7,0.3,2.3,0.9s0.9,1.4,0.9,2.3
		c0,0.9-0.3,1.7-0.9,2.3s-1.4,0.9-2.3,0.9c-0.6,0-1.1-0.1-1.6-0.4s-0.9-0.6-1.2-1.1S73.8,123,73.8,122.3z M75.5,122.4
		c0,0.6,0.1,1.1,0.4,1.4s0.7,0.5,1.1,0.5s0.8-0.2,1.1-0.5s0.4-0.8,0.4-1.4c0-0.6-0.1-1.1-0.4-1.4s-0.7-0.5-1.1-0.5s-0.8,0.2-1.1,0.5
		S75.5,121.8,75.5,122.4z"/>
	<path d="M87.2,125.5h-1.5v-0.9c-0.3,0.4-0.6,0.6-0.9,0.8s-0.7,0.3-1,0.3c-0.7,0-1.3-0.3-1.8-0.9s-0.8-1.4-0.8-2.4
		c0-1.1,0.2-1.9,0.7-2.4s1.1-0.8,1.9-0.8c0.7,0,1.3,0.3,1.8,0.9v-3.1h1.6V125.5z M82.8,122.3c0,0.7,0.1,1.1,0.3,1.4
		c0.3,0.4,0.6,0.6,1.1,0.6c0.4,0,0.7-0.2,1-0.5s0.4-0.8,0.4-1.4c0-0.7-0.1-1.2-0.4-1.5s-0.6-0.5-1-0.5c-0.4,0-0.7,0.2-1,0.5
		S82.8,121.7,82.8,122.3z"/>
	<path d="M88.4,122.3c0-0.5,0.1-1.1,0.4-1.6s0.7-0.9,1.1-1.2s1-0.4,1.7-0.4c0.9,0,1.7,0.3,2.3,0.9s0.9,1.4,0.9,2.3
		c0,0.9-0.3,1.7-0.9,2.3s-1.4,0.9-2.3,0.9c-0.6,0-1.1-0.1-1.6-0.4s-0.9-0.6-1.2-1.1S88.4,123,88.4,122.3z M90.1,122.4
		c0,0.6,0.1,1.1,0.4,1.4s0.7,0.5,1.1,0.5s0.8-0.2,1.1-0.5s0.4-0.8,0.4-1.4c0-0.6-0.1-1.1-0.4-1.4s-0.7-0.5-1.1-0.5s-0.8,0.2-1.1,0.5
		S90.1,121.8,90.1,122.4z"/>
	<path d="M96.1,125.5v-8.6h1.6v8.6H96.1z"/>
	<path d="M98.8,119.3h0.9v-0.5c0-0.5,0.1-0.9,0.2-1.2s0.3-0.5,0.6-0.6s0.7-0.2,1.1-0.2c0.5,0,0.9,0.1,1.4,0.2l-0.2,1.1
		c-0.3-0.1-0.5-0.1-0.8-0.1c-0.2,0-0.4,0.1-0.5,0.2s-0.2,0.3-0.2,0.6v0.4h1.2v1.3h-1.2v4.9h-1.6v-4.9h-0.9V119.3z"/>
	<path d="M103.1,122.3c0-0.5,0.1-1.1,0.4-1.6s0.7-0.9,1.1-1.2s1-0.4,1.7-0.4c0.9,0,1.7,0.3,2.3,0.9s0.9,1.4,0.9,2.3
		c0,0.9-0.3,1.7-0.9,2.3s-1.4,0.9-2.3,0.9c-0.6,0-1.1-0.1-1.6-0.4s-0.9-0.6-1.2-1.1S103.1,123,103.1,122.3z M104.8,122.4
		c0,0.6,0.1,1.1,0.4,1.4s0.7,0.5,1.1,0.5s0.8-0.2,1.1-0.5s0.4-0.8,0.4-1.4c0-0.6-0.1-1.1-0.4-1.4s-0.7-0.5-1.1-0.5s-0.8,0.2-1.1,0.5
		S104.8,121.8,104.8,122.4z"/>
</g>
<g>
	<rect x="321.6" y="101.6" class="st0" width="215.7" height="60.3"/>
	<path d="M321.6,110.1l3.3-8.6h1.2l3.5,8.6h-1.3l-1-2.6h-3.6l-0.9,2.6H321.6z M324.1,106.6h2.9l-0.9-2.4c-0.3-0.7-0.5-1.3-0.6-1.8
		c-0.1,0.6-0.3,1.1-0.5,1.6L324.1,106.6z"/>
	<path d="M330.4,112.5v-8.6h1v0.8c0.2-0.3,0.5-0.6,0.8-0.7s0.6-0.2,1-0.2c0.5,0,1,0.1,1.4,0.4s0.7,0.7,0.9,1.2s0.3,1,0.3,1.6
		c0,0.6-0.1,1.2-0.3,1.7s-0.6,0.9-1,1.2s-0.9,0.4-1.4,0.4c-0.4,0-0.7-0.1-0.9-0.2s-0.5-0.3-0.7-0.6v3H330.4z M331.4,107.1
		c0,0.8,0.2,1.4,0.5,1.8s0.7,0.6,1.2,0.6c0.5,0,0.9-0.2,1.2-0.6s0.5-1,0.5-1.8c0-0.8-0.2-1.4-0.5-1.8s-0.7-0.6-1.2-0.6
		c-0.4,0-0.8,0.2-1.2,0.6S331.4,106.3,331.4,107.1z"/>
	<path d="M341.4,108.1l1.1,0.1c-0.2,0.6-0.5,1.1-1,1.5s-1.1,0.5-1.8,0.5c-0.9,0-1.6-0.3-2.2-0.8s-0.8-1.3-0.8-2.4
		c0-1,0.3-1.9,0.8-2.4s1.2-0.9,2.1-0.9c0.8,0,1.5,0.3,2,0.8s0.8,1.4,0.8,2.4c0,0.1,0,0.2,0,0.3h-4.6c0,0.7,0.2,1.2,0.6,1.6
		s0.8,0.5,1.3,0.5c0.4,0,0.7-0.1,1-0.3S341.2,108.6,341.4,108.1z M337.9,106.4h3.5c0-0.5-0.2-0.9-0.4-1.2c-0.3-0.4-0.8-0.6-1.3-0.6
		c-0.5,0-0.9,0.2-1.2,0.5S337.9,105.9,337.9,106.4z"/>
	<path d="M343.8,110.1v-8.6h1.1v8.6H343.8z"/>
	<path d="M346.4,110.1v-8.6h1.1v8.6H346.4z"/>
	<path d="M349.1,102.8v-1.2h1.1v1.2H349.1z M349.1,110.1v-6.2h1.1v6.2H349.1z"/>
	<path d="M355.8,110.1v-0.8c-0.4,0.6-1,0.9-1.7,0.9c-0.5,0-1-0.1-1.4-0.4s-0.7-0.7-1-1.1s-0.3-1.1-0.3-1.7c0-0.6,0.1-1.2,0.3-1.7
		s0.5-0.9,0.9-1.2s0.9-0.4,1.4-0.4c0.4,0,0.7,0.1,1,0.2s0.5,0.4,0.7,0.6v-3.1h1v8.6H355.8z M352.5,107c0,0.8,0.2,1.4,0.5,1.8
		s0.7,0.6,1.2,0.6c0.5,0,0.9-0.2,1.2-0.6s0.5-1,0.5-1.7c0-0.9-0.2-1.5-0.5-1.9s-0.7-0.6-1.2-0.6c-0.5,0-0.9,0.2-1.2,0.6
		S352.5,106.2,352.5,107z"/>
	<path d="M358.1,107c0-1.2,0.3-2,1-2.6c0.5-0.5,1.2-0.7,2-0.7c0.9,0,1.6,0.3,2.1,0.8s0.8,1.3,0.8,2.3c0,0.8-0.1,1.4-0.4,1.9
		s-0.6,0.8-1,1.1s-1,0.4-1.5,0.4c-0.9,0-1.6-0.3-2.1-0.8S358.1,108.1,358.1,107z M359.2,107c0,0.8,0.2,1.4,0.5,1.8s0.8,0.6,1.3,0.6
		c0.5,0,1-0.2,1.3-0.6s0.5-1,0.5-1.8c0-0.8-0.2-1.4-0.5-1.7s-0.8-0.6-1.3-0.6c-0.5,0-1,0.2-1.3,0.6S359.2,106.2,359.2,107z"/>
	<path d="M365.4,105.1v-1.2h1.2v1.2H365.4z M365.4,110.1v-1.2h1.2v1.2H365.4z"/>
</g>
<line class="st1" x1="321.6" y1="131.7" x2="553.9" y2="131.7"/>
<g>
	<path d="M322.5,125.5v-8.6h2.6l1.6,5.9l1.5-5.9h2.6v8.6h-1.6v-6.8l-1.7,6.8h-1.7l-1.7-6.8v6.8H322.5z"/>
	<path d="M332.1,122.3c0-0.5,0.1-1.1,0.4-1.6s0.7-0.9,1.1-1.2s1-0.4,1.7-0.4c0.9,0,1.7,0.3,2.3,0.9s0.9,1.4,0.9,2.3
		c0,0.9-0.3,1.7-0.9,2.3s-1.4,0.9-2.3,0.9c-0.6,0-1.1-0.1-1.6-0.4s-0.9-0.6-1.2-1.1S332.1,123,332.1,122.3z M333.8,122.4
		c0,0.6,0.1,1.1,0.4,1.4s0.7,0.5,1.1,0.5s0.8-0.2,1.1-0.5s0.4-0.8,0.4-1.4c0-0.6-0.1-1.1-0.4-1.4s-0.7-0.5-1.1-0.5s-0.8,0.2-1.1,0.5
		S333.8,121.8,333.8,122.4z"/>
	<path d="M339.8,125.5v-8.6h1.6v8.6H339.8z"/>
	<path d="M343.2,118.5v-1.5h1.6v1.5H343.2z M343.2,125.5v-6.2h1.6v6.2H343.2z"/>
	<path d="M352.2,125.5h-1.6v-3.2c0-0.7,0-1.1-0.1-1.3s-0.2-0.4-0.3-0.5s-0.3-0.2-0.6-0.2c-0.3,0-0.5,0.1-0.8,0.2s-0.4,0.4-0.5,0.6
		s-0.1,0.7-0.1,1.4v2.8h-1.6v-6.2h1.5v0.9c0.5-0.7,1.2-1.1,2.1-1.1c0.4,0,0.7,0.1,1,0.2s0.5,0.3,0.7,0.5s0.3,0.4,0.3,0.7
		s0.1,0.6,0.1,1.1V125.5z"/>
	<path d="M355.1,121.2l-1.5-0.3c0.2-0.6,0.5-1,0.9-1.3s1-0.4,1.8-0.4c0.7,0,1.3,0.1,1.6,0.3s0.6,0.4,0.8,0.7s0.2,0.8,0.2,1.5l0,1.9
		c0,0.5,0,1,0.1,1.2s0.2,0.5,0.3,0.8h-1.6c0-0.1-0.1-0.3-0.2-0.5c0-0.1,0-0.2-0.1-0.2c-0.3,0.3-0.6,0.5-0.9,0.6s-0.7,0.2-1,0.2
		c-0.6,0-1.1-0.2-1.5-0.5s-0.6-0.8-0.6-1.3c0-0.4,0.1-0.7,0.3-0.9s0.4-0.5,0.7-0.6s0.7-0.3,1.3-0.4c0.8-0.1,1.3-0.3,1.6-0.4v-0.2
		c0-0.3-0.1-0.5-0.2-0.7s-0.5-0.2-0.9-0.2c-0.3,0-0.5,0.1-0.7,0.2S355.2,120.9,355.1,121.2z M357.3,122.5c-0.2,0.1-0.5,0.2-1,0.3
		s-0.8,0.2-0.9,0.3c-0.2,0.2-0.3,0.3-0.3,0.6c0,0.2,0.1,0.4,0.3,0.6s0.4,0.3,0.7,0.3c0.3,0,0.6-0.1,0.8-0.3c0.2-0.1,0.3-0.3,0.4-0.5
		c0-0.1,0.1-0.4,0.1-0.8V122.5z"/>
</g>
<g>
	<path class="st2" d="M109.1,82.7L68,82.7c-0.9,0-1.6-0.6-1.6-1.3c0,0,0.8-2.4,1.7-2.4l41.1,1c0.9,0,1.6,0.6,1.6,1.3l0,0
		C110.8,82.1,110,82.7,109.1,82.7z"/>
	<path class="st2" d="M94.5,81.6L68.9,82c-1,0-1.9-0.7-1.9-1.6L61.3,55c0-0.9,0.8-1.6,1.9-1.6L88.8,53c1,0,1.9,0.7,1.9,1.6l5.6,25.4
		C96.4,80.8,95.5,81.6,94.5,81.6z"/>
	<path class="st3" d="M93.2,81.6l-25.7,0c-1,0-1.9-0.7-1.9-1.6l-5.6-25c0-0.9,0.8-1.6,1.9-1.6l25.7-0.4c1,0,1.9,0.7,1.9,1.6L95.1,80
		C95.1,80.9,94.3,81.6,93.2,81.6z"/>
	<g>
		<ellipse transform="matrix(0.9663 -0.2573 0.2573 0.9663 -14.9164 21.7774)" class="st4" cx="75.7" cy="67.9" rx="1.8" ry="2.5"/>
	</g>
</g>
<g>
</g>
<g>
</g>
<g>
</g>
<g>
</g>
<g>
</g>
<g>
</g>
</svg>
