<?xml version="1.0" standalone="no"?>
<!DOCTYPE svg PUBLIC "-//W3C//DTD SVG 1.1//EN" "http://www.w3.org/Graphics/SVG/1.1/DTD/svg11.dtd" >
<svg xmlns="http://www.w3.org/2000/svg">
<metadata>Generated by IcoMoon</metadata>
<defs>
<font id="icomoonPack2" horiz-adv-x="1024">
<font-face units-per-em="1024" ascent="960" descent="-64" />
<missing-glyph horiz-adv-x="1024" />
<glyph unicode="&#x20;" horiz-adv-x="512" d="" />
<glyph unicode="&#xe900;" glyph-name="calendar" d="M904.329 773.972h-115.698v18.116c0 17.145-13.708 31.379-30.918 31.379-16.896 0-30.918-13.91-30.918-31.379v-18.116h-110.922v18.116c0 17.145-13.706 31.379-30.918 31.379s-30.917-13.91-30.917-31.379v-18.116h-109.326v18.116c0 17.145-13.706 31.379-30.917 31.379s-30.917-13.91-30.917-31.379v-18.116h-116.657c-16.893 0-30.918-13.91-30.918-31.379v-148.807c0-175.657-70.121-316.054-135.463-372.343-9.881-8.41-13.705-22.316-9.243-34.611s15.937-20.705 29.005-20.705h116.020v-67.932c0-17.149 13.706-31.382 30.917-31.382h638.112c16.889 0 30.918 13.913 30.918 31.382v644.398c-0.321 17.469-14.029 31.379-31.239 31.379zM758.026 166.127c7.332 0 14.343 2.587 19.763 7.12 26.139 21.996 65.345 71.81 95.942 134.571v-178.248h-576.595v36.557h460.89zM188.447 228.884c64.704 88.638 102.952 207.037 108.052 333.847h576.591c-6.055-134.573-53.548-259.442-127.174-333.847h-557.469zM414.431 661.72c16.893 0 30.917 13.91 30.917 31.379v18.116h109.326v-18.116c0-17.145 13.706-31.379 30.917-31.379s30.917 13.91 30.917 31.379v18.116h110.92v-18.116c0-17.145 13.708-31.379 30.918-31.379 16.896 0 30.918 13.91 30.918 31.379v18.116h84.78v-86.049h-576.909v86.049h86.377v-18.116c0-17.145 14.025-31.379 30.918-31.379z" />
<glyph unicode="&#xe901;" glyph-name="calendar-fill" d="M909.674 773.972h-117.425v18.116c0 17.145-13.913 31.379-31.382 31.379-17.142 0-31.375-13.91-31.375-31.379v-18.116h-112.577v18.116c0 17.145-13.911 31.379-31.379 31.379s-31.379-13.91-31.379-31.379v-18.116h-110.958v18.116c0 17.145-13.911 31.379-31.379 31.379s-31.379-13.91-31.379-31.379v-18.116h-118.398c-17.145 0-31.379-13.91-31.379-31.379v-148.807c0-175.657-71.169-316.054-137.485-372.343-10.028-8.41-13.91-22.316-9.381-34.611s16.174-20.705 29.438-20.705h117.751v-67.932c0-17.149 13.911-31.382 31.379-31.382h647.637c17.142 0 31.375 13.913 31.375 31.382v644.398c-0.321 17.469-14.234 31.379-31.703 31.379zM183.108 228.884c65.669 88.638 104.488 207.037 109.664 333.847h585.198c-6.144-134.573-54.347-259.442-129.072-333.847h-565.791z" />
<glyph unicode="&#xe902;" glyph-name="caution" d="M848.1 23.415h-672.201c-50.665 0-95.978 26.403-120.953 70.289s-24.619 96.334 1.427 139.863l327.18 570.871c25.689 42.459 70.289 68.148 119.526 68.148 0 0 0 0 0 0 49.238 0 93.837-25.332 119.169-67.434l345.734-571.228c26.046-43.172 26.403-95.621 1.427-139.507-25.332-44.599-70.645-71.002-121.31-71.002zM445.279 767.688l-326.824-570.871c-12.488-21.051-12.845-46.026-0.714-67.077s33.895-33.895 58.157-33.895h672.201c24.262 0 46.026 12.845 58.157 33.895s11.774 46.026-0.714 66.721l-345.377 571.228c-12.131 20.337-33.539 32.468-57.444 32.468s-44.599-11.774-57.444-32.468zM504.507 156.142c-29.257 0-53.519 23.905-53.519 53.519s23.905 53.519 53.519 53.519c29.257 0 53.519-23.905 53.519-53.519s-24.262-53.519-53.519-53.519zM558.74 423.024c0-29.257-24.619-53.519-54.233-53.519-29.257 0-53.162 23.905-53.162 53.519v213.363c0 29.257 23.548 53.519 53.162 53.519 29.257 0 54.233-23.905 54.233-53.519v-213.363z" />
<glyph unicode="&#xe903;" glyph-name="caution-fill" d="M967.626 233.923l-345.734 570.871c-25.332 42.459-69.932 67.434-119.169 67.434 0 0 0 0 0 0-49.238 0-94.194-25.332-119.526-68.148l-327.18-570.871c-25.689-43.529-26.403-95.621-1.427-139.863s70.289-70.289 120.953-70.289h672.201c50.665 0 95.978 26.403 120.953 70.645 25.689 44.599 24.976 96.691-1.070 140.22zM504.507 156.142c-29.257 0-53.519 23.905-53.519 53.519 0 29.257 23.905 53.519 53.519 53.519 29.257 0 53.519-23.905 53.519-53.519s-24.262-53.519-53.519-53.519zM558.74 423.024c0-29.257-24.619-53.519-54.233-53.519-29.257 0-53.162 23.905-53.162 53.519v213.363c0 29.257 23.548 53.519 53.162 53.519 29.257 0 54.233-23.905 54.233-53.519v-213.363z" />
<glyph unicode="&#xe904;" glyph-name="cellphone" d="M803.501 73.723v748.911c0 52.092-42.459 94.551-94.551 94.551h-393.901c-52.092 0-94.551-42.459-94.551-94.551v-748.911c0-52.092 42.459-94.551 94.551-94.551h394.615c25.332 0 49.951 10.347 67.434 28.544 17.84 17.84 27.116 41.388 26.403 66.007zM288.29 158.997h447.42v-86.701c0.357-6.779-2.141-12.845-7.136-17.84s-11.774-7.849-18.91-7.849h-394.615c-14.629 0-26.76 12.131-26.76 26.76v85.631zM288.29 791.593v31.041c0 14.629 12.131 26.76 26.76 26.76h393.544c14.629 0 26.76-12.131 26.76-26.76v-31.041h-447.063zM735.71 723.802v-496.658h-447.42v496.658h447.42zM487.024 70.155h50.665c18.553 0 33.895 15.342 33.895 33.895s-15.342 33.895-33.895 33.895h-50.665c-18.553 0-33.895-15.342-33.895-33.895s15.342-33.895 33.895-33.895z" />
<glyph unicode="&#xe905;" glyph-name="cellphone-fill" d="M803.501 73.723v748.911c0 52.092-42.459 94.551-94.551 94.551h-393.901c-52.092 0-94.551-42.459-94.551-94.551v-748.911c0-52.092 42.459-94.551 94.551-94.551h394.615c25.332 0 49.951 10.347 67.434 28.544 17.84 17.84 27.116 41.388 26.403 66.007zM537.689 70.155h-50.665c-18.553 0-33.895 15.342-33.895 33.895s15.342 33.895 33.895 33.895h50.665c18.553 0 33.895-15.342 33.895-33.895s-14.985-33.895-33.895-33.895zM288.29 227.144v496.658h447.42v-496.658h-447.42z" />
<glyph unicode="&#xe906;" glyph-name="close-circle" d="M510.216-26.893c-260.817 0-473.109 212.293-473.109 473.109s212.293 473.109 473.109 473.109 473.109-212.293 473.109-473.109-212.293-473.109-473.109-473.109zM510.216 851.534c-223.353 0-405.318-181.965-405.318-405.318s181.965-405.318 405.318-405.318 405.318 181.965 405.318 405.318-181.965 405.318-405.318 405.318zM342.879 246.768c-8.206 0-16.413 3.211-22.835 9.277-12.488 12.488-12.488 32.825 0 45.313l338.598 338.598c12.488 12.488 32.825 12.488 45.313 0s12.488-32.825 0-45.313l-338.598-338.598c-6.066-6.066-14.272-9.277-22.478-9.277zM681.121 246.768c-8.206 0-16.413 3.211-22.835 9.277l-338.598 338.598c-12.488 12.488-12.488 32.825 0 45.313s32.825 12.488 45.313 0l338.598-338.598c12.488-12.488 12.488-32.825 0-45.313-6.066-6.066-14.272-9.277-22.478-9.277z" />
<glyph unicode="&#xe907;" glyph-name="close-circle-fill" d="M510.216 919.325c-260.817 0-473.109-212.293-473.109-473.109s212.293-473.109 473.109-473.109 473.109 212.293 473.109 473.109-212.293 473.109-473.109 473.109zM703.955 301.357c12.488-12.488 12.488-32.825 0-45.313-6.422-6.422-14.629-9.277-22.835-9.277s-16.413 3.211-22.835 9.277l-146.643 146.643-146.643-146.643c-6.422-6.422-14.629-9.277-22.835-9.277s-16.413 3.211-22.835 9.277c-12.488 12.488-12.488 32.825 0 45.313l146.643 146.643-146.643 146.643c-12.488 12.488-12.488 32.825 0 45.313s32.825 12.488 45.313 0l146.643-146.643 146.643 146.643c12.488 12.488 32.825 12.488 45.313 0s12.488-32.825 0-45.313l-146.643-146.643 147.356-146.643z" />
<glyph unicode="&#xe908;" glyph-name="mail" d="M333.96 450.854l-213.363-190.528v-25.689c0-17.483 13.915-31.755 31.041-32.468l230.846 206.227-48.524 42.459zM642.944 406.612l229.062-204.8c17.126 0.714 31.041 14.985 31.041 32.468v25.689l-211.579 189.101-48.524-42.459zM120.597 638.171l-59.941 52.449c-2.854-9.277-4.282-18.91-4.282-28.9v-427.44c0-9.633 1.427-18.91 4.282-27.83l60.298 53.876v377.845zM903.403 259.969l60.298-53.876c2.498 8.92 4.282 18.197 4.282 27.83v427.797c0 9.277-1.427 18.197-3.568 26.76l-60.655-53.162v-375.348zM870.935 201.812h-717.87c-0.357 0-1.070 0-1.427 0l-53.162-47.454c15.699-10.704 34.252-16.769 54.59-16.769h717.514c20.337 0 38.891 6.066 54.59 16.769l-53.162 47.454c-0.357 0-0.714 0-1.070 0zM120.597 234.28v25.689l-59.941-53.519c6.422-21.408 19.98-39.604 38.177-52.092l53.162 47.454c-17.483 0.714-31.398 14.985-31.398 32.468zM903.403 234.28c0-17.483-13.915-31.755-31.041-32.468l53.162-47.454c18.197 12.488 31.755 30.684 38.177 52.092l-60.298 53.876v-26.046zM870.935 694.188c0.714 0 1.427 0 2.141 0l53.162 46.74c-15.699 11.061-34.966 17.483-55.66 17.483h-717.514c-19.98 0-38.177-6.066-53.876-16.413l54.59-47.81h717.157zM154.135 694.188h-0.714c-17.84 0-32.468-14.629-32.468-32.468v-23.548l213.363-187.317 46.026 41.031 42.815-47.81-40.318-36.036 109.893-96.334c6.066-5.352 13.558-7.849 21.051-7.849s14.985 2.498 21.051 7.849l108.109 94.907-41.745 37.463 42.815 47.81 47.81-42.459 211.579 185.89v26.403c0 17.126-13.201 31.398-30.328 32.468l-359.292-315.763-359.649 315.763zM422.801 444.075l-42.815 47.81-46.026-41.031 48.524-42.815zM644.014 491.886l-42.815-47.81 41.745-37.463 48.524 42.815zM926.238 740.928l-53.162-46.74c16.769-1.070 30.328-15.342 30.328-32.468v-26.403l60.655 53.162c-6.422 21.408-19.98 39.961-37.82 52.449zM120.597 661.72c0 17.84 14.629 32.468 32.468 32.468h0.714l-54.233 48.167c-18.197-12.131-32.111-30.328-38.534-51.735l59.941-52.449v23.548z" />
<glyph unicode="&#xe909;" glyph-name="mail-fill" d="M333.96 450.854l-213.363 187.317-28.9 25.689-31.041 26.76c-2.854-9.277-4.282-18.91-4.282-28.9v-427.44c0-9.633 1.427-18.91 4.282-27.83l60.298 53.519 213.006 190.885zM963.702 688.479l-34.609-30.328-25.689-22.835-211.579-185.89 211.579-189.101 24.619-21.764 35.679-31.755c2.498 8.92 4.282 18.197 4.282 27.83v427.083c-0.357 9.277-1.784 18.197-4.282 26.76zM872.006 201.812l-229.062 204.8-108.109-94.907c-6.066-5.352-13.558-7.849-21.051-7.849s-14.985 2.498-21.051 7.849l-109.893 96.334-284.008-253.681c15.699-10.704 34.252-16.769 54.59-16.769h717.514c20.337 0 38.891 6.066 54.59 16.769l-41.031 36.75-12.488 10.704zM154.135 694.188l359.649-315.763 412.454 362.503c-15.699 11.061-34.966 17.483-55.66 17.483h-717.514c-19.98 0-38.177-6.066-53.876-16.413l37.107-32.468 17.84-15.342z" />
<glyph unicode="&#xe90a;" glyph-name="notification" d="M781.38 436.583v80.279c0 58.871-18.91 114.888-54.233 161.985-32.825 43.529-79.208 76.711-130.587 93.837v29.971c0 46.74-37.82 84.56-84.56 84.56s-84.56-37.82-84.56-84.56v-29.971c-51.735-17.126-97.762-50.308-130.587-93.837-35.679-47.097-54.233-103.114-54.233-161.985v-80.279c0-100.616-38.534-196.237-108.109-269.023-9.633-9.99-12.131-24.262-6.779-37.107s17.84-20.694 31.398-20.694h222.283c15.342-58.871 69.575-100.973 130.587-100.973 61.369 0 115.245 42.102 130.587 100.973h222.283c13.558 0 26.046 8.206 31.398 20.694s2.854 27.116-6.779 37.107c-69.575 72.429-108.109 168.050-108.109 269.023zM569.444 109.759c-11.774-19.98-33.895-32.468-57.444-32.468s-45.313 12.845-57.444 32.468h114.888zM793.154 177.907h-562.308c52.449 75.997 79.922 165.196 79.922 258.676v80.279c0 110.963 90.269 201.232 201.232 201.232s201.232-90.269 201.232-201.232v-80.279c0-93.48 27.473-182.679 79.922-258.676zM495.587 785.884v16.769c0 8.92 7.136 16.413 16.413 16.413s16.413-7.136 16.413-16.413v-16.769c-11.061 0.714-21.764 0.714-32.825 0zM830.974 516.861c0-18.91 15.342-34.252 34.252-34.252s34.252 15.342 34.252 34.252c0 103.47-40.318 200.518-113.461 273.661-6.422 6.422-14.985 9.99-24.262 9.99s-17.84-3.568-24.262-9.99-9.99-14.985-9.99-24.262 3.568-17.84 9.99-24.262c60.298-59.941 93.48-139.863 93.48-225.137zM159.13 482.609c18.91 0 34.252 15.342 34.252 34.252 0 85.274 33.182 165.196 93.48 225.494 13.201 13.201 13.201 34.966 0 48.167-6.422 6.422-14.985 9.99-24.262 9.99s-17.84-3.568-24.262-9.99c-73.143-73.143-113.461-170.191-113.461-273.661 0-18.91 15.342-34.252 34.252-34.252z" />
<glyph unicode="&#xe90b;" glyph-name="notification-fill" d="M781.38 436.583v80.279c0 58.871-18.91 114.888-54.233 161.985-32.825 43.529-79.208 76.711-130.587 93.837v29.971c0 46.74-37.82 84.56-84.56 84.56s-84.56-37.82-84.56-84.56v-29.971c-51.735-17.126-97.762-50.308-130.587-93.837-35.679-47.097-54.233-103.114-54.233-161.985v-80.279c0-100.616-38.534-196.237-108.109-269.023-9.633-9.99-12.131-24.262-6.779-37.107s17.84-20.694 31.398-20.694h222.283c15.342-58.871 69.575-100.973 130.587-100.973 61.369 0 115.245 42.102 130.587 100.973h222.283c13.558 0 26.046 8.206 31.398 20.694s2.854 27.116-6.779 37.107c-69.575 72.429-108.109 168.050-108.109 269.023zM569.444 109.759c-11.774-19.98-33.895-32.468-57.444-32.468s-45.313 12.845-57.444 32.468h114.888zM495.587 785.884v16.769c0 8.92 7.136 16.413 16.413 16.413s16.413-7.136 16.413-16.413v-16.769c-11.061 0.714-21.764 0.714-32.825 0zM830.974 516.861c0-18.91 15.342-34.252 34.252-34.252s34.252 15.342 34.252 34.252c0 103.47-40.318 200.518-113.461 273.661-6.422 6.422-14.985 9.99-24.262 9.99s-17.84-3.568-24.262-9.99-9.99-14.985-9.99-24.262 3.568-17.84 9.99-24.262c60.298-59.941 93.48-139.863 93.48-225.137zM159.13 482.609c18.91 0 34.252 15.342 34.252 34.252 0 85.274 33.182 165.196 93.48 225.494 13.201 13.201 13.201 34.966 0 48.167-6.422 6.422-14.985 9.99-24.262 9.99s-17.84-3.568-24.262-9.99c-73.143-73.143-113.461-170.191-113.461-273.661 0-18.91 15.342-34.252 34.252-34.252z" />
<glyph unicode="&#xe90c;" glyph-name="telephone" d="M762.47 379.495c-18.553 0-33.539 14.985-33.539 33.539 0 138.436-112.033 250.47-250.47 250.47-18.553 0-33.539 14.985-33.539 33.539s14.985 33.539 33.539 33.539c173.759 0 316.12-142.004 316.12-316.12-0.357-19.98-15.342-34.966-32.111-34.966zM929.093 379.495c-18.553 0-33.539 14.985-33.539 33.539 0 230.132-186.96 417.093-417.093 417.093-18.553 0-33.539 14.985-33.539 33.539s14.985 33.539 33.539 33.539c267.596 0 482.386-216.931 482.386-482.386 0-9.277-3.568-16.769-9.277-24.262-5.709-7.136-14.985-11.061-22.478-11.061zM762.113 24.485l1.070 1.427 64.937 139.863c12.845 26.76 3.568 58.157-21.764 74.57l-134.868 85.987c-24.619 14.272-54.946 9.99-72.072-10.347l-49.951-50.665c-27.83 4.638-82.063 20.337-137.009 74.57-62.082 61.012-73.143 118.099-75.284 135.582l51.022 52.092c18.553 18.91 22.121 48.881 8.206 71.359l-87.771 132.728-0.357 0.357c-17.126 24.976-48.524 33.539-74.927 20.337l-136.652-65.65c-23.192-9.99-36.75-35.323-32.468-60.298 8.206-71.002 34.252-179.111 110.249-293.285v0c29.971-44.956 65.65-87.771 106.325-128.089 156.99-154.492 317.19-199.448 424.229-210.152h3.568c22.835-0.357 42.102 10.704 53.519 29.614zM132.371 628.538l123.808 59.941 78.138-118.813-48.524-49.238c-7.849-7.849-17.126-22.121-17.126-44.956v-2.141c1.784-22.121 13.558-100.973 95.621-181.965 71.359-70.289 143.788-89.199 180.895-94.194l2.498-0.357h2.141c22.478 0 36.393 9.633 44.243 17.84l48.524 49.238 119.883-76.354-57.801-124.878c-94.551 10.704-236.555 52.449-376.418 190.171-139.507 138.079-183.749 280.084-195.88 375.705z" />
<glyph unicode="&#xe90d;" glyph-name="telephone-fill" d="M762.47 379.495c-18.553 0-33.539 14.985-33.539 33.539 0 138.436-112.033 250.47-250.47 250.47-18.553 0-33.539 14.985-33.539 33.539s14.985 33.539 33.539 33.539c173.759 0 316.12-142.004 316.12-316.12-0.357-19.98-15.342-34.966-32.111-34.966zM929.093 379.495c-18.553 0-33.539 14.985-33.539 33.539 0 230.132-186.96 417.093-417.093 417.093-18.553 0-33.539 14.985-33.539 33.539s14.985 33.539 33.539 33.539c267.596 0 482.386-216.931 482.386-482.386 0-9.277-3.568-16.769-9.277-24.262-5.709-7.136-14.985-11.061-22.478-11.061zM762.113 24.485l1.070 1.427 64.937 139.863c12.845 26.76 3.568 58.157-21.764 74.57l-134.868 85.987c-24.619 14.272-54.946 9.99-72.072-10.347l-49.951-50.665c-27.83 4.638-82.063 20.337-137.009 74.57-62.082 61.012-73.143 118.099-75.284 135.582l51.022 52.092c18.553 18.91 22.121 48.881 8.206 71.359l-87.771 132.728-0.357 0.357c-17.126 24.976-48.524 33.539-74.927 20.337l-136.652-65.65c-23.192-9.99-36.75-35.323-32.468-60.298 8.206-71.002 34.252-179.111 110.249-293.285v0c29.971-44.956 65.65-87.771 106.325-128.089 156.99-154.492 317.19-199.448 424.229-210.152h3.568c22.835-0.357 42.102 10.704 53.519 29.614z" />
<glyph unicode="&#xe90e;" glyph-name="trash" d="M809.923 793.734h-150.567v23.192c0 49.951-40.675 90.626-90.626 90.626h-113.461c-49.951 0-90.626-40.675-90.626-90.626v-23.192h-150.567c-42.102 0-76.354-34.252-76.354-76.354v-99.189c0-18.553 14.985-33.895 33.895-33.895h10.347l24.262-509.502c2.141-48.167 42.102-85.987 90.269-85.987h430.651c48.524 0 88.128 37.82 90.269 85.987l24.262 509.502h10.347c18.553 0 33.895 14.985 33.895 33.895v99.189c0.357 42.102-33.895 76.354-75.997 76.354zM249.399 584.295h524.845l-24.262-506.291c-0.714-12.131-10.704-21.764-22.835-21.764h-430.651c-12.131 0-22.478 9.633-22.835 21.764l-24.262 506.291zM591.922 793.734h-159.487v23.192c0 12.845 10.347 22.835 23.192 22.835h113.461c12.845 0 23.192-10.347 23.192-22.835v-23.192zM205.514 651.73v65.65c0 4.995 3.925 8.92 8.92 8.92h595.847c4.995 0 8.92-3.925 8.92-8.92v-65.65h-613.686zM512 102.266c18.553 0 33.539 14.985 33.539 33.895v368.569c0 18.553-14.985 33.895-33.539 33.895s-33.895-14.985-33.895-33.895v-368.925c0.357-18.553 15.342-33.539 33.895-33.539zM654.004 102.266c18.553 0 33.539 14.985 33.539 33.895v368.569c0 18.553-14.985 33.895-33.539 33.895s-33.895-14.985-33.895-33.895v-368.925c0-18.553 14.985-33.539 33.895-33.539zM370.353 102.266c18.553 0 33.895 14.985 33.895 33.895v368.569c0 18.553-14.985 33.895-33.895 33.895-18.553 0-33.539-14.985-33.539-33.895v-368.925c-0.357-18.553 14.629-33.539 33.539-33.539z" />
<glyph unicode="&#xe90f;" glyph-name="trash-fill" d="M809.923 793.734h-150.567v23.192c0 49.951-40.675 90.626-90.626 90.626h-113.461c-49.951 0-90.626-40.675-90.626-90.626v-23.192h-150.567c-42.102 0-76.354-34.252-76.354-76.354v-99.189c0-18.553 14.985-33.895 33.895-33.895h10.347l24.262-509.502c2.141-48.167 42.102-85.987 90.269-85.987h430.651c48.524 0 88.128 37.82 90.269 85.987l24.262 509.502h10.347c18.553 0 33.895 14.985 33.895 33.895v99.189c0.357 42.102-33.895 76.354-75.997 76.354zM404.248 136.162c0-18.91-15.342-33.895-33.895-33.895-18.91 0-33.895 14.985-33.539 33.539v368.925c0 18.91 14.985 33.895 33.539 33.895 18.91 0 33.895-15.342 33.895-33.895v-368.569zM545.539 136.162c0-18.91-14.985-33.895-33.539-33.895s-33.539 14.985-33.895 33.539v368.925c0 18.91 15.342 33.895 33.895 33.895s33.539-15.342 33.539-33.895v-368.569zM592.279 793.734v0h-159.844v23.192c0 12.845 10.347 22.835 23.192 22.835h113.461c12.845 0 23.192-10.347 23.192-22.835v-23.192zM687.543 136.162c0-18.91-14.985-33.895-33.539-33.895-18.91 0-33.895 14.985-33.895 33.539v368.925c0 18.91 15.342 33.895 33.895 33.895s33.539-15.342 33.539-33.895v-368.569z" />
<glyph unicode="&#xe910;" glyph-name="whatsapp" d="M805.642 743.426c-77.781 78.138-181.608 121.31-291.858 121.31-227.635 0-412.811-185.176-412.811-412.811 0-72.786 18.91-143.788 54.946-206.584l-58.514-214.077 218.715 57.444c60.298-32.825 128.089-50.308 197.307-50.308v0c227.635 0 412.811 185.176 412.811 412.811 0.357 110.606-42.459 214.433-120.597 292.215zM513.784 108.332v0c-61.725 0-122.024 16.413-174.829 47.81l-12.488 7.493-129.873-34.252 34.609 126.662-8.206 12.845c-34.252 54.59-52.449 117.742-52.449 182.679 0 189.101 154.135 343.236 343.236 343.236 91.696 0 177.684-35.679 242.62-100.616s100.616-150.924 100.259-242.977c0.357-189.101-153.778-342.879-342.879-342.879zM701.815 365.224c-10.347 4.995-61.012 29.971-70.645 33.539-9.277 3.568-16.413 4.995-23.192-4.995-6.779-10.347-26.76-33.539-32.825-40.318s-12.131-7.849-22.478-2.498c-10.347 4.995-43.529 16.056-83.133 51.378-30.684 27.473-51.378 61.012-57.444 71.359s0 15.342 4.638 21.051c11.061 13.915 22.478 28.544 25.689 35.323 3.568 6.779 1.784 12.845-0.714 18.197-2.498 4.995-23.192 56.017-31.755 76.711-8.206 19.98-16.769 17.483-23.192 17.84-6.066 0.357-12.845 0.357-19.624 0.357s-18.197-2.498-27.473-12.845c-9.277-10.347-36.036-35.323-36.036-85.987s37.107-99.902 42.102-106.682c4.995-6.779 72.786-110.963 176.256-155.919 24.619-10.704 43.886-17.126 58.871-21.764 24.619-7.849 47.097-6.779 64.937-3.925 19.98 2.854 61.012 24.976 69.575 48.881 8.563 24.262 8.563 44.599 6.066 49.238-2.141 3.211-9.277 6.066-19.624 11.061z" />
<glyph unicode="&#xe911;" glyph-name="whatsapp-fill" d="M805.642 743.426c-77.781 78.138-181.608 121.31-291.858 121.31-227.635 0-412.811-185.176-412.811-412.811 0-72.786 18.91-143.788 54.946-206.584l-58.514-214.077 218.715 57.444c60.298-32.825 128.089-50.308 197.307-50.308v0c227.635 0 412.811 185.176 412.811 412.811 0.357 110.606-42.459 214.433-120.597 292.215zM715.73 304.212c-8.563-24.262-49.951-46.026-69.575-48.881-17.84-2.498-40.318-3.925-64.937 3.925-14.985 4.638-34.252 11.061-58.871 21.764-103.47 44.599-171.261 148.783-176.256 155.919-4.995 6.779-42.102 56.017-42.102 106.682s26.76 75.64 36.036 85.987c9.633 10.347 20.694 12.845 27.473 12.845s13.915 0 19.624-0.357c6.422-0.357 14.985 2.498 23.192-17.84 8.563-20.694 29.257-71.359 31.755-76.711 2.498-4.995 4.282-11.061 0.714-18.197-3.568-6.779-14.629-21.408-25.689-35.323-4.638-5.709-10.704-10.704-4.638-21.051s26.76-44.243 57.444-71.359c39.247-35.323 72.786-46.026 83.133-51.378 10.347-4.995 16.413-4.282 22.478 2.498s25.689 29.971 32.825 40.318c6.779 10.347 13.915 8.563 23.192 4.995 9.633-3.568 60.298-28.544 70.645-33.539s17.126-7.849 19.624-12.131c2.498-3.568 2.498-24.262-6.066-48.167z" />
<glyph unicode="&#xe912;" glyph-name="place" d="M509.716 871.253c-179.468 0-325.396-145.929-325.396-325.396 0-115.601 34.252-160.914 199.805-378.918l0.713-0.71c12.131-16.056 24.976-32.829 38.534-51.023 18.196-24.262 37.82-50.306 59.228-78.493 6.423-8.567 16.769-13.558 27.473-13.558s21.051 4.99 27.473 13.558c32.111 42.455 63.509 84.555 97.048 128.089l1.070 1.782c165.553 218.358 199.803 264.028 199.803 379.273-0.355 179.468-146.282 325.396-325.751 325.396zM766.607 546.214c0-92.41-28.187-129.517-185.175-337.168l-1.427-2.144c-7.136-9.632-14.985-19.627-22.835-29.969-14.628-19.627-30.684-40.318-47.454-62.799l-9.633 12.848c-22.835 30.324-42.459 56.368-60.656 80.275-158.060 208.013-186.604 245.832-186.604 338.599 0 142.004 115.245 257.249 256.892 257.249s256.891-115.244 256.891-256.892zM509.716 725.324c-99.189 0-179.468-80.636-179.468-179.468 0-99.189 80.636-179.468 179.468-179.468s179.47 80.635 179.47 179.468c0 99.189-80.637 179.468-179.47 179.468zM621.036 545.857c0-61.368-49.951-111.677-111.677-111.677-61.368 0-111.676 49.951-111.676 111.677s49.951 111.677 111.676 111.677c61.726 0 111.677-50.308 111.677-111.677z" />
<glyph unicode="&#xe913;" glyph-name="place-fill" d="M509.716 871.253c-179.468 0-325.396-145.929-325.396-325.396 0-115.601 34.252-160.914 199.805-378.918l0.713-0.71c12.131-16.056 24.976-32.829 38.534-51.023 18.196-24.262 37.82-50.306 59.228-78.493 6.423-8.567 16.769-13.558 27.473-13.558s21.051 4.99 27.473 13.558c32.111 42.455 63.509 84.555 97.048 128.089l1.070 1.782c165.553 218.358 199.803 264.028 199.803 379.273-0.355 179.468-146.282 325.396-325.751 325.396zM509.716 434.18c-61.368 0-111.677 49.951-111.677 111.677s49.951 111.677 111.677 111.677c61.369 0 111.677-49.951 111.677-111.677s-50.308-111.677-111.677-111.677z" />
<glyph unicode="&#xe914;" glyph-name="arrow_down" d="M533.408 139.373l171.975 171.975c11.774 11.774 11.774 31.041 0 42.815s-31.041 11.774-42.815 0l-120.24-119.883v500.939c0 16.769-13.558 30.328-30.328 30.328s-30.328-13.558-30.328-30.328v-500.939l-120.24 120.24c-11.774 11.774-31.041 11.774-42.815 0-6.066-6.066-8.92-13.558-8.92-21.408s2.854-15.699 8.92-21.408l171.975-171.975c5.709-5.709 13.558-8.92 21.408-8.92s15.699 2.854 21.408 8.563z" />
<glyph unicode="&#xe915;" glyph-name="arrow_left" d="M203.373 426.592l171.975-171.975c11.774-11.774 31.041-11.774 42.815 0s11.774 31.041 0 42.815l-119.883 120.24h500.939c16.769 0 30.328 13.558 30.328 30.328s-13.558 30.328-30.328 30.328h-500.939l120.24 120.24c11.774 11.774 11.774 31.041 0 42.815-6.066 6.066-13.558 8.92-21.408 8.92s-15.699-2.854-21.408-8.92l-172.332-171.975c-5.709-5.709-8.92-13.558-8.92-21.408s3.211-15.699 8.92-21.408z" />
<glyph unicode="&#xe916;" glyph-name="arrow_left_right" d="M114.174 426.592l171.975-171.975c11.774-11.774 31.041-11.774 42.815 0s11.774 31.041 0 42.815l-119.883 120.24h500.939c16.769 0 30.328 13.558 30.328 30.328s-13.558 30.328-30.328 30.328h-500.939l120.24 120.24c11.774 11.774 11.774 31.041 0 42.815-6.066 6.066-13.558 8.92-21.408 8.92s-15.699-2.854-21.408-8.92l-172.332-171.975c-5.709-5.709-8.92-13.558-8.92-21.408s3.211-15.699 8.92-21.408zM909.826 469.408l-171.975 171.975c-11.774 11.774-31.041 11.774-42.815 0s-11.774-31.041 0-42.815l120.24-120.24h-501.296c-16.769 0-30.328-13.558-30.328-30.328s13.558-30.328 30.328-30.328h500.939l-120.24-120.24c-11.774-11.774-11.774-31.041 0-42.815 6.066-6.066 13.558-8.92 21.408-8.92s15.699 2.854 21.408 8.92l171.975 171.975c5.709 5.709 8.92 13.558 8.92 21.408s-2.854 15.699-8.563 21.408z" />
<glyph unicode="&#xe917;" glyph-name="arrow_right" d="M820.627 469.408l-171.975 171.975c-11.774 11.774-31.041 11.774-42.815 0s-11.774-31.041 0-42.815l120.24-120.24h-501.296c-16.769 0-30.328-13.558-30.328-30.328s13.558-30.328 30.328-30.328h500.939l-120.24-120.24c-11.774-11.774-11.774-31.041 0-42.815 6.066-6.066 13.558-8.92 21.408-8.92s15.699 2.854 21.408 8.92l171.975 171.975c5.709 5.709 8.92 13.558 8.92 21.408s-2.854 15.699-8.563 21.408z" />
<glyph unicode="&#xe918;" glyph-name="arrow_up" d="M490.592 756.627l-171.975-171.975c-11.774-11.774-11.774-31.041 0-42.815s31.041-11.774 42.815 0l120.24 119.883v-500.939c0-16.769 13.558-30.328 30.328-30.328s30.328 13.558 30.328 30.328v500.939l120.24-120.24c11.774-11.774 31.041-11.774 42.815 0 6.066 6.066 8.92 13.558 8.92 21.408s-2.854 15.699-8.92 21.408l-171.975 172.332c-5.709 5.709-13.558 8.92-21.408 8.92s-15.699-3.211-21.408-8.92z" />
<glyph unicode="&#xe919;" glyph-name="biometria" d="M567.66 281.020c-30.684-29.614-80.636-29.614-111.32 0v0c-10.704 10.347-28.187 9.99-38.891-0.714-10.347-10.704-9.99-28.187 0.714-38.891 24.976-24.262 58.157-37.463 93.837-37.463 35.323 0 68.861 13.201 93.837 37.463 10.704 10.347 11.061 27.83 0.714 38.891-10.347 10.704-27.83 11.061-38.891 0.714zM815.632 560.033c0 172.689-157.346 251.54-303.275 251.54-146.286 0-303.989-78.495-303.989-251.183v-191.242c0-46.383 27.473-87.058 70.645-104.184 12.131-35.679 33.895-69.932 63.509-99.546 49.951-50.665 113.461-80.636 169.834-80.636 53.519 0 114.531 28.187 163.769 75.64 31.755 30.684 55.303 66.721 68.505 103.827 42.815 16.769 71.359 59.228 71.359 105.611v190.171zM512 139.373c-41.388 0-91.696 24.619-130.944 64.223-37.463 38.177-58.871 83.49-58.514 124.878v130.587c100.259 9.277 160.557 69.218 189.458 108.109 28.9-38.891 88.842-98.832 189.101-108.109v-130.587c0-42.815-23.192-89.555-63.509-128.803-38.534-37.107-86.701-60.298-125.592-60.298zM457.41 403.044c0 27.473-22.478 49.951-49.951 49.951s-49.951-22.478-49.951-49.951c0-27.473 22.478-49.951 49.951-49.951 27.473 0.357 49.951 22.478 49.951 49.951zM616.541 452.995c-27.473 0-49.951-22.478-49.951-49.951s22.478-49.951 49.951-49.951c27.473 0 49.951 22.478 49.951 49.951s-22.478 49.951-49.951 49.951zM890.202 859.741h-94.551v-66.364h61.369v-61.369h66.364v94.194c0.357 18.553-14.629 33.539-33.182 33.539zM166.98 793.020h61.369v66.721h-94.551c-18.197 0-33.182-14.985-33.182-33.182v-94.551h66.364v61.012zM166.98 163.992h-66.721v-94.551c0-18.197 14.985-33.182 33.182-33.182h94.551v66.364h-61.012v61.369zM857.020 102.98h-61.369v-66.364h94.551c18.197 0 33.182 14.985 33.182 33.182v94.551h-66.364v-61.369z" />
<glyph unicode="&#xe91a;" glyph-name="check-list" d="M462.427 547.686l-83.045-83.045-30.758 30.758c-11.995 11.995-31.68 11.995-43.675 0s-11.996-31.681 0-43.676l52.287-52.287c5.844-5.844 13.533-9.227 21.838-9.227s15.994 3.075 21.838 8.919l104.882 104.883c5.844 5.844 8.92 13.533 8.92 21.838s-3.075 15.994-8.92 21.838c-11.687 11.688-31.373 11.995-43.368 0zM462.427 337.613l-83.045-83.046-30.758 30.759c-11.995 11.995-31.68 11.995-43.675 0-11.996-11.992-11.996-31.681 0-43.675l52.595-52.593c5.844-5.85 13.533-8.922 21.838-8.922s15.994 3.072 21.838 8.922l104.883 104.879c5.844 5.844 8.92 13.533 8.92 21.838s-3.076 15.994-8.92 21.838c-11.996 11.995-31.681 11.995-43.676 0zM558.389 473.253c0-16.916 13.841-30.757 30.758-30.757h104.879c16.923 0 30.761 13.84 30.761 30.757s-13.838 30.758-30.761 30.758h-104.879c-16.916 0-30.758-13.84-30.758-30.758zM694.026 294.245h-104.879c-16.916 0-30.758-13.841-30.758-30.756 0-16.916 13.841-30.761 30.758-30.761h104.879c16.923 0 30.761 13.844 30.761 30.761 0 16.915-13.838 30.756-30.761 30.756zM772.772 766.37h-100.272v21.531c0 16.916-13.841 30.757-30.758 30.757h-53.826c-12.61 31.681-43.368 52.595-77.509 52.595s-64.591-20.915-77.201-52.595h-53.826c-16.916 0-30.758-13.84-30.758-30.757v-21.531h-100.269c-31.681 0-57.209-25.528-57.209-57.209v-629.296c0-31.369 25.528-57.207 57.209-57.207h524.416c31.369 0 57.207 25.525 57.207 57.207v629.296c-0.307 31.681-25.839 57.209-57.207 57.209zM410.139 757.144h47.981c16.916 0 30.758 13.84 30.758 30.758 0 11.995 9.843 21.53 21.53 21.53s21.531-9.843 21.531-21.53c0-16.917 13.84-30.758 30.758-30.758h47.981v-43.368h-200.538v43.368zM768.157 84.48h-515.188v620.068h95.655v-21.53c0-16.916 13.841-30.758 30.758-30.758h262.36c16.916 0 30.758 13.841 30.758 30.758v21.53h95.657v-620.068z" />
<glyph unicode="&#xe91b;" glyph-name="check-list-fill" d="M776.301 767.473h-99.646v21.303c0 16.739-13.755 30.435-30.567 30.435h-53.492c-12.838 31.347-43.1 52.042-77.029 52.042s-64.497-20.695-77.029-52.042h-53.492c-16.812 0-30.567-13.696-30.567-30.435v-21.303h-99.649c-31.179 0-56.855-25.261-56.855-56.608v-622.685c0-31.041 25.371-56.607 56.855-56.607h521.172c31.177 0 56.852 25.259 56.852 56.607v622.685c0 31.347-25.368 56.608-56.552 56.608zM415.917 758.342h47.684c16.812 0 30.568 13.696 30.568 30.434 0 11.87 9.781 21.304 21.397 21.304s21.397-9.739 21.397-21.304c0-16.738 13.755-30.434 30.567-30.434h47.685v-42.912h-199.298v42.912zM511.287 300.003l-104.234-103.778c-5.808-5.789-13.45-8.827-21.703-8.827s-15.895 3.038-21.703 8.827l-52.27 52.040c-11.921 11.872-11.921 31.347 0 43.216s31.485 11.87 43.405 0l30.568-30.437 82.531 82.175c11.921 11.87 31.485 11.87 43.405 0 5.808-5.782 8.864-13.391 8.864-21.608 0-7.913-3.362-15.826-8.864-21.608zM511.287 507.869l-104.234-103.78c-5.808-5.783-13.45-8.826-21.703-8.826s-15.895 3.044-21.703 9.131l-51.965 51.738c-11.921 11.87-11.921 31.347 0 43.217s31.485 11.869 43.405 0l30.567-30.435 82.532 82.173c11.921 11.87 31.484 11.87 43.405 0 5.808-5.782 8.864-13.391 8.864-21.608s-3.668-16.13-9.17-21.608zM698.054 239.439h-104.236c-16.812 0-30.567 13.694-30.567 30.433s13.755 30.435 30.567 30.435h104.236c16.807 0 30.563-13.695 30.563-30.435s-13.756-30.433-30.563-30.433zM698.054 447.001h-104.236c-16.812 0-30.567 13.695-30.567 30.434s13.755 30.434 30.567 30.434h104.236c16.807 0 30.563-13.695 30.563-30.434s-13.756-30.434-30.563-30.434z" />
<glyph unicode="&#xe91c;" glyph-name="close" d="M554.815 448l250.47 250.47c11.774 11.774 11.774 31.041 0 42.815s-31.041 11.774-42.815 0l-250.47-250.47-250.47 250.47c-11.774 11.774-31.041 11.774-42.815 0s-11.774-31.041 0-42.815l250.47-250.47-250.47-250.47c-11.774-11.774-11.774-31.041 0-42.815 6.066-6.066 13.558-8.92 21.408-8.92s15.699 2.854 21.408 8.92l250.47 250.47 250.47-250.47c6.066-6.066 13.558-8.92 21.408-8.92s15.699 2.854 21.408 8.92c11.774 11.774 11.774 31.041 0 42.815l-250.47 250.47z" />
<glyph unicode="&#xe91d;" glyph-name="reload" d="M559.454 105.121c-1.427 17.483-16.056 30.328-33.539 28.544-141.647-9.633-274.018 78.138-318.261 213.363-43.886 129.873 2.498 269.38 108.822 348.945l-0.714-67.077c0-17.483 14.272-31.755 31.755-31.755 16.056 0 30.328 12.845 31.755 30.328l1.427 159.13c1.427 17.483-12.845 31.755-30.328 31.755l-159.13 1.427c-17.483 0-31.755-12.845-31.755-30.328-1.427-17.483 12.845-31.755 30.328-31.755l104.898-1.070c-140.22-93.48-199.448-268.666-145.929-428.51 51.022-154.492 194.096-256.178 355.010-256.178 7.849 0 17.483 0 27.116 0 17.126 1.070 29.971 15.699 28.544 33.182zM832.758 146.509l-90.983 1.070c130.587 95.621 185.533 264.741 134.155 419.233-52.449 164.125-210.152 269.023-382.127 256.535-17.483-1.427-30.328-16.056-28.544-33.539 1.427-17.483 16.056-30.328 33.539-28.544 141.647 11.061 274.018-78.138 318.261-213.363 42.102-128.446-2.854-269.737-110.963-348.945l1.070 76.711c1.427 17.483-12.845 31.755-30.328 31.755-17.483 1.427-31.755-12.845-31.755-30.328l-1.427-159.13c-1.427-17.483 12.845-31.755 30.328-31.755l159.13-1.427c17.483 0 31.755 14.272 30.328 30.328 1.070 17.126-13.201 31.398-30.684 31.398z" />
<glyph unicode="&#xe91e;" glyph-name="send" d="M113.672 148.029c-8.113 0-16.225 3.133-22.221 9.066-8.465 8.369-11.639 20.576-8.112 31.737l64.193 202.273c3.174 10.114 11.287 17.786 21.515 20.576l114.983 33.131-114.983 33.131c-10.228 2.79-18.341 10.811-21.515 20.576l-64.193 202.275c-3.527 11.16-0.353 23.714 8.112 31.736 8.465 8.37 21.163 11.16 32.449 7.324l793.235-265.746c13.053-4.185 21.518-16.392 21.518-29.644s-8.82-25.459-21.518-29.643l-793.235-265.398c-3.527-1.044-6.702-1.393-10.228-1.393zM202.907 356.23l-40.209-127.291 645.102 216.222-645.102 216.224 40.209-127.293 202.806-58.59c13.403-3.836 22.926-16.043 22.926-29.992s-9.17-26.156-22.926-29.992l-202.806-59.288z" />
<glyph unicode="&#xe91f;" glyph-name="send-fill" d="M113.672 147.681c-8.112 0-16.224 3.133-22.22 9.066-8.465 8.369-11.639 20.576-8.112 31.737l64.193 202.272c3.174 10.114 11.287 17.786 21.515 20.576l114.983 33.131-114.983 33.48c-10.228 2.79-18.341 10.811-21.515 20.576l-64.193 202.275c-3.527 11.16-0.353 23.714 8.112 31.736 8.465 8.37 21.163 11.16 32.449 7.324l793.235-265.746c13.053-4.185 21.518-16.392 21.518-29.644s-8.82-25.459-21.518-29.643l-793.235-265.746c-3.174-1.044-6.702-1.393-10.229-1.393z" />
<glyph unicode="&#xe920;" glyph-name="telephone-message" d="M762.113 24.485l1.070 1.427 64.937 139.863c12.845 26.76 3.568 58.157-21.764 74.57l-134.868 85.987c-24.619 14.272-54.946 9.99-72.072-10.347l-49.951-50.665c-27.83 4.638-82.063 20.337-137.009 74.57-62.082 61.012-73.143 118.099-75.284 135.582l51.022 52.092c18.553 18.91 22.121 48.881 8.206 71.359l-87.771 132.728-0.357 0.357c-17.126 24.976-48.524 33.539-74.927 20.337l-136.652-65.65c-23.192-9.99-36.75-35.323-32.468-60.298 8.206-71.002 34.252-179.111 110.249-293.285v0c29.971-44.956 65.65-87.771 106.325-128.089 156.99-154.492 317.19-199.448 424.229-210.152h3.568c22.835-0.357 42.102 10.704 53.519 29.614zM132.371 628.538l123.808 59.941 78.138-118.813-48.524-49.238c-7.849-7.849-17.126-22.121-17.126-44.956v-2.141c1.784-22.121 13.558-100.973 95.621-181.965 71.359-70.289 143.788-89.199 180.895-94.194l2.498-0.357h2.141c22.478 0 36.393 9.633 44.243 17.84l48.524 49.238 119.883-76.354-57.801-124.878c-94.551 10.704-236.555 52.449-376.418 190.171-139.507 138.079-183.749 280.084-195.88 375.705zM874.503 653.87c0-18.523-15.016-33.539-33.539-33.539s-33.539 15.016-33.539 33.539c0 18.523 15.016 33.539 33.539 33.539s33.539-15.016 33.539-33.539zM728.574 912.19c-142.361 0-258.319-115.958-258.319-258.319 0-43.529 11.061-86.344 31.755-124.164l-29.971-90.269c-3.925-12.131-1.070-25.332 8.206-34.252 6.422-6.422 14.629-9.99 23.548-9.99 3.568 0 7.136 0.714 10.704 1.784l90.269 29.971c37.82-20.694 80.636-31.755 124.164-31.755 142.361 0 258.319 115.958 258.319 258.319-0.357 142.718-116.315 258.676-258.676 258.676zM728.574 462.272c-36.393 0-71.716 10.347-102.4 29.614-5.352 3.568-11.417 5.352-17.84 5.352-3.568 0-7.136-0.714-10.704-1.784l-41.031-13.558 13.558 41.031c3.211 9.633 1.784 19.98-3.568 28.544-19.267 30.684-29.614 66.007-29.614 102.4 0 105.611 85.987 191.599 191.599 191.599s191.599-85.987 191.599-191.599-85.987-191.599-191.599-191.599zM762.113 653.87c0-18.523-15.016-33.539-33.539-33.539s-33.539 15.016-33.539 33.539c0 18.523 15.016 33.539 33.539 33.539s33.539-15.016 33.539-33.539zM649.723 653.87c0-18.523-15.016-33.539-33.539-33.539s-33.539 15.016-33.539 33.539c0 18.523 15.016 33.539 33.539 33.539s33.539-15.016 33.539-33.539z" />
<glyph unicode="&#xe921;" glyph-name="telephone-message-fill" d="M762.113 24.485l1.070 1.427 64.937 139.863c12.845 26.76 3.568 58.157-21.764 74.57l-134.868 85.987c-24.619 14.272-54.946 9.99-72.072-10.347l-49.951-50.665c-27.83 4.638-82.063 20.337-137.009 74.57-62.082 61.012-73.143 118.099-75.284 135.582l51.022 52.092c18.553 18.91 22.121 48.881 8.206 71.359l-87.771 132.728-0.357 0.357c-17.126 24.976-48.524 33.539-74.927 20.337l-136.652-65.65c-23.192-9.99-36.75-35.323-32.468-60.298 8.206-71.002 34.252-179.111 110.249-293.285v0c29.971-44.956 65.65-87.771 106.325-128.089 156.99-154.492 317.19-199.448 424.229-210.152h3.568c22.835-0.357 42.102 10.704 53.519 29.614zM874.503 653.87c0-18.523-15.016-33.539-33.539-33.539s-33.539 15.016-33.539 33.539c0 18.523 15.016 33.539 33.539 33.539s33.539-15.016 33.539-33.539zM728.574 912.19c-142.361 0-258.319-115.958-258.319-258.319 0-43.529 11.061-86.344 31.755-124.164l-29.971-90.269c-3.925-12.131-1.070-25.332 8.206-34.252 6.422-6.422 14.629-9.99 23.548-9.99 3.568 0 7.136 0.714 10.704 1.784l90.269 29.971c37.82-20.694 80.636-31.755 124.164-31.755 142.361 0 258.319 115.958 258.319 258.319-0.357 142.718-116.315 258.676-258.676 258.676zM728.574 462.272c-36.393 0-71.716 10.347-102.4 29.614-5.352 3.568-11.417 5.352-17.84 5.352-3.568 0-7.136-0.714-10.704-1.784l-41.031-13.558 13.558 41.031c3.211 9.633 1.784 19.98-3.568 28.544-19.267 30.684-29.614 66.007-29.614 102.4 0 105.611 85.987 191.599 191.599 191.599s191.599-85.987 191.599-191.599-85.987-191.599-191.599-191.599zM762.113 653.87c0-18.523-15.016-33.539-33.539-33.539s-33.539 15.016-33.539 33.539c0 18.523 15.016 33.539 33.539 33.539s33.539-15.016 33.539-33.539zM649.723 653.87c0-18.523-15.016-33.539-33.539-33.539s-33.539 15.016-33.539 33.539c0 18.523 15.016 33.539 33.539 33.539s33.539-15.016 33.539-33.539z" />
<glyph unicode="&#xe922;" glyph-name="home" d="M930.475 507.392l-391.851 334.507c0 0 0 0-0.683 0.683-12.971 10.923-32.085 10.923-45.739-0.683l-391.168-333.824c-15.019-12.971-16.384-35.499-4.096-49.835 6.144-7.509 14.336-11.605 23.893-12.288s18.432 2.048 25.941 8.192l4.779 4.096v-382.976c0.683-19.797 16.384-35.499 36.181-36.181h653.995c19.797 0.683 35.499 16.384 36.181 36.181v382.293l4.779-4.096c6.827-5.461 14.336-8.192 22.528-8.192 10.24 0 20.48 4.779 27.307 12.288 6.144 7.509 9.557 16.384 8.875 25.941 0 9.557-4.096 17.749-10.923 23.893zM589.824 321.024v-210.261h-148.821v210.261h148.821zM626.005 392.704h-221.184c-19.115 0-34.816-16.384-34.816-36.181v-245.077h-146.773v408.235l292.181 248.491 292.181-248.491v-408.235h-146.773v245.077c0 19.797-15.701 36.181-34.816 36.181z" />
<glyph unicode="&#xe923;" glyph-name="home-fill" d="M930.475 507.392l-391.851 334.507c0 0 0 0-0.683 0.683-12.971 10.923-32.085 10.923-45.739-0.683l-391.168-333.824c-15.019-12.971-16.384-35.499-4.096-49.835 6.144-7.509 14.336-11.605 23.893-12.288s18.432 2.048 25.941 8.192l5.461 4.779v-382.976c0.683-19.797 16.384-35.499 36.181-36.181h653.995c19.797 0.683 35.499 16.384 36.181 36.181v382.293l4.779-4.096c6.827-5.461 14.336-8.192 22.528-8.192 10.24 0 20.48 4.779 27.307 12.288 6.144 7.509 9.557 16.384 8.875 25.941-0.683 8.875-4.779 17.067-11.605 23.211zM589.824 321.024v-210.261h-148.821v210.261h148.821z" />
</font>
</defs>
</svg>
