<svg width="276" height="276" viewBox="0 0 276 276" fill="none" xmlns="http://www.w3.org/2000/svg">
<circle cx="137.5" cy="137.5" r="112.5" fill="#80D7E3"/>
<g clip-path="url(#clip0)">
<g opacity="0.66">
<g opacity="0.66">
<path opacity="0.66" d="M125.01 40.0323L125.341 39.0376L113.279 32.871L112.948 33.8656C112.484 35.2581 113.412 37.0484 115.069 37.8441L120.967 40.8943C122.757 41.69 124.48 41.3584 125.01 40.0323Z" fill="#DFC125"/>
</g>
</g>
<g opacity="0.66">
<g opacity="0.66">
<path opacity="0.66" d="M113.942 31.0806L126.004 37.2473L133.626 16.1613" fill="#DFC125"/>
</g>
</g>
<g opacity="0.66">
<g opacity="0.66">
<path opacity="0.66" d="M138.928 51.172L139.259 50.1774L127.197 44.0107L126.866 45.0054C126.402 46.3978 127.33 48.1882 128.987 48.9839L134.885 52.034C136.675 52.8297 138.398 52.4319 138.928 51.172Z" fill="#DFC125"/>
</g>
</g>
<g opacity="0.66">
<g opacity="0.66">
<path opacity="0.66" d="M147.477 27.3674L139.922 48.3208L127.926 42.1541L135.548 21.0681L147.477 27.3674Z" fill="#DFC125"/>
</g>
</g>
<g opacity="0.66">
<g opacity="0.66">
<path opacity="0.66" d="M156.822 51.172L157.154 50.1774L145.091 44.0107L144.76 45.0054C144.296 46.3978 145.224 48.1882 146.881 48.9839L152.779 52.034C154.569 52.8297 156.358 52.4319 156.822 51.172Z" fill="#DFC125"/>
</g>
</g>
<g opacity="0.66">
<g opacity="0.66">
<path opacity="0.66" d="M169.414 66.0914L169.746 65.0968L157.684 58.9301L157.352 59.9247C156.888 61.3172 157.816 63.1075 159.473 63.9032L165.372 66.9534C167.161 67.8817 168.951 67.4839 169.414 66.0914Z" fill="#DFC125"/>
</g>
</g>
<path d="M168.951 76.966C179.753 62.5108 172.596 38.8387 152.978 24.2509C133.361 9.59677 108.706 9.46416 97.9698 23.9857C87.167 38.3746 94.3247 61.9803 113.942 76.6344C133.56 91.2885 158.214 91.4212 168.951 76.966Z" fill="#DFC125"/>
<g opacity="0.58">
<g opacity="0.58">
<path opacity="0.58" d="M161.793 70.6667C170.342 59.1953 164.643 40.4964 149.068 28.8925C133.493 17.2885 114.008 17.1559 105.459 28.6272C96.9094 40.0986 102.609 58.7975 118.184 70.4014C133.758 82.0054 153.31 82.138 161.793 70.6667Z" fill="#DFC125"/>
</g>
</g>
<g opacity="0.08">
<g opacity="0.08">
<path opacity="0.08" d="M164.576 65.6936C164.709 65.2294 164.908 64.6989 165.04 64.2348C159.142 77.4301 140.784 80.3477 124.082 70.733C108.706 61.8477 99.8918 45.4032 103.537 32.2742C103.404 32.7384 103.139 33.1362 103.007 33.6667C98.0361 47.3925 107.845 65.6272 124.811 74.4462C141.711 83.2652 159.539 79.3531 164.576 65.6936Z" fill="#DFC125"/>
</g>
</g>
<path d="M152.183 63.4391C157.816 55.8799 154.039 43.6129 143.898 35.9875C133.692 28.362 120.901 28.2957 115.268 35.8548C109.634 43.3477 113.346 55.681 123.552 63.3065C133.758 70.8656 146.549 70.9319 152.183 63.4391Z" fill="#DFC125"/>
<path d="M135.614 52.8298C136.807 52.3656 137.47 52.2993 137.735 52.2993C138.133 52.3656 138.596 52.4982 139.127 52.8298C139.657 53.2939 140.055 53.6255 140.187 54.0896C140.32 54.4875 140.253 54.819 139.922 55.3495C139.591 55.7473 139.193 55.9463 138.663 55.9463C138.066 55.8799 137.47 55.5484 136.675 54.9516C136.476 54.7527 136.211 54.819 136.012 54.8853L133.493 58.2007C133.427 58.3334 133.427 58.466 133.56 58.6649L133.692 58.7312C133.692 58.7975 133.825 58.7975 133.825 58.7975C135.548 60.0574 137.271 60.7868 138.994 60.9857C140.585 61.052 141.91 60.5878 143.169 59.5932L145.688 61.5161C145.887 61.7151 146.152 61.6488 146.351 61.5825L147.544 59.9911C147.61 59.7921 147.61 59.5269 147.411 59.328L144.893 57.405C145.622 56.0126 145.82 54.4875 145.423 53.0287C145.025 51.371 143.965 49.9122 142.242 48.7187C140.452 47.3262 138.663 46.7294 137.072 46.7294C135.548 46.862 133.825 47.3925 131.77 48.3871C130.842 48.7187 130.18 48.9839 129.649 48.9176C129.185 48.8513 128.655 48.586 128.059 48.1882C127.529 47.724 127.263 47.3925 126.998 46.9283C126.866 46.5305 126.932 46.0663 127.263 45.6685C127.661 45.0717 128.125 44.8728 128.788 44.8065C129.384 44.7402 130.113 45.0717 131.041 45.8011C131.24 46 131.505 45.9337 131.704 45.8674L134.222 42.552C134.289 42.4194 134.289 42.2868 134.156 42.0878L134.023 42.0215L133.891 41.9552C131.903 40.2975 129.914 39.6344 128.125 39.767C126.534 39.8997 125.076 40.4964 123.883 41.6237L121.564 39.8997C121.365 39.7007 121.1 39.767 120.901 39.8334L119.708 41.4247C119.642 41.6237 119.642 41.8889 119.841 42.0878L122.16 43.8782C121.431 45.2706 121.365 46.6631 121.763 48.1882C122.16 49.7796 123.353 51.1721 124.944 52.4982C126.733 53.8907 128.523 54.4875 130.18 54.4875C131.969 54.4875 133.758 53.8244 135.614 52.8298Z" fill="#DFC125"/>
<g opacity="0.66">
<g opacity="0.66">
<path opacity="0.66" d="M128.854 35.8548L129.185 34.8602L117.123 28.6935L116.792 29.6882C116.328 31.0806 117.256 32.871 118.913 33.6667L124.811 36.7168C126.601 37.6452 128.39 37.181 128.854 35.8548Z" fill="#DFC125"/>
</g>
</g>
<g opacity="0.66">
<g opacity="0.66">
<path opacity="0.66" d="M117.852 26.9695L129.914 33.1362L137.536 12.0502" fill="#DFC125"/>
</g>
</g>
<g opacity="0.66">
<g opacity="0.66">
<path opacity="0.66" d="M142.838 46.9283L143.169 45.9337L131.107 39.767L130.776 40.7617C130.312 42.1541 131.24 43.9444 132.897 44.7401L138.795 47.7903C140.585 48.7186 142.308 48.3208 142.838 46.9283Z" fill="#DFC125"/>
</g>
</g>
<g opacity="0.66">
<g opacity="0.66">
<path opacity="0.66" d="M151.454 23.19L143.832 44.276L131.836 38.1093L139.458 17.0233L151.454 23.19Z" fill="#DFC125"/>
</g>
</g>
<g opacity="0.66">
<g opacity="0.66">
<path opacity="0.66" d="M160.799 46.9946L161.13 46L149.201 39.8333L148.869 40.828C148.405 42.2204 149.333 44.0108 150.99 44.8065L156.888 47.8566C158.545 48.785 160.202 48.3208 160.799 46.9946Z" fill="#DFC125"/>
</g>
</g>
<g opacity="0.66">
<g opacity="0.66">
<path opacity="0.66" d="M173.258 62.0466L173.59 61.052L161.66 54.7527L161.329 55.7473C160.865 57.1398 161.793 58.9301 163.45 59.7258L169.348 62.776C171.005 63.7043 172.794 63.3728 173.258 62.0466Z" fill="#DFC125"/>
</g>
</g>
<path d="M172.794 72.7885C183.597 58.3333 176.44 34.6613 156.822 20.0735C137.205 5.41936 112.55 5.28674 101.814 19.8082C91.0109 34.2634 98.1686 57.9355 117.786 72.5233C137.404 87.1774 161.992 87.31 172.794 72.7885Z" fill="#E3E829"/>
<path d="M165.769 66.4893C174.319 55.0179 168.619 36.319 153.044 24.7151C137.47 13.1111 117.985 12.9785 109.435 24.4498C100.886 35.9212 106.586 54.6201 122.16 66.224C137.735 77.8943 157.22 77.9606 165.769 66.4893Z" fill="#DFC125"/>
<g opacity="0.08">
<g opacity="0.08">
<path opacity="0.08" d="M168.42 61.4498C168.553 60.9856 168.752 60.4552 168.884 59.991C162.986 73.1864 144.628 76.1039 127.926 66.4892C112.55 57.6039 103.736 41.1595 107.381 28.0305C107.248 28.4946 106.983 28.8925 106.851 29.4229C101.748 43.215 111.623 61.3835 128.589 70.2688C145.555 79.0878 163.383 75.2419 168.42 61.4498Z" fill="#946829"/>
</g>
</g>
<path d="M156.027 59.2617C161.66 51.7025 157.883 39.4355 147.742 31.81C137.47 24.2509 124.679 24.1846 119.045 31.6774C113.412 39.2366 117.19 51.5036 127.33 59.129C137.602 66.7545 150.393 66.8208 156.027 59.2617Z" fill="#E3E829"/>
<path d="M139.458 48.6523C140.651 48.1882 141.314 48.1219 141.579 48.1219C141.977 48.1882 142.44 48.3208 142.971 48.6523C143.501 49.1165 143.899 49.448 144.031 49.9122C144.164 50.31 144.097 50.6416 143.766 51.1721C143.435 51.5699 143.037 51.7688 142.507 51.7688C141.91 51.7025 141.314 51.371 140.518 50.7742C140.32 50.5753 140.055 50.6416 139.856 50.7079L137.337 54.0233C137.271 54.1559 137.271 54.2885 137.404 54.4875L137.536 54.5538C137.536 54.6201 137.669 54.6201 137.669 54.6201C139.392 55.8799 141.115 56.6093 142.838 56.8083C144.429 56.8746 145.754 56.4104 147.013 55.4158L149.532 57.3387C149.731 57.5376 149.996 57.4713 150.195 57.405L151.388 55.8136C151.454 55.6147 151.454 55.3495 151.255 55.1505L148.737 53.2276C149.466 51.8351 149.664 50.31 149.267 48.8513C148.869 47.1936 147.809 45.7348 146.086 44.5412C144.296 43.1488 142.507 42.552 140.916 42.552C139.392 42.6846 137.669 43.2151 135.614 44.2097C134.686 44.5412 134.024 44.8065 133.493 44.7402C133.029 44.6738 132.499 44.4086 131.903 44.0108C131.373 43.5466 131.107 43.2151 130.842 42.7509C130.71 42.3531 130.776 41.8889 131.107 41.491C131.505 40.8943 131.969 40.6954 132.632 40.629C133.228 40.5627 133.957 40.8943 134.885 41.6237C135.084 41.8226 135.349 41.7563 135.548 41.69L138.066 38.3746C138.133 38.2419 138.133 38.1093 138 37.9104L137.867 37.8441L137.735 37.7778C135.747 36.1201 133.758 35.457 131.969 35.5896C130.378 35.7222 128.92 36.319 127.727 37.4462L125.408 35.7222C125.209 35.5233 124.944 35.5896 124.745 35.6559L123.552 37.2473C123.486 37.4462 123.486 37.7115 123.685 37.9104L126.004 39.7007C125.275 41.0932 125.209 42.4857 125.607 44.0108C126.004 45.6022 127.197 46.9946 128.788 48.3208C130.577 49.7133 132.367 50.31 134.024 50.31C135.945 50.2437 137.669 49.7796 139.458 48.6523Z" fill="#DFC125"/>
<path d="M140.452 145.33H87.3658V158.923H140.452V145.33Z" fill="#A8BEDD"/>
<path d="M93.3968 145.33H91.7399V158.923H93.3968V145.33Z" fill="#8099CF"/>
<path d="M126.601 145.33H124.944V158.923H126.601V145.33Z" fill="#8099CF"/>
<path d="M115.533 145.33H113.876V158.923H115.533V145.33Z" fill="#8099CF"/>
<path d="M104.465 145.33H102.808V158.923H104.465V145.33Z" fill="#8099CF"/>
<path d="M98.8977 145.33H97.2408V158.923H98.8977V145.33Z" fill="#8099CF"/>
<path d="M109.966 145.33H108.309V158.923H109.966V145.33Z" fill="#8099CF"/>
<path d="M121.034 145.33H119.377V158.923H121.034V145.33Z" fill="#8099CF"/>
<path d="M132.102 145.33H130.445V158.923H132.102V145.33Z" fill="#8099CF"/>
<path d="M166.034 157.332H87.3658V158.989H166.034V157.332Z" fill="#8099CF"/>
<path d="M151.653 99.1792H87.2332V112.772H151.653V99.1792Z" fill="#E3E829"/>
<path d="M93.2642 99.1792H91.6074V112.772H93.2642V99.1792Z" fill="#DFC125"/>
<path d="M126.468 99.1792H124.811V112.772H126.468V99.1792Z" fill="#DFC125"/>
<path d="M115.4 99.1792H113.743V112.772H115.4V99.1792Z" fill="#DFC125"/>
<path d="M104.332 99.1792H102.675V112.772H104.332V99.1792Z" fill="#DFC125"/>
<path d="M98.7651 99.1792H97.1082V112.772H98.7651V99.1792Z" fill="#DFC125"/>
<path d="M109.833 99.1792H108.176V112.772H109.833V99.1792Z" fill="#DFC125"/>
<path d="M120.901 99.1792H119.244V112.772H120.901V99.1792Z" fill="#DFC125"/>
<path d="M131.969 99.1792H130.312V112.772H131.969V99.1792Z" fill="#DFC125"/>
<path d="M180.946 111.181H87.2332V112.839H180.946V111.181Z" fill="#DFC125"/>
<path d="M144.76 112.839H87.2332V126.432H144.76V112.839Z" fill="#E3E829"/>
<path d="M93.2642 112.839H91.6074V126.432H93.2642V112.839Z" fill="#DFC125"/>
<path d="M126.468 112.839H124.811V126.432H126.468V112.839Z" fill="#DFC125"/>
<path d="M115.4 112.839H113.743V126.432H115.4V112.839Z" fill="#DFC125"/>
<path d="M104.332 112.839H102.675V126.432H104.332V112.839Z" fill="#DFC125"/>
<path d="M98.7651 112.839H97.1082V126.432H98.7651V112.839Z" fill="#DFC125"/>
<path d="M109.833 112.839H108.176V126.432H109.833V112.839Z" fill="#DFC125"/>
<path d="M120.901 112.839H119.244V126.432H120.901V112.839Z" fill="#DFC125"/>
<path d="M131.969 112.839H130.312V126.432H131.969V112.839Z" fill="#DFC125"/>
<path d="M165.57 124.84H87.2332V126.498H165.57V124.84Z" fill="#DFC125"/>
<path d="M144.76 126.498H87.2332V140.091H144.76V126.498Z" fill="#E3E829"/>
<path d="M93.2642 126.498H91.6074V140.091H93.2642V126.498Z" fill="#DFC125"/>
<path d="M126.468 126.498H124.811V140.091H126.468V126.498Z" fill="#DFC125"/>
<path d="M115.4 126.498H113.743V140.091H115.4V126.498Z" fill="#DFC125"/>
<path d="M104.332 126.498H102.675V140.091H104.332V126.498Z" fill="#DFC125"/>
<path d="M98.7651 126.498H97.1082V140.091H98.7651V126.498Z" fill="#DFC125"/>
<path d="M109.833 126.498H108.176V140.091H109.833V126.498Z" fill="#DFC125"/>
<path d="M120.901 126.498H119.244V140.091H120.901V126.498Z" fill="#DFC125"/>
<path d="M131.969 126.498H130.312V140.091H131.969V126.498Z" fill="#DFC125"/>
<path d="M136.807 138.5H87.2332V140.158H136.807V138.5Z" fill="#DFC125"/>
<path d="M140.452 158.989H87.3658V172.582H140.452V158.989Z" fill="#A8BEDD"/>
<path d="M93.3968 158.989H91.7399V172.582H93.3968V158.989Z" fill="#8099CF"/>
<path d="M126.601 158.989H124.944V172.582H126.601V158.989Z" fill="#8099CF"/>
<path d="M115.533 158.989H113.876V172.582H115.533V158.989Z" fill="#8099CF"/>
<path d="M104.465 158.989H102.808V172.582H104.465V158.989Z" fill="#8099CF"/>
<path d="M98.8977 158.989H97.2408V172.582H98.8977V158.989Z" fill="#8099CF"/>
<path d="M109.966 158.989H108.309V172.582H109.966V158.989Z" fill="#8099CF"/>
<path d="M121.034 158.989H119.377V172.582H121.034V158.989Z" fill="#8099CF"/>
<path d="M132.102 158.989H130.445V172.582H132.102V158.989Z" fill="#8099CF"/>
<path d="M181.079 170.925H87.3658V172.582H181.079V170.925Z" fill="#8099CF"/>
<path d="M181.079 172.582H87.3658V186.176H181.079V172.582Z" fill="#A8BEDD"/>
<path d="M93.3968 172.582H91.7399V186.176H93.3968V172.582Z" fill="#8099CF"/>
<path d="M126.601 172.582H124.944V186.176H126.601V172.582Z" fill="#8099CF"/>
<path d="M115.533 172.582H113.876V186.176H115.533V172.582Z" fill="#8099CF"/>
<path d="M104.465 172.582H102.808V186.176H104.465V172.582Z" fill="#8099CF"/>
<path d="M98.8977 172.582H97.2408V186.176H98.8977V172.582Z" fill="#8099CF"/>
<path d="M109.966 172.582H108.309V186.176H109.966V172.582Z" fill="#8099CF"/>
<path d="M121.034 172.582H119.377V186.176H121.034V172.582Z" fill="#8099CF"/>
<path d="M132.102 172.582H130.445V186.176H132.102V172.582Z" fill="#8099CF"/>
<path d="M181.079 184.518H87.3658V186.176H181.079V184.518Z" fill="#8099CF"/>
<path d="M181.079 186.242H87.3658V199.835H181.079V186.242Z" fill="#A8BEDD"/>
<path d="M93.3968 186.242H91.7399V199.835H93.3968V186.242Z" fill="#8099CF"/>
<path d="M126.601 186.242H124.944V199.835H126.601V186.242Z" fill="#8099CF"/>
<path d="M115.533 186.242H113.876V199.835H115.533V186.242Z" fill="#8099CF"/>
<path d="M104.465 186.242H102.808V199.835H104.465V186.242Z" fill="#8099CF"/>
<path d="M98.8977 186.242H97.2408V199.835H98.8977V186.242Z" fill="#8099CF"/>
<path d="M109.966 186.242H108.309V199.835H109.966V186.242Z" fill="#8099CF"/>
<path d="M121.034 186.242H119.377V199.835H121.034V186.242Z" fill="#8099CF"/>
<path d="M132.102 186.242H130.445V199.835H132.102V186.242Z" fill="#8099CF"/>
<path d="M181.079 198.177H87.3658V199.835H181.079V198.177Z" fill="#8099CF"/>
<path d="M181.079 199.835H87.3658V213.428H181.079V199.835Z" fill="#A8BEDD"/>
<path d="M93.3968 199.835H91.7399V213.428H93.3968V199.835Z" fill="#8099CF"/>
<path d="M126.601 199.835H124.944V213.428H126.601V199.835Z" fill="#8099CF"/>
<path d="M115.533 199.835H113.876V213.428H115.533V199.835Z" fill="#8099CF"/>
<path d="M104.465 199.835H102.808V213.428H104.465V199.835Z" fill="#8099CF"/>
<path d="M98.8977 199.835H97.2408V213.428H98.8977V199.835Z" fill="#8099CF"/>
<path d="M109.966 199.835H108.309V213.428H109.966V199.835Z" fill="#8099CF"/>
<path d="M121.034 199.835H119.377V213.428H121.034V199.835Z" fill="#8099CF"/>
<path d="M132.102 199.835H130.445V213.428H132.102V199.835Z" fill="#8099CF"/>
<path d="M181.079 211.837H87.3658V213.495H181.079V211.837Z" fill="#8099CF"/>
<path d="M181.079 213.495H87.3658V227.088H181.079V213.495Z" fill="#A8BEDD"/>
<path d="M93.3968 213.495H91.7399V227.088H93.3968V213.495Z" fill="#8099CF"/>
<path d="M126.601 213.495H124.944V227.088H126.601V213.495Z" fill="#8099CF"/>
<path d="M115.533 213.495H113.876V227.088H115.533V213.495Z" fill="#8099CF"/>
<path d="M104.465 213.495H102.808V227.088H104.465V213.495Z" fill="#8099CF"/>
<path d="M98.8977 213.495H97.2408V227.088H98.8977V213.495Z" fill="#8099CF"/>
<path d="M109.966 213.495H108.309V227.088H109.966V213.495Z" fill="#8099CF"/>
<path d="M121.034 213.495H119.377V227.088H121.034V213.495Z" fill="#8099CF"/>
<path d="M132.102 213.495H130.445V227.088H132.102V213.495Z" fill="#8099CF"/>
<path d="M181.079 225.43H87.3658V227.088H181.079V225.43Z" fill="#8099CF"/>
<path d="M181.079 227.088H87.3658V240.681H181.079V227.088Z" fill="#A8BEDD"/>
<path d="M93.3968 227.088H91.7399V240.681H93.3968V227.088Z" fill="#8099CF"/>
<path d="M126.601 227.088H124.944V240.681H126.601V227.088Z" fill="#8099CF"/>
<path d="M115.533 227.088H113.876V240.681H115.533V227.088Z" fill="#8099CF"/>
<path d="M104.465 227.088H102.808V240.681H104.465V227.088Z" fill="#8099CF"/>
<path d="M98.8977 227.088H97.2408V240.681H98.8977V227.088Z" fill="#8099CF"/>
<path d="M109.966 227.088H108.309V240.681H109.966V227.088Z" fill="#8099CF"/>
<path d="M121.034 227.088H119.377V240.681H121.034V227.088Z" fill="#8099CF"/>
<path d="M132.102 227.088H130.445V240.681H132.102V227.088Z" fill="#8099CF"/>
<path d="M181.079 239.023H87.3658V240.681H181.079V239.023Z" fill="#8099CF"/>
<path d="M181.079 240.681H87.3658V254.274H181.079V240.681Z" fill="#A8BEDD"/>
<path d="M93.3968 240.681H91.7399V254.274H93.3968V240.681Z" fill="#8099CF"/>
<path d="M126.601 240.681H124.944V254.274H126.601V240.681Z" fill="#8099CF"/>
<path d="M115.533 240.681H113.876V254.274H115.533V240.681Z" fill="#8099CF"/>
<path d="M104.465 240.681H102.808V254.274H104.465V240.681Z" fill="#8099CF"/>
<path d="M98.8977 240.681H97.2408V254.274H98.8977V240.681Z" fill="#8099CF"/>
<path d="M109.966 240.681H108.309V254.274H109.966V240.681Z" fill="#8099CF"/>
<path d="M121.034 240.681H119.377V254.274H121.034V240.681Z" fill="#8099CF"/>
<path d="M132.102 240.681H130.445V254.274H132.102V240.681Z" fill="#8099CF"/>
<path d="M181.079 252.683H87.3658V254.34H181.079V252.683Z" fill="#8099CF"/>
<path d="M217 266.276H59V267.934H217V266.276Z" fill="#EFEFEF"/>
<path d="M97.2408 254.34H93.3968V266.276H97.2408V254.34Z" fill="#A8BEDD"/>
<path d="M102.808 254.34H98.9639V266.276H102.808V254.34Z" fill="#A8BEDD"/>
<path d="M113.876 254.34H110.032V266.276H113.876V254.34Z" fill="#A8BEDD"/>
<path d="M108.309 254.34H104.465V266.276H108.309V254.34Z" fill="#A8BEDD"/>
<path d="M119.377 254.34H115.533V266.276H119.377V254.34Z" fill="#A8BEDD"/>
<path d="M130.445 254.34H126.601V266.276H130.445V254.34Z" fill="#A8BEDD"/>
<path d="M124.944 254.34H121.1V266.276H124.944V254.34Z" fill="#A8BEDD"/>
<path d="M136.807 254.34H132.102V266.276H136.807V254.34Z" fill="#A8BEDD"/>
<path d="M91.7399 254.34H87.3658V266.276H91.7399V254.34Z" fill="#A8BEDD"/>
<path d="M167.161 163.498V153.419H157.087C153.906 153.419 151.321 150.833 151.321 147.651V145.33H136.807V185.645V225.961V254.34H181.079V225.961V185.645V169.201H172.861C169.68 169.201 167.161 166.615 167.161 163.498Z" fill="#8099CF"/>
<path d="M181.079 254.34H136.807V266.276H181.079V254.34Z" fill="#8099CF"/>
<path d="M157.087 132.002H167.161V121.923C167.161 118.74 169.746 116.154 172.927 116.154H180.946V99.1792H136.674V140.158H151.321V137.771C151.321 134.588 153.906 132.002 157.087 132.002Z" fill="#DFC125"/>
<path d="M93.3968 254.34H91.7399V266.276H93.3968V254.34Z" fill="#8099CF"/>
<path d="M126.601 254.34H124.944V266.276H126.601V254.34Z" fill="#8099CF"/>
<path d="M115.533 254.34H113.876V266.276H115.533V254.34Z" fill="#8099CF"/>
<path d="M104.465 254.34H102.808V266.276H104.465V254.34Z" fill="#8099CF"/>
<path d="M98.8977 254.34H97.2408V266.276H98.8977V254.34Z" fill="#8099CF"/>
<path d="M109.966 254.34H108.309V266.276H109.966V254.34Z" fill="#8099CF"/>
<path d="M121.034 254.34H119.377V266.276H121.034V254.34Z" fill="#8099CF"/>
<path d="M132.102 254.34H130.445V266.276H132.102V254.34Z" fill="#8099CF"/>
<path d="M130.445 267.934H126.601H124.944H121.1H119.377H115.533H113.876H110.032H108.309H104.465H102.808H98.9639H97.2408H93.3968H91.7399H87.3658V268H181.079V267.934H132.102H130.445Z" fill="#8099CF"/>
<path d="M124.944 266.276H121.1V267.934H124.944V266.276Z" fill="#8099CF"/>
<path d="M102.808 266.276H98.9639V267.934H102.808V266.276Z" fill="#8099CF"/>
<path d="M119.377 266.276H115.533V267.934H119.377V266.276Z" fill="#8099CF"/>
<path d="M108.309 266.276H104.465V267.934H108.309V266.276Z" fill="#8099CF"/>
<path d="M132.102 266.276V267.934H181.079V266.276H136.807H132.102Z" fill="#8099CF"/>
<path d="M91.7399 266.276H87.3658V267.934H91.7399V266.276Z" fill="#8099CF"/>
<path d="M97.2408 266.276H93.3968V267.934H97.2408V266.276Z" fill="#8099CF"/>
<path d="M113.876 266.276H110.032V267.934H113.876V266.276Z" fill="#8099CF"/>
<path d="M130.445 266.276H126.601V267.934H130.445V266.276Z" fill="#8099CF"/>
<path d="M93.3968 266.276H91.7399V267.934H93.3968V266.276Z" fill="#8099CF"/>
<path d="M126.601 266.276H124.944V267.934H126.601V266.276Z" fill="#8099CF"/>
<path d="M115.533 266.276H113.876V267.934H115.533V266.276Z" fill="#8099CF"/>
<path d="M104.465 266.276H102.808V267.934H104.465V266.276Z" fill="#8099CF"/>
<path d="M98.8977 266.276H97.2408V267.934H98.8977V266.276Z" fill="#8099CF"/>
<path d="M109.966 266.276H108.309V267.934H109.966V266.276Z" fill="#8099CF"/>
<path d="M121.034 266.276H119.377V267.934H121.034V266.276Z" fill="#8099CF"/>
<path d="M132.102 266.276H130.445V267.934H132.102V266.276Z" fill="#8099CF"/>
<path d="M183.862 163.498V148.778H198.576C199.172 148.778 199.702 148.314 199.702 147.651V137.771C199.702 137.174 199.238 136.643 198.576 136.643H183.862V121.923C183.862 121.326 183.398 120.796 182.736 120.796H172.861C172.264 120.796 171.734 121.26 171.734 121.923V136.643H157.087C156.491 136.643 155.961 137.108 155.961 137.771V147.651C155.961 148.247 156.424 148.778 157.087 148.778H171.8V163.498C171.8 164.095 172.264 164.625 172.927 164.625H182.802C183.399 164.559 183.862 164.095 183.862 163.498Z" fill="#0033A0"/>
</g>
<defs>
<clipPath id="clip0">
<rect width="158" height="259" fill="white" transform="translate(59 9)"/>
</clipPath>
</defs>
</svg>
