<svg width="331" height="331" viewBox="0 0 331 331" fill="none" xmlns="http://www.w3.org/2000/svg">
<g clip-path="url(#clip0)">
<path d="M164.8 307.6C238.696 307.6 298.6 247.696 298.6 173.8C298.6 99.9043 238.696 40 164.8 40C90.9043 40 31 99.9043 31 173.8C31 247.696 90.9043 307.6 164.8 307.6Z" fill="#F3F3F3"/>
<path d="M222.2 172C222.1 171.9 222 171.8 222 171.7C222.1 171.9 222.2 171.9 222.2 172Z" fill="#91ABBC"/>
<path d="M205 59.5C199.8 38.5 180.9 23 158.4 23C131.9 23 110.4 44.6 110.4 71V102.1C110.4 128.6 132 150.1 158.4 150.1C177.6 150.1 194.2 138.8 201.9 122.4C204.8 116.2 206.4 109.3 206.4 102V71C206.4 67.1 205.9 63.2 205 59.5ZM158.4 133.4C141.2 133.4 127.2 119.4 127.2 102.2V71C127.2 53.8 141.2 39.8 158.4 39.8C175 39.8 188.6 52.8 189.5 69.1C189.5 69.7 189.6 70.4 189.6 71V102.1C189.6 105.6 189 108.9 188 112C183.8 124.4 172.1 133.4 158.4 133.4Z" fill="#5B7FCF"/>
<path d="M215.4 90.7C216.9 90.7 218.3 90.3 219.5 89.5C217.6 86.6 214.3 84.6 210.5 84.6H208C208.7 88.1 211.7 90.7 215.4 90.7Z" fill="#5B7FCF"/>
<path d="M222.7 172.2C222.6 172.1 222.5 172 222.5 171.9C222.5 172.1 222.6 172.1 222.7 172.2Z" fill="#466DB2"/>
<path d="M219.5 89.5C218.3 90.3 216.9 90.7 215.4 90.7C211.7 90.7 208.7 88.1 208 84.6H182.1H106.5C100.6 84.6 95.8 89.4 95.8 95.3V184.8C95.8 190.7 100.6 195.5 106.5 195.5H208.1H210.5C216.4 195.5 221.2 190.7 221.2 184.8V95.3C221.2 93.2 220.6 91.2 219.5 89.5Z" fill="#0033A0"/>
<path d="M243.6 112.5C249.7 106.4 253.4 98 253.4 88.9C253.4 70.5 238.4 55.5 220 55.5C211.1 55.5 202.7 59 196.4 65.3C190.1 71.6 186.6 80 186.6 88.9C186.6 102.7 195 114.9 207.7 120V186C207.7 186.7 208 187.3 208.4 187.8L218.1 197.6C218.1 197.6 218.1 197.6 218.2 197.7C218.7 198.1 219.3 198.4 219.9 198.4C220.6 198.4 221.2 198.1 221.7 197.7L240.7 178.8C241.2 178.3 241.4 177.7 241.4 177C241.4 176.3 241.1 175.7 240.7 175.2L233.3 167.8L240.7 160.4C241.7 159.4 241.7 157.8 240.7 156.8L233.3 149.4L240.7 142C241.7 141 241.7 139.4 240.7 138.4L232.2 129.9V120C236.6 118.2 240.5 115.7 243.6 112.5ZM220.7 72.7C224.9 72.7 228.3 76.1 228.3 80.3C228.3 84.5 224.9 87.9 220.7 87.9C216.5 87.9 213.1 84.5 213.1 80.3C213.1 76.1 216.5 72.7 220.7 72.7ZM227.8 169.1C227.9 169.2 227.9 169.3 228 169.4C227.9 169.3 227.8 169.2 227.8 169.1Z" fill="#D4D83C"/>
<path opacity="0.58" d="M219.9 190.2H217.7C217.2 190.2 216.7 189.7 216.7 189.2V127.5C216.7 127 217.1 126.5 217.7 126.5H219.9C220.5 126.5 220.9 127 220.9 127.5V189.2C220.9 189.8 220.5 190.2 219.9 190.2Z" fill="#DA9738"/>
<path d="M159.8 147.8C150.3 147.8 142.5 140 142.5 130.5C142.5 121 150.3 113.2 159.8 113.2C169.3 113.2 177.1 121 177.1 130.5C177.2 140 169.4 147.8 159.8 147.8Z" fill="#F3F3F3"/>
<path d="M159.8 176.2C157.4 176.2 155.4 174.2 155.4 171.8V133.4C155.4 131 157.4 129 159.8 129C162.2 129 164.2 131 164.2 133.4V171.8C164.3 174.2 162.3 176.2 159.8 176.2Z" fill="#F3F3F3"/>
<path d="M188.9 275.5C188.9 275.5 231.7 248.9 238.3 242.9C244.9 236.8 243.3 230.3 237.5 228.4C231.7 226.5 216.8 236.5 216.8 236.5C216.8 236.5 224.5 228.5 216.1 223.9C207.7 219.3 183.4 237.8 183.4 237.8C183.4 237.8 182.1 232.5 175.5 232.3C168.9 232.1 156.9 243.5 145.2 237.8C133.5 232.2 128.8 232.7 121.7 234.7C114.6 236.7 111.4 257.7 112.8 266.8C114.4 275.9 182.4 276.5 188.9 275.5Z" fill="#BF584B"/>
<path d="M249.2 273.5C248.1 272.8 245.8 272.3 242.8 272.1C228.1 270.9 195.2 274.6 191 274.8C185.9 275.1 153.4 254.5 153.4 254.5L95.6 214L43 229.1C49.6 244.1 59.3 257.6 70.5 268.8L84.8 258.6C84.8 258.6 130.2 293.4 141 296.9C148.5 299.4 190.7 293.8 218.4 289.5C230.4 287.7 239.8 286.1 242.4 285.5C251.1 283.6 255.4 277.8 249.2 273.5Z" fill="#FF896C"/>
<path d="M185.1 267.8C185.1 267.8 194.3 278.2 181.8 282.5C169.3 286.8 149.9 276.4 142.2 267.6C134.5 258.8 107.6 265.2 91.8 246.4C76 227.6 99.3 235.6 112.8 240C126.3 244.4 138.5 247 145.6 250C152.7 252.9 157.7 250.2 163.6 254.6C169.5 259 183.6 266.9 183.6 266.9L185.1 267.8Z" fill="#BF584B" stroke="#BF584B" stroke-width="0.7" stroke-miterlimit="10"/>
<path d="M188.2 272C184 265.5 167.8 252 143.1 233.2C118.4 214.4 106.1 209.3 89.4 212.7C76.7 215.3 56.1 224.4 45.1 228.7C45.2 230.9 45.5 233 46.5 234.9C48.9 239.2 50.9 242.6 53.7 246.8C83.8 262.1 140.2 259.9 140.2 259.9C175 294.9 192.4 278.5 188.2 272Z" fill="#FF896C"/>
</g>
<defs>
<clipPath id="clip0">
<rect width="267.6" height="284.6" fill="white" transform="translate(31 23)"/>
</clipPath>
</defs>
</svg>
