<svg width="276" height="276" viewBox="0 0 276 276" fill="none" xmlns="http://www.w3.org/2000/svg">
<circle cx="137.5" cy="137.5" r="112.5" fill="#80D7E3"/>
<path opacity="0.34" d="M148.778 259.421C212.363 259.421 263.909 257.09 263.909 254.214C263.909 251.339 212.363 249.008 148.778 249.008C85.193 249.008 33.6471 251.339 33.6471 254.214C33.6471 257.09 85.193 259.421 148.778 259.421Z" fill="#CFCFCF"/>
<path d="M70.4105 185.222L63.0574 201.336C63.0574 201.336 67.7204 203.51 71.666 202.551C75.6713 201.592 74.4757 202.679 74.4757 202.679L81.8288 190.466L70.4105 185.222Z" fill="#FF896C"/>
<path d="M53.6555 210.076C53.7174 210.076 53.9031 209.947 54.2744 209.754L59.0403 210.398C56.5645 211.3 54.9553 212.265 54.9553 212.265C54.7077 212.394 54.3982 212.459 54.1507 212.459C53.7793 212.394 53.4698 212.201 53.2841 211.815C52.8509 211.171 53.0366 210.398 53.6555 210.076Z" fill="white"/>
<path d="M76.9894 209.882L76.618 207.242L75.9372 202.026C75.9372 202.026 66.096 205.052 62.6918 197.519L37.6246 207.37L54.2123 209.689L58.9781 210.332L77.3607 212.908L76.9894 209.882Z" fill="#0033A0"/>
<path d="M36.8816 213.294L37.6243 207.499L77.4224 212.972L76.6178 219.218L36.8816 213.294Z" fill="white"/>
<path d="M36.2597 213.231L37.0643 207.371C37.1262 207.049 37.4357 206.792 37.7452 206.792L77.5432 212.265C77.7289 212.265 77.8527 212.394 77.9765 212.522C78.1003 212.651 78.1003 212.844 78.1003 212.973L77.2956 219.219C77.2956 219.412 77.1719 219.541 77.0481 219.67C76.9243 219.799 76.7386 219.799 76.6148 219.799L36.8786 213.939C36.4454 213.939 36.1978 213.617 36.2597 213.231ZM76.7386 213.488L38.1784 208.208L37.5595 212.78L76.0578 218.446L76.7386 213.488Z" fill="#A8BEDD"/>
<path d="M60.0896 205.245C60.3991 205.309 60.7086 205.245 60.9561 204.987C61.5132 204.601 61.637 203.764 61.2656 203.184C61.2656 203.184 60.1515 201.51 59.285 197.969C59.0993 197.26 58.4804 196.874 57.7995 197.003C57.1187 197.196 56.7473 197.84 56.8711 198.548C57.8614 202.669 59.1612 204.601 59.2231 204.665C59.4707 204.987 59.7801 205.181 60.0896 205.245Z" fill="white"/>
<path d="M56.2534 206.083C56.5628 206.147 56.8723 206.083 57.1199 205.89C57.6769 205.503 57.8626 204.731 57.4913 204.087C57.4913 204.087 56.5628 202.477 55.882 199.193C55.7582 198.485 55.0774 198.034 54.3965 198.163C53.7157 198.292 53.2824 199 53.4062 199.708C54.149 203.572 55.325 205.439 55.3868 205.503C55.5725 205.825 55.882 206.018 56.2534 206.083Z" fill="white"/>
<path d="M52.1078 206.918C52.3554 206.982 52.6649 206.918 52.9125 206.725C53.4695 206.338 53.6552 205.566 53.3457 204.986C53.3457 204.986 52.603 203.698 52.1697 200.994C52.0459 200.286 51.427 199.835 50.7462 199.964C50.0653 200.093 49.6321 200.736 49.7558 201.445C50.251 204.6 51.1175 206.145 51.2413 206.338C51.427 206.596 51.7984 206.854 52.1078 206.918Z" fill="white"/>
<path d="M59.6552 197.647C59.6552 197.647 59.779 193.526 62.6261 193.333C65.4733 193.204 63.5546 199.063 63.5546 199.063L60.1504 200.287L59.6552 197.647Z" fill="#0033A0"/>
<path d="M114.16 117.864C114.16 117.864 108.18 114.192 97.8385 131.328C87.4971 148.464 67.4374 187.826 67.4374 187.826C67.4374 187.826 75.0377 194.462 81.392 194.333L124.377 138.157L114.16 117.864Z" fill="#4971B7"/>
<path d="M54.7381 167.65L41.1577 178.577C41.1577 178.577 44.5222 182.731 48.5597 183.754C52.5971 184.776 51.0678 185.223 51.0678 185.223L63.0577 177.811L54.7381 167.65Z" fill="#FF896C"/>
<path d="M30.6847 186.575C30.7466 186.575 30.9322 186.51 31.3655 186.381L35.8838 188.12C33.2842 188.442 31.5512 189.021 31.4893 189.086C31.1798 189.215 30.9322 189.15 30.6847 189.086C30.3752 188.957 30.0657 188.7 29.9419 188.313C29.6944 187.54 30.0038 186.768 30.6847 186.575Z" fill="white"/>
<path d="M42.0734 176.334L15.5826 180.391L31.3038 186.314L35.822 188.053L53.2762 194.685L53.5238 191.595L53.7095 188.954L54.0809 183.739C54.1428 183.674 43.8683 184.447 42.0734 176.334Z" fill="#0033A0"/>
<path d="M13.6031 186.058L15.5837 180.52L53.2774 194.686L51.2349 200.61L13.6031 186.058Z" fill="white"/>
<path d="M13.0464 185.801L15.027 180.263C15.1508 179.941 15.5222 179.748 15.8317 179.877L53.5872 194.043C53.7729 194.107 53.8967 194.236 53.9586 194.365C54.0205 194.494 54.0205 194.687 53.9586 194.88L51.8542 200.804C51.7923 200.933 51.6685 201.126 51.5447 201.19C51.4209 201.255 51.2352 201.255 51.0495 201.19L13.4178 186.638C13.0464 186.509 12.9226 186.187 13.0464 185.801ZM52.535 195.073L15.8936 181.358L14.3462 185.672L50.802 199.774L52.535 195.073Z" fill="#A8BEDD"/>
<path d="M37.9897 183.288C38.2992 183.417 38.6087 183.417 38.9181 183.288C39.5371 183.031 39.8466 182.258 39.599 181.614C39.599 181.614 38.8562 179.747 38.7943 176.076C38.7943 175.368 38.1754 174.788 37.4946 174.853C36.8137 174.853 36.2567 175.497 36.3186 176.205C36.4424 180.455 37.3089 182.644 37.3708 182.709C37.4327 182.902 37.6802 183.159 37.9897 183.288Z" fill="white"/>
<path d="M34.0279 183.29C34.2754 183.419 34.5849 183.419 34.8944 183.29C35.5133 183.033 35.8847 182.324 35.6371 181.616C35.6371 181.616 35.0182 179.878 35.0801 176.465C35.0801 175.757 34.523 175.177 33.8422 175.177C33.1613 175.177 32.6043 175.757 32.6043 176.465C32.5424 180.393 33.2851 182.453 33.347 182.582C33.4089 182.904 33.6565 183.162 34.0279 183.29Z" fill="white"/>
<path d="M29.822 183.159C30.0696 183.287 30.3791 183.287 30.6266 183.159C31.2456 182.901 31.6169 182.193 31.3694 181.549C31.3694 181.549 30.9361 180.132 31.0599 177.428C31.1218 176.719 30.5647 176.14 29.8839 176.075C29.2031 176.011 28.646 176.591 28.5841 177.299C28.4603 180.518 28.9555 182.193 29.0174 182.386C29.2031 182.708 29.5125 183.03 29.822 183.159Z" fill="white"/>
<path d="M39.1044 175.754C39.1044 175.754 40.0947 171.762 42.88 172.213C45.6652 172.664 42.6324 178.008 42.6324 178.008L39.0425 178.459L39.1044 175.754Z" fill="#0033A0"/>
<path d="M127.507 123.521C127.507 123.521 116.434 114.413 109.093 117.534C102.934 120.337 52.4212 168.296 52.4212 168.296C52.4212 168.296 53.1677 174.601 61.1304 180.652C63.4943 181.48 108.658 149.188 113.759 141.673C118.735 134.03 127.507 123.521 127.507 123.521Z" fill="#8099CF"/>
<path d="M249.042 77.6884C249.042 77.6884 248.98 74.7987 250.77 72.0373L182.503 71.9731C171.639 71.9731 162.318 80.0645 160.405 91.2383L155.652 118.274C152.998 133.878 142.937 144.089 124.666 145.181C106.457 146.272 103.186 144.924 93.989 148.713C80.5947 155.969 88.5572 174.399 88.5572 174.399C88.5572 174.399 96.5197 152.887 96.3345 152.887H95.8407C89.9768 152.887 95.2235 164.703 95.2235 164.703L89.051 182.619L110.655 176.711C110.655 176.711 145.282 164.51 180.527 173.372C215.772 182.234 193.798 150.703 193.798 150.703C193.798 150.703 207.316 149.547 220.463 150.96C233.611 152.373 235.277 153.786 235.277 153.786L249.042 77.6884ZM214.476 145.373H202.81H214.476Z" fill="#E3E829"/>
<path d="M240.759 81.247L232.295 131.202L205.719 112.937L216.113 77.1808L240.759 81.247Z" fill="#DFC125"/>
<path d="M102.717 256.167H97.6389L94.9697 236.188L106.232 235.99L102.717 256.167Z" fill="#0033A0"/>
<path d="M185.263 256.167H190.059L192.58 236.188L181.943 235.99L185.263 256.167Z" fill="#0033A0"/>
<path d="M151.717 256.167H146.921L144.4 236.188L155.037 235.99L151.717 256.167Z" fill="#0033A0"/>
<path d="M227.408 256.167H232.283L235.756 236.188L223.868 235.99L227.408 256.167Z" fill="#0033A0"/>
<path d="M174.553 244.387L109.945 244.323H92.0429L87.459 174.894L110.626 176.821C110.626 176.821 145.377 164.618 180.747 173.481C185.765 174.766 189.605 175.215 192.579 175.023V244.452L174.553 244.387Z" fill="#E3E829"/>
<path d="M110.613 244.452L108.543 162.492C108.543 156.063 103.399 150.728 97.0635 150.728C90.728 150.728 85.5843 155.999 85.5843 162.492L91.7317 244.452H110.613Z" fill="#DFC125"/>
<path d="M182.977 189.78L131.561 189.523C131.561 189.523 130.14 167.924 117.409 145.361C108.016 128.648 157.825 149.925 177.353 135.655C196.881 121.384 182.421 172.874 182.421 172.874L182.977 189.78Z" fill="#DFC125"/>
<path d="M195.082 117.533C195.082 117.533 167.477 131.317 159.394 132.53C151.312 133.742 136.266 129.084 136.266 129.084L143.975 140.889C143.975 140.889 158.71 145.228 162.13 144.846C165.55 144.463 194.212 133.614 194.212 133.614L195.082 117.533Z" fill="#FF896C"/>
<path d="M216.308 100.095C216.308 100.095 215.194 112.716 214.018 114.841C212.842 116.966 202.815 116.579 203.744 111.814C204.672 106.856 206.467 98.4211 206.467 98.4211L216.308 100.095Z" fill="#FF896C"/>
<path d="M229.492 122.759C227.759 120.699 222.436 114.968 218.723 112.843C217.609 112.199 216.371 111.62 215.009 111.04C214.947 111.105 214.823 111.105 214.762 111.169C203.744 115.29 199.907 115.676 197.184 114.775C196.936 114.711 196.812 114.582 196.75 114.453C190.499 117.995 183.567 122.437 182.576 125.206C180.225 131.13 182.886 135.96 181.896 137.956C182.019 139.308 175.087 156.822 175.768 158.368C175.83 159.269 190.375 168.091 195.389 169.378C198.36 168.799 216.804 143.429 216.804 143.429C216.804 143.429 233.02 126.43 229.492 122.759Z" fill="white"/>
<path d="M197.183 114.71C199.906 115.547 203.744 115.225 214.761 111.104C214.823 111.04 214.947 111.04 215.008 110.976C212.78 110.074 210.243 109.366 207.148 108.851C207.148 108.851 205.291 109.752 202.568 111.169C200.896 112.07 198.854 113.165 196.75 114.324C196.811 114.517 196.935 114.646 197.183 114.71Z" fill="#FF896C"/>
<path d="M149.522 180.481C149.522 180.481 127.793 159.038 108.108 134.393C108.108 134.393 109.841 119.095 114.608 116.982C119.374 114.87 166.855 147.067 176.017 153.661C185.117 160.254 192.174 171.648 191.245 175.616C190.007 180.993 172.241 201.541 149.522 180.481Z" fill="#8099CF"/>
<path d="M187.87 150.7C187.87 150.7 198.39 147.616 211.571 149.029C224.752 150.443 229.455 152.628 229.455 152.628C229.455 152.628 240.347 82.138 241.585 77.5758C241.894 75.7124 243.008 71.3429 251.795 72.0497C260.583 72.7565 263.306 82.7806 261.511 93.2545L237.5 244.451L186.323 244.387V174.925C204.022 173.897 187.87 150.7 187.87 150.7Z" fill="#E3E829"/>
<path d="M176.312 244.452L178.382 162.492C178.382 156.063 183.526 150.728 189.861 150.728C196.197 150.728 201.341 155.999 201.341 162.492L195.131 244.452H176.312Z" fill="#DFC125"/>
<path d="M177.563 161.007C177.934 161.007 178.243 160.75 178.305 160.363C178.367 160.106 179.481 154.568 186.785 151.349C200.587 145.36 229.182 152.958 229.492 153.087C229.678 153.152 229.925 153.087 230.111 152.958C230.297 152.83 230.42 152.636 230.42 152.443L242.675 78.5225C242.737 78.0718 242.49 77.6854 242.057 77.6211C241.623 77.5567 241.252 77.8142 241.19 78.265L229.059 151.349C223.921 150.19 199.411 144.201 186.228 149.932C178.12 153.538 176.882 159.848 176.82 160.106C176.758 160.557 177.006 160.943 177.439 161.007C177.501 161.007 177.501 161.007 177.563 161.007Z" fill="#E3E829"/>
<path d="M227.804 122.52C227.804 122.52 240.011 134.475 241.729 141.737C243.446 149 236.944 152.599 233.509 151.956C229.705 151.571 193.207 147.393 183.821 151.892L187.747 143.537C187.747 143.537 199.648 140.323 215.842 139.359C220.749 138.781 221.24 138.781 221.24 138.781C221.24 138.781 215.781 134.025 213.634 131.39C209.033 125.798 218.786 113.908 227.804 122.52Z" fill="#FF896C"/>
<path d="M177.315 151.736C177.315 151.736 172.487 154.827 172.116 156.437C171.806 157.982 172.301 164.164 173.911 163.971C175.52 163.777 175.891 161.331 176.077 158.24C176.077 158.24 176.51 164.486 177.748 165.387C178.986 166.289 179.791 165.452 180.038 163.262C180.038 163.262 180.286 165.452 181.338 165.452C182.39 165.452 183.009 164.743 183.195 163.005C183.38 161.266 183.628 157.338 183.814 156.823C183.999 156.308 184.68 155.149 184.68 155.149C184.68 155.149 184.247 159.528 184.928 160.429C185.609 161.331 186.228 161.009 186.475 160.944C186.723 160.88 187.28 159.85 187.342 157.853C187.465 155.793 188.518 153.732 188.518 153.732C188.518 153.732 191.241 152.251 192.169 149.869C193.16 147.486 194.521 145.684 192.169 143.623C189.817 141.563 183.071 144.267 181.338 146.134C180.162 147.165 179.295 147.937 177.315 151.736Z" fill="#FF896C"/>
<path d="M247.07 60.6211C253.507 61.0719 258.335 66.867 257.902 73.6925C257.469 80.5179 251.898 85.6692 245.461 85.2185C239.024 84.7677 234.196 78.9725 234.629 72.1471C235.125 65.3217 240.695 60.1704 247.07 60.6211Z" fill="#0033A0"/>
<path d="M235.307 74.8528C235.307 74.8528 237.969 76.7846 237.598 80.3904Z" fill="#E0AEAF"/>
<path d="M236.795 82.5139C236.981 82.5783 237.167 82.6427 237.414 82.7071C238.59 82.8359 239.642 81.9344 239.828 80.711C240.261 76.7831 237.971 74.0143 236.61 73.0485C235.619 72.3402 234.258 72.5977 233.577 73.628C232.896 74.6582 233.144 76.0104 234.134 76.7187C234.258 76.7831 235.743 78.0066 235.557 80.1958C235.372 81.1617 235.929 82.1276 236.795 82.5139Z" fill="#EDB4B4"/>
<path d="M238.345 90.8212C235.065 100.287 224.543 105.052 214.825 101.446C205.108 97.8398 199.29 86.8289 202.57 77.3635C205.851 67.898 216.93 63.4551 226.647 67.1253C236.365 70.6668 241.626 81.2913 238.345 90.8212Z" fill="#0033A0"/>
<path d="M196.193 84.8339C197.06 84.0613 200.526 84.8983 201.33 84.3832C202.073 83.8681 202.259 80.9705 205.168 76.2056C205.23 76.1412 205.292 76.0124 205.354 75.948C209.377 68.9294 218.228 66.0962 225.964 69.5089C234.382 73.1792 238.467 82.9666 235.125 91.3374C232.216 98.4848 224.788 102.284 217.361 100.932C217.237 101.06 217.175 101.189 217.052 101.318C210.924 106.791 201.021 102.799 200.216 102.606C198.36 102.091 196.255 100.545 195.698 98.2917C194.708 95.2009 196.069 89.8564 196.069 89.8564C195.079 88.3111 195.327 85.6066 196.193 84.8339Z" fill="#FF896C"/>
<path d="M211.68 83.7444C212.13 83.1171 211.25 81.6438 209.715 80.4537C208.18 79.2636 206.572 78.8073 206.122 79.4346C205.673 80.0619 206.553 81.5352 208.088 82.7254C209.622 83.9155 211.231 84.3717 211.68 83.7444Z" fill="#0033A0"/>
<path d="M200.711 94.1061C201.887 94.428 203.62 94.6856 205.229 94.1061C205.538 93.9773 205.724 93.6554 205.6 93.269C205.477 92.9471 205.167 92.7539 204.796 92.8827C202.444 93.6554 199.658 92.4319 199.658 92.4319C199.349 92.3032 198.978 92.4319 198.854 92.7539C198.73 93.0758 198.854 93.4622 199.163 93.591C199.225 93.6554 199.844 93.9129 200.711 94.1061Z" fill="#BF584B"/>
<path d="M209.689 69.1217C209.689 69.1217 205.913 80.0681 213.278 88.117C220.644 96.1659 216.93 98.8059 216.93 98.8059L221.634 102.09C221.634 102.09 241.997 99.5142 236.489 77.6857C232.775 66.4816 216.249 63.3265 209.689 69.1217Z" fill="#0033A0"/>
<path d="M217.299 94.3633C220.766 92.174 223.489 94.3633 224.293 96.4882C225.098 98.6131 224.293 100.738 222.622 102.155C221.137 103.442 219.156 104.022 217.238 103.829C216.123 103.7 214.39 103.314 213.152 101.704" fill="#FF896C"/>
<path d="M220.641 96.2961C220.827 96.2961 220.951 96.3605 221.074 96.4893C221.198 96.6181 221.26 96.7469 221.198 96.9401C221.198 97.262 220.889 97.5196 220.579 97.5196C217.237 97.3264 216.989 100.417 216.989 100.546C216.989 100.868 216.68 101.125 216.37 101.125H216.309C216.247 101.125 216.247 101.125 216.185 101.125C215.937 101.061 215.752 100.803 215.813 100.482C215.752 100.417 216.123 96.0386 220.641 96.2961Z" fill="#BF584B"/>
<path d="M205.564 85.7363C205.911 84.9629 205.841 84.1652 205.407 83.9546C204.974 83.744 204.341 84.2001 203.994 84.9735C203.646 85.7468 203.717 86.5445 204.15 86.7551C204.584 86.9658 205.217 86.5096 205.564 85.7363Z" fill="#0033A0"/>
<path d="M197.061 68.2218C198.633 68.2218 199.908 66.8957 199.908 65.2598C199.908 63.624 198.633 62.2979 197.061 62.2979C195.488 62.2979 194.214 63.624 194.214 65.2598C194.214 66.8957 195.488 68.2218 197.061 68.2218Z" fill="white"/>
<path d="M188.889 63.0059C191.111 63.0059 192.912 61.1321 192.912 58.8205C192.912 56.509 191.111 54.6351 188.889 54.6351C186.667 54.6351 184.866 56.509 184.866 58.8205C184.866 61.1321 186.667 63.0059 188.889 63.0059Z" fill="white"/>
<path d="M164.134 64.8083C177.09 64.8083 187.592 53.8822 187.592 40.4041C187.592 26.9261 177.09 16 164.134 16C151.179 16 140.676 26.9261 140.676 40.4041C140.676 53.8822 151.179 64.8083 164.134 64.8083Z" fill="white"/>
<path d="M173.848 53.9897H165.987V44.8462H162.521V53.9897H154.661C153.732 53.9897 153.051 53.217 153.051 52.3156V36.9905H151.814C151.257 36.9905 150.761 36.6042 150.576 36.0247C150.39 35.4452 150.576 34.8656 151.071 34.4793L163.573 25.0782C164.007 24.7563 164.688 24.7563 165.121 25.0782L177.624 34.4793C178.119 34.8012 178.304 35.4452 178.119 36.0247C177.933 36.6042 177.438 36.9905 176.881 36.9905H175.643V52.3156C175.519 53.217 174.776 53.9897 173.848 53.9897ZM167.597 52.3156H173.848V35.3164H175.767L164.192 26.6236L152.618 35.3164H154.537V52.3156H160.788V43.1721H167.473V52.3156H167.597Z" fill="#0033A0"/>
</svg>
