<svg width="331" height="331" viewBox="0 0 331 331" fill="none" xmlns="http://www.w3.org/2000/svg">
<g clip-path="url(#clip0)">
<path d="M121.7 268.9C121.8 272.9 119.5 283.7 115.8 298.4C118.9 299.4 122.1 300.3 125.4 301L123.6 269L121.7 268.9Z" fill="#F3F3F3"/>
<path d="M289.6 170.6C289.6 96.7 229.7 36.8 155.8 36.8C81.9 36.8 22 96.7 22 170.6C22 213 41.7 250.7 72.4 275.2L73.9 265.9C73.9 265.9 78.1 229.9 107 208.9L145.7 209.1C145.7 209.1 170.1 239.9 169.5 278.2C169.4 284.2 169.1 293.1 168.6 303.8C236.5 297.4 289.6 240.2 289.6 170.6Z" fill="white"/>
<path d="M145.7 209.1L107 208.9C78.2 229.8 73.9 265.9 73.9 265.9L72.4 275.2C85.2 285.4 99.8 293.3 115.8 298.3C119.5 283.7 121.8 272.9 121.7 268.8L123.5 268.9L125.3 300.9C135.1 303.2 145.3 304.4 155.7 304.4C160 304.4 164.3 304.2 168.5 303.8C169 293.1 169.3 284.2 169.4 278.2C170.2 240 145.7 209.1 145.7 209.1Z" fill="#5B7FCF"/>
<path d="M122.8 217.7C111.8 217.7 103.7 216.8 103.6 216.8C102.8 216.7 102.2 216 102.3 215.1C102.4 214.3 103.1 213.7 104 213.8C104.2 213.8 126.3 216.1 146.8 213C147.6 212.9 148.4 213.4 148.5 214.3C148.6 215.1 148.1 215.9 147.2 216C138.8 217.3 130.1 217.7 122.8 217.7Z" fill="#0033A0"/>
<path d="M113.3 213.4H110.3V220.9H113.3V213.4Z" fill="#5B7FCF"/>
<path d="M142.2 212.7H139.2V220.2H142.2V212.7Z" fill="#5B7FCF"/>
<path d="M126.4 258.8C126.1 258.8 125.9 258.7 125.6 258.6C124.9 258.2 124.6 257.3 125.1 256.5C128.1 251.5 128.3 229.6 128.2 221.5C128.2 220.7 128.8 220 129.7 220C130.5 220 131.2 220.7 131.2 221.5C131.3 224.5 131.6 251.4 127.7 258C127.4 258.5 126.9 258.8 126.4 258.8Z" fill="#4971B7"/>
<path d="M121.7 270.4C120.9 270.4 120.3 269.8 120.2 269.1C120.1 268.3 120.7 267.5 121.5 267.4C121.6 267.4 132 266.2 137.8 263.2C138.5 262.8 139.4 263.1 139.8 263.8C140.2 264.5 139.9 265.4 139.2 265.8C132.9 269.1 122.3 270.2 121.9 270.3C121.8 270.4 121.8 270.4 121.7 270.4Z" fill="#4971B7"/>
<path d="M192.4 178.8L163.9 128C161.2 121.5 146.8 118.4 146.8 118.4L154.5 153.8L173.5 179.3L159.2 206.1C159.9 205.9 163.3 220.4 163.3 220.4C163.3 220.4 190.7 187.4 192.1 184.5C193.8 180.9 192.4 178.8 192.4 178.8Z" fill="#FF896C"/>
<path d="M144.3 117.8C144.3 117.8 156.5 120.6 160.8 124.1C165.1 127.6 175.3 143.6 175.3 143.6L154 156.4L144.3 146.3V117.8Z" fill="#E3E829"/>
<path d="M146.4 118.4C146.4 118.4 160.9 150.7 159.8 159.1C158.9 169.1 151.7 173.6 151.6 177.1C150.5 178.9 147.8 208.1 145.7 209.8C144.9 210.9 111.9 211.7 103.9 209.6C100.1 206.6 92.7 158.5 92.7 158.5C92.7 158.5 88.3 121.7 96.1 118.6C103.2 115.9 121.7 110.3 146.4 118.4Z" fill="#E3E829"/>
<path d="M92.2 123C92.2 123 84.4 125.3 82.2 127.4C70.4 138.3 33.4 173.4 34.9 184.8C34.9 184.8 45.7 195.7 85.6 222.3C85.6 222.3 91.7 221.5 94.6 209.3L59.4 181.6L96.4 150.5L92.2 123Z" fill="#FF896C"/>
<path d="M99.8 200.4C99.8 200.4 104.5 192.5 107 192C109.4 191.4 119 192.1 118.7 194.7C118.4 197.3 114.6 198 109.8 198.3C109.8 198.3 119.5 198.9 120.9 200.9C122.3 202.9 121 204.2 117.7 204.6C117.7 204.6 121.1 205 121.1 206.7C121.1 208.4 120.1 209.4 117.3 209.8C114.6 210.2 108.5 210.6 107.7 210.9C106.9 211.2 105.1 212.3 105.1 212.3C105.1 212.3 111.9 211.5 113.3 212.6C114.7 213.7 114.2 214.7 114.1 215.1C114 215.5 112.4 216.4 109.3 216.6C106.1 216.8 102.9 218.6 102.9 218.6C102.9 218.6 100.6 223 96.9 224.6C93.2 226.2 89.4 227.5 86.2 223.7C83 219.8 89 208.9 91 207C93 205.1 94 203.7 99.8 200.4Z" fill="#FF896C"/>
<path d="M101.7 116.8C101.7 116.8 90.6 119.6 84.7 122.5C78.8 125.4 65.2 138.8 65.2 138.8L88.7 160.8L103 151.8L101.7 116.8Z" fill="#E3E829"/>
<path d="M150.9 193.5C150.9 193.5 144.7 192.2 142.8 194.5C140.9 196.8 144.2 198.4 146.8 199.1C149.4 199.8 151.9 200.6 151.9 200.6C151.9 200.6 145.3 201.5 142.6 204.2C139.9 206.9 144.2 208.2 144.2 208.2C144.2 208.2 138.6 208.8 139.5 211.1C140.4 213.4 144.1 213.8 146.8 214.8C149.5 215.8 149.5 215.8 149.5 215.8C149.5 215.8 143.8 215.1 144.1 218.2C144.3 220.5 151.5 221 151.5 221C151.5 221 152.1 222.1 153.2 224C155.9 229.2 161 226.9 163.6 219.8C164 215.4 162.5 209.6 162.5 209.6C162.5 209.6 158 201.9 155.9 201.5C154.9 201.3 156.9 194.5 150.9 193.5Z" fill="#FF896C"/>
<path d="M149.3 196.2L147.7 204.7L153.9 202.8L154 196.3L149.3 196.2Z" fill="#FF896C"/>
<path d="M113.4 94.8C113.4 94.8 112.1 114.4 113.4 118C114.7 121.6 130.8 123.5 130.5 116C130.2 108.2 129.4 94.8 129.4 94.8H113.4Z" fill="#FF896C"/>
<path d="M124.4 131.1C136.9 131.3 142.9 121.1 142.1 117.1C123.7 112 109.2 114.5 100.8 117C101.9 120.7 111.2 130.9 124.4 131.1Z" fill="#FF896C"/>
<path d="M76.3 26.9C65.2 24.7 54.3 32.1 52.1 43.4C49.9 54.7 57.1 65.7 68.2 67.9C79.3 70.1 90.1 62.7 92.4 51.4C94.6 40.1 87.4 29.2 76.3 26.9Z" fill="#0033A0"/>
<path d="M105.475 69.0448C110.614 62.6179 109.535 53.2139 103.065 48.0404C96.595 42.8668 87.184 43.8829 82.045 50.3098C76.9059 56.7366 77.9849 66.1406 84.4549 71.3142C90.9249 76.4877 100.336 75.4716 105.475 69.0448Z" fill="#E0AEAF"/>
<path d="M80.7 71.3C83.3 86.7 98.7 97 115.1 94.2C131.5 91.4 143.8 76.3 141.3 60.9C138.7 45.5 122.3 35.5 105.8 38.3C89.3 41.1 78.1 55.8 80.7 71.3Z" fill="#0033A0"/>
<path d="M125.7 44.2C125.7 44.2 134.1 50.2 137.4 58.4C140.7 66.6 140.2 71.1 141.3 72C142.4 73 148.1 72.7 149.3 74.2C150.5 75.7 150.2 79.9 148.2 81.7C148.2 81.7 148.6 91.9 146.2 96.3C144.7 99.6 141 101.4 137.9 101.6C136.6 101.7 119.9 103.3 111.7 93.2C103.5 83.1 125.7 44.2 125.7 44.2Z" fill="#FF896C"/>
<path d="M134.9 72.2C135.4 73.5 136.2 74.5 136.9 74.2C137.5 74 137.7 72.7 137.2 71.4C136.7 70.1 135.9 69.1 135.2 69.4C134.6 69.6 134.4 70.9 134.9 72.2Z" fill="#0033A0"/>
<path d="M131.071 67.5763C133.839 66.1969 135.644 64.1972 135.102 63.1097C134.56 62.0223 131.877 62.2589 129.108 63.6383C126.34 65.0177 124.536 67.0175 125.078 68.1049C125.62 69.1924 128.303 68.9557 131.071 67.5763Z" fill="#0033A0"/>
<path d="M139.7 87.1C137.7 87.2 134.9 87.1 132.5 85.8C132 85.5 131.8 84.9 132.1 84.4C132.4 83.9 133 83.7 133.5 84C137 85.9 141.8 84.8 141.8 84.8C142.3 84.7 142.9 85 143 85.5C143.1 86 142.8 86.6 142.3 86.7C142.1 86.8 141.1 87 139.7 87.1Z" fill="#BF584B"/>
<path d="M132.2 46.3C132.2 46.3 135.2 64.1 121.3 74.3C107.4 84.5 112.6 89.6 112.6 89.6L104.2 93.3C104.2 93.3 76.1 80.4 90.3 52.8C99.2 36.8 128.6 39.9 132.2 46.3Z" fill="#0033A0"/>
<path d="M113.1 82.7C108.2 78.3 103.3 80.9 101.4 83.9C99.6 86.9 100.3 90.4 102.5 93C104.5 95.4 107.5 96.9 110.6 97.1C112.5 97.3 115.3 97.1 117.7 95" fill="#FF896C"/>
<path d="M107.3 84.7C107 84.7 106.8 84.7 106.6 84.9C106.4 85.1 106.3 85.3 106.2 85.5C106.1 86 106.5 86.5 107 86.6C112.4 87.2 111.9 92.1 111.9 92.3C111.8 92.8 112.2 93.3 112.8 93.4H112.9C113 93.4 113 93.4 113.1 93.4C113.5 93.3 113.8 93 113.9 92.6C113.9 92.5 114.6 85.6 107.3 84.7Z" fill="#BF584B"/>
<path d="M190.5 63.4C200.828 63.4 209.2 55.0277 209.2 44.7C209.2 34.3723 200.828 26 190.5 26C180.172 26 171.8 34.3723 171.8 44.7C171.8 55.0277 180.172 63.4 190.5 63.4Z" fill="#CF4143"/>
<path d="M193.6 52.8L192.8 49.6H187.6L186.8 52.8H181.2L187.2 35.5H193.7L199.3 52.8H193.6ZM190.3 39.3H190.2C190.2 39.5 190.1 39.8 190 40.3C189.9 40.7 189.4 42.6 188.5 46H191.8L190.6 41.3C190.5 40.5 190.4 39.9 190.3 39.3Z" fill="white"/>
<path d="M246.1 90C256.428 90 264.8 81.6277 264.8 71.3C264.8 60.9722 256.428 52.6 246.1 52.6C235.772 52.6 227.4 60.9722 227.4 71.3C227.4 81.6277 235.772 90 246.1 90Z" fill="#E5A700"/>
<path d="M254.6 74.8C254.6 76.5 254 77.8 252.8 78.7C251.6 79.6 249.9 80.1 247.7 80.1H239.8V62.8H247.2C251.8 62.8 254.1 64.2 254.1 67C254.1 67.6 254 68.2 253.7 68.7C253.4 69.2 253 69.6 252.4 70C251.8 70.4 251.2 70.6 250.4 70.8C251.2 70.9 252 71.1 252.6 71.5C253.3 71.9 253.8 72.4 254.1 73C254.4 73.6 254.6 74.2 254.6 74.8ZM248.5 67.9C248.5 66.8 247.7 66.3 246 66.3H245V69.6H246.5C247.1 69.6 247.6 69.4 247.9 69.1C248.3 68.8 248.5 68.4 248.5 67.9ZM249 74.8C249 74.3 248.8 73.9 248.5 73.6C248.1 73.3 247.7 73.1 247.1 73.1H245V76.6H246.7C247.4 76.6 248 76.4 248.4 76.1C248.8 75.8 249 75.3 249 74.8Z" fill="white"/>
<path d="M290.5 195.3C300.773 195.3 309.1 186.928 309.1 176.6C309.1 166.272 300.773 157.9 290.5 157.9C280.228 157.9 271.9 166.272 271.9 176.6C271.9 186.928 280.228 195.3 290.5 195.3Z" fill="#5DA6E3"/>
<path d="M299.9 176.5C299.9 178.3 299.5 179.8 298.8 181.2C298.1 182.6 297 183.6 295.6 184.3C294.2 185 292.7 185.4 290.9 185.4H283.6V168H290.8C296.9 168 299.9 170.8 299.9 176.5ZM294.4 176.5C294.4 175.7 294.2 174.9 293.9 174.2C293.6 173.5 293.1 173 292.4 172.6C291.8 172.2 291 172 290.2 172H288.9V181.2H290.4C291.6 181.2 292.6 180.8 293.4 179.9C294 179.1 294.4 178 294.4 176.5Z" fill="white"/>
<path d="M273.8 253.6C284.128 253.6 292.5 245.228 292.5 234.9C292.5 224.572 284.128 216.2 273.8 216.2C263.472 216.2 255.1 224.572 255.1 234.9C255.1 245.228 263.472 253.6 273.8 253.6Z" fill="#477FC9"/>
<path d="M268.4 243.7V226.4H279.2V230.5H273.6V233H278.8V237.1H273.6V239.6H279.6V243.7H268.4V243.7Z" fill="white"/>
<path d="M281.5 137C291.828 137 300.2 128.628 300.2 118.3C300.2 107.972 291.828 99.6 281.5 99.6C271.172 99.6 262.8 107.972 262.8 118.3C262.8 128.628 271.172 137 281.5 137Z" fill="#A1C619"/>
<path d="M287.4 126.2C286 126.7 284.3 127 282.4 127C280.6 127 279 126.6 277.6 125.9C276.3 125.2 275.2 124.2 274.5 122.9C273.8 121.6 273.4 120.1 273.4 118.4C273.4 116.6 273.8 114.9 274.6 113.5C275.4 112.1 276.5 111 277.9 110.2C279.3 109.4 281 109 282.9 109C284.4 109 285.8 109.2 287.3 109.5V114.3C286.8 114 286.2 113.8 285.6 113.6C284.9 113.4 284.3 113.4 283.6 113.4C282.2 113.4 281.1 113.8 280.2 114.6C279.4 115.4 279 116.5 279 117.9C279 119.3 279.4 120.4 280.2 121.2C281 122 282.1 122.4 283.5 122.4C284.8 122.4 286 122.1 287.3 121.4V126.2H287.4Z" fill="white"/>
</g>
<defs>
<clipPath id="clip0">
<rect width="287" height="278.4" fill="white" transform="translate(22 26)"/>
</clipPath>
</defs>
</svg>
