<svg width="331" height="331" viewBox="0 0 331 331" fill="none" xmlns="http://www.w3.org/2000/svg">
<g clip-path="url(#clip0)">
<path d="M157 303.1C158 303.2 159.1 303.2 160.1 303.3C159.5 297.5 159.2 293.2 159.2 293.2C159.2 293.2 158.1 297.8 157 303.1Z" fill="#F3F3F3"/>
<path d="M299.6 169.5C299.6 95.6 239.7 35.7 165.8 35.7C91.9 35.7 32 95.6 32 169.5C32 225.2 66 273 114.4 293.1C120.6 252.5 139.1 215.8 140.9 215.5C143.3 215.1 184.2 219.4 184.2 219.4C190.6 223.9 203.4 244.4 206.6 253.7C212.2 269.8 210.1 283.7 207.9 296.6C261.2 279 299.6 228.7 299.6 169.5Z" fill="#F3F3F3"/>
<path d="M206.6 253.7C203.4 244.5 190.5 223.9 184.2 219.4C184.2 219.4 143.4 215.1 140.9 215.5C139.1 215.8 120.6 252.5 114.4 293.1C127.7 298.6 142 302.1 157 303C158.1 297.7 159.2 293.1 159.2 293.1C159.2 293.1 159.5 297.3 160.1 303.2C162 303.3 163.9 303.3 165.8 303.3C180.5 303.3 194.7 300.9 207.9 296.5C210.1 283.7 212.2 269.8 206.6 253.7Z" fill="#5B7FCF"/>
<path d="M196.7 131C196.7 131 178.7 119.1 144.7 129.2C104.6 141.2 169.7 157.6 169.7 157.6L196.7 131Z" fill="#FF896C"/>
<path d="M178.8 138.5L179.7 107.7L162.7 107.2L161.8 138" fill="#FF896C"/>
<path d="M110.5 186.6L111.2 182.9L103 182.2L110.5 186.6Z" fill="#514A3B"/>
<path d="M170 226.4C166.9 226.4 163.1 226.3 158.4 226C143.9 225.1 140.3 223.4 139.9 223.2C139.2 222.8 138.9 221.9 139.3 221.2C139.7 220.5 140.6 220.2 141.3 220.6C141.3 220.6 144.8 222.2 158.6 223.1C176.2 224.2 181.3 222.7 181.4 222.6C182.2 222.3 183 222.8 183.3 223.6C183.6 224.4 183.1 225.2 182.3 225.5C182.2 225.5 179.2 226.4 170 226.4Z" fill="#0033A0"/>
<path d="M177.7 222.3H174.7V229.8H177.7V222.3Z" fill="#5B7FCF"/>
<path d="M145.5 220.1H142.5V227.6H145.5V220.1Z" fill="#5B7FCF"/>
<path d="M157.5 265.8C157 265.8 156.4 265.5 156.2 265C152.7 258.1 154.6 231.3 154.8 228.3C154.9 227.5 155.6 226.9 156.4 226.9C157.2 227 157.8 227.7 157.8 228.5C157.2 236.5 156.2 258.4 158.9 263.6C159.3 264.3 159 265.2 158.2 265.6C158 265.8 157.8 265.8 157.5 265.8Z" fill="#4971B7"/>
<path d="M160.9 292.9C160.2 292.9 159.5 292.4 159.4 291.6C158.1 283.7 158.1 275.7 158.1 272.7C156.1 272.2 151.8 270.9 147.1 268.5C146.4 268.1 146.1 267.2 146.5 266.5C146.9 265.8 147.8 265.5 148.5 265.9C154.4 268.9 159.9 270.1 159.9 270.1L161.1 270.4V271.7C161.1 271.8 160.8 281.8 162.3 291.3C162.4 292.1 161.9 292.9 161.1 293C161.1 292.9 161 292.9 160.9 292.9Z" fill="#4971B7"/>
<path d="M149.9 98.8C146.8 100.2 142.9 98.1 141 94.1C139.2 90.1 140.2 85.7 143.3 84.3C146.4 82.9 150.3 85 152.2 89C153.9 93 152.9 97.4 149.9 98.8Z" fill="#BF584B"/>
<path d="M189.6 28.7C200.1 25.9 210.9 32.2 213.8 42.8C216.6 53.4 210.4 64.3 199.9 67.1C189.4 69.9 178.6 63.6 175.7 53C172.9 42.4 179.1 31.5 189.6 28.7Z" fill="#0033A0"/>
<path d="M188.175 77.4016C195.803 75.3538 200.338 67.5535 198.304 59.9793C196.271 52.4051 188.439 47.9251 180.811 49.9729C173.184 52.0208 168.649 59.821 170.682 67.3953C172.716 74.9695 180.548 79.4495 188.175 77.4016Z" fill="#EDB4B4"/>
<path d="M203.498 81.1976C205.061 65.4247 192.472 51.2654 175.38 49.572C158.288 47.8787 143.165 59.2924 141.603 75.0653C140.04 90.8382 152.629 104.997 169.721 106.691C186.813 108.384 201.935 96.9705 203.498 81.1976Z" fill="#0033A0"/>
<path d="M142.9 96.2C144 90.1 145.1 82.7 145.7 78.4C145.8 77.2 145.9 76 146.2 74.9V74.8V74.7C148.6 63 158.5 54.1 170.5 53.8C184.6 53.4 196.4 65 196.8 79.6C197.1 89 192.6 97.3 185.6 102.2C181.6 112.2 168.9 117 158.5 116.4C147.7 114.2 141.8 101.8 142.9 96.2Z" fill="#FF896C"/>
<path d="M152.3 93.5C152.9 92.8 153.8 92.9 154.3 93C154.5 93 154.8 93.1 154.9 93C155 92.9 155.1 92.5 155.1 92.3C155.1 91.8 155.6 91.3 156.1 91.3C156.7 91.3 157.1 91.8 157.1 92.3C157.1 92.5 157 93.8 156.2 94.5C155.5 95.1 154.7 95 154.1 94.9C154 94.9 153.9 94.9 153.8 94.9C153.7 95.2 153.8 96.2 154.3 96.9C154.6 97.3 154.6 98 154.1 98.3C153.9 98.5 153.6 98.5 153.4 98.5C153.1 98.5 152.9 98.3 152.7 98.1C151.7 96.9 151.3 94.7 152.3 93.5Z" fill="#BF584B"/>
<path d="M155.188 78.5852C155.328 77.4338 153.22 76.2296 150.478 75.8955C147.737 75.5614 145.401 76.2238 145.261 77.3752C145.12 78.5265 147.229 79.7307 149.97 80.0648C152.711 80.399 155.047 79.7365 155.188 78.5852Z" fill="#0033A0"/>
<path d="M156.2 87.7C156 88.8 154.9 89.6 153.8 89.4C152.7 89.2 151.9 88.1 152.1 87C152.3 85.9 153.4 85.1 154.5 85.3C155.6 85.4 156.4 86.5 156.2 87.7Z" fill="#0033A0"/>
<path d="M169.8 89.4C169.6 90.6 168.4 91.4 167.2 91.2C166 91 165.2 89.8 165.4 88.6C165.6 87.4 166.8 86.6 168 86.8C169.2 87.1 170 88.2 169.8 89.4Z" fill="#0033A0"/>
<path d="M176.412 81.3235C176.65 80.0757 174.16 78.553 170.85 77.9223C167.541 77.2916 164.665 77.7919 164.428 79.0397C164.19 80.2874 166.68 81.8102 169.989 82.4409C173.298 83.0715 176.174 82.5713 176.412 81.3235Z" fill="#0033A0"/>
<path d="M154.6 102.6C154.8 102.5 155.1 102.5 155.4 102.6C161.2 105.1 166.5 101.5 166.6 101.5C167 101.2 167.7 101.3 168 101.7C168.3 102.1 168.2 102.8 167.8 103.1C167.6 103.2 163.7 105.9 158.6 105.4C157.3 105.3 156 104.9 154.7 104.4C154.5 104.3 154.3 104.1 154.2 103.9C154.1 103.7 154.1 103.4 154.2 103.1C154.2 102.9 154.4 102.7 154.6 102.6Z" fill="#BF584B"/>
<path d="M157.2 57.1C157.2 57.1 158.1 75.4 174.2 82.6C190.3 89.8 186.2 95.9 186.2 95.9L197.6 94C197.6 94 206.4 72.5 193.4 59.1C180.4 45.7 158.2 51.5 157.2 57.1Z" fill="#0033A0"/>
<path d="M185.7 92.8C189.4 88.9 194.5 90.2 196.4 92.9C198.3 95.6 197.9 99 196 101.6C194.2 104 191.5 105.6 188.5 106C186.7 106.3 184.9 106.1 183.2 105.5" fill="#FF896C"/>
<path d="M190.9 93.9C191.4 93.8 192 94.2 192.1 94.7C192.2 95.2 191.8 95.8 191.3 95.9C186.3 96.8 187 101.3 187 101.5C187.1 102 186.7 102.6 186.2 102.6C186.1 102.6 186 102.6 185.9 102.6C185.5 102.6 185.1 102.2 185 101.8C185 101.8 184 95.2 190.9 93.9Z" fill="#BF584B"/>
<path d="M129.6 135.9C120.1 138.9 103.4 142.9 96.2 144.5C96.8 141.4 102.9 127.6 110.1 115.3C112.2 111.6 114 108.7 115.6 106.4L105 95.2C103 97.9 97.8 104.6 95.2 108.4C75.4 136.6 68.6 146.6 71.3 154.7C71.5 155.3 71.7 155.8 72 156.4C74 160.6 77.6 163.6 82.3 164.8C93.7 167.6 135.3 156.9 131.8 157.4L129.6 135.9Z" fill="#FF896C"/>
<path d="M116.5 138.8C116.5 138.8 129.4 132.2 135.9 131.2C138.7 130.2 144.9 129 149 128.1C149.5 130.8 146.9 142.2 163.3 144.9C179.9 147.7 188.4 131 188.3 127.1C196.7 129.5 204.8 132.5 207 134.8C213.9 141.1 214.6 160.2 214.6 160.2L193.3 162.6L195.9 174.9C189.6 200.3 185.8 219 184 219.1C180.8 219.3 168.1 220.7 158.8 219.8C148.4 218.8 140.9 217.5 140.4 216.8C139.3 214.3 139.2 204.2 138.3 188.5C137.8 186.2 136.1 183.6 134.9 181.8C133.5 179.8 128.9 171.1 132.1 159.7L116.5 138.8Z" fill="#E3E829"/>
<path d="M138.1 182.5L123.5 184.4C121.4 184.7 119.3 184.4 117.4 183.5L90.3 171.2C88.4 170.3 88.8 167.5 90.9 167.3L105.5 165.4C107.6 165.1 109.7 165.4 111.6 166.3L138.7 178.6C140.6 179.4 140.2 182.2 138.1 182.5Z" fill="#0051BD"/>
<path d="M88.3 173.5L98.3 174L89.1 169.1L88.3 173.5Z" fill="#0051BD"/>
<path d="M137.3 186.6L122.7 188.5C120.6 188.8 118.5 188.5 116.6 187.6L89.5 175.3C87.6 174.4 88 171.6 90.1 171.4L104.7 169.5C106.8 169.2 108.9 169.5 110.8 170.4L137.9 182.7C139.8 183.5 139.4 186.3 137.3 186.6Z" fill="#0033A0"/>
<path d="M100.6 180.5C101.5 179.5 104.4 179.7 106 181C107.9 182.6 110.2 184 112.5 185.2C110.6 184 108.7 182.6 107 180.9C105.5 179.5 104.6 178.2 105.5 177.3C106.4 176.4 109.3 176.6 110.8 178C114.6 181.5 119.7 183.7 125.5 184.4H125.4C128.1 184.5 129.6 182.2 128.3 181.6C127 180.9 123.7 180.4 122.6 178C121.5 175.6 122.8 174.3 124.1 174.3C125.4 174.3 128.9 176.2 131.5 176.7C133.1 177 136.6 177.6 138.9 178.9C143.4 181 147.4 184.1 147.4 184.1C150.3 185.3 152.7 186.1 159.1 187.9C173.4 192 190.4 192.6 190.4 192.6L189.3 162.8L212 160.4L210.6 204.7C210.6 204.7 209.9 212.8 203.9 214.2C199.5 216.2 172 209.3 156.9 202.9C154 201.9 145.7 198.5 144 198.8C139.9 199.6 135.8 199.6 133.5 199.5C133.4 199.5 133.4 199.5 133.3 199.5C133.1 199.5 132.9 199.5 132.8 199.5C132.7 199.5 132.5 199.5 132.4 199.5C131.9 199.5 131.6 199.4 131.6 199.4C130.7 199.3 129.6 199.1 128.3 198.8C119.4 196.9 108.1 188.7 108.1 188.7C106.1 187.4 104.1 185.9 102.2 184.3C100.7 182.8 99.7 181.5 100.6 180.5Z" fill="#FF896C"/>
<path d="M96.2 122.3C96.2 122.3 96 108.2 96.1 107.9C96.9 104.8 100 100.4 102.5 97.9C105 95.4 108.8 89.3 109.4 88.1C110.5 85.8 110.5 82.3 111.4 81.7C113.2 80.7 114.8 82.8 115 83.6C115.2 84.3 116.4 86.5 114.9 90.2C113.3 93.9 111.8 96.3 112.2 97.4C112.7 98.4 116.5 99.5 118 99.5C119.5 99.6 123.8 99.9 126.3 101.2C127.1 101.6 130.2 103 129.3 105.5C128.6 107.5 125.6 107.3 125.6 107.3C125.6 107.3 128.7 108.2 127.7 111.3C127.1 113.3 124.7 113.1 124.7 113.1C124.7 113.1 126.5 114 125.6 116.5C125 118.3 122.7 118.9 122.7 118.9C122.7 118.9 123.2 119.1 123 120.9C122.8 122.7 120.2 123.7 118.7 123.6C117.2 123.5 107.4 124.6 104.9 125C102.3 125.4 101.2 123.8 97.9 122.2C97.4 122 96.9 122 96.2 122.3Z" fill="#FF896C"/>
<path d="M96.2 122.3C96.2 122.3 96 108.2 96.1 107.9C96.9 104.8 100 100.4 102.5 97.9C105 95.4 108.8 89.3 109.4 88.1C110.5 85.8 110.5 82.3 111.4 81.7C113.2 80.7 114.8 82.8 115 83.6C115.2 84.3 116.4 86.5 114.9 90.2C113.3 93.9 111.8 96.3 112.2 97.4C112.7 98.4 116.5 99.5 118 99.5C119.5 99.6 123.8 99.9 126.3 101.2C127.1 101.6 130.2 103 129.3 105.5C128.6 107.5 125.6 107.3 125.6 107.3C125.6 107.3 128.7 108.2 127.7 111.3C127.1 113.3 124.7 113.1 124.7 113.1C124.7 113.1 126.5 114 125.6 116.5C125 118.3 122.7 118.9 122.7 118.9C122.7 118.9 123.2 119.1 123 120.9C122.8 122.7 120.2 123.7 118.7 123.6C117.2 123.5 107.4 124.6 104.9 125C102.3 125.4 101.2 123.8 97.9 122.2C97.4 122 96.9 122 96.2 122.3Z" fill="#FF896C"/>
</g>
<defs>
<clipPath id="clip0">
<rect width="267.6" height="275.4" fill="white" transform="translate(32 28)"/>
</clipPath>
</defs>
</svg>
