<?xml version="1.0" encoding="utf-8"?>
<!-- Generator: Adobe Illustrator 22.1.0, SVG Export Plug-In . SVG Version: 6.00 Build 0)  -->
<svg version="1.1" id="Capa_1" xmlns="http://www.w3.org/2000/svg" xmlns:xlink="http://www.w3.org/1999/xlink" x="0px" y="0px"
	 viewBox="0 0 61.7 79.5" style="enable-background:new 0 0 61.7 79.5;" xml:space="preserve">
<style type="text/css">
	.st0{fill:#E3F7FA;}
	.st1{fill:#00AEC7;}
</style>
<g>
	<path id="Trazado_66_2_" class="st0" d="M137.4,31.4h-11.1c-2.8,0-5-2.3-5-5c0,0,0,0,0,0V15.2L137.4,31.4z"/>
	<path id="Trazado_67_2_" class="st1" d="M94.5,37.9c-0.9,0-1.6,0.7-1.6,1.6c0,0.9,0.7,1.6,1.6,1.6c0.9,0,1.6-0.7,1.6-1.6
		c0-0.4-0.2-0.8-0.5-1.1C95.3,38.1,94.9,37.9,94.5,37.9z"/>
	<path id="Trazado_68_2_" class="st1" d="M94.5,49.1c-0.9,0-1.6,0.7-1.6,1.6c0,0.9,0.7,1.6,1.6,1.6c0.9,0,1.6-0.7,1.6-1.6
		c0-0.4-0.2-0.8-0.5-1.1C95.3,49.2,94.9,49.1,94.5,49.1z"/>
	<path id="Trazado_69_2_" class="st1" d="M94.5,60.3c-0.9,0-1.6,0.7-1.6,1.6c0,0.9,0.7,1.6,1.6,1.6c0.9,0,1.6-0.7,1.6-1.6
		c0-0.4-0.2-0.8-0.5-1.1C95.3,60.4,94.9,60.3,94.5,60.3z"/>
	<path id="Trazado_70_2_" class="st1" d="M125.3,37.9h-24.1c-0.9,0-1.6,0.7-1.6,1.5c0,0.9,0.7,1.6,1.5,1.6c0,0,0.1,0,0.1,0h24.1
		c0.9,0,1.5-0.7,1.5-1.6C126.8,38.6,126.2,37.9,125.3,37.9L125.3,37.9z"/>
	<path id="Trazado_71_2_" class="st1" d="M125.3,49.1h-24.1c-0.9,0-1.6,0.7-1.6,1.5c0,0.9,0.7,1.6,1.5,1.6c0,0,0.1,0,0.1,0h24.1
		c0.9,0,1.5-0.7,1.5-1.6C126.8,49.8,126.2,49.1,125.3,49.1L125.3,49.1z"/>
	<path id="Trazado_72_2_" class="st1" d="M125.3,60.3h-24.1c-0.9,0-1.5,0.7-1.5,1.6c0,0.8,0.7,1.5,1.5,1.5h24.1
		c0.9,0,1.5-0.7,1.5-1.6C126.8,60.9,126.2,60.3,125.3,60.3L125.3,60.3z"/>
	<path id="Trazado_73_2_" class="st1" d="M138.9,31.3C138.9,31.3,138.9,31.3,138.9,31.3C138.9,31.3,138.9,31.2,138.9,31.3
		c0-0.4-0.2-0.8-0.5-1l-16.2-16.2c-0.3-0.3-0.6-0.4-1-0.5h-0.1h-10.5v-2.8c0-6-4.9-10.9-10.9-10.9S89,4.9,89,10.9v2.8h-3.4
		c-3.4,0-6.2,2.8-6.2,6.2v53.4c0,3.4,2.8,6.2,6.2,6.2h47.2c3.4,0,6.2-2.8,6.2-6.2L138.9,31.3C138.9,31.3,138.9,31.3,138.9,31.3z
		 M122.8,19l10.8,10.8h-7.4c-1.9,0-3.5-1.6-3.5-3.5L122.8,19L122.8,19z M92.1,10.9c0-4.3,3.5-7.8,7.8-7.8c4.3,0,7.8,3.5,7.8,7.8
		c0,0,0,0,0,0v14.2c0,2.6-2.1,4.7-4.7,4.7s-4.7-2.1-4.7-4.7V10.8c0-0.9,0.7-1.7,1.6-1.7c0.9,0,1.7,0.7,1.7,1.6c0,0,0,0.1,0,0.1v14.1
		c0,0.9,0.7,1.6,1.5,1.6c0.9,0,1.6-0.7,1.6-1.5c0,0,0-0.1,0-0.1V10.8c0-2.6-2.1-4.8-4.8-4.8S95,8.1,95,10.8v2.9h-3V10.9z
		 M132.7,76.4H85.5c-1.7,0-3.1-1.4-3.1-3.1V19.9c0-1.7,1.4-3.1,3.1-3.1H95v8.3c-0.1,4.3,3.4,7.9,7.7,7.9c4.3,0.1,7.9-3.4,7.9-7.7
		c0-0.1,0-0.1,0-0.2v-8.3h9v9.5c0,3.6,3,6.6,6.6,6.6h9.5v40.4C135.8,75,134.4,76.4,132.7,76.4z"/>
</g>
<g>
	<path class="st0" d="M27.9,9.4c-6.8,0-12.3,5.5-12.3,12.3c0,5.2,3.2,9.6,7.8,11.4V21.8c0-2.5,2-4.5,4.5-4.5c2.5,0,4.5,2,4.5,4.5
		v11.3c4.5-1.8,7.8-6.2,7.8-11.4C40.2,14.9,34.7,9.4,27.9,9.4z"/>
	<g id="Grupo_103_1_" transform="translate(-1064.044 -362.582)">
		<g id="Grupo_98_1_" transform="translate(1095.904 371.097) rotate(45)">
			<g id="Grupo_97_1_">
				<path id="Trazado_74_1_" class="st1" d="M58.4,17.5L46.2,4c-2.4-2.4-6.4-2.4-8.8,0c-0.7,0.7-1.3,1.7-1.6,2.7
					c-2.7-2.1-6.6-1.5-8.7,1.2c-0.5,0.6-0.8,1.3-1,2.1c-2.5-1.9-6-1.6-8.2,0.6c-0.7,0.7-1.3,1.6-1.6,2.6l-5.8-5.8
					C8.1,5,4.2,5,1.8,7.4s-2.4,6.4,0,8.8l22.1,22.1l-13.1,2.1c-3.6,0.5-6.2,3.6-6.2,7.2c0,2.7,2.2,4.9,4.9,4.9h30.6
					c4.7,0,9.3-1.9,12.6-5.2l5.1-5.1C64.6,35.4,64.8,24.5,58.4,17.5L58.4,17.5z M55.5,39.8l-5.1,5.1c-2.7,2.8-6.5,4.3-10.3,4.3H9.4
					c-0.9,0-1.6-0.7-1.6-1.6l0,0c0-2,1.5-3.7,3.5-4l16.3-2.6c0.9-0.1,1.5-1,1.3-1.9c-0.1-0.3-0.2-0.7-0.5-0.9L4.1,13.9
					c-1.1-1.2-1.1-3.1,0.1-4.2c1.2-1.1,3-1.1,4.2,0L24.5,26c0.6,0.7,1.6,0.7,2.3,0.1c0.7-0.6,0.7-1.6,0.1-2.3c0,0,0,0-0.1-0.1
					L20.2,17c-1.1-1.2-1.1-3.1,0.1-4.2c1.2-1.1,3-1.1,4.2,0l6.6,6.6c0.6,0.7,1.6,0.7,2.3,0.1c0.7-0.6,0.7-1.6,0.1-2.3
					c0,0,0,0-0.1-0.1l-3.4-3.4c-1.1-1.2-1.1-3.1,0.1-4.2c1.2-1.1,3-1.1,4.2,0l3.4,3.4c0,0,0,0,0,0l0,0l0,0l0,0l0,0l0,0
					c0.7,0.6,1.7,0.6,2.3-0.1c0.6-0.6,0.6-1.6,0-2.2l-0.1-0.1c-1.2-1.2-1.2-3,0-4.2c1.1-1.1,3-1.2,4.1-0.1L56,19.6
					C61.2,25.4,61,34.3,55.5,39.8z"/>
			</g>
		</g>
		<g id="Grupo_100_1_" transform="translate(1093.76 362.582) rotate(45)">
			<g id="Grupo_99_1_">
				<path id="Trazado_75_1_" class="st1" d="M27,10.3C23.7,3,15.1-0.3,7.7,3C0.3,6.3-2.9,15,0.4,22.3c1.5,3.3,4.1,5.9,7.3,7.3
					c0.8,0.4,1.8,0,2.2-0.8s0-1.8-0.8-2.2c0,0,0,0-0.1,0c-5.7-2.6-8.3-9.3-5.7-15s9.3-8.3,15-5.7c2.5,1.1,4.6,3.2,5.7,5.7
					c0.4,0.8,1.3,1.2,2.1,0.8C27,12.1,27.4,11.2,27,10.3L27,10.3z"/>
			</g>
		</g>
	</g>
</g>
</svg>
