<?xml version="1.0" encoding="utf-8"?>
<!-- Generator: Adobe Illustrator 22.1.0, SVG Export Plug-In . SVG Version: 6.00 Build 0)  -->
<svg version="1.1" id="Capa_1" xmlns="http://www.w3.org/2000/svg" xmlns:xlink="http://www.w3.org/1999/xlink" x="0px" y="0px"
	 viewBox="0 0 59.6 79.5" style="enable-background:new 0 0 59.6 79.5;" xml:space="preserve">
<style type="text/css">
	.st0{fill:#E3F7FA;}
	.st1{fill:#00AEC7;}
</style>
<g>
	<path id="Trazado_66_2_" class="st0" d="M58.1,31.4H47c-2.8,0-5-2.3-5-5c0,0,0,0,0,0V15.2L58.1,31.4z"/>
	<path id="Trazado_67_2_" class="st1" d="M15.1,37.9c-0.9,0-1.6,0.7-1.6,1.6c0,0.9,0.7,1.6,1.6,1.6c0.9,0,1.6-0.7,1.6-1.6
		c0-0.4-0.2-0.8-0.5-1.1C16,38.1,15.6,37.9,15.1,37.9z"/>
	<path id="Trazado_68_2_" class="st1" d="M15.1,49.1c-0.9,0-1.6,0.7-1.6,1.6c0,0.9,0.7,1.6,1.6,1.6c0.9,0,1.6-0.7,1.6-1.6
		c0-0.4-0.2-0.8-0.5-1.1C16,49.2,15.6,49.1,15.1,49.1z"/>
	<path id="Trazado_69_2_" class="st1" d="M15.1,60.3c-0.9,0-1.6,0.7-1.6,1.6c0,0.9,0.7,1.6,1.6,1.6c0.9,0,1.6-0.7,1.6-1.6
		c0-0.4-0.2-0.8-0.5-1.1C16,60.4,15.6,60.3,15.1,60.3z"/>
	<path id="Trazado_70_2_" class="st1" d="M46,37.9H21.9c-0.9,0-1.6,0.7-1.6,1.5c0,0.9,0.7,1.6,1.5,1.6c0,0,0.1,0,0.1,0H46
		c0.9,0,1.5-0.7,1.5-1.6C47.5,38.6,46.8,37.9,46,37.9L46,37.9z"/>
	<path id="Trazado_71_2_" class="st1" d="M46,49.1H21.9c-0.9,0-1.6,0.7-1.6,1.5c0,0.9,0.7,1.6,1.5,1.6c0,0,0.1,0,0.1,0H46
		c0.9,0,1.5-0.7,1.5-1.6C47.5,49.8,46.8,49.1,46,49.1L46,49.1z"/>
	<path id="Trazado_72_2_" class="st1" d="M46,60.3H21.9c-0.9,0-1.5,0.7-1.5,1.6c0,0.8,0.7,1.5,1.5,1.5H46c0.9,0,1.5-0.7,1.5-1.6
		C47.5,60.9,46.8,60.3,46,60.3L46,60.3z"/>
	<path id="Trazado_73_2_" class="st1" d="M59.6,31.3C59.6,31.3,59.6,31.3,59.6,31.3C59.6,31.3,59.6,31.2,59.6,31.3
		c0-0.4-0.2-0.8-0.5-1L43,14.1c-0.3-0.3-0.6-0.4-1-0.5h-0.1H31.4v-2.8c0-6-4.9-10.9-10.9-10.9S9.6,4.9,9.6,10.9v2.8H6.2
		c-3.4,0-6.2,2.8-6.2,6.2v53.4c0,3.4,2.8,6.2,6.2,6.2h47.2c3.4,0,6.2-2.8,6.2-6.2L59.6,31.3C59.6,31.3,59.6,31.3,59.6,31.3z
		 M43.5,19l10.8,10.8H47c-1.9,0-3.5-1.6-3.5-3.5L43.5,19L43.5,19z M12.7,10.9c0-4.3,3.5-7.8,7.8-7.8c4.3,0,7.8,3.5,7.8,7.8
		c0,0,0,0,0,0v14.2c0,2.6-2.1,4.7-4.7,4.7s-4.7-2.1-4.7-4.7V10.8c0-0.9,0.7-1.7,1.6-1.7c0.9,0,1.7,0.7,1.7,1.6c0,0,0,0.1,0,0.1v14.1
		c0,0.9,0.7,1.6,1.5,1.6c0.9,0,1.6-0.7,1.6-1.5c0,0,0-0.1,0-0.1V10.8c0-2.6-2.1-4.8-4.8-4.8s-4.8,2.1-4.8,4.8v2.9h-3V10.9z
		 M53.4,76.4H6.2c-1.7,0-3.1-1.4-3.1-3.1V19.9c0-1.7,1.4-3.1,3.1-3.1h9.5v8.3c-0.1,4.3,3.4,7.9,7.7,7.9c4.3,0.1,7.9-3.4,7.9-7.7
		c0-0.1,0-0.1,0-0.2v-8.3h9v9.5c0,3.6,3,6.6,6.6,6.6h9.5v40.4C56.5,75,55.1,76.4,53.4,76.4z"/>
</g>
<g>
	<path class="st0" d="M-51.4,9.4c-6.8,0-12.3,5.5-12.3,12.3c0,5.2,3.2,9.6,7.8,11.4V21.8c0-2.5,2-4.5,4.5-4.5c2.5,0,4.5,2,4.5,4.5
		v11.3c4.5-1.8,7.8-6.2,7.8-11.4C-39.2,14.9-44.7,9.4-51.4,9.4z"/>
	<g id="Grupo_103_1_" transform="translate(-1064.044 -362.582)">
		<g id="Grupo_98_1_" transform="translate(1095.904 371.097) rotate(45)">
			<g id="Grupo_97_1_">
				<path id="Trazado_74_1_" class="st1" d="M2.3,73.6L-9.9,60.1c-2.4-2.4-6.4-2.4-8.8,0c-0.7,0.7-1.3,1.7-1.6,2.7
					c-2.7-2.1-6.6-1.5-8.7,1.2c-0.5,0.6-0.8,1.3-1,2.1c-2.5-1.9-6-1.6-8.2,0.6c-0.7,0.7-1.3,1.6-1.6,2.6l-5.8-5.8
					c-2.4-2.4-6.4-2.4-8.8,0c-2.4,2.4-2.4,6.4,0,8.8l22.1,22.1l-13.1,2.1c-3.6,0.5-6.2,3.6-6.2,7.2c0,2.7,2.2,4.9,4.9,4.9H-16
					c4.7,0,9.3-1.9,12.6-5.2l5.1-5.1C8.5,91.5,8.7,80.6,2.3,73.6L2.3,73.6z M-0.6,95.9l-5.1,5.1c-2.7,2.8-6.5,4.3-10.3,4.3h-30.6
					c-0.9,0-1.6-0.7-1.6-1.6l0,0c0-2,1.5-3.7,3.5-4l16.3-2.6c0.9-0.1,1.5-1,1.3-1.9c-0.1-0.3-0.2-0.7-0.5-0.9L-52,70
					c-1.1-1.2-1.1-3.1,0.1-4.2c1.2-1.1,3-1.1,4.2,0l16.3,16.3c0.6,0.7,1.6,0.7,2.3,0.1c0.7-0.6,0.7-1.6,0.1-2.3c0,0,0,0-0.1-0.1
					l-6.6-6.6c-1.1-1.2-1.1-3.1,0.1-4.2c1.2-1.1,3-1.1,4.2,0l6.6,6.6c0.6,0.7,1.6,0.7,2.3,0.1s0.7-1.6,0.1-2.3c0,0,0,0-0.1-0.1
					l-3.4-3.4c-1.1-1.2-1.1-3.1,0.1-4.2c1.2-1.1,3-1.1,4.2,0l3.4,3.4c0,0,0,0,0,0l0,0l0,0l0,0l0,0l0,0c0.7,0.6,1.7,0.6,2.3-0.1
					c0.6-0.6,0.6-1.6,0-2.2l-0.1-0.1c-1.2-1.2-1.2-3,0-4.2c1.1-1.1,3-1.2,4.1-0.1l12.2,13.4C5.1,81.5,4.9,90.4-0.6,95.9z"/>
			</g>
		</g>
		<g id="Grupo_100_1_" transform="translate(1093.76 362.582) rotate(45)">
			<g id="Grupo_99_1_">
				<path id="Trazado_75_1_" class="st1" d="M-29.1,66.4c-3.3-7.4-12-10.6-19.3-7.3c-7.4,3.3-10.6,12-7.3,19.3
					c1.5,3.3,4.1,5.9,7.3,7.3c0.8,0.4,1.8,0,2.2-0.8c0.4-0.8,0-1.8-0.8-2.2c0,0,0,0-0.1,0c-5.7-2.6-8.3-9.3-5.7-15
					c2.6-5.7,9.3-8.3,15-5.7c2.5,1.1,4.6,3.2,5.7,5.7c0.4,0.8,1.3,1.2,2.1,0.8C-29.1,68.2-28.7,67.3-29.1,66.4L-29.1,66.4z"/>
			</g>
		</g>
	</g>
</g>
</svg>
