<svg width="72" height="72" viewBox="0 0 72 72" fill="none" xmlns="http://www.w3.org/2000/svg">
<path fill-rule="evenodd" clip-rule="evenodd" d="M58.355 10.0552C58.4103 9.77027 58.4665 9.49388 58.5206 9.22815L58.5207 9.22764C58.6687 8.50095 58.8004 7.85403 58.851 7.33141C58.9183 6.63751 58.8833 5.83975 58.2353 5.33656C57.9338 5.10249 57.5622 4.98658 57.166 4.93412C56.7688 4.88153 56.3 4.88672 55.7596 4.93315C54.6803 5.02587 53.2012 5.29445 51.2174 5.70773C48.2794 6.31982 46.3023 8.25605 45.0163 10.5214C43.7356 12.7775 43.1117 15.4028 42.8721 17.5288C42.7969 18.1958 43.2151 18.6811 43.6898 18.8741C44.1529 19.0625 44.7586 19.0178 45.2033 18.5993C46.5756 17.3077 48.5633 15.9855 50.6564 15.8842C52.7009 15.7853 54.4247 15.5719 55.7406 14.7199C57.1033 13.8375 57.9078 12.36 58.355 10.0552Z" fill="#F6F6A2"/>
<path fill-rule="evenodd" clip-rule="evenodd" d="M58.355 10.0552C58.4103 9.77027 58.4665 9.49388 58.5206 9.22815L58.5207 9.22764C58.6687 8.50095 58.8004 7.85403 58.851 7.33141C58.9183 6.63751 58.8833 5.83975 58.2353 5.33656C57.9338 5.10249 57.5622 4.98658 57.166 4.93412C56.7688 4.88153 56.3 4.88672 55.7596 4.93315C54.6803 5.02587 53.2012 5.29445 51.2174 5.70773C48.2794 6.31982 46.3023 8.25605 45.0163 10.5214C43.7356 12.7775 43.1117 15.4028 42.8721 17.5288C42.7969 18.1958 43.2151 18.6811 43.6898 18.8741C44.1529 19.0625 44.7586 19.0178 45.2033 18.5993C46.5756 17.3077 48.5633 15.9855 50.6564 15.8842C52.7009 15.7853 54.4247 15.5719 55.7406 14.7199C57.1033 13.8375 57.9078 12.36 58.355 10.0552Z" fill="#78C517"/>
<path fill-rule="evenodd" clip-rule="evenodd" d="M42.2827 18.1571C41.4566 17.3362 40.1865 16.3306 38.6845 15.64C37.183 14.9497 35.3942 14.5499 33.577 15.0381C29.1462 16.2285 23.5189 20.1973 22.1929 27.6676C22.103 28.174 22.4287 28.5362 22.7348 28.678C23.036 28.8175 23.4888 28.8307 23.8256 28.5012C24.8085 27.54 26.5592 26.3498 28.7648 26.1977L28.8854 26.1894C32.6294 25.9313 34.7731 25.7835 37.3619 24.0344C38.4794 23.2793 39.2297 22.3083 39.8432 21.5145C39.897 21.4448 39.9498 21.3765 40.0017 21.3099C40.6839 20.4331 41.1597 19.9183 41.7943 19.7631C42.1323 19.6804 42.3789 19.4335 42.4877 19.1519C42.6007 18.8593 42.5845 18.457 42.2827 18.1571Z" fill="#F6F6A2"/>
<path fill-rule="evenodd" clip-rule="evenodd" d="M42.2827 18.1571C41.4566 17.3362 40.1865 16.3306 38.6845 15.64C37.183 14.9497 35.3942 14.5499 33.577 15.0381C29.1462 16.2285 23.5189 20.1973 22.1929 27.6676C22.103 28.174 22.4287 28.5362 22.7348 28.678C23.036 28.8175 23.4888 28.8307 23.8256 28.5012C24.8085 27.54 26.5592 26.3498 28.7648 26.1977L28.8854 26.1894C32.6294 25.9313 34.7731 25.7835 37.3619 24.0344C38.4794 23.2793 39.2297 22.3083 39.8432 21.5145C39.897 21.4448 39.9498 21.3765 40.0017 21.3099C40.6839 20.4331 41.1597 19.9183 41.7943 19.7631C42.1323 19.6804 42.3789 19.4335 42.4877 19.1519C42.6007 18.8593 42.5845 18.457 42.2827 18.1571Z" fill="#78C517"/>
<g style="mix-blend-mode:multiply">
<path d="M47.615 61.0191C47.5345 60.9916 47.4536 60.9643 47.3722 60.937L47.373 60.9372C47.3602 60.9328 47.3303 60.9231 47.317 60.9186C47.4158 60.9517 47.5154 60.9852 47.615 61.0191ZM8.79013 66.4844C8.76274 66.4747 8.73618 66.4648 8.70962 66.4548C8.73576 66.4646 8.76274 66.4748 8.79013 66.4844ZM11.2578 67.3098C11.3283 67.2331 11.2458 67.1537 11.0486 67.0968C11.2491 67.155 11.3246 67.2358 11.2578 67.3098ZM29.6001 69.616C19.1978 69.5597 9.70357 68.4677 5.55925 66.0787C4.76492 65.5647 4.48271 65.0101 4.3939 64.4646C4.09135 63.7961 4.20756 63.1191 4.84211 62.4628C5.23803 61.974 5.56506 61.4827 6.66651 61.049C8.98021 60.1393 12.7485 60.1034 16.7488 59.666C18.4197 59.4941 19.9735 59.2591 21.7024 59.1212C23.8032 58.951 26.043 58.9358 28.2177 58.8517C35.7523 58.6444 43.5138 58.8126 47.964 60.2891C50.6305 61.1204 52.8184 62.0517 53.5331 63.0965C54.3386 64.1734 54.2345 65.289 52.5009 66.3124C51.4269 66.9922 49.4182 67.5703 47.2523 68.0696C45.3901 68.442 43.2125 68.7194 41.1952 69.0262C41.2018 69.0257 41.2084 69.0252 41.2147 69.0247C37.4903 69.3529 33.6158 69.6434 29.6001 69.616Z" fill="black" fill-opacity="0.2"/>
</g>
<path d="M16.6367 61.6256V54.0938C17.1572 54.8592 19.0983 55.4348 22.6989 58.2271C27.1996 61.7174 45.1107 61.6256 55.398 59.9722C63.6279 58.6496 66.1753 56.6044 66.4202 54.9204C66.8611 60.2845 66.2365 62.4829 65.8691 63.7382C60.8173 68.0552 50.2544 69.7085 34.0885 68.9737C21.1558 68.3859 17.0654 63.83 16.6367 61.6256Z" fill="#D0D058"/>
<path d="M59.9255 50.5078C59.845 50.4673 59.7641 50.4271 59.6828 50.3868L59.6836 50.3871C59.6707 50.3806 59.6408 50.3663 59.6276 50.3597C59.7263 50.4085 59.8259 50.4578 59.9255 50.5078ZM21.1007 58.5668C21.0733 58.5525 21.0467 58.538 21.0202 58.5232C21.0463 58.5377 21.0733 58.5526 21.1007 58.5668ZM23.5683 59.784C23.6389 59.6709 23.5563 59.5538 23.3592 59.4699C23.5596 59.5557 23.6352 59.6748 23.5683 59.784ZM41.9107 63.1846C31.5084 63.1017 22.0141 61.4914 17.8698 57.9686C17.0755 57.2107 16.7933 56.3929 16.7044 55.5885C16.4019 54.6027 16.5181 53.6044 17.1527 52.6366C17.5486 51.9159 17.8756 51.1914 18.9771 50.5519C21.2908 49.2105 25.0591 49.1576 29.0594 48.5125C30.7302 48.2591 32.284 47.9125 34.013 47.7092C36.1138 47.4583 38.3536 47.4359 40.5283 47.3118C48.0628 47.0061 55.8244 47.2542 60.2746 49.4314C62.941 50.6572 65.129 52.0305 65.8436 53.5712C66.6492 55.1591 66.545 56.8041 64.8115 58.3133C63.7374 59.3157 61.7288 60.168 59.5628 60.9043C57.7007 61.4534 55.5231 61.8626 53.5057 62.3149C53.5123 62.3142 53.519 62.3134 53.5252 62.3127C49.8009 62.7967 45.9263 63.225 41.9107 63.1846Z" fill="#EFEF6C"/>
<path d="M26.82 54.4068L26.7395 54.5654L26.6272 54.7867L26.5061 55.0253L26.6186 54.7877L26.9917 54C26.9946 54.0069 26.9974 54.0138 27.0001 54.0207C27.0007 54.0221 27.0012 54.0235 27.0018 54.0249M26.82 54.4068L26.7885 54.4729L26.6857 54.6889L27.0112 54.0488C27.0101 54.0458 27.0089 54.0429 27.0077 54.0399C27.0075 54.0393 27.0073 54.0387 27.007 54.0381M26.82 54.4068L27.0018 54.0249M26.82 54.4068L27.007 54.0381M27.007 54.0381L27.0327 53.9876C27.0315 53.981 27.0302 53.9744 27.0289 53.9678L27.0018 54.0249M27.007 54.0381C27.0053 54.0337 27.0036 54.0293 27.0018 54.0249M27.3198 53.4218L27.052 53.9496L27.046 53.9319L27.294 53.4111M27.3198 53.4218C27.32 53.4219 27.3203 53.422 27.3206 53.4221C27.3219 53.4227 27.3233 53.4232 27.3246 53.4238L27.7583 52.5588C27.7581 52.5587 27.758 52.5586 27.7578 52.5586M27.3198 53.4218C27.3111 53.4183 27.3025 53.4147 27.294 53.4111M27.3198 53.4218L27.7578 52.5586M27.7578 52.5586C27.7483 52.5538 27.732 52.5457 27.7108 52.5356L27.7108 52.5356M27.7578 52.5586C27.7491 52.5542 27.7325 52.546 27.7108 52.5356M27.7108 52.5356C27.7043 52.5325 27.6973 52.5291 27.69 52.5257L27.2745 53.403C27.2803 53.4055 27.2863 53.4079 27.2922 53.4104C27.2928 53.4106 27.2934 53.4109 27.294 53.4111M27.7108 52.5356L27.294 53.4111M27.5021 53.0833L27.3282 53.4253C27.327 53.4248 27.3258 53.4243 27.3246 53.4238L27.7583 52.5588C27.7588 52.559 27.7592 52.5593 27.7596 52.5595L27.7643 52.5619M27.5021 53.0833L27.3299 53.426C27.3299 53.426 27.33 53.426 27.33 53.426L27.5202 53.0478M27.5021 53.0833L27.7643 52.5619M27.5021 53.0833L27.5202 53.0478M27.5202 53.0478L27.7667 52.5631L27.7645 52.5619M27.5202 53.0478L27.7645 52.5619M27.7645 52.5619L27.7645 52.5619L27.7644 52.5618L27.7643 52.5619M27.7645 52.5619L27.7643 52.5619M52.2358 54.9298C52.1723 54.9426 52.1083 54.9555 52.0437 54.9686C48.9925 55.3272 46.0583 55.6072 43.0887 55.5799L43.0776 55.5798C40.3812 55.5602 37.8164 55.4248 35.4921 55.1767C35.9119 55.1098 36.3375 55.0492 36.8904 54.9899L36.8904 54.9899L36.9 54.9888C37.9431 54.8751 38.9234 54.8378 40.0991 54.7932C40.705 54.7702 41.3628 54.7452 42.1079 54.7067C45.2139 54.5926 48.2248 54.5894 50.8426 54.7951C51.3365 54.8339 51.8007 54.8791 52.2358 54.9298ZM26.6469 54.7843L27.0136 54.055C27.0136 54.055 27.0137 54.0551 27.0137 54.0551L26.647 54.7843L26.5199 55.0371L26.522 55.0328L26.6469 54.7843Z" stroke="#DDDD62" stroke-width="11.5389"/>
<path fill-rule="evenodd" clip-rule="evenodd" d="M50.6352 48.4633C50.7011 47.9605 51.2454 47.5973 51.8511 47.6519C54.5277 47.8934 58.978 48.9683 62.0531 50.5974C63.5694 51.4007 64.9559 52.4448 65.4546 53.7424C66.003 55.1691 65.3821 56.5936 63.6957 57.8752C62.6617 58.661 61.1084 59.2623 59.3992 59.7416C57.6635 60.2283 55.6477 60.6211 53.5908 60.9421C49.5669 61.5702 45.5312 61.6759 42.4363 61.1253C42.3729 61.1308 42.3103 61.1362 42.2484 61.1415C41.6424 61.1937 41.1001 60.8283 41.0372 60.3253C40.9743 59.8223 41.4146 60.4311 42.0206 60.3789L42.1852 60.3647C45.0394 60.1189 49.25 59.7562 53.1831 59.1424C55.1878 58.8295 57.0928 58.4554 58.693 58.0066C60.3198 57.5504 61.5176 57.0475 62.2058 56.5245C63.4731 55.5615 63.5611 54.8411 63.3527 54.299C63.0946 53.6277 62.2587 52.8788 60.8661 52.141C58.1235 50.6881 54.0106 49.6888 51.6127 49.4725C51.007 49.4178 50.5694 48.966 50.6352 48.4633Z" fill="#CACA54"/>
<path d="M14.0645 53.9107V46.3789C14.5849 47.1443 16.5261 47.7199 20.1267 50.5122C24.6274 54.0026 42.5384 53.9107 52.8258 52.2574C61.0557 50.9347 63.603 48.8895 63.848 47.2056C64.2889 52.5697 63.6643 54.768 63.2969 56.0233C58.245 60.3403 47.6821 61.9937 31.5162 61.2589C18.5835 60.671 14.4931 56.1152 14.0645 53.9107Z" fill="#D7D75B"/>
<path d="M57.3533 42.7929C57.2728 42.7525 57.1918 42.7122 57.1105 42.6719L57.1113 42.6722C57.0985 42.6658 57.0686 42.6514 57.0553 42.6448C57.1541 42.6936 57.2537 42.743 57.3533 42.7929ZM18.5284 50.852C18.501 50.8377 18.4745 50.8232 18.4479 50.8084C18.474 50.8229 18.501 50.8378 18.5284 50.852ZM20.9961 52.0691C21.0666 51.9561 20.984 51.839 20.7869 51.7551C20.9874 51.8409 21.0629 51.96 20.9961 52.0691ZM39.3384 55.4697C28.9361 55.3868 19.4419 53.7765 15.2975 50.2538C14.5032 49.4959 14.221 48.678 14.1322 47.8737C13.8296 46.8879 13.9458 45.8896 14.5804 44.9218C14.9763 44.2011 15.3033 43.4766 16.4048 42.837C18.7185 41.4957 22.4868 41.4428 26.4871 40.7977C28.158 40.5443 29.7118 40.1977 31.4407 39.9944C33.5415 39.7434 35.7813 39.721 37.956 39.597C45.4905 39.2912 53.2521 39.5394 57.7023 41.7166C60.3688 42.9423 62.5567 44.3156 63.2714 45.8563C64.0769 47.4442 63.9727 49.0892 62.2392 50.5984C61.1652 51.6008 59.1565 52.4532 56.9906 53.1894C55.1284 53.7386 52.9508 54.1477 50.9334 54.6001C50.9401 54.5993 50.9467 54.5986 50.9529 54.5979C47.2286 55.0819 43.3541 55.5102 39.3384 55.4697Z" fill="#EFEF6C"/>
<path d="M24.2477 46.69L24.1672 46.8486L24.0549 47.0699L23.9338 47.3085L24.0464 47.0709L24.4195 46.2832C24.4223 46.2901 24.4251 46.297 24.4279 46.3039C24.4284 46.3053 24.429 46.3067 24.4295 46.3081M24.2477 46.69L24.2162 46.7561L24.1134 46.9721L24.4389 46.332C24.4378 46.329 24.4366 46.3261 24.4355 46.3231C24.4352 46.3225 24.435 46.3219 24.4348 46.3213M24.2477 46.69L24.4295 46.3081M24.2477 46.69L24.4348 46.3213M24.4348 46.3213L24.4604 46.2708C24.4592 46.2642 24.4579 46.2576 24.4567 46.2511L24.4295 46.3081M24.4348 46.3213C24.433 46.3169 24.4313 46.3125 24.4295 46.3081M24.7475 45.705L24.4797 46.2328L24.4738 46.2151L24.7217 45.6943M24.7475 45.705C24.7478 45.7051 24.748 45.7052 24.7483 45.7053C24.7497 45.7059 24.751 45.7065 24.7524 45.707L25.186 44.842C25.1859 44.8419 25.1857 44.8419 25.1856 44.8418M24.7475 45.705C24.7389 45.7015 24.7303 45.6979 24.7217 45.6943M24.7475 45.705L25.1856 44.8418M25.1856 44.8418C25.176 44.837 25.1597 44.8289 25.1385 44.8188L25.1385 44.8188M25.1856 44.8418C25.1769 44.8374 25.1603 44.8292 25.1385 44.8188M25.1385 44.8188C25.132 44.8157 25.1251 44.8123 25.1177 44.8089L24.7022 45.6862C24.7081 45.6887 24.714 45.6911 24.7199 45.6936C24.7205 45.6938 24.7211 45.6941 24.7217 45.6943M25.1385 44.8188L24.7217 45.6943M24.9299 45.3665L24.756 45.7085C24.7548 45.708 24.7536 45.7075 24.7524 45.707L25.186 44.842C25.1865 44.8423 25.187 44.8425 25.1874 44.8427L25.1921 44.8451M24.9299 45.3665L24.7576 45.7092C24.7577 45.7092 24.7577 45.7092 24.7578 45.7092L24.9479 45.331M24.9299 45.3665L25.1921 44.8451M24.9299 45.3665L24.9479 45.331M24.9479 45.331L25.1945 44.8463L25.1923 44.8452M24.9479 45.331L25.1923 44.8452M25.1923 44.8452L25.1923 44.8451L25.1921 44.845L25.1921 44.8451M25.1923 44.8452L25.1921 44.8451M49.6636 47.213C49.6001 47.2258 49.536 47.2387 49.4714 47.2518C46.4202 47.6104 43.4861 47.8904 40.5164 47.8631L40.5054 47.863C37.8089 47.8434 35.2442 47.708 32.9198 47.4599C33.3396 47.393 33.7652 47.3324 34.3181 47.2731L34.3181 47.2731L34.3277 47.272C35.3708 47.1583 36.3511 47.121 37.5268 47.0764C38.1327 47.0534 38.7905 47.0284 39.5356 46.9899C42.6416 46.8758 45.6526 46.8726 48.2704 47.0783C48.7642 47.1171 49.2285 47.1623 49.6636 47.213ZM24.0746 47.0675L24.4413 46.3382C24.4414 46.3382 24.4414 46.3383 24.4414 46.3383L24.0748 47.0675L23.9476 47.3203L23.9497 47.316L24.0746 47.0675Z" stroke="#DDDD62" stroke-width="11.5389"/>
<path fill-rule="evenodd" clip-rule="evenodd" d="M50.6254 40.7686C50.6803 40.2642 51.1335 39.8999 51.6378 39.9547C53.8664 40.1969 57.5719 41.2752 60.1323 42.9094C61.3948 43.7152 62.5492 44.7626 62.9645 46.0643C63.4211 47.4955 62.9041 48.9245 61.4999 50.2101C60.639 50.9983 59.3457 51.6015 57.9226 52.0823C56.4773 52.5706 54.7989 52.9646 53.0864 53.2866C49.7359 53.9166 46.1667 54.2869 43.7988 54.5326C43.746 54.538 43.6939 54.5434 43.6423 54.5488C43.1378 54.6012 42.6863 54.2346 42.6339 53.73C42.5815 53.2254 42.9481 52.774 43.4527 52.7216L43.5897 52.7074C45.9662 52.4608 49.472 52.097 52.7469 51.4812C54.4161 51.1673 56.0022 50.7921 57.3346 50.3419C58.6891 49.8843 59.6864 49.3797 60.2594 48.8551C61.3146 47.889 61.3879 47.1664 61.2144 46.6226C60.9995 45.9492 60.3034 45.198 59.1439 44.4579C56.8604 43.0004 53.4359 41.998 51.4393 41.781C50.935 41.7261 50.5706 41.2729 50.6254 40.7686Z" fill="#F6F6A2"/>
<path fill-rule="evenodd" clip-rule="evenodd" d="M50.6254 40.7686C50.6803 40.2642 51.1335 39.8999 51.6378 39.9547C53.8664 40.1969 57.5719 41.2752 60.1323 42.9094C61.3948 43.7152 62.5492 44.7626 62.9645 46.0643C63.4211 47.4955 62.9041 48.9245 61.4999 50.2101C60.639 50.9983 59.3457 51.6015 57.9226 52.0823C56.4773 52.5706 54.7989 52.9646 53.0864 53.2866C49.7359 53.9166 46.1667 54.2869 43.7988 54.5326C43.746 54.538 43.6939 54.5434 43.6423 54.5488C43.1378 54.6012 42.6863 54.2346 42.6339 53.73C42.5815 53.2254 42.9481 52.774 43.4527 52.7216L43.5897 52.7074C45.9662 52.4608 49.472 52.097 52.7469 51.4812C54.4161 51.1673 56.0022 50.7921 57.3346 50.3419C58.6891 49.8843 59.6864 49.3797 60.2594 48.8551C61.3146 47.889 61.3879 47.1664 61.2144 46.6226C60.9995 45.9492 60.3034 45.198 59.1439 44.4579C56.8604 43.0004 53.4359 41.998 51.4393 41.781C50.935 41.7261 50.5706 41.2729 50.6254 40.7686Z" fill="#F6F6A2"/>
<path d="M17.7383 46.9322V39.4004C18.2588 40.1658 20.1999 40.7414 23.8005 43.5337C28.3012 47.0241 46.2122 46.9322 56.4996 45.2789C64.7295 43.9562 67.2769 41.911 67.5218 40.2271C67.9627 45.5912 67.3381 47.7895 66.9707 49.0448C61.9189 53.3618 51.3559 55.0152 35.1901 54.2803C22.2574 53.6925 18.1669 49.1367 17.7383 46.9322Z" fill="#DDDD62"/>
<path d="M61.0271 35.8144C60.9466 35.774 60.8657 35.7337 60.7843 35.6934L60.7851 35.6937C60.7723 35.6873 60.7424 35.6729 60.7291 35.6663C60.8279 35.7151 60.9275 35.7645 61.0271 35.8144ZM22.2022 43.8735C22.1748 43.8591 22.1483 43.8446 22.1217 43.8298C22.1479 43.8443 22.1748 43.8593 22.2022 43.8735ZM24.6699 45.0906C24.7405 44.9775 24.6579 44.8605 24.4607 44.7766C24.6612 44.8624 24.7367 44.9815 24.6699 45.0906ZM43.0122 48.4912C32.6099 48.4083 23.1157 46.798 18.9714 43.2753C18.177 42.5173 17.8948 41.6995 17.806 40.8952C17.5035 39.9094 17.6197 38.9111 18.2542 37.9433C18.6501 37.2226 18.9772 36.4981 20.0786 35.8585C22.3923 34.5172 26.1606 34.4643 30.1609 33.8192C31.8318 33.5658 33.3856 33.2192 35.1145 33.0159C37.2153 32.7649 39.4552 32.7425 41.6298 32.6184C49.1644 32.3127 56.9259 32.5609 61.3761 34.7381C64.0426 35.9638 66.2305 37.3371 66.9452 38.8778C67.7507 40.4657 67.6466 42.1107 65.913 43.6199C64.839 44.6223 62.8303 45.4747 60.6644 46.2109C58.8022 46.7601 56.6246 47.1692 54.6073 47.6216C54.6139 47.6208 54.6205 47.6201 54.6268 47.6194C50.9024 48.1033 47.0279 48.5317 43.0122 48.4912Z" fill="url(#paint0_linear)"/>
<path fill-rule="evenodd" clip-rule="evenodd" d="M59.7252 35.845C59.7706 35.8645 59.8156 35.8842 59.8603 35.9042C59.8845 35.9143 59.9086 35.9245 59.9327 35.9347C59.9328 35.9347 59.933 35.9348 59.9331 35.9349C62.1828 36.8852 64.0226 37.9485 64.6279 39.1399C65.3175 40.381 65.2283 41.6667 63.7443 42.8464C62.8248 43.6298 61.1052 44.2961 59.251 44.8715C58.0902 45.184 56.7862 45.4386 55.4963 45.6903C55.0238 45.7826 54.5531 45.8744 54.092 45.9686C54.0887 45.9693 54.0854 45.97 54.0821 45.9707C54.082 45.9707 54.082 45.9707 54.082 45.9707C54.0767 45.9718 54.0713 45.9729 54.0659 45.974C54.0658 45.974 54.0657 45.974 54.0655 45.9741L54.0659 45.974C54.0715 45.9735 54.077 45.9729 54.0822 45.9723C54.0768 45.973 54.0714 45.9736 54.0659 45.9743C54.0658 45.9743 54.0657 45.9743 54.0656 45.9743C54.0656 45.9743 54.0656 45.9743 54.0656 45.9743C54.034 45.9781 54.0024 45.9818 53.9708 45.9855C50.8166 46.3584 47.5369 46.685 44.1392 46.6538C35.2339 46.589 27.1059 45.3304 23.558 42.5769C22.878 41.9846 22.6364 41.3453 22.5604 40.7167C22.3014 39.9461 22.4009 39.1659 22.9441 38.4094C22.9711 38.3646 22.9977 38.3197 23.0243 38.2749C23.3318 37.7564 23.6381 37.24 24.5059 36.7799C25.9365 36.0228 28.0165 35.7909 30.3518 35.5305C31.25 35.4304 32.186 35.326 33.1373 35.186C33.7026 35.1077 34.2523 35.018 34.8018 34.9284C35.6426 34.7913 36.4829 34.6542 37.378 34.5581C38.6222 34.4224 39.9234 34.3722 41.2237 34.3221C41.8029 34.2997 42.3819 34.2774 42.9557 34.2475C49.2763 34.0133 55.7835 34.1949 59.6271 35.8034C59.6276 35.8036 59.6281 35.8038 59.6286 35.804C59.6288 35.8041 59.629 35.8042 59.6293 35.8043C59.6431 35.8101 59.6569 35.8159 59.6707 35.8217C59.6707 35.8217 59.6707 35.8217 59.6707 35.8217C59.6712 35.822 59.6717 35.8222 59.6722 35.8224C59.6879 35.829 59.7036 35.8357 59.7192 35.8424C59.7206 35.843 59.7221 35.8437 59.7235 35.8443C59.7241 35.8445 59.7246 35.8447 59.7252 35.845ZM43.0373 36.0827C46.2247 35.965 49.4146 35.9563 52.2542 36.1795C55.132 36.4056 57.4954 36.8598 59.1111 37.5815L59.1301 37.59L59.1493 37.5981C60.2436 38.0573 61.1707 38.5165 61.8707 38.9708C62.6084 39.4494 62.9039 39.8023 62.9901 39.9719L63.0055 40.0023L63.0221 40.0321C63.222 40.3919 63.2144 40.5812 63.1981 40.6648C63.1824 40.7455 63.1044 41.0083 62.6012 41.4083L62.5767 41.4278L62.5528 41.4481C62.2975 41.6657 61.8314 41.9422 61.1179 42.2513C60.435 42.5471 59.623 42.8318 58.74 43.1066C57.6549 43.397 56.4603 43.6301 55.2076 43.8747C54.7357 43.9668 54.2557 44.0605 53.7701 44.1594C50.6271 44.5311 47.4378 44.847 44.156 44.8169L44.1543 44.8168L44.1525 44.8168C39.7723 44.785 35.6274 44.4591 32.1752 43.8175C29.9506 43.4041 28.1086 42.876 26.6969 42.2653L26.7204 42.216C26.7105 42.2112 26.7 42.2061 26.6886 42.2004C26.6883 42.2002 26.688 42.2001 26.6877 42.1999L26.6876 42.1999L26.6714 42.1917L26.67 42.191L26.6439 42.2423C25.8726 41.9049 25.2319 41.5425 24.7298 41.1606C24.5857 41.0286 24.5169 40.9218 24.4786 40.8444C24.4354 40.7574 24.4028 40.6507 24.3841 40.4961L24.3616 40.3095L24.3017 40.1314C24.2568 39.9978 24.2559 39.9084 24.2663 39.8418C24.277 39.7738 24.3112 39.655 24.4362 39.481L24.4797 39.4204L24.5182 39.3565C24.5583 39.2898 24.5931 39.2316 24.6238 39.1801C24.7581 38.9552 24.8148 38.8602 24.906 38.7515C24.9806 38.6626 25.0991 38.5448 25.3659 38.4033C26.0484 38.0422 27.0688 37.8004 28.5311 37.5987C29.1645 37.5113 29.8337 37.4367 30.556 37.3562C30.6454 37.3462 30.7356 37.3362 30.8267 37.326C31.6403 37.2349 32.5092 37.1351 33.3971 37.0046C34.0611 36.9125 34.6358 36.818 35.1857 36.7276C35.9701 36.5987 36.7039 36.4781 37.5741 36.3846L37.5757 36.3845L37.5772 36.3843C38.7562 36.2557 39.9513 36.2098 41.2169 36.1611C41.8066 36.1385 42.4115 36.1152 43.0373 36.0827Z" fill="#DDDD62"/>
<path fill-rule="evenodd" clip-rule="evenodd" d="M36.3572 42.4289C35.9252 42.2063 35.4621 41.8711 35.159 41.422L32.8927 41.4211C32.4362 41.4209 32.0662 41.0507 32.0664 40.5941C32.0666 40.1376 32.4368 39.7676 32.8934 39.7678L34.9257 39.7686C35.1165 39.2401 35.5352 38.8588 35.865 38.6219C36.343 38.2787 36.8946 38.0476 37.2666 37.9329C37.7028 37.7984 38.1656 38.043 38.3001 38.4792C38.4347 38.9155 38.1901 39.3783 37.7538 39.5128C37.5056 39.5894 37.1269 39.7512 36.8295 39.9648C36.4955 40.2047 36.4759 40.3499 36.4759 40.3563C36.4759 40.4045 36.548 40.6673 37.1145 40.9592C37.6262 41.2228 38.3282 41.382 38.9984 41.3453C39.8618 41.298 40.5235 41.2575 40.9847 41.0798C41.1919 40.9999 41.2974 40.9129 41.3555 40.8345C41.4087 40.7626 41.4731 40.6302 41.4732 40.3583C41.4736 39.4157 41.938 38.6638 42.7483 38.1794C43.5037 37.7277 44.5382 37.5157 45.7572 37.4691C46.4604 37.4422 47.6341 37.427 48.6655 37.6878C49.183 37.8186 49.7319 38.0348 50.1715 38.4108C50.4306 38.6325 50.6431 38.9033 50.7864 39.2222L53.2839 39.2232C53.7405 39.2234 54.1104 39.5936 54.1103 40.0502C54.1101 40.5068 53.7398 40.8767 53.2833 40.8765L50.8875 40.8756C50.6591 41.6077 50.0799 42.0994 49.5275 42.3976C48.7975 42.7916 47.9463 42.9571 47.3823 42.9984C46.927 43.0317 46.5309 42.6896 46.4975 42.2342C46.4642 41.7789 46.8064 41.3828 47.2617 41.3495C47.6744 41.3193 48.279 41.1927 48.7422 40.9427C49.2003 40.6954 49.3485 40.4385 49.3342 40.1515C49.3233 39.9335 49.2429 39.7922 49.0967 39.6671C48.9261 39.5211 48.6496 39.3891 48.2603 39.2907C47.4781 39.0929 46.5123 39.0948 45.8203 39.1212C44.7139 39.1635 44.0042 39.3548 43.5966 39.5984C43.2439 39.8093 43.1266 40.0446 43.1265 40.3589C43.1263 40.9135 42.987 41.4097 42.6839 41.8187C42.3858 42.2211 41.9824 42.4671 41.5792 42.6225C40.8568 42.9009 39.9479 42.9498 39.2033 42.99L39.0888 42.9962C38.1312 43.0486 37.1358 42.8301 36.3572 42.4289Z" fill="#9F9F46"/>
<path fill-rule="evenodd" clip-rule="evenodd" d="M54.3012 33.79C54.356 33.2857 54.8093 32.9213 55.3136 32.9762C57.5422 33.2184 61.2477 34.2967 63.8081 35.9309C65.0706 36.7367 66.225 37.7841 66.6403 39.0857C67.0969 40.517 66.5799 41.9459 65.1757 43.2316C64.3148 44.0198 63.0215 44.623 61.5984 45.1038C60.1531 45.5921 58.4747 45.986 56.7621 46.3081C53.4117 46.9381 49.8425 47.3084 47.4746 47.554C47.4218 47.5595 47.3697 47.5649 47.3181 47.5703C46.8135 47.6227 46.362 47.2561 46.3097 46.7515C46.2573 46.2469 46.6239 45.7954 47.1284 45.7431L47.2655 45.7288C49.642 45.4823 53.1478 45.1185 56.4227 44.5027C58.0918 44.1888 59.678 43.8136 61.0103 43.3634C62.3649 42.9057 63.3622 42.4012 63.9352 41.8766C64.9904 40.9105 65.0636 40.1879 64.8901 39.6441C64.6753 38.9707 63.9792 38.2194 62.8197 37.4794C60.5362 36.0219 57.1117 35.0195 55.1151 34.8024C54.6108 34.7476 54.2464 34.2944 54.3012 33.79Z" fill="#F6F6A2"/>
<path fill-rule="evenodd" clip-rule="evenodd" d="M54.3012 33.79C54.356 33.2857 54.8093 32.9213 55.3136 32.9762C57.5422 33.2184 61.2477 34.2967 63.8081 35.9309C65.0706 36.7367 66.225 37.7841 66.6403 39.0857C67.0969 40.517 66.5799 41.9459 65.1757 43.2316C64.3148 44.0198 63.0215 44.623 61.5984 45.1038C60.1531 45.5921 58.4747 45.986 56.7621 46.3081C53.4117 46.9381 49.8425 47.3084 47.4746 47.554C47.4218 47.5595 47.3697 47.5649 47.3181 47.5703C46.8135 47.6227 46.362 47.2561 46.3097 46.7515C46.2573 46.2469 46.6239 45.7954 47.1284 45.7431L47.2655 45.7288C49.642 45.4823 53.1478 45.1185 56.4227 44.5027C58.0918 44.1888 59.678 43.8136 61.0103 43.3634C62.3649 42.9057 63.3622 42.4012 63.9352 41.8766C64.9904 40.9105 65.0636 40.1879 64.8901 39.6441C64.6753 38.9707 63.9792 38.2194 62.8197 37.4794C60.5362 36.0219 57.1117 35.0195 55.1151 34.8024C54.6108 34.7476 54.2464 34.2944 54.3012 33.79Z" fill="#F6F6A2"/>
<path fill-rule="evenodd" clip-rule="evenodd" d="M42.6202 18.0876C42.9374 17.906 43.3417 18.0159 43.5233 18.3331C45.5847 21.9336 46.2305 26.0135 46.2165 29.62C46.2024 33.2263 45.5284 36.4109 44.8992 38.2643C44.7817 38.6104 44.4059 38.7957 44.0598 38.6782C43.7137 38.5607 43.5284 38.1849 43.6459 37.8388C44.2299 36.1188 44.8794 33.0761 44.8929 29.6148C44.9064 26.1537 44.2839 22.3254 42.3747 18.9907C42.1931 18.6735 42.303 18.2692 42.6202 18.0876Z" fill="#F6F6A2"/>
<path fill-rule="evenodd" clip-rule="evenodd" d="M42.6202 18.0876C42.9374 17.906 43.3417 18.0159 43.5233 18.3331C45.5847 21.9336 46.2305 26.0135 46.2165 29.62C46.2024 33.2263 45.5284 36.4109 44.8992 38.2643C44.7817 38.6104 44.4059 38.7957 44.0598 38.6782C43.7137 38.5607 43.5284 38.1849 43.6459 37.8388C44.2299 36.1188 44.8794 33.0761 44.8929 29.6148C44.9064 26.1537 44.2839 22.3254 42.3747 18.9907C42.1931 18.6735 42.303 18.2692 42.6202 18.0876Z" fill="#8BDE1E"/>
<path fill-rule="evenodd" clip-rule="evenodd" d="M41.3624 18.0876C41.6796 17.906 42.0839 18.0159 42.2655 18.3331C44.3269 21.9336 44.9727 26.0135 44.9586 29.62C44.9446 33.2263 44.2706 36.4109 43.6413 38.2643C43.5238 38.6104 43.148 38.7957 42.802 38.6782C42.4559 38.5607 42.2706 38.1849 42.3881 37.8388C42.972 36.1188 43.6216 33.0761 43.6351 29.6148C43.6486 26.1537 43.0261 22.3254 41.1169 18.9907C40.9353 18.6735 41.0452 18.2692 41.3624 18.0876Z" fill="#F6F6A2"/>
<path fill-rule="evenodd" clip-rule="evenodd" d="M41.3624 18.0876C41.6796 17.906 42.0839 18.0159 42.2655 18.3331C44.3269 21.9336 44.9727 26.0135 44.9586 29.62C44.9446 33.2263 44.2706 36.4109 43.6413 38.2643C43.5238 38.6104 43.148 38.7957 42.802 38.6782C42.4559 38.5607 42.2706 38.1849 42.3881 37.8388C42.972 36.1188 43.6216 33.0761 43.6351 29.6148C43.6486 26.1537 43.0261 22.3254 41.1169 18.9907C40.9353 18.6735 41.0452 18.2692 41.3624 18.0876Z" fill="#78C517"/>
<path fill-rule="evenodd" clip-rule="evenodd" d="M42.3535 38.0504C42.3535 37.685 42.6498 37.3887 43.0153 37.3887H44.405C44.7705 37.3887 45.0668 37.685 45.0668 38.0504C45.0668 38.4159 44.7705 38.7122 44.405 38.7122H43.0153C42.6498 38.7122 42.3535 38.4159 42.3535 38.0504Z" fill="#F6F6A2"/>
<path fill-rule="evenodd" clip-rule="evenodd" d="M42.3535 38.0504C42.3535 37.685 42.6498 37.3887 43.0153 37.3887H44.405C44.7705 37.3887 45.0668 37.685 45.0668 38.0504C45.0668 38.4159 44.7705 38.7122 44.405 38.7122H43.0153C42.6498 38.7122 42.3535 38.4159 42.3535 38.0504Z" fill="#78C517"/>
<defs>
<linearGradient id="paint0_linear" x1="42.5382" y1="32.5117" x2="42.5382" y2="48.4939" gradientUnits="userSpaceOnUse">
<stop stop-color="#EFEF6C"/>
<stop offset="1" stop-color="#EFEF6C"/>
</linearGradient>
</defs>
</svg>
