<svg width="150" height="150" viewBox="0 0 150 150" fill="none" xmlns="http://www.w3.org/2000/svg">
<path d="M38.9118 51.3412L38.8967 106.65C38.8966 106.844 38.9208 107.013 38.9208 107.208C38.9208 107.256 38.945 107.329 38.945 107.377L38.9692 107.499C38.9935 107.571 38.9934 107.668 39.0177 107.741C39.0419 107.814 39.0662 107.887 39.0904 107.96L39.1146 108.081C39.1389 108.154 39.1388 108.202 39.1631 108.275C39.1873 108.348 39.2116 108.42 39.2358 108.493L39.2843 108.59C39.3085 108.663 39.3085 108.711 39.357 108.76C39.3813 108.833 39.4298 108.881 39.454 108.954L39.5025 109.051C39.5267 109.124 39.5752 109.172 39.5995 109.245C39.6237 109.318 39.6722 109.366 39.6964 109.439L39.7449 109.536C39.7692 109.609 39.8177 109.657 39.8662 109.706C39.9147 109.754 39.9632 109.851 40.0117 109.9L40.0844 109.973C40.1329 110.021 40.1329 110.07 40.1814 110.118C40.3997 110.385 40.6664 110.652 40.9575 110.894C41.006 110.943 41.0302 110.967 41.103 110.991L41.1757 111.064C41.2242 111.112 41.3213 111.161 41.3698 111.209C41.4183 111.258 41.491 111.282 41.5395 111.331L41.6366 111.379C41.6851 111.428 41.7578 111.452 41.8306 111.476C41.9034 111.5 41.9519 111.549 42.0246 111.573L42.0974 111.646C42.1702 111.67 42.2187 111.719 42.2914 111.743C42.3642 111.767 42.437 111.791 42.4612 111.816L42.5582 111.864C42.631 111.888 42.7038 111.913 42.7765 111.937C42.8493 111.961 42.8978 111.961 42.9706 111.985L43.0919 112.01C43.1646 112.034 43.2374 112.058 43.3102 112.082C43.3829 112.106 43.48 112.106 43.5527 112.131L43.674 112.155C43.7225 112.155 43.7953 112.179 43.8438 112.179C44.0136 112.203 44.2077 112.203 44.4018 112.203L99.4433 112.115C100.899 112.115 102.282 111.557 103.325 110.513C104.368 109.47 104.927 108.087 104.927 106.632C104.928 105.176 104.37 103.794 103.327 102.751C102.284 101.708 100.902 101.15 99.4463 101.151L57.6254 101.162L110.498 48.2895C112.633 46.1542 112.634 42.661 110.5 40.5269C108.366 38.3928 104.873 38.3937 102.738 40.529L49.8649 93.4017L49.8764 51.3383C49.8768 49.8828 49.3192 48.5002 48.2764 47.4574C47.2336 46.4146 45.8511 45.857 44.3956 45.8574C42.9401 45.8578 41.5572 46.4161 40.5139 47.4595C39.4705 48.5029 38.9122 49.8858 38.9118 51.3412Z" fill="black"/>
</svg>
