<svg width="150" height="150" viewBox="0 0 150 150" fill="none" xmlns="http://www.w3.org/2000/svg">
<path d="M79.3713 18.6292L110.406 50.0404C112.531 52.191 112.531 55.7101 110.406 57.8607C108.282 60.0112 104.805 60.0112 102.68 57.8607L80.981 35.964L80.981 127.461C80.981 130.524 78.5343 133 75.508 133C72.4818 133 70.0351 130.524 70.0351 127.461L70.0351 35.964L48.3363 57.9258C46.2115 60.0764 42.7345 60.0764 40.6097 57.9258C39.5151 56.818 39 55.4494 39 54.0157C39 52.582 39.5151 51.1483 40.6097 50.1056L71.6448 18.6292C72.675 17.5865 74.0915 17 75.508 17C76.9246 17 78.3411 17.5865 79.3713 18.6292Z" fill="black"/>
</svg>
