<svg width="150" height="150" viewBox="0 0 150 150" fill="none" xmlns="http://www.w3.org/2000/svg">
<path d="M13.6292 71.1287L45.0404 40.0936C47.191 37.9688 50.7101 37.9688 52.8607 40.0936C55.0112 42.2184 55.0112 45.6954 52.8607 47.8202L30.964 69.519L122.461 69.519C125.524 69.519 128 71.9657 128 74.9919C128 78.0182 125.524 80.4649 122.461 80.4649L30.964 80.4649L52.9258 102.164C55.0764 104.289 55.0764 107.765 52.9258 109.89C51.818 110.985 50.4494 111.5 49.0157 111.5C47.582 111.5 46.1483 110.985 45.1056 109.89L13.6292 78.8552C12.5865 77.825 12 76.4085 12 74.992C12 73.5754 12.5865 72.1589 13.6292 71.1287Z" fill="black"/>
<path d="M136.371 78.8713L104.96 109.906C102.809 112.031 99.2899 112.031 97.1393 109.906C94.9888 107.782 94.9888 104.305 97.1393 102.18L119.036 80.481L27.5393 80.481C24.4764 80.481 22 78.0343 22 75.008C22 71.9818 24.4764 69.5351 27.5393 69.5351L119.036 69.5351L97.0742 47.8363C94.9236 45.7115 94.9236 42.2345 97.0742 40.1097C98.182 39.0151 99.5506 38.5 100.984 38.5C102.418 38.5 103.852 39.0151 104.894 40.1097L136.371 71.1448C137.413 72.175 138 73.5915 138 75.008C138 76.4246 137.413 77.8411 136.371 78.8713Z" fill="black"/>
</svg>
