<svg width="150" height="150" viewBox="0 0 150 150" fill="none" xmlns="http://www.w3.org/2000/svg">
<path d="M71.6287 131.371L40.5936 99.9596C38.4688 97.809 38.4688 94.2899 40.5936 92.1393C42.7184 89.9888 46.1954 89.9888 48.3202 92.1393L70.019 114.036V22.5393C70.019 19.4764 72.4657 17 75.492 17C78.5182 17 80.9649 19.4764 80.9649 22.5393V114.036L102.664 92.0742C104.789 89.9236 108.265 89.9236 110.39 92.0742C111.485 93.182 112 94.5506 112 95.9843C112 97.418 111.485 98.8517 110.39 99.8944L79.3552 131.371C78.325 132.413 76.9085 133 75.492 133C74.0754 133 72.6589 132.413 71.6287 131.371Z" fill="black"/>
</svg>
