<svg width="150" height="150" viewBox="0 0 150 150" fill="none" xmlns="http://www.w3.org/2000/svg">
<path d="M19.1292 71.1287L50.5404 40.0936C52.691 37.9688 56.2101 37.9688 58.3607 40.0936C60.5112 42.2184 60.5112 45.6954 58.3607 47.8202L36.464 69.519L127.961 69.519C131.024 69.519 133.5 71.9657 133.5 74.9919C133.5 78.0182 131.024 80.4649 127.961 80.4649L36.464 80.4649L58.4258 102.164C60.5764 104.289 60.5764 107.765 58.4258 109.89C57.318 110.985 55.9494 111.5 54.5157 111.5C53.082 111.5 51.6483 110.985 50.6056 109.89L19.1292 78.8552C18.0865 77.825 17.5 76.4085 17.5 74.992C17.5 73.5754 18.0865 72.1589 19.1292 71.1287Z" fill="black"/>
</svg>
