<svg width="150" height="150" viewBox="0 0 150 150" fill="none" xmlns="http://www.w3.org/2000/svg">
<path d="M131.871 78.8713L100.46 109.906C98.309 112.031 94.7899 112.031 92.6393 109.906C90.4888 107.782 90.4888 104.305 92.6393 102.18L114.536 80.481L23.0393 80.481C19.9764 80.481 17.5 78.0343 17.5 75.008C17.5 71.9818 19.9764 69.5351 23.0393 69.5351L114.536 69.5351L92.5742 47.8363C90.4236 45.7115 90.4236 42.2345 92.5742 40.1097C93.682 39.0151 95.0506 38.5 96.4843 38.5C97.918 38.5 99.3517 39.0151 100.394 40.1097L131.871 71.1448C132.913 72.175 133.5 73.5915 133.5 75.008C133.5 76.4246 132.913 77.8411 131.871 78.8713Z" fill="black"/>
</svg>
