<svg width="150" height="150" viewBox="0 0 150 150" fill="none" xmlns="http://www.w3.org/2000/svg">
<path d="M78.8713 13.6292L109.906 45.0404C112.031 47.191 112.031 50.7101 109.906 52.8607C107.782 55.0112 104.305 55.0112 102.18 52.8607L80.481 30.964L80.481 122.461C80.481 125.524 78.0343 128 75.008 128C71.9818 128 69.5351 125.524 69.5351 122.461L69.5351 30.964L47.8363 52.9258C45.7115 55.0764 42.2345 55.0764 40.1097 52.9258C39.0151 51.818 38.5 50.4494 38.5 49.0157C38.5 47.582 39.0151 46.1483 40.1097 45.1056L71.1448 13.6292C72.175 12.5865 73.5915 12 75.008 12C76.4246 12 77.8411 12.5865 78.8713 13.6292Z" fill="black"/>
<path d="M71.1287 136.371L40.0936 104.96C37.9688 102.809 37.9688 99.2899 40.0936 97.1393C42.2184 94.9888 45.6954 94.9888 47.8202 97.1393L69.519 119.036L69.519 27.5393C69.519 24.4764 71.9657 22 74.992 22C78.0182 22 80.4649 24.4764 80.4649 27.5393L80.4649 119.036L102.164 97.0742C104.289 94.9236 107.765 94.9236 109.89 97.0742C110.985 98.182 111.5 99.5506 111.5 100.984C111.5 102.418 110.985 103.852 109.89 104.894L78.8552 136.371C77.825 137.413 76.4085 138 74.992 138C73.5754 138 72.1589 137.413 71.1287 136.371Z" fill="black"/>
</svg>
