<svg width="150" height="150" viewBox="0 0 150 150" fill="none" xmlns="http://www.w3.org/2000/svg">
<path d="M111.994 99.5645L112.009 44.2561C112.009 44.0621 111.985 43.8923 111.985 43.6982C111.985 43.6497 111.961 43.5769 111.961 43.5284L111.937 43.4071C111.912 43.3344 111.912 43.2373 111.888 43.1646C111.864 43.0918 111.84 43.019 111.815 42.9463L111.791 42.825C111.767 42.7522 111.767 42.7037 111.743 42.6309C111.718 42.5582 111.694 42.4854 111.67 42.4126L111.621 42.3156C111.597 42.2428 111.597 42.1943 111.549 42.1458C111.525 42.073 111.476 42.0245 111.452 41.9518L111.403 41.8548C111.379 41.782 111.331 41.7335 111.306 41.6607C111.282 41.588 111.234 41.5394 111.209 41.4667L111.161 41.3697C111.137 41.2969 111.088 41.2484 111.04 41.1999C110.991 41.1514 110.943 41.0544 110.894 41.0059L110.821 40.9331C110.773 40.8846 110.773 40.8361 110.724 40.7876C110.506 40.5208 110.239 40.254 109.948 40.0115C109.9 39.963 109.876 39.9388 109.803 39.9146L109.73 39.8418C109.682 39.7933 109.584 39.7448 109.536 39.6963C109.487 39.6478 109.415 39.6236 109.366 39.5751L109.269 39.5266C109.221 39.4781 109.148 39.4538 109.075 39.4296C109.002 39.4054 108.954 39.3568 108.881 39.3326L108.808 39.2599C108.736 39.2356 108.687 39.1871 108.614 39.1629C108.542 39.1386 108.469 39.1144 108.445 39.0901L108.348 39.0417C108.275 39.0174 108.202 38.9932 108.129 38.9689C108.056 38.9447 108.008 38.9447 107.935 38.9205L107.814 38.8963C107.741 38.872 107.668 38.8478 107.596 38.8235C107.523 38.7993 107.426 38.7993 107.353 38.7751L107.232 38.7509C107.183 38.7509 107.11 38.7266 107.062 38.7267C106.892 38.7024 106.698 38.7025 106.504 38.7025L51.4624 38.7903C50.007 38.7907 48.6241 39.349 47.5807 40.3924C46.5373 41.4358 45.979 42.8187 45.9786 44.2741C45.9782 45.7296 46.5358 47.1122 47.5786 48.155C48.6214 49.1978 50.004 49.7554 51.4595 49.755L93.2804 49.7436L40.4076 102.616C38.2723 104.752 38.2714 108.245 40.4055 110.379C42.5396 112.513 46.0328 112.512 48.1681 110.377L101.041 57.504L101.029 99.5675C101.029 101.023 101.587 102.406 102.629 103.448C103.672 104.491 105.055 105.049 106.51 105.048C107.966 105.048 109.349 104.49 110.392 103.446C111.435 102.403 111.994 101.02 111.994 99.5645Z" fill="black"/>
</svg>
